<?xml version="1.0" encoding="UTF-8"?>
<svg width="793px" height="569px" viewBox="0 0 793 569" version="1.1" xmlns="http://www.w3.org/2000/svg" xmlns:xlink="http://www.w3.org/1999/xlink">
    <!-- Generator: Sketch 60.1 (88133) - https://sketch.com -->
    <title>编组 139</title>
    <desc>Created with Sketch.</desc>
    <defs>
        <path d="M662.981885,329.41972 C612.145054,405.111807 525.597319,442.95785 403.338679,442.95785 C219.950719,442.95785 77.2262556,354.580664 48.8591235,329.41972 C20.4919914,304.258777 0,267.516707 0,230.302509 C0,193.08831 26.5227832,177.664184 42.2473351,159.269589 C57.971887,140.874994 61.2796957,128.932857 61.085522,83.2695888 C60.8913482,37.6063208 106.981447,14.1058197 142.342618,4.15673451 C177.70379,-5.79235064 216.670206,1.28271328 279.501709,34.4848038 C342.333212,67.6868944 346.826847,103.661383 432.533018,90.9140671 C518.239189,78.1667508 533.173271,40.0677092 593.572828,49.8203271 C653.972384,59.5729449 700.769707,122.417151 700.769707,196.449397 C700.769707,245.804228 688.173766,290.127669 662.981885,329.41972 Z" id="path-1"></path>
        <linearGradient x1="0%" y1="50%" x2="100%" y2="50%" id="linearGradient-3">
            <stop stop-color="#F79122" offset="0%"></stop>
            <stop stop-color="#F28815" offset="100%"></stop>
        </linearGradient>
        <path d="M3.53184776,0 L61.4681522,0 C63.1250065,4.9985658e-15 64.4681522,1.34314575 64.4681522,3 C64.4681522,3.16257855 64.4549364,3.32488807 64.4286352,3.48532508 L55.4122418,58.4853251 C55.1745077,59.9355031 53.921294,61 52.4517588,61 L12.5482412,61 C11.078706,61 9.82549232,59.9355031 9.58775821,58.4853251 L0.571364767,3.48532508 C0.303327126,1.85029547 1.41149307,0.307554646 3.04652268,0.0395170047 C3.20695969,0.0132158559 3.36926922,-1.30240244e-15 3.53184776,0 Z" id="path-4"></path>
        <path d="M-1.42108547e-14,115.48446 C1.32743544,94.0102656 2.89289856,78.9508436 4.69638937,70.3061937 C8.43003277,52.4097675 15.5176097,37.8448008 19.4787027,30.195863 C29.7253967,10.409323 39.7215535,5.31301339 44.6820442,2.63347577 C49.6425348,-0.0460618448 60.3007481,-1.62222357 66.327433,2.63347577 C72.3541179,6.88917511 74.5668372,13.0533931 73.7454921,23.1564165 C72.924147,33.2594398 65.469448,39.1497458 58.0193289,42.7343523 C50.5692098,46.3189588 31.0128594,60.1734323 19.4787027,74.1118722 C11.7892649,83.4041655 5.29636401,97.195028 -1.42108547e-14,115.48446 Z" id="path-6"></path>
        <path d="M0,61.382873 C12.627563,35.4721831 22.8842273,18.9178104 30.7699929,11.7197549 C42.5986412,0.922671591 57.9238693,-1.5327187 66.3547392,0.814866828 C74.7856091,3.16245236 78.9526569,14.6315037 74.3469666,21.3628973 C69.7412762,28.0942909 65.4378728,28.0568843 50.8423324,30.6914365 C36.246792,33.3259886 29.5659376,36.8930178 23.8425136,39.4010039 C21.5824174,40.3913708 15.331987,43.4769377 10.1725242,48.4356558 C7.80517763,50.7108935 4.41433624,55.0266325 0,61.382873 Z" id="path-8"></path>
        <path d="M-2.08995462,65.6474954 C12.5975781,38.2270573 23.8842273,20.9178104 31.7699929,13.7197549 C43.5986412,2.92267159 58.9238693,0.467281299 67.3547392,2.81486683 C75.7856091,5.16245236 79.9526569,16.6315037 75.3469666,23.3628973 C70.7412762,30.0942909 66.4378728,30.0568843 51.8423324,32.6914365 C37.246792,35.3259886 30.5659376,38.8930178 24.8425136,41.4010039 C22.5824174,42.3913708 13.2420323,47.7415601 8.08256956,52.7002782 C5.71522301,54.9755159 2.32438162,59.2912549 -2.08995462,65.6474954 Z" id="path-10"></path>
        <path d="M70.3618111,117.305105 C65.1514723,93.5149533 59.5592828,76.7727476 53.5852425,67.0784883 C44.6241821,52.5370993 33.2521675,43.1631445 21.9273327,38.7089848 C10.6024978,34.2548251 1.37005489,28.3143707 0.166250333,19.5991494 C-1.03755422,10.8839281 4.30184276,1.89650161 15.9982131,0.359853321 C27.6945835,-1.17679496 39.680528,1.89650161 50.3232751,15.6556441 C60.9660221,29.4147866 71.7898492,71.0503233 71.7898492,87.5111312 C71.7898492,98.4850031 71.3138365,108.416328 70.3618111,117.305105 Z" id="path-12"></path>
        <path d="M40.4361627,109.727577 C42.2080966,71.0333394 41.2052946,44.753324 37.4277569,30.8875312 C31.7614504,10.088842 22.8541813,-1.27827958 11.3728741,0.114578571 C-0.108432993,1.50743672 -2.5866861,11.539269 2.54272088,19.2423116 C7.67212787,26.9453541 22.1964111,48.5363293 27.3543068,61.4631547 C30.7929039,70.0810384 35.1535225,86.1691793 40.4361627,109.727577 Z" id="path-14"></path>
        <path d="M86.8630745,43.7959111 C72.5806324,23.5140129 56.8667378,10.125403 39.7213908,3.6300812 C14.0033702,-6.11290144 -7.10542736e-15,5.90110838 -7.10542736e-15,14.52167 C-7.10542736e-15,23.1422316 6.80949202,28.0268155 17.0489556,28.0268155 C27.2884192,28.0268155 43.7234658,26.0070237 58.8280258,34.5737997 C68.8977326,40.2849837 79.1842128,49.927944 89.6874666,63.5026805 L86.8630745,43.7959111 Z" id="path-16"></path>
        <path d="M1.39570376,12.1982304 L8.63382254,64.616572 C9.78282924,71.2605745 12.79125,74.0624448 17.6590848,73.0221828 C22.4697433,71.9941394 69.336003,60.2016362 158.257864,37.6446732 L158.257866,37.6446807 C159.863858,37.237286 160.835512,35.6051137 160.428118,33.9991219 C160.40243,33.8978566 160.371469,33.7980024 160.335363,33.6999672 C157.799395,26.8142832 155.300502,21.9046745 152.838683,18.9711411 C148.607879,13.9296638 139.206546,10.7553504 125.602433,11.3477509 C111.99832,11.9401515 106.979213,16.7783144 90.0017578,13.6921638 C78.6834542,11.6347301 67.2766743,7.27546559 55.781418,0.614370265 L1.39570376,12.1982304 Z" id="path-18"></path>
        <path d="M5.11509597,8.21110294 C-0.371231743,11.5912797 0.211938603,13.7317784 6.86460701,14.6325991 C16.8436096,15.9838302 39.6649161,12.8657431 50.7353867,7.02810104 C58.1157004,3.13633968 58.9103901,0.908727621 53.1194559,0.345264869 C45.5588585,-0.201105081 36.7174411,0.408088417 26.5952037,2.17284536 C16.4729663,3.93760231 9.31293036,5.95035483 5.11509597,8.21110294 Z" id="path-20"></path>
        <path d="M1.39536589,12.2604268 L8.63173254,64.9257891 C9.78046109,71.6011014 12.7881536,74.4161754 17.65481,73.3710112 C22.4644701,72.3380876 69.3224561,60.4892294 158.228768,37.8244368 L158.228766,37.8244277 C159.834266,37.4151392 160.803988,35.78183 160.394699,34.1763295 C160.369625,34.0779739 160.339576,33.9809541 160.304667,33.8856446 C157.766528,26.9558875 155.265534,22.0157576 152.801685,19.0652548 C148.571906,14.0000196 139.172848,10.8107473 125.572028,11.4059395 C111.971209,12.0011318 106.953316,16.8620944 89.9799709,13.7614004 C78.6644072,11.6942711 67.2603885,7.3144636 55.7679149,0.621977962 L1.39536589,12.2604268 Z" id="path-22"></path>
        <path d="M5.11385775,8.25451013 C-0.371141878,11.6506159 0.211887298,13.8012017 6.86294528,14.7062675 C16.8395323,16.0638663 39.6553144,12.9310852 50.7231051,7.06593335 C58.1016322,3.15583212 58.8961296,0.917722473 53.1065971,0.35160441 C45.54783,-0.1973403 36.7085529,0.414724013 26.5887657,2.18779735 C16.4689786,3.96087068 9.31067596,5.98310828 5.11385775,8.25451013 Z" id="path-24"></path>
        <path d="M3.55271368e-14,13.6880787 L4.73285656,30.1680411 C10.4535557,30.6255064 17.8620486,30.0681574 26.9583353,28.4959943 C36.054622,26.9238311 42.6493505,24.8613131 46.742521,22.30844 L38.9608327,-4.47641924e-13 L3.55271368e-14,13.6880787 Z" id="path-26"></path>
        <path d="M46.8331984,15.8547714 L19.6720283,0.675531684 C10.3534794,11.2677951 3.87953744,22.0674859 0.250202458,33.0746039 L31.0525319,51.9983073 L46.8331984,15.8547714 Z" id="path-28"></path>
        <path d="M32.2887767,9.23705556e-14 L82.1187004,23.6172251 C102.252606,43.4470778 112.319558,64.2255108 112.319558,85.952524 C98.629945,90.189682 88.2929313,90.9735612 81.3085172,88.3041617 C74.3241031,85.6347621 47.221264,73.3149628 0,51.3447638 L32.2887767,9.23705556e-14 Z" id="path-30"></path>
        <path d="M3.9653098,3.66341835 C-2.19666665,25.34158 0.0017198039,44.1518708 10.5604692,60.0942907 C26.3985932,84.0079205 59.4550892,135.130299 62.1411465,145.387685 C63.9318514,152.225943 73.0366765,184.673601 89.4556219,242.730658 L152.897738,223.155458 L124.36984,129.035493 C119.685935,115.800156 115.881914,105.919201 112.957775,99.3926282 C110.033636,92.8660558 104.489091,80.9019279 96.324141,63.5002445 C90.0230041,39.3067003 86.1344654,24.2942287 84.6585249,18.4628296 C82.4446142,9.71573108 80.522472,4.04512007 80.522472,1.06829839 C80.522472,-0.916249399 55.0034179,-0.0512094106 3.9653098,3.66341835 Z" id="path-32"></path>
        <path d="M122.12928,12.6047974 L104.33177,18.1150269 C100.121789,19.3803263 96.0527572,20.0129761 92.1246742,20.0129761 C88.1965913,20.0129761 75.0875721,19.1283895 52.7976165,17.3592163 C47.5019313,16.689506 43.881974,15.7296753 41.9377446,14.4797241 C39.9935153,13.2297729 30.9988129,8.97604574 14.9536375,1.71854248 C9.55417448,-0.572847493 5.64326204,-0.572847493 3.2209002,1.71854248 C-0.412642559,5.15562744 3.69469289,8.63005371 7.3361605,10.006488 C9.76380558,10.9241109 14.5611689,13.3750203 21.7282503,17.3592163 C22.1307194,18.7699504 21.403709,19.0218872 19.547219,18.1150269 C16.762484,16.7547363 13.7281164,14.7158447 10.5321384,15.7352905 C7.3361605,16.7547363 7.37719989,21.5529541 8.05166106,21.9797119 C8.72612222,22.4064697 -2.32592727,26.4334351 0.447486468,32.1679932 C3.2209002,37.9025513 12.7075092,31.1816772 17.8473391,27.6370605 C14.7770266,31.3481689 13.1935665,34.5744954 13.0969589,37.31604 C12.9520474,41.4283569 17.8111112,45.3918701 21.7282503,41.3539551 C22.9960373,43.6387939 24.5124192,44.7812134 26.2773961,44.7812134 C28.9248613,44.7812134 30.6479497,43.7157227 30.249443,36.2746948 C34.4977276,39.2578817 38.507795,40.7494751 42.2796452,40.7494751 C47.9374205,40.7494751 81.4702823,44.7812134 84.300019,44.7812134 C87.1297558,44.7812134 95.8006715,46.0783325 106.507707,43.4139038 C113.645731,41.637618 121.648695,38.8592 130.5166,35.0786499 L122.12928,12.6047974 Z" id="path-34"></path>
        <path d="M0,86.9176827 L29.9481316,86.9176827 C33.7512652,86.7701404 35.9330748,84.7039833 36.4935602,80.7192116 C37.3342884,74.742054 37.4320736,43.442852 37.383181,41.9317665 C37.3342884,40.420681 34.4662026,28.7969246 29.4622964,19.1711998 C24.4583901,9.54547503 32.5799031,-1.01208112 36.4935602,0.0778312919 C40.4072173,1.16774371 39.4495965,5.06472399 38.8420917,6.23847582 C38.2345869,7.41222765 36.5317751,12.7288323 37.383181,13.3560753 C37.9507849,13.7742373 45.7606777,20.6247928 60.8128593,33.9077416 L60.8128593,83.5460396 C60.2864675,93.3079211 58.5120965,99.7700488 55.4897461,102.932423 C50.9562205,107.675983 41.7377147,110.818974 35.6000055,110.818974 C31.5081994,110.818974 19.6415309,110.818974 0,110.818974 L0,86.9176827 Z" id="path-36"></path>
        <path d="M3.34661639,0.18297723 C3.46976575,6.74021882 2.64014275,10.7499469 0.857747396,12.2121614 C3.38763503,17.2711308 7.27693082,19.4072673 12.5256348,18.6205711 C17.7743387,17.8338749 20.2489119,14.8962486 19.9493544,9.80769231 C17.6050317,10.1959782 16.4328704,8.50338363 16.4328704,4.72990857 C16.4328704,0.95643351 15.9981102,-0.55921027 15.1285898,0.18297723 L3.34661639,0.18297723 Z" id="path-38"></path>
        <path d="M21.2189627,3.34237906 C22.7087148,11.2243652 22.7087148,16.6981858 21.2189627,19.7638409 C18.9843345,24.3623235 10.3489766,24.2147864 5.28336154,19.3852351 C2.8437336,18.1135442 1.33398606,16.9315279 0.754118916,15.8391864 C0.174251777,14.746845 -0.0712060022,13.0978628 0.0177455796,10.8922401 L1.99336769,4.99793419 L6.78105576,1.77950346 L13.8493428,1.26314603 L20.4217621,-4.61852778e-14 L21.2189627,3.34237906 Z" id="path-40"></path>
        <path d="M50.5405002,4.40179856 C41.3226846,5.2915028 33.964369,6.79556251 28.4655536,8.91397769 C23.1898842,10.946426 14.596878,14.6389838 2.68653502,19.9916513 C1.80186392,20.3892522 1.32997286,21.3642965 1.56706474,22.3047841 L8.59745874,50.1926989 C8.8674672,51.2637588 9.95461786,51.9131393 11.0256777,51.6431308 C11.079339,51.6296031 11.1324157,51.613854 11.1847708,51.5959241 L24.7740569,46.9420539 L24.7740569,46.9420539 L21.9127345,78.1372124 C21.8118433,79.2371646 22.6217422,80.2106405 23.7216943,80.3115317 C23.7930112,80.3180731 23.8646278,80.3207792 23.9362349,80.3196384 L100.214541,79.1043385 C101.31897,79.0867422 102.200022,78.1771607 102.182426,77.0727314 C102.181719,77.0283669 102.179536,76.9840383 102.175881,76.939819 L98.5084816,32.5766451 L98.5084816,32.5766451 L121.372199,33.4387624 C122.475985,33.4803826 123.404519,32.6193278 123.446139,31.5155427 C123.447086,31.4904339 123.447559,31.4653094 123.447559,31.4401827 L123.447559,5.10558801 C123.447544,4.05594985 122.636103,3.18489987 121.589097,3.11061793 C90.5880419,0.911186788 73.1311391,0.569021736 69.2183883,2.08412278 C68.2418258,7.31292439 65.5713493,10.077524 61.2069589,10.3779216 C56.8425685,10.6783192 53.2870822,8.68627819 50.5405002,4.40179856 Z" id="path-42"></path>
    </defs>
    <g id="页面-1" stroke="none" stroke-width="1" fill="none" fill-rule="evenodd">
        <g id="画板" transform="translate(-436.000000, -2255.000000)">
            <g id="编组-139" transform="translate(405.000000, 2249.000000)">
                <g id="1" transform="translate(122.332298, 91.000000)">
                    <g id="编组-68">
                        <mask id="mask-2" fill="white">
                            <use xlink:href="#path-1"></use>
                        </mask>
                        <use id="路径-244" fill="#F3F7FF" xlink:href="#path-1"></use>
                        <rect id="矩形" fill="#D0DEFE" mask="url(#mask-2)" x="44" y="345" width="613" height="108"></rect>
                        <rect id="矩形" fill="#C4D6FF" mask="url(#mask-2)" x="44" y="345" width="613" height="17"></rect>
                        <polygon id="路径-390" fill="#F3F7FF" mask="url(#mask-2)" points="70.5183061 345 627.913525 57 707.269531 108.574853 707.269531 355 657 345"></polygon>
                    </g>
                    <path d="M211.679653,4.17544529 L389.415331,4.17544529 C399.850737,4.17544529 408.850406,11.5065815 410.960765,21.7263701 L488.678827,398.089844 L488.678827,398.089844 L489.368344,403.275972 C490.969678,415.320251 482.503999,426.382207 470.45972,427.983541 C469.498515,428.111338 468.529911,428.175445 467.560247,428.175445 L275.468117,428.175445 C264.723347,428.175445 255.550456,420.414015 253.771679,409.817504 L189.983216,29.8175043 C187.971762,17.8348927 196.054982,6.49046132 208.037594,4.47900766 C209.241093,4.27698301 210.459315,4.17544529 211.679653,4.17544529 Z" id="矩形" fill="#6EA0FD"></path>
                    <path d="M220.700438,4.17544529 L394.514752,4.17544529 C405.059338,4.17544529 414.121091,11.6571895 416.117035,22.0111497 L487.635108,393.01115 C489.934984,404.941761 482.127731,416.477852 470.19712,418.777729 C468.824805,419.042271 467.430405,419.175445 466.032824,419.175445 L283.278752,419.175445 C272.540535,419.175445 263.371227,411.423243 261.585191,400.8346 L199.006877,29.8346001 C196.985982,17.8535773 205.060261,6.50277979 217.041283,4.48188437 C218.250331,4.2779486 219.474312,4.17544529 220.700438,4.17544529 Z" id="矩形" fill="#A4C3FC"></path>
                    <path d="M215.631526,16.6754453 L398.69978,16.6754453 C401.086575,16.6754453 403.140576,18.3624227 403.604444,20.703709 L478.495677,398.703709 C479.032352,401.41248 477.271521,404.043434 474.56275,404.580109 C474.242723,404.643514 473.91726,404.675445 473.591013,404.675445 L281.892026,404.675445 C279.463663,404.675445 277.386398,402.930636 276.967118,400.538744 L210.706618,22.5387438 C210.229832,19.8187924 212.048276,17.2273242 214.768228,16.7505376 C215.053278,16.7005704 215.342129,16.6754453 215.631526,16.6754453 Z" id="矩形" fill="#FFFFFF"></path>
                    <path d="M285.532932,298 L437.532932,298 C439.189786,298 440.761588,299.343146 441.043649,301 L455.854443,388 C456.136504,389.656854 455.022014,391 453.36516,391 L301.36516,391 C299.708306,391 298.136504,389.656854 297.854443,388 L283.043649,301 C282.761588,299.343146 283.876078,298 285.532932,298 Z" id="矩形" fill="#DDE9FF"></path>
                    <path d="M250.569104,56.1754453 L401.569104,56.1754453 C402.949816,56.1754453 404.255354,57.2947334 404.485105,58.6754453 C404.714856,60.0561572 403.781819,61.1754453 402.401107,61.1754453 L251.401107,61.1754453 C250.020395,61.1754453 248.714856,60.0561572 248.485105,58.6754453 C248.255354,57.2947334 249.188392,56.1754453 250.569104,56.1754453 Z" id="矩形" fill="#DDE9FF"></path>
                    <path d="M253.564314,74.1754453 L404.564314,74.1754453 C405.945026,74.1754453 407.250564,75.2947334 407.480316,76.6754453 C407.710067,78.0561572 406.777029,79.1754453 405.396317,79.1754453 L254.396317,79.1754453 C253.015605,79.1754453 251.710067,78.0561572 251.480316,76.6754453 C251.250564,75.2947334 252.183602,74.1754453 253.564314,74.1754453 Z" id="矩形" fill="#DDE9FF"></path>
                    <path d="M256.725925,93.1754453 L376.725925,93.1754453 C378.106637,93.1754453 379.412175,94.2947334 379.641927,95.6754453 C379.871678,97.0561572 378.93864,98.1754453 377.557928,98.1754453 L257.557928,98.1754453 C256.177216,98.1754453 254.871678,97.0561572 254.641927,95.6754453 C254.412175,94.2947334 255.345213,93.1754453 256.725925,93.1754453 Z" id="矩形" fill="#DDE9FF"></path>
                    <path d="M275.029989,203.175445 L426.029989,203.175445 C427.4107,203.175445 428.716239,204.294733 428.94599,205.675445 C429.175741,207.056157 428.242703,208.175445 426.861991,208.175445 L275.861991,208.175445 C274.48128,208.175445 273.175741,207.056157 272.94599,205.675445 C272.716239,204.294733 273.649277,203.175445 275.029989,203.175445 Z" id="矩形" fill="#DDE9FF"></path>
                    <path d="M278.025199,221.175445 L429.025199,221.175445 C430.405911,221.175445 431.711449,222.294733 431.9412,223.675445 C432.170952,225.056157 431.237914,226.175445 429.857202,226.175445 L278.857202,226.175445 C277.47649,226.175445 276.170952,225.056157 275.9412,223.675445 C275.711449,222.294733 276.644487,221.175445 278.025199,221.175445 Z" id="矩形" fill="#DDE9FF"></path>
                    <path d="M281.18681,240.175445 L391.18681,240.175445 C392.567522,240.175445 393.87306,241.294733 394.102811,242.675445 C394.332563,244.056157 393.399525,245.175445 392.018813,245.175445 L282.018813,245.175445 C280.638101,245.175445 279.332563,244.056157 279.102811,242.675445 C278.87306,241.294733 279.806098,240.175445 281.18681,240.175445 Z" id="矩形" fill="#DDE9FF"></path>
                    <path d="M285.346824,265.175445 L395.346824,265.175445 C396.727536,265.175445 398.033074,266.294733 398.262826,267.675445 C398.492577,269.056157 397.559539,270.175445 396.178827,270.175445 L286.178827,270.175445 C284.798115,270.175445 283.492577,269.056157 283.262826,267.675445 C283.033074,266.294733 283.966112,265.175445 285.346824,265.175445 Z" id="矩形" fill="#DDE9FF"></path>
                    <g id="bingzhuangtu" transform="translate(512.678827, 198.175445)">
                        <path d="M3.78474401,0 L79.784744,0 C81.993883,0 84.205603,1.790861 84.7247589,4 L99.0599852,65 C99.579141,67.209139 98.209139,69 96,69 L20,69 C17.790861,69 15.579141,67.209139 15.0599852,65 L0.724758852,4 C0.205602991,1.790861 1.57560501,0 3.78474401,0 Z" id="矩形" fill="#FFFFFF"></path>
                        <path d="M79.784744,0 C81.993883,0 84.205603,1.790861 84.7247589,4 L99.0599852,65 C99.579141,67.209139 98.209139,69 96,69 L20,69 C17.790861,69 15.579141,67.209139 15.0599852,65 L0.724758852,4 C0.205602991,1.790861 1.57560501,0 3.78474401,0 L79.784744,0 Z M79.784744,1 L3.78474401,1 C2.28434125,1 1.39011997,2.09887522 1.66307857,3.60252579 L1.69823901,3.77122855 L16.0334653,64.7712286 C16.4326456,66.4698412 18.1318365,67.8948213 19.8133095,67.994439 L20,68 L96,68 C97.5004028,68 98.394624,66.9011248 98.1216654,65.3974742 L98.086505,65.2287714 L83.7512787,4.22877145 C83.3520984,2.53015876 81.6529075,1.10517872 79.9714345,1.00556103 L79.784744,1 Z" id="矩形" fill="#C9DCFF" fill-rule="nonzero"></path>
                        <path d="M56.354974,62 C43.10014,62 29.8298202,51.254834 26.714885,38 C23.5999498,24.745166 31.819962,14 45.074796,14 L46.7890817,14 L52.0263072,36.2857143 L74.3120215,36.2857143 L74.714885,38 C77.8298202,51.254834 69.609808,62 56.354974,62 Z M44.1662372,17.4285714 C33.53405,18.3780836 27.476029,27.6277726 30.3525896,38.5199385 C33.2291503,49.4121044 44.0422465,58.1676215 55.008876,58.4844828 C65.9755055,58.8013441 73.2907069,50.5696119 71.6891771,39.7142857 L49.4034628,39.7142857 L44.1662372,17.4285714 Z" id="形状" fill="#FFBB3C" fill-rule="nonzero"></path>
                        <path d="M79.5398664,33 L54.5398664,33 L48.6647737,8 L50.3314404,8 C63.2180845,8 76.1197844,18.4466892 79.1481936,31.3333333 L79.5398664,33 Z M57.0898541,29.6666667 L75.4231874,29.6666667 C72.3384174,19.8855692 62.7473044,12.1195091 52.7814527,11.3333333 L57.0898541,29.6666667 Z" id="形状" fill="#FFBB3C" fill-rule="nonzero"></path>
                    </g>
                    <g id="编组" transform="translate(400.678827, 237.175445)">
                        <path d="M4.36758598,2 L158.079319,2 C159.74881,2 161.436616,3.35267161 161.84914,5.0212766 L177.908354,69.9787234 C178.320878,71.6473284 177.301905,73 175.632414,73 L21.920681,73 C20.2511901,73 18.5633839,71.6473284 18.1508602,69.9787234 L2.09164566,5.0212766 C1.67912198,3.35267161 2.69809517,2 4.36758598,2 Z" id="矩形" fill="#FFE5B3"></path>
                        <path d="M2.36758598,0 L156.079319,0 C157.74881,0 159.436616,1.35267161 159.84914,3.0212766 L175.908354,67.9787234 C176.320878,69.6473284 175.301905,71 173.632414,71 L19.920681,71 C18.2511901,71 16.5633839,69.6473284 16.1508602,67.9787234 L0.0916456639,3.0212766 C-0.320878024,1.35267161 0.698095166,0 2.36758598,0 Z" id="矩形" fill="#C9DCFF"></path>
                        <path d="M12.1681605,10 L19.1769621,10 C20.0006843,10 20.8334433,10.6649618 21.0369814,11.4852338 L32.9547823,59.5147662 C33.1583203,60.3350382 32.6555617,61 31.8318395,61 L24.8230379,61 C23.9993157,61 23.1665567,60.3350382 22.9630186,59.5147662 L11.0452177,11.4852338 C10.8416797,10.6649618 11.3444383,10 12.1681605,10 Z" id="矩形" fill="#F8F8FA"></path>
                        <path d="M37.1681605,10 L44.1769621,10 C45.0006843,10 45.8334433,10.6649618 46.0369814,11.4852338 L57.9547823,59.5147662 C58.1583203,60.3350382 57.6555617,61 56.8318395,61 L49.8230379,61 C48.9993157,61 48.1665567,60.3350382 47.9630186,59.5147662 L36.0452177,11.4852338 C35.8416797,10.6649618 36.3444383,10 37.1681605,10 Z" id="矩形备份-16" fill="#F8F8FA"></path>
                        <path d="M63.1681605,10 L70.1769621,10 C71.0006843,10 71.8334433,10.6649618 72.0369814,11.4852338 L83.9547823,59.5147662 C84.1583203,60.3350382 83.6555617,61 82.8318395,61 L75.8230379,61 C74.9993157,61 74.1665567,60.3350382 73.9630186,59.5147662 L62.0452177,11.4852338 C61.8416797,10.6649618 62.3444383,10 63.1681605,10 Z" id="矩形备份-17" fill="#F8F8FA"></path>
                        <path d="M88.1681605,10 L95.1769621,10 C96.0006843,10 96.8334433,10.6649618 97.0369814,11.4852338 L108.954782,59.5147662 C109.15832,60.3350382 108.655562,61 107.83184,61 L100.823038,61 C99.9993157,61 99.1665567,60.3350382 98.9630186,59.5147662 L87.0452177,11.4852338 C86.8416797,10.6649618 87.3444383,10 88.1681605,10 Z" id="矩形备份-17" fill="#F8F8FA"></path>
                        <path d="M114.16816,10 L121.176962,10 C122.000684,10 122.833443,10.6649618 123.036981,11.4852338 L134.954782,59.5147662 C135.15832,60.3350382 134.655562,61 133.83184,61 L126.823038,61 C125.999316,61 125.166557,60.3350382 124.963019,59.5147662 L113.045218,11.4852338 C112.84168,10.6649618 113.344438,10 114.16816,10 Z" id="矩形备份-17" fill="#F8F8FA"></path>
                        <path d="M140.16816,10 L147.176962,10 C148.000684,10 148.833443,10.6649618 149.036981,11.4852338 L160.954782,59.5147662 C161.15832,60.3350382 160.655562,61 159.83184,61 L152.823038,61 C151.999316,61 151.166557,60.3350382 150.963019,59.5147662 L139.045218,11.4852338 C138.84168,10.6649618 139.344438,10 140.16816,10 Z" id="矩形备份-17" fill="#F8F8FA"></path>
                        <path d="M152.0515,13.0763828 C152.603052,13.1048256 153.027116,13.5750041 153.000024,14.1265559 C152.97023,14.6781078 152.500052,15.1021715 151.9485,15.0737288 L150.87821,15.0268958 C138.570172,14.5875778 132.456196,17.9036438 126.287915,25.8178524 L123.990756,28.8612251 C119.097231,35.3456815 115.516484,37.9086003 108.762576,38.0938806 C100.471606,38.3213271 88.2789342,34.0251095 69.8949723,24.0187578 C62.5951891,20.6886305 57.6419116,20.3000482 54.1075711,22.2906148 C51.4527459,23.7858318 49.7259522,26.2285673 47.2338431,31.4500942 L45.3521493,35.4713197 C42.415953,41.6390678 39.8913613,45.2264183 35.9216511,47.8140715 C30.8437063,51.1241269 24.0384341,51.9264858 14.7854565,49.8939919 C14.246032,49.7755028 13.9047965,49.2421585 14.0232856,48.702734 C14.1417747,48.1633095 14.675119,47.822074 15.2145435,47.9405631 C23.980341,49.8660438 30.2442111,49.1275175 34.829497,46.1386016 C38.3102976,43.8696438 40.6209035,40.6628485 43.3082028,35.1079202 L43.7384718,34.2062004 L45.0216028,31.4516551 L45.4277622,30.5908267 C48.0955795,24.998761 49.998332,22.3095796 53.1261124,20.5479907 C57.3111211,18.190963 62.900024,18.6294098 70.7879841,22.2305788 L72.0595743,22.9187148 C89.5071133,32.3077717 101.045135,36.304841 108.70773,36.0946327 C114.602997,35.9329076 117.707548,33.7903907 122.127521,28.0078108 L124.436552,24.9426525 C131.24868,16.0611499 138.133828,12.3586684 152.0515,13.0763828 Z" id="路径-41" fill="#F79122" fill-rule="nonzero"></path>
                        <line x1="93" y1="10" x2="106" y2="62" id="路径-43" stroke="#DFDFE9" stroke-dasharray="4"></line>
                        <path d="M100.063044,43 C103.546689,43 105.670943,40.3137085 104.807697,37 C103.944452,33.6862915 100.420601,31 96.9369556,31 C93.4533106,31 91.3290572,33.6862915 92.1923028,37 C93.0555484,40.3137085 96.5793994,43 100.063044,43 Z" id="椭圆形" fill="#FFFFFF" opacity="0.5"></path>
                        <path d="M99.3416393,40 C101.217448,40 102.361277,38.4329966 101.896452,36.5 C101.431628,34.5670034 99.5341696,33 97.6583607,33 C95.7825519,33 94.6387231,34.5670034 95.1035477,36.5 C95.5683722,38.4329966 97.4658304,40 99.3416393,40 Z" id="椭圆形" fill="#FFFFFF"></path>
                        <path d="M98.2404684,37 C98.7764137,37 99.103222,36.5522847 98.970415,36 C98.8376079,35.4477153 98.295477,35 97.7595316,35 C97.2235863,35 96.896778,35.4477153 97.029585,36 C97.1623921,36.5522847 97.704523,37 98.2404684,37 Z" id="椭圆形" fill="url(#linearGradient-3)"></path>
                    </g>
                    <g id="编组-64" transform="translate(299.678827, 120.175445)">
                        <path d="M4.18136513,4 L174.955364,4 C176.02108,4 177.0691,4.76277413 177.296183,5.7037037 L187.575434,48.2962963 C187.802517,49.2372259 187.12267,50 186.056954,50 L15.2829557,50 C14.2172396,50 13.1692189,49.2372259 12.942136,48.2962963 L2.66288545,5.7037037 C2.43580252,4.76277413 3.11564903,4 4.18136513,4 Z" id="矩形" fill="#FFE5B3"></path>
                        <path d="M2.29215308,0 L171.219946,0 C172.274141,0 173.310832,0.76277413 173.53546,1.7037037 L183.703583,44.2962963 C183.928211,45.2372259 183.255714,46 182.20152,46 L13.2737265,46 C12.2195316,46 11.1828409,45.2372259 10.9582129,44.2962963 L0.790089399,1.7037037 C0.565461417,0.76277413 1.23795823,0 2.29215308,0 Z" id="矩形" fill="#DFEAFF" transform="translate(92.246836, 23.000000) rotate(-360.000000) translate(-92.246836, -23.000000) "></path>
                        <path d="M49.381608,17.9828645 C48.5478681,16.6308234 47.5253346,15.3704534 46.3503226,14.2465163 L47.9658362,9.88865358 C48.2744405,9.05517414 47.758756,7.98973177 46.8137269,7.50831079 L40.3805513,4.23374216 C39.4352753,3.75256904 38.4185102,4.03810765 38.1095067,4.87152065 L36.4718561,9.2895019 C35.0036397,9.07603843 33.5564873,9.07603843 32.1792405,9.2895019 L28.6588218,4.87152065 C27.9946509,4.03810768 26.8562006,3.75256906 26.1159814,4.23374216 L21.0782349,7.50802036 C20.3383684,7.98944136 20.2767331,9.05488372 20.9405332,9.88836315 L24.4131329,14.2459355 C23.7171401,15.3699908 23.231749,16.6304537 22.9741925,17.9825741 L17.9397594,17.9825741 C16.9666133,17.9825741 16.3439618,18.7627467 16.5490283,19.7251383 L17.9445813,26.2745661 C18.1496478,27.2369577 19.1047779,28.0171303 20.0779241,28.0171303 L24.9664018,28.0171303 C25.802064,29.4459207 26.8482315,30.7801151 28.0642086,31.9678139 L26.5284226,36.1113413 C26.2194608,36.9447755 26.7352695,38.0104743 27.6805319,38.491684 L34.1134758,41.7665431 C35.0587907,42.2473235 36.0753058,41.9617173 36.3844584,41.1284742 L37.8968561,37.0488409 C39.4995574,37.304417 41.0900894,37.304417 42.5838743,37.0488409 L45.8348497,41.1284742 C46.4990974,41.9617173 47.6373265,42.2473235 48.377752,41.7665431 L53.4153747,38.491684 C53.7710413,38.2607633 53.9853934,37.8801566 54.0112213,37.4336903 C54.0370492,36.9872239 53.8722345,36.5115172 53.5530764,36.1113413 L50.25119,31.9678139 C50.9611351,30.7801843 51.4387282,29.4459725 51.6653724,28.0171303 L56.5538502,28.0171303 C57.5269963,28.0171303 58.1496478,27.2369577 57.9445813,26.2745661 L56.5490902,19.7254288 C56.4506195,19.2632987 56.1706768,18.8200699 55.7706423,18.4932674 C55.3706078,18.1664648 54.8833354,17.9828645 54.4160411,17.9828645 L49.381608,17.9828645 Z M38.951626,31 C34.540118,31 30.1867952,27.4112927 29.2468363,23 C28.3068775,18.5887073 31.1308359,15 35.5423438,15 C39.9535546,15 44.3068775,18.5887073 45.2468363,23 C46.1867952,27.4112927 43.3628368,31 38.951626,31 Z" id="形状" fill="#FFBB3C" fill-rule="nonzero"></path>
                        <path d="M68.4767945,10 L162.476795,10 C163.581364,10 164.667593,10.8954305 164.902955,12 C165.138317,13.1045695 164.433685,14 163.329115,14 L69.3291151,14 C68.2245456,14 67.1383166,13.1045695 66.9029548,12 C66.667593,10.8954305 67.372225,10 68.4767945,10 Z" id="矩形" fill="#FFFFFF"></path>
                        <path d="M70.3945158,19 L164.394516,19 C165.499085,19 166.585314,19.8954305 166.820676,21 C167.056038,22.1045695 166.351406,23 165.246836,23 L71.2468363,23 C70.1422668,23 69.0560379,22.1045695 68.820676,21 C68.5853142,19.8954305 69.2899463,19 70.3945158,19 Z" id="矩形" fill="#FFFFFF"></path>
                        <path d="M72.7383973,30 L136.738397,30 C137.842967,30 138.929196,30.8954305 139.164558,32 C139.399919,33.1045695 138.695287,34 137.590718,34 L73.5907178,34 C72.4861483,34 71.3999194,33.1045695 71.1645575,32 C70.9291957,30.8954305 71.6338278,30 72.7383973,30 Z" id="矩形" fill="#FFFFFF"></path>
                    </g>
                    <g id="编组-65" transform="translate(471.678827, 26.175445)">
                        <path d="M9.92722268,9.82455471 L146.927223,9.82455471 C151.345501,9.82455471 155.617995,13.3772071 156.47034,17.7596258 L173.441815,105.045408 C174.293926,109.427827 171.402976,112.98048 166.984698,112.98048 L29.984698,112.98048 C25.56642,112.98048 21.2939259,109.427827 20.4415806,105.045408 L3.47010539,17.7596258 C2.6179948,13.3772071 5.50894468,9.82455471 9.92722268,9.82455471 Z" id="矩形" fill="#D0DEFE"></path>
                        <path d="M6.60604987,6.95130335 L143.60605,6.95130335 C148.024328,6.95130335 152.296822,10.5039557 153.149167,14.8863745 L170.120642,102.172157 C170.972753,106.554576 168.081803,110.107228 163.663525,110.107228 L26.6635252,110.107228 C22.2452472,110.107228 17.972753,106.554576 17.1204078,102.172157 L0.148932582,14.8863745 C-0.703178013,10.5039557 2.18777187,6.95130335 6.60604987,6.95130335 Z" id="矩形" fill="#FFFFFF"></path>
                        <path d="M6.60604987,6.95130335 L143.60605,6.95130335 C148.024328,6.95130335 152.296822,10.5039557 153.149283,14.8863745 L156.234698,30.7565168 L3.23469801,30.7565168 L0.148932582,14.8863745 C-0.703178013,10.5039557 2.18777187,6.95130335 6.60604987,6.95130335 Z" id="矩形" fill="#FFBB3C"></path>
                        <path d="M12.2060808,8.85391006 L138.477647,8.85391006 C142.549931,8.85391006 146.487847,11.5402016 147.273552,14.8539101 L150.117349,26.8539101 L9.09873867,26.8539101 L6.25461872,14.8539101 C5.46923668,11.5402016 8.13379704,8.85391006 12.2060808,8.85391006 Z" id="矩形" fill="#FFC964"></path>
                        <g id="编组-138" transform="translate(22.504795, 40.667240)" fill="#DDE9FF">
                            <path d="M1.65151247,8.8817842e-14 L23.6515125,8.8817842e-14 C24.756082,8.8817842e-14 25.8242055,0.88816309 26.0372918,1.98376778 L30.2801606,23.8052134 C30.4931883,24.9008181 29.7704508,25.7889812 28.6658813,25.7889812 L6.66588129,25.7889812 C5.56131179,25.7889812 4.49318826,24.9008181 4.28010194,23.8052134 L0.0372331455,1.98376778 C-0.175794503,0.88816309 0.546942967,8.8817842e-14 1.65151247,8.8817842e-14 Z" id="矩形"></path>
                            <path d="M32.8513671,1 L54.8513671,1 C55.9559366,1 57.0240601,1.88816309 57.2371464,2.98376778 L61.4800152,24.8052134 C61.6930429,25.9008181 60.9703054,26.7889812 59.8657359,26.7889812 L37.8657359,26.7889812 C36.7611664,26.7889812 35.6930429,25.9008181 35.4799566,24.8052134 L31.2370878,2.98376778 C31.0240601,1.88816309 31.7467976,1 32.8513671,1 Z" id="矩形"></path>
                            <path d="M63.6515125,8.8817842e-14 L85.6515125,8.8817842e-14 C86.756082,8.8817842e-14 87.8242055,0.88816309 88.0372918,1.98376778 L92.2801606,23.8052134 C92.4931883,24.9008181 91.7704508,25.7889812 90.6658813,25.7889812 L68.6658813,25.7889812 C67.5613118,25.7889812 66.4931883,24.9008181 66.2801019,23.8052134 L62.0372331,1.98376778 C61.8242055,0.88816309 62.546943,8.8817842e-14 63.6515125,8.8817842e-14 Z" id="矩形"></path>
                            <path d="M95.6515125,8.8817842e-14 L117.651512,8.8817842e-14 C118.756082,8.8817842e-14 119.824205,0.88816309 120.037292,1.98376778 L124.280161,23.8052134 C124.493188,24.9008181 123.770451,25.7889812 122.665881,25.7889812 L100.665881,25.7889812 C99.5613118,25.7889812 98.4931883,24.9008181 98.2801019,23.8052134 L94.0372331,1.98376778 C93.8242055,0.88816309 94.546943,8.8817842e-14 95.6515125,8.8817842e-14 Z" id="矩形"></path>
                            <path d="M8.01590367,32.7321684 L30.0159037,32.7321684 C31.1204732,32.7321684 32.1885967,33.6203315 32.401683,34.7159362 L36.6445518,56.5373819 C36.8575795,57.6329866 36.134842,58.5211496 35.0302725,58.5211496 L13.0302725,58.5211496 C11.925703,58.5211496 10.8575795,57.6329866 10.6444931,56.5373819 L6.40162435,34.7159362 C6.1885967,33.6203315 6.91133417,32.7321684 8.01590367,32.7321684 Z" id="矩形"></path>
                            <path d="M39.0159037,32.7321684 L61.0159037,32.7321684 C62.1204732,32.7321684 63.1885967,33.6203315 63.401683,34.7159362 L67.6445518,56.5373819 C67.8575795,57.6329866 67.134842,58.5211496 66.0302725,58.5211496 L44.0302725,58.5211496 C42.925703,58.5211496 41.8575795,57.6329866 41.6444931,56.5373819 L37.4016243,34.7159362 C37.1885967,33.6203315 37.9113342,32.7321684 39.0159037,32.7321684 Z" id="矩形"></path>
                            <path d="M70.2157583,33.7321684 L92.2157583,33.7321684 C93.3203278,33.7321684 94.3884513,34.6203315 94.6015377,35.7159362 L98.8444064,57.5373819 C99.0574341,58.6329866 98.3346966,59.5211496 97.2301271,59.5211496 L75.2301271,59.5211496 C74.1255576,59.5211496 73.0574341,58.6329866 72.8443478,57.5373819 L68.601479,35.7159362 C68.3884513,34.6203315 69.1111888,33.7321684 70.2157583,33.7321684 Z" id="矩形"></path>
                            <path d="M102.215758,33.7321684 L124.215758,33.7321684 C125.320328,33.7321684 126.388451,34.6203315 126.601538,35.7159362 L130.844406,57.5373819 C131.057434,58.6329866 130.334697,59.5211496 129.230127,59.5211496 L107.230127,59.5211496 C106.125558,59.5211496 105.057434,58.6329866 104.844348,57.5373819 L100.601479,35.7159362 C100.388451,34.6203315 101.111189,33.7321684 102.215758,33.7321684 Z" id="矩形"></path>
                        </g>
                        <g id="编组-138" transform="translate(22.504795, 40.667240)" fill="#C9DCFF" fill-rule="nonzero">
                            <path d="M23.6515125,8.8817842e-14 C24.756082,8.8817842e-14 25.8242055,0.88816309 26.0372918,1.98376778 L30.2801606,23.8052134 C30.4931883,24.9008181 29.7704508,25.7889812 28.6658813,25.7889812 L6.66588129,25.7889812 C5.56131179,25.7889812 4.49318826,24.9008181 4.28010194,23.8052134 L0.0372331455,1.98376778 C-0.175794503,0.88816309 0.546942967,8.8817842e-14 1.65151247,8.8817842e-14 L23.6515125,8.8817842e-14 Z M23.6515125,1 L1.65151247,1 C1.21522252,1 0.96558314,1.26553632 1.00335982,1.68491994 L1.01885014,1.79290636 L5.26170859,23.6142988 C5.37561701,24.1999704 5.95645243,24.7156672 6.54078299,24.7818238 L6.66588129,24.7889812 L28.6658813,24.7889812 C29.1021712,24.7889812 29.3518106,24.5234449 29.3140339,24.1040613 L29.2985436,23.9960748 L25.0556852,2.1746824 C24.9417767,1.58901083 24.3609413,1.07331397 23.7766108,1.00715737 L23.6515125,1 Z" id="矩形"></path>
                            <path d="M54.8513671,1 C55.9559366,1 57.0240601,1.88816309 57.2371464,2.98376778 L61.4800152,24.8052134 C61.6930429,25.9008181 60.9703054,26.7889812 59.8657359,26.7889812 L37.8657359,26.7889812 C36.7611664,26.7889812 35.6930429,25.9008181 35.4799566,24.8052134 L31.2370878,2.98376778 C31.0240601,1.88816309 31.7467976,1 32.8513671,1 L54.8513671,1 Z M54.8513671,2 L32.8513671,2 C32.4150772,2 32.1654378,2.26553632 32.2032145,2.68491994 L32.2187048,2.79290636 L36.4615632,24.6142988 C36.5754716,25.1999704 37.1563071,25.7156672 37.7406376,25.7818238 L37.8657359,25.7889812 L59.8657359,25.7889812 C60.3020259,25.7889812 60.5516653,25.5234449 60.5138886,25.1040613 L60.4983983,24.9960748 L56.2555398,3.1746824 C56.1416314,2.58901083 55.560796,2.07331397 54.9764654,2.00715737 L54.8513671,2 Z" id="矩形"></path>
                            <path d="M85.6515125,8.8817842e-14 C86.756082,8.8817842e-14 87.8242055,0.88816309 88.0372918,1.98376778 L92.2801606,23.8052134 C92.4931883,24.9008181 91.7704508,25.7889812 90.6658813,25.7889812 L68.6658813,25.7889812 C67.5613118,25.7889812 66.4931883,24.9008181 66.2801019,23.8052134 L62.0372331,1.98376778 C61.8242055,0.88816309 62.546943,8.8817842e-14 63.6515125,8.8817842e-14 L85.6515125,8.8817842e-14 Z M85.6515125,1 L63.6515125,1 C63.2152225,1 62.9655831,1.26553632 63.0033598,1.68491994 L63.0188501,1.79290636 L67.2617086,23.6142988 C67.375617,24.1999704 67.9564524,24.7156672 68.540783,24.7818238 L68.6658813,24.7889812 L90.6658813,24.7889812 C91.1021712,24.7889812 91.3518106,24.5234449 91.3140339,24.1040613 L91.2985436,23.9960748 L87.0556852,2.1746824 C86.9417767,1.58901083 86.3609413,1.07331397 85.7766108,1.00715737 L85.6515125,1 Z" id="矩形"></path>
                            <path d="M117.651512,8.8817842e-14 C118.756082,8.8817842e-14 119.824205,0.88816309 120.037292,1.98376778 L124.280161,23.8052134 C124.493188,24.9008181 123.770451,25.7889812 122.665881,25.7889812 L100.665881,25.7889812 C99.5613118,25.7889812 98.4931883,24.9008181 98.2801019,23.8052134 L94.0372331,1.98376778 C93.8242055,0.88816309 94.546943,8.8817842e-14 95.6515125,8.8817842e-14 L117.651512,8.8817842e-14 Z M117.651512,1 L95.6515125,1 C95.2152225,1 94.9655831,1.26553632 95.0033598,1.68491994 L95.0188501,1.79290636 L99.2617086,23.6142988 C99.375617,24.1999704 99.9564524,24.7156672 100.540783,24.7818238 L100.665881,24.7889812 L122.665881,24.7889812 C123.102171,24.7889812 123.351811,24.5234449 123.314034,24.1040613 L123.298544,23.9960748 L119.055685,2.1746824 C118.941777,1.58901083 118.360941,1.07331397 117.776611,1.00715737 L117.651512,1 Z" id="矩形"></path>
                            <path d="M30.0159037,32.7321684 C31.1204732,32.7321684 32.1885967,33.6203315 32.401683,34.7159362 L36.6445518,56.5373819 C36.8575795,57.6329866 36.134842,58.5211496 35.0302725,58.5211496 L13.0302725,58.5211496 C11.925703,58.5211496 10.8575795,57.6329866 10.6444931,56.5373819 L6.40162435,34.7159362 C6.1885967,33.6203315 6.91133417,32.7321684 8.01590367,32.7321684 L30.0159037,32.7321684 Z M30.0159037,33.7321684 L8.01590367,33.7321684 C7.57961372,33.7321684 7.32997434,33.9977048 7.36775102,34.4170884 L7.38324134,34.5250748 L11.6260998,56.3464672 C11.7400082,56.9321388 12.3208436,57.4478357 12.9051742,57.5139923 L13.0302725,57.5211496 L35.0302725,57.5211496 C35.4665624,57.5211496 35.7162018,57.2556133 35.6784251,56.8362297 L35.6629348,56.7282433 L31.4200764,34.9068508 C31.306168,34.3211793 30.7253325,33.8054824 30.141002,33.7393258 L30.0159037,33.7321684 Z" id="矩形"></path>
                            <path d="M61.0159037,32.7321684 C62.1204732,32.7321684 63.1885967,33.6203315 63.401683,34.7159362 L67.6445518,56.5373819 C67.8575795,57.6329866 67.134842,58.5211496 66.0302725,58.5211496 L44.0302725,58.5211496 C42.925703,58.5211496 41.8575795,57.6329866 41.6444931,56.5373819 L37.4016243,34.7159362 C37.1885967,33.6203315 37.9113342,32.7321684 39.0159037,32.7321684 L61.0159037,32.7321684 Z M61.0159037,33.7321684 L39.0159037,33.7321684 C38.5796137,33.7321684 38.3299743,33.9977048 38.367751,34.4170884 L38.3832413,34.5250748 L42.6260998,56.3464672 C42.7400082,56.9321388 43.3208436,57.4478357 43.9051742,57.5139923 L44.0302725,57.5211496 L66.0302725,57.5211496 C66.4665624,57.5211496 66.7162018,57.2556133 66.6784251,56.8362297 L66.6629348,56.7282433 L62.4200764,34.9068508 C62.306168,34.3211793 61.7253325,33.8054824 61.141002,33.7393258 L61.0159037,33.7321684 Z" id="矩形"></path>
                            <path d="M92.2157583,33.7321684 C93.3203278,33.7321684 94.3884513,34.6203315 94.6015377,35.7159362 L98.8444064,57.5373819 C99.0574341,58.6329866 98.3346966,59.5211496 97.2301271,59.5211496 L75.2301271,59.5211496 C74.1255576,59.5211496 73.0574341,58.6329866 72.8443478,57.5373819 L68.601479,35.7159362 C68.3884513,34.6203315 69.1111888,33.7321684 70.2157583,33.7321684 L92.2157583,33.7321684 Z M92.2157583,34.7321684 L70.2157583,34.7321684 C69.7794684,34.7321684 69.529829,34.9977048 69.5676057,35.4170884 L69.583096,35.5250748 L73.8259544,57.3464672 C73.9398628,57.9321388 74.5206983,58.4478357 75.1050288,58.5139923 L75.2301271,58.5211496 L97.2301271,58.5211496 C97.6664171,58.5211496 97.9160565,58.2556133 97.8782798,57.8362297 L97.8627895,57.7282433 L93.619931,35.9068508 C93.5060226,35.3211793 92.9251872,34.8054824 92.3408566,34.7393258 L92.2157583,34.7321684 Z" id="矩形"></path>
                            <path d="M124.215758,33.7321684 C125.320328,33.7321684 126.388451,34.6203315 126.601538,35.7159362 L130.844406,57.5373819 C131.057434,58.6329866 130.334697,59.5211496 129.230127,59.5211496 L107.230127,59.5211496 C106.125558,59.5211496 105.057434,58.6329866 104.844348,57.5373819 L100.601479,35.7159362 C100.388451,34.6203315 101.111189,33.7321684 102.215758,33.7321684 L124.215758,33.7321684 Z M124.215758,34.7321684 L102.215758,34.7321684 C101.779468,34.7321684 101.529829,34.9977048 101.567606,35.4170884 L101.583096,35.5250748 L105.825954,57.3464672 C105.939863,57.9321388 106.520698,58.4478357 107.105029,58.5139923 L107.230127,58.5211496 L129.230127,58.5211496 C129.666417,58.5211496 129.916056,58.2556133 129.87828,57.8362297 L129.862789,57.7282433 L125.619931,35.9068508 C125.506023,35.3211793 124.925187,34.8054824 124.340857,34.7393258 L124.215758,34.7321684 Z" id="矩形"></path>
                        </g>
                        <path d="M46.2490332,-2.27373675e-13 C47.9058874,-2.27373675e-13 49.5080727,1.33224463 49.8277022,2.97565168 L52.1419383,14.8782584 C52.4614798,16.5216654 51.3773736,17.8539101 49.7205193,17.8539101 C48.0636651,17.8539101 46.4614798,16.5216654 46.1418503,14.8782584 L43.8276142,2.97565168 C43.5080727,1.33224463 44.5921789,-2.27373675e-13 46.2490332,-2.27373675e-13 Z" id="矩形" fill="#FFFFFF"></path>
                        <path d="M96.2490332,-2.27373675e-13 C97.9058874,-2.27373675e-13 99.5080727,1.33224463 99.8277022,2.97565168 L102.141938,14.8782584 C102.46148,16.5216654 101.377374,17.8539101 99.7205193,17.8539101 C98.0636651,17.8539101 96.4614798,16.5216654 96.1418503,14.8782584 L93.8276142,2.97565168 C93.5080727,1.33224463 94.5921789,-2.27373675e-13 96.2490332,-2.27373675e-13 Z" id="矩形" fill="#FFFFFF"></path>
                        <path d="M46.2490332,0 C47.9058874,0 49.5080727,1.33224463 49.8277022,2.97565168 L52.1419383,14.8782584 C52.4614798,16.5216654 51.3773736,17.8539101 49.7205193,17.8539101 C48.0636651,17.8539101 46.4614798,16.5216654 46.1418503,14.8782584 L43.8276142,2.97565168 C43.5080727,1.33224463 44.5921789,0 46.2490332,0 Z M46.2490332,1 C45.2729073,1 44.6686374,1.68545844 44.7861483,2.63969541 L44.8092321,2.78479471 L47.1234569,14.6873438 C47.3520457,15.8626559 48.544169,16.8539101 49.7205193,16.8539101 C50.6966452,16.8539101 51.3009151,16.1684516 51.1834042,15.2142147 L51.1603204,15.0691154 L48.8460956,3.16656629 C48.6175068,1.99125419 47.4253835,1 46.2490332,1 Z" id="矩形" fill="#FFBB3C" fill-rule="nonzero"></path>
                        <path d="M96.2490332,0 C97.9058874,0 99.5080727,1.33224463 99.8277022,2.97565168 L102.141938,14.8782584 C102.46148,16.5216654 101.377374,17.8539101 99.7205193,17.8539101 C98.0636651,17.8539101 96.4614798,16.5216654 96.1418503,14.8782584 L93.8276142,2.97565168 C93.5080727,1.33224463 94.5921789,0 96.2490332,0 Z M96.2490332,1 C95.2729073,1 94.6686374,1.68545844 94.7861483,2.63969541 L94.8092321,2.78479471 L97.1234569,14.6873438 C97.3520457,15.8626559 98.544169,16.8539101 99.7205193,16.8539101 C100.696645,16.8539101 101.300915,16.1684516 101.183404,15.2142147 L101.16032,15.0691154 L98.8460956,3.16656629 C98.6175068,1.99125419 97.4253835,1 96.2490332,1 Z" id="矩形" fill="#FFBB3C" fill-rule="nonzero"></path>
                    </g>
                    <g id="编组-81" transform="translate(93.000000, 77.000000)">
                        <g id="编组-63" transform="translate(63.914093, 222.107327)">
                            <mask id="mask-5" fill="white">
                                <use xlink:href="#path-4"></use>
                            </mask>
                            <use id="矩形" fill="#DDE9FF" xlink:href="#path-4"></use>
                            <path d="M1.20882698,0 L63.4052217,0 C64.4023405,3.36954592e-15 65.3342971,0.495421402 65.8920292,1.32196893 L67.6990928,4 C68.491521,5.17436234 68.1819023,6.76876112 67.0075399,7.56118935 C66.5836904,7.84719165 66.0840393,8 65.5727217,8 L2.06042429,8 C0.819095645,8 -0.294028853,7.23549708 -0.7396257,6.076903 L-1.5384054,4 C-2.12194354,2.48274545 -1.36501684,0.779716485 0.152237704,0.196178338 C0.489411271,0.0665009295 0.84757604,9.54539142e-16 1.20882698,0 Z" id="矩形" fill="#FFBB3C" mask="url(#mask-5)"></path>
                        </g>
                        <g id="编组-103" transform="translate(90.000000, 84.000000)">
                            <mask id="mask-7" fill="white">
                                <use xlink:href="#path-6"></use>
                            </mask>
                            <use id="路径-246" fill="#EAFFF3" xlink:href="#path-6"></use>
                            <path d="M-1.42108547e-14,119.48446 C1.32743544,98.0102656 2.89289856,82.9508436 4.69638937,74.3061937 C8.43003277,56.4097675 15.5176097,41.8448008 19.4787027,34.195863 C29.7253967,14.409323 39.7215535,9.31301339 44.6820442,6.63347577 C49.6425348,3.95393816 60.3007481,2.37777643 66.327433,6.63347577 C72.3541179,10.8891751 74.5668372,17.0533931 73.7454921,27.1564165 C72.924147,37.2594398 65.469448,43.1497458 58.0193289,46.7343523 C50.5692098,50.3189588 31.0128594,64.1734323 19.4787027,78.1118722 C11.7892649,87.4041655 5.29636401,101.195028 -1.42108547e-14,119.48446 Z" id="路径-246" fill="#D3F0E0" mask="url(#mask-7)"></path>
                            <path d="M61.0623172,22.0501917 C61.3287364,21.9775593 61.6035919,22.1346545 61.6762243,22.4010736 C61.7488567,22.6674927 61.5917615,22.9423483 61.3253424,23.0149807 C30.6460939,31.3788982 10.4195539,62.2160822 0.685726462,115.62224 C0.636212326,115.893907 0.375843567,116.073997 0.104176562,116.024483 C-0.167490443,115.974969 -0.347580926,115.7146 -0.29806679,115.442933 C9.49743654,61.6983811 29.9375632,30.535565 61.0623172,22.0501917 Z" id="路径-251" fill="#9FC8B1" fill-rule="nonzero" mask="url(#mask-7)"></path>
                            <path d="M53.2988281,45.3242187 C23.2203776,62.4189453 5.8733724,84.8946126 1.2578125,112.751221 C31.0439453,72.423808 48.9638672,50.9959922 55.0175781,48.4677734 C61.0712891,45.9395547 60.4983724,44.8917031 53.2988281,45.3242187 Z" id="路径-358" fill="#C4E0D1" mask="url(#mask-7)"></path>
                        </g>
                        <g id="编组-102" transform="translate(112.698267, 46.543175)">
                            <mask id="mask-9" fill="white">
                                <use xlink:href="#path-8"></use>
                            </mask>
                            <use id="路径-247" fill="#EAFFF3" xlink:href="#path-8"></use>
                            <mask id="mask-11" fill="white">
                                <use xlink:href="#path-10"></use>
                            </mask>
                            <use id="路径-247" fill="#D3F0E0" xlink:href="#path-10"></use>
                            <path d="M60.5426357,11.3128799 C60.8171154,11.2826219 61.064154,11.4806027 61.094412,11.7550823 C61.12467,12.0295619 60.9266892,12.2766006 60.6522096,12.3068585 C39.729997,14.6132741 18.9462607,31.6462845 -1.67037213,63.4563407 C-1.8205596,63.6880697 -2.13016408,63.7541722 -2.36189309,63.6039847 C-2.5936221,63.4537972 -2.65972458,63.1441927 -2.50953711,62.9124637 C18.2541689,30.8754836 39.2620175,13.6588053 60.5426357,11.3128799 Z" id="路径-253" fill="#9FC8B1" fill-rule="nonzero" mask="url(#mask-11)"></path>
                            <path d="M77,14.004188 C76.1582967,19.0507483 74.4123575,22.6778642 71.7621824,24.8855357 C67.7869198,28.1970428 61.7621824,29.629188 56.5004637,30.6914365 C51.2387449,31.753685 28.3095457,36.4578462 17.2245848,45.7839732 L39.1176512,38.3640513 L70.2081638,30.6914365 L79.9838621,20.4621958 L77,14.004188 Z" id="路径-357" fill="#C4E0D1" mask="url(#mask-11)"></path>
                        </g>
                        <g id="编组-105" transform="translate(17.048956, 30.887531)">
                            <mask id="mask-13" fill="white">
                                <use xlink:href="#path-12"></use>
                            </mask>
                            <use id="路径-248" fill="#EAFFF3" xlink:href="#path-12"></use>
                            <path d="M69.3618111,119.305105 C64.1514723,95.5149533 58.5592828,78.7727476 52.5852425,69.0784883 C43.6241821,54.5370993 32.2521675,45.1631445 20.9273327,40.7089848 C9.60249781,36.2548251 0.370054887,30.3143707 -0.833749667,21.5991494 C-2.03755422,12.8839281 3.30184276,3.89650161 14.9982131,2.35985332 C26.6945835,0.823205037 38.680528,3.89650161 49.3232751,17.6556441 C59.9660221,31.4147866 70.7898492,73.0503233 70.7898492,89.5111312 C70.7898492,100.485003 70.3138365,110.416328 69.3618111,119.305105 Z" id="路径-248" fill="#D3F0E0" mask="url(#mask-13)"></path>
                            <path d="M23.8031025,13.6524169 C23.9507563,13.4197035 24.2596222,13.3495935 24.4929738,13.4972473 C53.619825,31.9273315 69.2261583,67.7464847 71.3453163,120.899853 C71.3559107,121.175776 71.1411468,121.408372 70.8652236,121.419775 C70.5893003,121.43037 70.3567042,121.215606 70.3457056,120.939683 C68.238827,68.0842278 52.7653698,32.5700476 23.9582721,14.3422882 C23.7249205,14.1946344 23.6554487,13.8857685 23.8031025,13.6524169 Z" id="路径-254" fill="#9FC8B1" fill-rule="nonzero" mask="url(#mask-13)"></path>
                            <path d="M2.10955328,9.39371881 C-0.468124531,21.2459323 4.83890245,29.8251967 18.0306342,35.1315118 C37.8182319,43.0909844 45.0262397,50.6209933 54.8953803,65.9239922 C61.4748074,76.1259915 66.5415392,93.4846608 70.0955756,118 L-6.37610406,29.466961 L2.10955328,9.39371881 Z" id="路径-354" fill="#C4E0D1" mask="url(#mask-13)"></path>
                        </g>
                        <g id="编组-104" transform="translate(48.402642, -0.000000)">
                            <mask id="mask-15" fill="white">
                                <use xlink:href="#path-14"></use>
                            </mask>
                            <use id="路径-249" fill="#EAFFF3" xlink:href="#path-14"></use>
                            <path d="M38.4361627,109.727577 C40.2080966,71.0333394 39.2052946,44.753324 35.4277569,30.8875312 C29.7614504,10.088842 20.8541813,-1.27827958 9.37287413,0.114578571 C-2.10843299,1.50743672 -4.5866861,11.539269 0.542720885,19.2423116 C5.67212787,26.9453541 20.1964111,48.5363293 25.3543068,61.4631547 C28.7929039,70.0810384 33.1535225,86.1691793 38.4361627,109.727577 Z" id="路径-249" fill="#D3F0E0" mask="url(#mask-15)" transform="translate(18.642412, 54.863789) rotate(-2.000000) translate(-18.642412, -54.863789) "></path>
                            <path d="M1.96015082,4.87988281 C0.585845275,10.6699219 1.44620769,15.6948242 4.54123807,19.9545898 C9.18378363,26.3442383 28.9997016,54.6122295 32.8727485,77.5431753 L3.69550238,25.6259766 L-2.5784234,12.7954102 L1.96015082,4.87988281 Z" id="路径-356" fill="#C4E0D1" mask="url(#mask-15)"></path>
                        </g>
                        <g id="编组-106" transform="translate(-0.000000, 140.484501)">
                            <mask id="mask-17" fill="white">
                                <use xlink:href="#path-16"></use>
                            </mask>
                            <use id="路径-250" fill="#EAFFF3" xlink:href="#path-16"></use>
                            <path d="M86.8630745,45.7959111 C72.5806324,25.5140129 56.8667378,12.125403 39.7213908,5.6300812 C14.0033702,-4.11290144 -7.10542736e-15,7.90110838 -7.10542736e-15,16.52167 C-7.10542736e-15,25.1422316 6.80949202,30.0268155 17.0489556,30.0268155 C27.2884192,30.0268155 43.7234658,28.0070237 58.8280258,36.5737997 C68.8977326,42.2849837 79.1842128,51.927944 89.6874666,65.5026805 L86.8630745,45.7959111 Z" id="路径-250" fill="#D3F0E0" mask="url(#mask-17)"></path>
                            <path d="M1.1501319,20.1112023 C3.60224814,22.8815414 6.77648803,24.6116846 10.6728516,25.301632 C16.5173969,26.3365529 23.2104492,26.0726281 29.4458008,26.0726281 C47.5162559,26.0726281 66.1025391,30.4051476 89.6874666,63.5026805 L73.4389648,56.501339 L2.37988281,27.6380577 L1.1501319,20.1112023 Z" id="路径-355" fill="#C4E0D1" mask="url(#mask-17)"></path>
                        </g>
                        <path d="M63.5963011,11.6405216 C63.8094921,11.4650103 64.1245976,11.4955556 64.3001089,11.7087466 C74.8415791,24.513311 82.3205992,48.9543952 86.3331527,79.7677903 L86.4536838,80.7034746 C89.7765293,106.781999 90.2171879,135.285754 87.8968469,153.563607 L87.8038207,154.279761 C84.7801018,177.032488 87.8036828,199.576221 96.8773487,221.919195 C96.9812512,222.175044 96.858074,222.466681 96.6022247,222.570583 C96.3463753,222.674486 96.0547388,222.551308 95.9508363,222.295459 C86.945111,200.119782 83.8552445,177.733575 86.6839023,155.144723 L86.812536,154.148024 C89.2247883,135.99643 88.8179579,107.170593 85.4617038,80.8298697 L85.2198735,78.9727728 C81.2011719,48.7675619 73.814123,24.8386348 63.5280761,12.3443293 C63.3525648,12.1311384 63.3831102,11.8160329 63.5963011,11.6405216 Z" id="路径-245" fill="#9FC8B1" fill-rule="nonzero"></path>
                        <path d="M19.210295,152.513695 C50.2079907,155.741553 73.2591803,169.485692 88.3189956,193.730479 C88.4647019,193.965052 88.3926616,194.273329 88.1580891,194.419035 C87.9235165,194.564741 87.6152396,194.492701 87.4695333,194.258128 C72.5772256,170.283012 49.8045783,156.704952 19.1067228,153.508317 C18.8320656,153.479717 18.6325973,153.233878 18.6611979,152.95922 C18.6866207,152.715081 18.8836888,152.530349 19.1200684,152.512399 L19.210295,152.513695 Z" id="路径-252" fill="#9FC8B1" fill-rule="nonzero"></path>
                    </g>
                </g>
                <g id="男1">
                    <g id="编组-66" transform="translate(372.869347, 93.700476) rotate(40.000000) translate(-372.869347, -93.700476) translate(278.869347, 51.200476)">
                        <rect id="矩形" fill="#84AFFF" x="2.83538925" y="0.860723298" width="185.098039" height="80.9859155" rx="8"></rect>
                        <rect id="矩形" stroke="#84AFFF" fill="#FFFFFF" x="0.5" y="3.97082495" width="184.098039" height="79.9859155" rx="8"></rect>
                        <g id="xinfeng" transform="translate(16.196078, 17.354125)">
                            <path d="M0,8.12773233 C0.00461904583,3.6349331 3.59746686,-0.0038984705 8.02674689,3.13455665e-06 L62.5391861,3.13455665e-06 C66.9696209,3.13455665e-06 70.5686275,3.64820923 70.5686275,8.12773233 L70.5686275,43.935022 C70.5651632,48.4278212 66.9719304,52.0670433 62.5430353,52.0623621 L8.0305961,52.0623621 C3.60054623,52.0623621 0,48.4145451 0,43.935022 L0,8.12773233 Z M64.1539276,20.3870687 L36.9365849,36.9564623 C35.9200091,37.5765382 34.6490033,37.5765382 33.6324275,36.9564623 L6.41585466,20.3855068 L6.41585466,43.9330696 C6.41585466,44.8163229 7.14296946,45.5528091 8.0305961,45.5528091 L62.5380314,45.5528091 C62.9635135,45.5561872 63.3728459,45.3876884 63.6756603,45.0844608 C63.9784747,44.7812332 64.1498684,44.3682135 64.152003,43.9365839 L64.152003,20.3835545 L64.1539276,20.3870687 Z M61.5822738,14.3624382 C62.902936,13.5576703 64.1539276,11.3202516 64.1539276,9.77280126 L64.1539276,8.12929423 C64.1539276,7.23536203 63.4404166,6.51019671 62.559202,6.50804423 L8.00981039,6.50804423 C7.12870913,6.51062463 6.41554426,7.23547632 6.4146999,8.12929423 L6.4146999,9.77280126 C6.4146999,11.3108802 7.67377481,13.5639179 8.98558382,14.3608763 L35.2837363,30.3726723 L61.5822738,14.3624382 L61.5822738,14.3624382 Z" id="形状" fill="#C9DCFF" fill-rule="nonzero"></path>
                            <rect id="矩形" fill="#E4EEFF" x="83.2941176" y="6.9416499" width="70.5686275" height="4.6277666" rx="2.3138833"></rect>
                            <rect id="矩形" fill="#DDE9FF" x="83.2941176" y="18.1254192" width="70.5686275" height="4.6277666" rx="2.3138833"></rect>
                            <rect id="矩形" fill="#C9DCFF" x="83.2941176" y="29.3091885" width="47.4313725" height="4.6277666" rx="2.3138833"></rect>
                            <rect id="矩形" fill="#C9DCFF" x="83.2941176" y="40.4929577" width="55.5294118" height="4.6277666" rx="2.3138833"></rect>
                        </g>
                    </g>
                    <g id="鞋" transform="translate(293.000000, 500.000000)">
                        <g id="编组" transform="translate(0.000000, 0.417755)">
                            <mask id="mask-19" fill="white">
                                <use xlink:href="#path-18"></use>
                            </mask>
                            <use id="路径-10" fill="#FFFFFF" xlink:href="#path-18"></use>
                            <path d="M57.1159349,-1.59591266 L42.1406024,7.75228406 L42.3761347,8.21998514 C48.2548455,19.8934582 54.6661473,25.9776746 61.6601462,26.3776737 L63.2363932,26.4605991 C72.7540079,26.9215743 89.2148381,27.0601112 103.74989,26.4683798 L105.41796,26.396839 C129.227002,25.3226353 145.915348,22.4741445 152.072804,17.3231689 L152.505207,16.9614455 L152.152167,16.5226126 C147.938246,11.284652 142.363841,8.30346092 135.461924,7.59353414 L130.741927,7.07917294 C120.662547,5.94860267 98.837789,3.38124953 65.273128,-0.622271806 L57.1159349,-1.59591266 Z M43.6474286,8.17066667 L57.3838714,-0.404666667 L100.525572,4.7242125 C119.550646,6.97008863 131.155523,8.30823054 135.342953,8.73894692 L135.889622,8.8004674 C141.869757,9.53197352 146.753846,12.0713593 150.567287,16.4297895 L150.879857,16.7955152 L150.697762,16.9316337 C144.402667,21.491027 128.466631,24.1581881 106.164748,25.2096402 L105.365551,25.2465055 C89.6509166,25.9555101 71.2106386,25.7704678 61.7265391,25.2280555 L61.4027742,25.2049887 C55.2569381,24.6805861 49.4361146,19.2460583 43.9832633,8.81998843 L43.6474286,8.17066667 Z" id="路径-11" fill="#A4C1FF" fill-rule="nonzero" mask="url(#mask-19)"></path>
                            <path d="M1.39570376,32.4970585 C15.8789563,31.2267184 28.7569122,38.2525726 40.0295717,53.5746212 L1.15714286,61.7831025 L1.39570376,32.4970585 Z" id="路径-15" fill="#FFC659" mask="url(#mask-19)"></path>
                            <path d="M2.91741171,34.6811624 C15.8514058,33.5380242 27.3518203,39.8603642 37.4186551,53.6481822 L2.70436942,61.0347301 L2.91741171,34.6811624 Z" id="路径-15" fill="#FFBB3C" mask="url(#mask-19)"></path>
                            <polygon id="路径-13" fill="#4C76D0" mask="url(#mask-19)" points="5.28590541 60.1525391 161.446289 30.567371 164.294736 38.4339962 9.72463309 79.064826"></polygon>
                            <path d="M5.99726016,8.64079072 L-4.25014403,8.64079072 L0.0946811502,35.6972743 L4.59263877,33.5314926 C8.73664024,30.8076025 12.3656889,24.7578384 15.5952105,15.3427079 L15.9609053,14.26042 L5.99726016,8.64079072 Z M5.69198571,9.792 L14.5591714,14.7930303 L14.5026601,14.9632612 C11.3481225,24.1616379 7.83687583,30.019507 4.02127095,32.5331237 L0.991671429,33.9864848 L-2.89285714,9.792 L5.69198571,9.792 Z" id="路径-14" fill="#A4C1FF" fill-rule="nonzero" mask="url(#mask-19)"></path>
                            <polygon id="路径-16" fill="#79A5FF" mask="url(#mask-19)" points="5.84470145 66.8485322 67.6377121 53.4385535 5.84470145 70.1276515"></polygon>
                            <path d="M57.1122324,0.713108373 L55.8791621,0.00475335562 L0.749400616,11.7470914 L8.06063728,64.6949515 C9.24087547,71.5214584 12.4256262,74.591685 17.4968844,73.6420042 L17.7805611,73.5851068 C22.3555215,72.6074324 64.744639,61.9503753 145.025843,41.5946714 L157.903775,38.3286794 C160.071236,37.7788647 161.380413,35.5846324 160.827913,33.4277221 C160.792602,33.28987 160.749981,33.1539752 160.70023,33.0206081 C158.204254,26.3297473 155.737529,21.527213 153.282764,18.6020849 C148.690106,13.1294177 138.7471,10.1990487 125.57714,10.7725438 C121.719599,10.9405231 118.844716,11.3582843 114.160158,12.3049514 L111.43094,12.862336 C103.646821,14.4287448 98.473461,14.6468599 90.1057238,13.1257781 C79.1968549,11.1427712 68.1993095,7.00614315 57.1122324,0.713108373 Z M2.0412,12.6489091 L55.6828714,1.22242424 L55.4902795,1.11192185 C67.0414723,7.80543044 78.5109557,12.188658 89.8977918,14.2585495 C98.1583376,15.760146 103.406593,15.5966817 110.925398,14.1363634 L115.007104,13.3098244 C119.276928,12.4613492 122.013976,12.0803214 125.627726,11.9229581 C138.472881,11.3636069 148.075674,14.1937091 152.394602,19.3401973 C154.748538,22.1451764 157.161243,26.8425376 159.615424,33.4213602 C159.650961,33.5166225 159.681404,33.6136904 159.706627,33.7121563 C160.10127,35.2528088 159.166142,36.8201199 157.61796,37.2128437 L78.8531469,57.1563401 C41.0663278,66.697635 20.6197517,71.8006011 17.5376086,72.4592587 L17.2749731,72.5117693 C12.9315949,73.3194148 10.2813794,70.7486787 9.20401175,64.5189209 L2.0412,12.6489091 Z" id="路径-10" fill="#4C76D0" fill-rule="nonzero"></path>
                        </g>
                        <mask id="mask-21" fill="white">
                            <use xlink:href="#path-20"></use>
                        </mask>
                        <use id="路径-9" stroke="#4C76D0" fill="#FFFFFF" xlink:href="#path-20"></use>
                        <ellipse id="椭圆形" fill="#4C76D0" cx="74.4472266" cy="16.5433946" rx="2.31428571" ry="2.3030303"></ellipse>
                        <ellipse id="椭圆形" fill="#4C76D0" cx="83.7043694" cy="18.8464249" rx="2.31428571" ry="2.3030303"></ellipse>
                        <ellipse id="椭圆形" fill="#4C76D0" cx="92.9615123" cy="19.9979401" rx="2.31428571" ry="2.3030303"></ellipse>
                        <ellipse id="椭圆形" fill="#4C76D0" cx="102.218655" cy="19.9979401" rx="2.31428571" ry="2.3030303"></ellipse>
                        <ellipse id="椭圆形" fill="#4C76D0" cx="111.475798" cy="19.9979401" rx="2.31428571" ry="2.3030303"></ellipse>
                        <ellipse id="椭圆形" fill="#4C76D0" cx="120.732941" cy="18.8464249" rx="2.31428571" ry="2.3030303"></ellipse>
                        <path d="M76.5680762,8.73918525 C77.0648525,8.33911218 77.7934776,8.41554705 78.1955059,8.90990732 C78.5975342,9.40426759 78.5207258,10.1293491 78.0239495,10.5294221 C76.6080865,11.669671 75.7817458,13.6825003 75.6022691,16.6428234 C75.5637823,17.2776334 75.0154523,17.7612005 74.3775399,17.7229008 C73.7396275,17.6846011 73.2536971,17.1389379 73.292184,16.504128 C73.5074618,12.9532936 74.5803119,10.3400083 76.5680762,8.73918525 Z" id="路径-12" fill="#FFCA68" fill-rule="nonzero"></path>
                        <path d="M85.825219,11.0422156 C86.3219953,10.6421425 87.0506205,10.7185774 87.4526488,11.2129376 C87.8546771,11.7072979 87.7778687,12.4323794 87.2810924,12.8324524 C85.8652294,13.9727013 85.0388887,15.9855306 84.859412,18.9458537 C84.8209251,19.5806637 84.2725952,20.0642308 83.6346828,20.0259311 C82.9967704,19.9876314 82.51084,19.4419682 82.5493268,18.8071583 C82.7646046,15.2563239 83.8374548,12.6430386 85.825219,11.0422156 Z" id="路径-12" fill="#FFCA68" fill-rule="nonzero"></path>
                        <path d="M95.0823619,12.1937307 C95.5791382,11.7936576 96.3077633,11.8700925 96.7097916,12.3644528 C97.11182,12.858813 97.0350115,13.5838945 96.5382352,13.9839676 C95.1223722,15.1242165 94.2960315,17.1370458 94.1165549,20.0973689 C94.078068,20.7321788 93.529738,21.2157459 92.8918256,21.1774462 C92.2539132,21.1391465 91.7679828,20.5934834 91.8064697,19.9586734 C92.0217475,16.4078391 93.0945976,13.7945537 95.0823619,12.1937307 Z" id="路径-12" fill="#FFCA68" fill-rule="nonzero"></path>
                        <path d="M104.339505,12.1937307 C104.836281,11.7936576 105.564906,11.8700925 105.966934,12.3644528 C106.368963,12.858813 106.292154,13.5838945 105.795378,13.9839676 C104.379515,15.1242165 103.553174,17.1370458 103.373698,20.0973689 C103.335211,20.7321788 102.786881,21.2157459 102.148968,21.1774462 C101.511056,21.1391465 101.025126,20.5934834 101.063613,19.9586734 C101.27889,16.4078391 102.35174,13.7945537 104.339505,12.1937307 Z" id="路径-12" fill="#FFCA68" fill-rule="nonzero"></path>
                        <path d="M113.596648,12.1937307 C114.093424,11.7936576 114.822049,11.8700925 115.224077,12.3644528 C115.626106,12.858813 115.549297,13.5838945 115.052521,13.9839676 C113.636658,15.1242165 112.810317,17.1370458 112.630841,20.0973689 C112.592354,20.7321788 112.044024,21.2157459 111.406111,21.1774462 C110.768199,21.1391465 110.282269,20.5934834 110.320755,19.9586734 C110.536033,16.4078391 111.608883,13.7945537 113.596648,12.1937307 Z" id="路径-12" fill="#FFCA68" fill-rule="nonzero"></path>
                        <path d="M122.85379,11.0422156 C123.350567,10.6421425 124.079192,10.7185774 124.48122,11.2129376 C124.883249,11.7072979 124.80644,12.4323794 124.309664,12.8324524 C122.893801,13.9727013 122.06746,15.9855306 121.887983,18.9458537 C121.849497,19.5806637 121.301167,20.0642308 120.663254,20.0259311 C120.025342,19.9876314 119.539411,19.4419682 119.577898,18.8071583 C119.793176,15.2563239 120.866026,12.6430386 122.85379,11.0422156 Z" id="路径-12" fill="#FFCA68" fill-rule="nonzero"></path>
                    </g>
                    <g id="鞋" transform="translate(82.742432, 362.120363) rotate(131.000000) translate(-82.742432, -362.120363) translate(1.742432, 324.120363)">
                        <g id="编组" transform="translate(0.000000, 0.419724)">
                            <mask id="mask-23" fill="white">
                                <use xlink:href="#path-22"></use>
                            </mask>
                            <use id="路径-10" fill="#FFFFFF" xlink:href="#path-22"></use>
                            <path d="M57.1021087,-1.59872089 L42.1304014,7.79352907 L42.3658766,8.26343418 C48.2431644,19.9919183 54.6529142,26.1048065 61.64522,26.5066905 L63.2210854,26.5900068 C72.7363962,27.0531543 89.1932417,27.1923441 103.724775,26.5978241 L105.392441,26.5259462 C129.19572,25.4466803 145.880026,22.584766 152.035992,17.4095166 L152.46829,17.0460885 L152.115336,16.6051877 C147.902435,11.3425433 142.329379,8.34730335 135.429132,7.63403105 L130.710278,7.11724592 C120.633338,5.98134786 98.8138631,3.40189611 65.2573272,-0.620491767 L57.1021087,-1.59872089 Z M43.6368627,8.2138833 L57.3699804,-0.401861167 L100.501237,4.75118777 C119.521706,7.00764756 131.123774,8.35209544 135.31019,8.78484156 L135.856727,8.84665196 C141.835414,9.58160529 146.718321,12.1329579 150.530839,16.5119272 L150.843333,16.8793763 L150.661282,17.0161363 C144.367711,21.5970156 128.435533,24.2767457 106.139049,25.3331527 L105.340045,25.3701918 C89.6292147,26.0825376 71.1934005,25.8966233 61.7115968,25.3516548 L61.3879103,25.3284794 C55.243562,24.8016055 49.4241475,19.3414676 43.9726162,8.86626499 L43.6368627,8.2138833 Z" id="路径-11" fill="#A4C1FF" fill-rule="nonzero" mask="url(#mask-23)"></path>
                            <path d="M1.39536589,32.6549129 C15.8751124,31.3785863 28.749951,38.4375498 40.0198817,53.8318033 L1.15686275,62.078967 L1.39536589,32.6549129 Z" id="路径-15" fill="#FFC659" mask="url(#mask-23)"></path>
                            <path d="M1.14179594,34.7049277 C14.5036879,33.5064667 26.3845728,40.1347803 36.7844506,54.5898685 L0.921705538,62.3338931 L1.14179594,34.7049277 Z" id="路径-15" fill="#FFBB3C" mask="url(#mask-23)"></path>
                            <polygon id="路径-13" fill="#4C76D0" mask="url(#mask-23)" points="5.28462584 60.4407195 161.407207 30.7161318 164.254965 38.6198283 9.72227903 79.4421303"></polygon>
                            <path d="M5.99580839,8.68622281 L-4.24911519,8.68622281 L0.0946582306,35.8702096 L4.59152702,33.6942217 C8.73452534,30.9574953 12.3626955,24.8792218 15.5914354,15.4197226 L15.9570416,14.3323345 L5.99580839,8.68622281 Z M5.69060784,9.84285714 L14.5556471,14.8674547 L14.4991494,15.0384879 C11.3453755,24.2802117 7.83497874,30.165686 4.02029751,32.691148 L0.991431373,34.1513581 L-2.89215686,9.84285714 L5.69060784,9.84285714 Z" id="路径-14" fill="#A4C1FF" fill-rule="nonzero" mask="url(#mask-23)"></path>
                            <polygon id="路径-16" fill="#79A5FF" mask="url(#mask-23)" points="5.84328661 67.1682674 67.6213388 53.6950944 5.84328661 70.4628395"></polygon>
                            <path d="M57.0984071,0.721181371 L55.8656353,0.00948824118 L0.749219207,11.8071619 L8.05868602,65.004538 C9.23863851,71.8632147 12.4226183,74.9479097 17.4926489,73.9937536 L17.7762569,73.9365881 C22.3501099,72.9543064 64.7289661,62.247028 144.990736,41.7953982 L157.865551,38.5140152 C160.032487,37.9616095 161.341347,35.7570369 160.788982,33.5899622 C160.753679,33.4514606 160.711068,33.3149253 160.661329,33.1809297 C158.165957,26.4585383 155.699829,21.6333722 153.245658,18.6944594 C148.654112,13.1960023 138.713513,10.2518241 125.546741,10.8280218 C121.690134,10.9967927 118.815947,11.4165225 114.132523,12.3676508 L111.403966,12.927662 C103.621731,14.5014525 98.4496233,14.7205955 90.0839117,13.1923457 C79.1776836,11.1999938 68.1828004,7.04387198 57.0984071,0.721181371 Z M2.04070588,12.7132294 L55.6693922,1.23289738 L55.4768468,1.12187425 C67.0252434,7.8469259 78.4919504,12.2508094 89.87603,14.3304552 C98.1345762,15.839128 103.381561,15.6748934 110.898546,14.2076933 L114.979264,13.3772592 C119.248054,12.5247856 121.98444,12.1419622 125.597315,11.9838573 C138.43936,11.4218702 148.039829,14.2653093 152.357712,19.4360502 C154.711078,22.2542477 157.123199,26.9737451 159.576785,33.5835704 C159.612314,33.6792816 159.64275,33.7768069 159.667966,33.8757369 C160.062514,35.4236496 159.127612,36.9983467 157.579805,37.3929211 L78.8340587,57.4304011 C41.0563868,67.0166591 20.6147602,72.1436729 17.5333632,72.8054344 L17.2707913,72.8581924 C12.9284645,73.6696439 10.2788906,71.0867933 9.20178371,64.8276778 L2.04070588,12.7132294 Z" id="路径-10" fill="#4C76D0" fill-rule="nonzero"></path>
                        </g>
                        <mask id="mask-25" fill="white">
                            <use xlink:href="#path-24"></use>
                        </mask>
                        <use id="路径-9" fill="#FFFFFF" xlink:href="#path-24"></use>
                        <path d="M26.4889469,1.61800499 L25.0209044,1.88074214 C15.6162605,3.60033274 8.89511901,5.55026666 4.83855086,7.74576238 C-1.15558059,11.4559471 -0.383469639,14.3039879 6.78495725,15.2794565 C17.8084811,16.7795208 40.5677925,13.1022021 50.9939384,7.57707699 L51.7611849,7.16375002 C55.1038841,5.33150551 56.9641766,3.87031698 57.3979738,2.64830452 C57.9882278,0.985550952 56.3967622,0.0920973358 53.1628856,-0.224120931 C45.5382826,-0.778027761 36.6525634,-0.162747631 26.4889469,1.61800499 Z M53.0647026,0.928555968 C55.6059646,1.17722955 56.5120164,1.68588979 56.3077731,2.26124587 C55.9792061,3.18682361 54.0042792,4.67247524 50.4522718,6.55478971 C40.2458998,11.9634501 17.7306766,15.6013304 6.94093331,14.1330786 L6.35611794,14.0489499 C0.787215429,13.2013591 0.577396728,11.7436802 5.41834359,8.74634772 C9.51820377,6.52853942 16.6253414,4.52075606 26.6885846,2.7575897 C36.7645423,0.992195657 45.5573774,0.383347162 53.0647026,0.928555968 Z" id="路径-9备份-6" fill="#4C76D0" fill-rule="nonzero" mask="url(#mask-25)"></path>
                        <ellipse id="椭圆形" fill="#4C76D0" cx="74.429205" cy="16.6260676" rx="2.31372549" ry="2.3138833"></ellipse>
                        <ellipse id="椭圆形" fill="#4C76D0" cx="83.6841069" cy="18.9399509" rx="2.31372549" ry="2.3138833"></ellipse>
                        <ellipse id="椭圆形" fill="#4C76D0" cx="92.9390089" cy="20.0968925" rx="2.31372549" ry="2.3138833"></ellipse>
                        <ellipse id="椭圆形" fill="#4C76D0" cx="102.193911" cy="20.0968925" rx="2.31372549" ry="2.3138833"></ellipse>
                        <ellipse id="椭圆形" fill="#4C76D0" cx="111.448813" cy="20.0968925" rx="2.31372549" ry="2.3138833"></ellipse>
                        <ellipse id="椭圆形" fill="#4C76D0" cx="120.703715" cy="18.9399509" rx="2.31372549" ry="2.3138833"></ellipse>
                        <path d="M76.5495412,8.78508102 C77.0461972,8.38312261 77.774646,8.45991768 78.176577,8.95660761 C78.578508,9.45329755 78.5017181,10.181796 78.0050621,10.5837544 C76.5895419,11.7293767 75.7634011,13.7516914 75.5839679,16.725965 C75.5454904,17.3637664 74.9972932,17.8496124 74.3595352,17.8111322 C73.7217772,17.772652 73.2359644,17.2244174 73.274442,16.5866159 C73.4896677,13.0190483 74.5622581,10.3934479 76.5495412,8.78508102 Z" id="路径-12" fill="#FFCA68" fill-rule="nonzero"></path>
                        <path d="M85.8044431,11.0989643 C86.3010992,10.6970059 87.0295479,10.773801 87.4314789,11.2704909 C87.8334099,11.7671808 87.7566201,12.4956793 87.259964,12.8976377 C85.8444438,14.04326 85.0183031,16.0655747 84.8388699,19.0398483 C84.8003923,19.6776497 84.2521951,20.1634957 83.6144372,20.1250155 C82.9766792,20.0865353 82.4908664,19.5383007 82.5293439,18.9004992 C82.7445696,15.3329316 83.81716,12.7073312 85.8044431,11.0989643 Z" id="路径-12" fill="#FFCA68" fill-rule="nonzero"></path>
                        <path d="M95.0593451,12.255906 C95.5560012,11.8539476 96.2844499,11.9307426 96.6863809,12.4274326 C97.0883119,12.9241225 97.011522,13.6526209 96.514866,14.0545793 C95.0993458,15.2002016 94.2732051,17.2225164 94.0937719,20.1967899 C94.0552943,20.8345914 93.5070971,21.3204373 92.8693391,21.2819571 C92.2315811,21.2434769 91.7457684,20.6952423 91.7842459,20.0574409 C91.9994716,16.4898733 93.072062,13.8642728 95.0593451,12.255906 Z" id="路径-12" fill="#FFCA68" fill-rule="nonzero"></path>
                        <path d="M104.314247,12.255906 C104.810903,11.8539476 105.539352,11.9307426 105.941283,12.4274326 C106.343214,12.9241225 106.266424,13.6526209 105.769768,14.0545793 C104.354248,15.2002016 103.528107,17.2225164 103.348674,20.1967899 C103.310196,20.8345914 102.761999,21.3204373 102.124241,21.2819571 C101.486483,21.2434769 101.00067,20.6952423 101.039148,20.0574409 C101.254374,16.4898733 102.326964,13.8642728 104.314247,12.255906 Z" id="路径-12" fill="#FFCA68" fill-rule="nonzero"></path>
                        <path d="M113.569149,12.255906 C114.065805,11.8539476 114.794254,11.9307426 115.196185,12.4274326 C115.598116,12.9241225 115.521326,13.6526209 115.02467,14.0545793 C113.60915,15.2002016 112.783009,17.2225164 112.603576,20.1967899 C112.565098,20.8345914 112.016901,21.3204373 111.379143,21.2819571 C110.741385,21.2434769 110.255572,20.6952423 110.29405,20.0574409 C110.509276,16.4898733 111.581866,13.8642728 113.569149,12.255906 Z" id="路径-12" fill="#FFCA68" fill-rule="nonzero"></path>
                        <path d="M122.824051,11.0989643 C123.320707,10.6970059 124.049156,10.773801 124.451087,11.2704909 C124.853018,11.7671808 124.776228,12.4956793 124.279572,12.8976377 C122.864052,14.04326 122.037911,16.0655747 121.858478,19.0398483 C121.82,19.6776497 121.271803,20.1634957 120.634045,20.1250155 C119.996287,20.0865353 119.510474,19.5383007 119.548952,18.9004992 C119.764177,15.3329316 120.836768,12.7073312 122.824051,11.0989643 Z" id="路径-12" fill="#FFCA68" fill-rule="nonzero"></path>
                    </g>
                    <g id="编组-9" transform="translate(297.000000, 483.000000)">
                        <mask id="mask-27" fill="white">
                            <use xlink:href="#path-26"></use>
                        </mask>
                        <use id="路径-21" fill="#FEC5B9" xlink:href="#path-26"></use>
                        <path d="M4.05641435,27.8717448 C19.8555521,28.0105541 34.0842543,26.1561192 46.742521,22.30844 L46.0019889,30.4831091 L6.34238043,37.05693 L0.765720274,31.3311858 L4.05641435,27.8717448 Z" id="路径-36" fill="#F88175" mask="url(#mask-27)"></path>
                    </g>
                    <g id="编组-10" transform="translate(127.000000, 323.000000)">
                        <mask id="mask-29" fill="white">
                            <use xlink:href="#path-28"></use>
                        </mask>
                        <use id="路径-22" fill="#FEC5B9" xlink:href="#path-28"></use>
                        <path d="M21.7765696,1.8016103 C12.3815773,12.9338153 5.20612156,23.3581465 0.250202458,33.0746039 L-5.73170732,26.2025608 L5.67909204,8.61193576 L11.7062785,-0.419791667 L17.2622904,-1.15555556 L21.7765696,1.8016103 Z" id="路径-35" fill="#F88175" mask="url(#mask-29)"></path>
                    </g>
                    <g id="腿" transform="translate(151.000000, 335.000000)">
                        <mask id="mask-31" fill="white">
                            <use xlink:href="#path-30"></use>
                        </mask>
                        <use id="路径-8" fill="#84AFFF" xlink:href="#path-30"></use>
                        <polygon id="路径-24" fill="#C9DCFF" mask="url(#mask-31)" points="27.838681 6.11684946 86.3188159 33.005465 80.9594459 20.5540114 62.0842616 10.0071364 43.7454569 1.77635684e-15 32.5173621 -4.91173377"></polygon>
                        <path d="M80.9594459,22.9098745 C89.5989449,39.756963 95.0519636,51.7965701 97.3185021,59.0286959 C101.6548,72.8650619 100.911684,77.8477843 100.911684,91.9471154 C100.911684,99.1294116 109.160276,95.2554633 125.657459,80.3252704 C111.873273,53.5926268 104.981179,39.7285389 104.981179,38.7330068 C104.981179,37.7374746 96.9739349,28.1621845 80.9594459,10.0071364 L80.9594459,22.9098745 Z" id="路径-19" fill="#2F63D3" mask="url(#mask-31)"></path>
                    </g>
                    <g id="腿" transform="translate(193.000000, 253.000000)">
                        <mask id="mask-33" fill="white">
                            <use xlink:href="#path-32"></use>
                        </mask>
                        <use id="路径-7" fill="#84AFFF" xlink:href="#path-32"></use>
                        <path d="M65.8697066,8.05242346 C94.4617476,68.8738169 111.18103,105.993417 116.027555,119.411225 C120.874079,132.829033 131.316839,167.476696 147.355835,223.354214 L157.775102,219.584627 L116.027555,82.6248557 L97.1628973,59.7346826 L65.8697066,8.05242346 Z" id="路径-23" fill="#C9DCFF" mask="url(#mask-33)"></path>
                        <path d="M65.8697066,8.05242346 C78.3955855,26.2502599 88.5470636,44.7328669 96.324141,63.5002445 L111.048218,47.3953681 L79.665605,-9.41381802 L57.7990833,-6.39295383 C50.6536199,-14.9605387 53.3438276,-10.145413 65.8697066,8.05242346 Z" id="路径-20" fill="#6294FD" mask="url(#mask-33)"></path>
                        <path d="M47.1150282,5.23541699 L48.1333959,4.6831518 L54.1695838,15.7839399 C84.4388191,71.5663504 100.485248,102.992712 102.406453,110.281842 L102.578301,110.977223 C104.160721,117.306202 111.284113,141.306303 123.940147,182.948386 L137.144401,226.235653 L136.035796,226.573226 L129.326549,204.613381 C112.773991,150.357087 103.508595,119.337644 101.517806,111.511116 L101.336024,110.776727 C99.6686446,103.797658 82.2385116,69.7836957 49.1598066,8.99088335 L47.1150282,5.23541699 Z" id="路径-32" fill="#FFFFFF" fill-rule="nonzero" mask="url(#mask-33)"></path>
                    </g>
                    <g id="手" transform="translate(54.000000, 191.000000)">
                        <mask id="mask-35" fill="white">
                            <use xlink:href="#path-34"></use>
                        </mask>
                        <use id="路径" fill="#FDC7BE" xlink:href="#path-34"></use>
                        <path d="M126.752297,33.1599243 L113.585162,38.3972534 C104.090817,41.8977905 95.3951835,43.3401571 87.4982612,42.724353 C79.601339,42.108549 64.114913,41.2859172 41.0389831,40.2564575 L78.8567807,50.042688 L112.694749,51.240979 L129.664396,41.2638306 L126.752297,33.1599243 Z" id="路径-27" fill="#FA8075" mask="url(#mask-35)"></path>
                        <path d="M122.12928,12.6047974 L104.33177,18.1150269 C100.121789,19.3803263 96.0527572,20.0129761 92.1246742,20.0129761 C88.1965913,20.0129761 75.0875721,19.1283895 52.7976165,17.3592163 C47.5019313,16.689506 43.881974,15.7296753 41.9377446,14.4797241 C39.9935153,13.2297729 30.9988129,8.97604574 14.9536375,1.71854248 C9.55417448,-0.572847493 5.64326204,-0.572847493 3.2209002,1.71854248 C-0.412642559,5.15562744 3.69469289,8.63005371 7.3361605,10.006488 C9.76380558,10.9241109 14.5611689,13.3750203 21.7282503,17.3592163 C22.1307194,18.7699504 21.403709,19.0218872 19.547219,18.1150269 C16.762484,16.7547363 13.7281164,14.7158447 10.5321384,15.7352905 C7.3361605,16.7547363 7.37719989,21.5529541 8.05166106,21.9797119 C8.72612222,22.4064697 -2.32592727,26.4334351 0.447486468,32.1679932 C3.2209002,37.9025513 12.7075092,31.1816772 17.8473391,27.6370605 C14.7770266,31.3481689 13.1935665,34.5744954 13.0969589,37.31604 C12.9520474,41.4283569 17.8111112,45.3918701 21.7282503,41.3539551 C22.9960373,43.6387939 24.5124192,44.7812134 26.2773961,44.7812134 C28.9248613,44.7812134 30.6479497,43.7157227 30.249443,36.2746948 C34.4977276,39.2578817 38.507795,40.7494751 42.2796452,40.7494751 C47.9374205,40.7494751 81.4702823,44.7812134 84.300019,44.7812134 C87.1297558,44.7812134 95.8006715,46.0783325 106.507707,43.4139038 C113.645731,41.637618 121.648695,38.8592 130.5166,35.0786499 L122.12928,12.6047974 Z" id="路径"></path>
                        <path d="M22.896664,30.7822163 C23.0248058,30.4912033 23.3665042,30.3583375 23.6598685,30.4854523 C23.9532329,30.6125671 24.0871723,30.9515266 23.9590304,31.2425396 C22.6773597,34.1532421 22.125241,37.5127319 22.307248,41.3267663 C22.3223853,41.6439748 22.0754304,41.9132959 21.7556588,41.9283119 C21.4358873,41.9433279 21.16439,41.6983524 21.1492527,41.3811439 C20.9591692,37.3978639 21.5401151,33.8629689 22.896664,30.7822163 Z" id="路径-29" fill="#F88175" fill-rule="nonzero"></path>
                        <path d="M7.70777396,17.809662 C7.83292309,17.5173702 8.17324037,17.3810611 8.46789388,17.5052071 C8.7625474,17.6293532 8.89995785,17.9669427 8.77480873,18.2592345 C7.67646623,20.8244661 8.17455392,21.9915812 10.7229888,23.3642555 C11.158922,23.599064 11.6585952,23.8421006 12.280856,24.1238297 L15.8083016,25.6432924 C20.0886099,27.476231 25.0273031,30.8773945 30.6355486,35.8458268 C30.8743196,36.0573579 30.8950165,36.4208484 30.6817763,36.6577056 C30.4685361,36.8945628 30.1021086,36.9150938 29.8633375,36.7035628 C24.530644,31.9792462 19.8330342,28.7078418 15.7805598,26.8884892 L12.4782789,25.4717649 L11.7931138,25.167129 C11.150885,24.876258 10.6305435,24.6230553 10.1697982,24.3748821 C7.12262327,22.7335693 6.36232031,20.9520336 7.70777396,17.809662 Z" id="路径-28" fill="#FA8075" fill-rule="nonzero"></path>
                    </g>
                    <g id="手" transform="translate(295.000000, 101.000000)">
                        <mask id="mask-37" fill="white">
                            <use xlink:href="#path-36"></use>
                        </mask>
                        <use id="路径-2" fill="#FEC5B9" xlink:href="#path-36"></use>
                        <path d="M0,108.360249 L32.7004487,108.360249 C42.3322938,108.093769 49.0885601,106.077671 52.9692475,102.311955 C58.7902786,96.6633797 59.1263451,87.901534 59.1263451,84.5684853 C59.1263451,82.3464528 59.7508967,64.4548767 61,30.8937569 L63.2883992,31.769413 L65.4008973,94.3271675 L51.5373121,112.769581 L27.357385,117.457249 L4.73921175,116.083073 L0,108.360249 Z" id="路径-26" fill="#F88175" mask="url(#mask-37)"></path>
                        <path d="M44.3113208,17.1949044 C43.4003446,20.5552559 41.9809601,22.7533353 40.0531674,23.7891426" id="路径-30" stroke="#F88175" stroke-linecap="round" mask="url(#mask-37)"></path>
                        <path d="M0,86.9176827 L29.9481316,86.9176827 C33.7512652,86.7701404 35.9330748,84.7039833 36.4935602,80.7192116 C37.3342884,74.742054 37.4320736,43.442852 37.383181,41.9317665 C37.3342884,40.420681 34.4662026,28.7969246 29.4622964,19.1711998 C24.4583901,9.54547503 32.5799031,-1.01208112 36.4935602,0.0778312919 C40.4072173,1.16774371 39.4495965,5.06472399 38.8420917,6.23847582 C38.2345869,7.41222765 36.5317751,12.7288323 37.383181,13.3560753 C37.9507849,13.7742373 45.7606777,20.6247928 60.8128593,33.9077416 L60.8128593,83.5460396 C60.2864675,93.3079211 58.5120965,99.7700488 55.4897461,102.932423 C50.9562205,107.675983 41.7377147,110.818974 35.6000055,110.818974 C31.5081994,110.818974 19.6415309,110.818974 0,110.818974 L0,86.9176827 Z" id="路径-2"></path>
                    </g>
                    <g id="编组-20" transform="translate(217.000000, 148.000000)">
                        <g id="编组-8" transform="translate(5.843469, 24.288763)">
                            <mask id="mask-39" fill="white">
                                <use xlink:href="#path-38"></use>
                            </mask>
                            <use id="路径-4" fill="#FEC5B9" xlink:href="#path-38"></use>
                            <path d="M3.3993146,2.53884036 C7.34476575,4.59938724 11.6993755,5.62966067 16.4631438,5.62966067 C10.4275174,7.86270693 5.98451666,7.21700193 3.13414171,3.69254566 C0.283766758,0.168089403 0.141836661,-0.127555504 2.70835142,2.80561094 L3.3993146,2.53884036 Z" id="路径-33" fill="#F88175" mask="url(#mask-39)"></path>
                            <path d="M0.857747396,12.2121614 C2.5910185,14.1972053 3.93823319,15.5007753 4.89939146,16.1228717 C7.41732539,17.7525695 10.2187037,18.2528917 12.7215712,17.6795499 C16.6575492,16.7779198 18.8790963,14.1850994 19.3862124,9.90108871 C18.748472,14.7541333 16.9575739,17.7135633 14.0135182,18.7793788 C9.59743454,20.3781019 2.77935582,18.2168224 0.447654442,14.8882825 L0.298249421,13.1761413 L0.857747396,12.2121614 Z" id="路径-34" fill="#F88175" mask="url(#mask-39)"></path>
                        </g>
                        <g id="编组-7" transform="translate(3.959422, 7.442368)">
                            <mask id="mask-41" fill="white">
                                <use xlink:href="#path-40"></use>
                            </mask>
                            <use id="路径-3" fill="#FEC5B9" xlink:href="#path-40"></use>
                            <path d="M20.1190278,4.71285306 C22.5676256,15.4679049 21.4850699,21.592642 16.8713607,23.0870643 C19.9796205,23.5030424 21.5337504,23.7110314 21.5337504,23.7110314 C25.0415448,20.1208496 26.795442,18.3257587 26.795442,18.3257587 L25.6991511,7.05829327 L23.7919245,4.15452224 L20.1190278,4.71285306 Z" id="路径-31" fill="#FFEAEA" mask="url(#mask-41)"></path>
                        </g>
                        <path d="M9.57018542,11.6407773 C15.2948551,12.700011 19.9784549,12.9597585 23.6209848,12.4200199 C29.0847796,11.6104121 30.4016741,6.51641794 29.7432269,4.21238774 C29.0847796,1.90835754 26.3576474,-0.434265658 23.6209848,0.0688518296 C20.8843221,0.571969318 20.0627346,2.95036851 18.4304918,2.50894348 C16.7982489,2.06751845 12.4713898,1.61144498 10.5543524,2.50894348 C8.63731505,3.40644197 7.01852707,5.70511986 7.01852707,5.70511986 C7.01852707,5.70511986 6.20759138,7.30827866 5.63071421,7.00488699 C4.66028235,5.70511986 0.308829951,7.08860425 0.0130293849,12.9104609 C-0.176880374,16.6482069 1.74155857,20.3356694 3.6563535,22.781395 C4.93288344,24.4118788 6.79502688,25.7606149 9.2427838,26.8276033 C6.51182074,23.795189 5.14633921,21.4534578 5.14633921,19.8024099 C5.14633921,17.3809234 6.99161735,15.9064889 9.57018542,16.991741 L9.57018542,12.9346872 L9.57018542,11.6407773 Z" id="路径-5" fill="#1338A7"></path>
                    </g>
                    <g id="编组-4" transform="translate(173.000000, 180.000000)">
                        <mask id="mask-43" fill="white">
                            <use xlink:href="#path-42"></use>
                        </mask>
                        <use id="路径-6" fill="#FFFFFF" xlink:href="#path-42"></use>
                        <path d="M68.4297984,4.20206711 C72.5008387,3.20736496 77.5757778,2.69452317 83.6546156,2.66354172 C92.7728724,2.61706955 112.267388,3.05128063 120.539347,3.66897908 C122.911147,3.84609032 122.592372,4.90592263 123.842593,5.0620141 L125.60244,1.15714286 L79.6537046,-2.87748558 L69.0176222,1.15714286 L68.4297984,4.20206711 Z" id="路径-37" fill="#C9DCFF" mask="url(#mask-43)"></path>
                        <path d="M97.9837488,31.8285703 L98.4968395,77.8306797 C98.5091587,78.9351805 99.4145201,79.8205686 100.519021,79.8082494 C100.53785,79.8080394 100.556675,79.8075635 100.575491,79.8068218 L108.825684,79.4816116 L108.825684,79.4816116 L97.9837488,31.8285703 Z" id="路径-25" fill="#6294FD" mask="url(#mask-43)"></path>
                        <path d="M51.3305664,4.66142119 C38.5397452,7.39833525 31.2341761,9.21060855 29.413859,10.0982411 C27.593542,10.9858736 18.1747248,15.1676154 1.15740741,22.6434664 L-0.137329102,19.6582299 C8.17682714,14.4368592 12.3339053,11.8261738 12.3339053,11.8261738 C12.3339053,11.8261738 19.4701207,10.1526827 33.7425515,6.8057005 L49.6758355,2.08412278 L51.3305664,4.66142119 Z" id="路径-38" fill="#C9DCFF" mask="url(#mask-43)"></path>
                        <polygon id="路径-39" fill="#84AFFF" fill-rule="nonzero" mask="url(#mask-43)" points="7.05463582 14.5872163 16.2992014 50.6733491 15.177985 50.9604517 5.93341937 14.8743189"></polygon>
                        <polygon id="路径-39" fill="#84AFFF" fill-rule="nonzero" mask="url(#mask-43)" points="115.868727 0.82639941 117.026134 36.697828 115.869328 36.7351358 114.711921 0.863707193"></polygon>
                        <path d="M69.1341116,1.49841875 L68.7087013,1.66103333 L68.6495167,1.97792544 C67.7184404,6.96318047 65.2488843,9.51977811 61.1672122,9.80071643 C57.024327,10.085868 53.6651574,8.20381778 51.027725,4.08960402 L50.8368991,3.79192869 L50.4848895,3.82590468 C41.2190551,4.72024369 33.811761,6.23431475 28.2574714,8.3741013 L26.4702209,9.07544887 C21.1551807,11.1948028 13.2297798,14.6210909 2.69013083,19.3557202 C1.4101363,19.9307087 0.727308882,21.34104 1.07025998,22.7014461 L7.952736,50.0026052 C8.34328927,51.5518379 9.91608366,52.4912056 11.4656706,52.1007416 L11.6961838,52.0323565 L24.1145833,47.7784286 L21.3684134,77.735889 C21.2224811,79.3268943 22.3942392,80.7349333 23.9856081,80.8808321 C24.0887701,80.8902902 24.1923657,80.8942025 24.2959473,80.8933212 L99.8873652,79.6881961 C101.485208,79.6627385 102.759874,78.3470893 102.734411,76.7496112 L102.724946,76.5574276 L99.1377315,33.1787571 L121.023692,34.0046041 C122.556726,34.0624099 123.856104,32.9169222 124.010887,31.4126691 L124.026263,31.173777 L124.026263,5.39837281 C124.026263,3.8799418 122.852009,2.61994107 121.337037,2.51273544 L115.908797,2.13825256 C88.6236619,0.307141843 73.1245401,0.0842716225 69.1341116,1.49841875 Z M121.25532,3.66699059 C122.164302,3.73131391 122.868856,4.48731551 122.868856,5.39836822 L122.867442,31.1846686 C122.831485,32.1371464 122.02546,32.884412 121.067313,32.8482834 L97.8779763,31.973888 L101.571472,76.652739 C101.574643,76.6911022 101.576537,76.7295601 101.57715,76.7680492 C101.592428,77.726536 100.827629,78.5159256 99.868923,78.5312001 L24.2775051,79.7357766 C24.2153561,79.7357766 24.1531988,79.734199 24.0913016,79.7285242 C23.1364802,79.6409849 22.4334254,78.7961615 22.5209847,77.8415583 L25.4319502,46.1051737 L11.3211148,50.9376569 C11.2756007,50.953244 11.2294582,50.9669328 11.1828069,50.978688 C10.2530547,51.2129664 9.30937809,50.6493458 9.07504613,49.7198062 L2.19257011,22.4186471 C1.98679934,21.6024029 2.39649506,20.7562056 3.16449192,20.4112125 L8.89364347,17.8521107 C17.7413375,13.9248331 24.335705,11.1250391 28.6736357,9.45385407 L29.2062357,9.25279695 C34.4110082,7.32744518 41.2486134,5.92996178 49.7145193,5.0652452 L50.2488426,5.01158571 L50.537517,5.43465515 C53.3284484,9.39483573 56.9155819,11.2532347 61.2467057,10.9551268 L61.5680405,10.928509 C65.8114125,10.516527 68.5186432,7.81498214 69.6305694,2.94680093 L69.7210648,2.52141429 L69.8039993,2.49689913 C74.2589244,1.18324445 91.5142526,1.56239094 121.25532,3.66699059 Z" id="路径-6" fill="#84AFFF" fill-rule="nonzero"></path>
                    </g>
                    <path d="M278.864993,494.718495 L348.530709,472.604064 C349.582212,472.270278 350.705414,472.850969 351.041031,473.901889 L353.394092,481.270057 C353.729133,482.319176 353.152966,483.441742 352.105251,483.781149 L282.387243,506.366264 C281.336436,506.706673 280.208633,506.130781 279.868224,505.079973 C279.862514,505.062348 279.85705,505.044643 279.851832,505.026866 L277.551063,497.188013 C277.244788,496.144517 277.828449,495.047532 278.864993,494.718495 Z" id="路径-17" fill="#6798FF"></path>
                    <path d="M348.057101,472.137333 L279.030208,494.088103 C277.522012,494.567715 276.672766,496.167383 277.118561,497.688946 L279.256354,504.981607 C279.751361,506.513683 281.391893,507.353506 282.920584,506.857403 L351.98608,484.443718 C353.510542,483.948988 354.348885,482.312002 353.861218,480.782239 L351.708462,474.029249 C351.22013,472.4974 349.586534,471.650968 348.057101,472.137333 Z M350.59989,474.384212 L352.752647,481.137203 C353.045247,482.05506 352.542241,483.037252 351.627564,483.33409 L282.562068,505.747775 C281.698807,506.027927 280.776105,505.598051 280.422924,504.780127 L280.349347,504.576243 L278.235193,497.360339 C277.967716,496.447401 278.477263,495.4876 279.382181,495.199833 L348.409074,473.249063 C349.326734,472.957244 350.306891,473.465103 350.59989,474.384212 Z" id="路径-17" fill="#5D91FF" fill-rule="nonzero"></path>
                    <path d="M178.432505,327.460965 L185.264809,331.580491 C186.210737,332.150837 186.515207,333.380019 185.944861,334.325947 C185.940893,334.332527 185.936888,334.339085 185.932845,334.345619 L151.294155,390.325085 C150.712945,391.264376 149.480335,391.554659 148.541043,390.973449 C148.515265,390.957498 148.489853,390.940963 148.464827,390.923857 L141.639017,386.258287 C140.753541,385.653047 140.503129,384.457073 141.071422,383.547444 L175.703618,328.114023 C176.282329,327.187719 177.497152,326.896997 178.432505,327.460965 Z" id="路径-18" fill="#6798FF" transform="translate(163.525942, 359.274728) rotate(-3.000000) translate(-163.525942, -359.274728) "></path>
                    <path d="M175.049342,328.069422 L140.740611,382.985306 C139.918741,384.300823 140.280877,386.030503 141.561426,386.905786 L147.936519,391.261825 L147.977647,391.287797 C149.335912,392.128369 151.118375,391.70862 151.95889,390.350262 L186.273222,334.894459 C187.099685,333.523592 186.659348,331.745989 185.291439,330.921207 L178.995412,327.125014 C177.642852,326.309486 175.886208,326.729902 175.049342,328.069422 Z M178.398093,328.115809 L184.694119,331.912002 C185.466586,332.377761 185.746059,333.349934 185.363718,334.147003 L185.272,334.314243 L150.975147,389.741466 C150.470838,390.556481 149.401361,390.80833 148.586402,390.303987 L148.520359,390.261012 L142.214209,385.950626 C141.445879,385.425457 141.228598,384.387649 141.72172,383.598338 L176.030451,328.682454 C176.532571,327.878742 177.586557,327.626492 178.398093,328.115809 Z" id="路径-18" fill="#5D91FF" fill-rule="nonzero" transform="translate(163.495582, 359.215141) rotate(-3.000000) translate(-163.495582, -359.215141) "></path>
                    <g id="编组-28" transform="translate(249.000000, 207.000000)">
                        <rect id="矩形" fill="#FFCB6A" x="0" y="0" width="14" height="15" rx="2"></rect>
                        <path d="M2,0 L12,0 C13.1045695,-6.46995335e-16 14,0.8954305 14,2 L14,2.30769231 C14,3.58219558 12.966811,4.61538462 11.6923077,4.61538462 L2.30769231,4.61538462 C1.03318904,4.61538462 1.56081635e-16,3.58219558 0,2.30769231 L0,2 C-1.3527075e-16,0.8954305 0.8954305,2.02906125e-16 2,0 Z" id="矩形" fill="#FFA600"></path>
                        <ellipse id="椭圆形" fill="#FFDB97" cx="7" cy="2.30769231" rx="1.16666667" ry="1.15384615"></ellipse>
                    </g>
                </g>
            </g>
        </g>
    </g>
</svg>