<?xml version="1.0" encoding="UTF-8"?>
<svg width="770px" height="541px" viewBox="0 0 770 541" version="1.1" xmlns="http://www.w3.org/2000/svg" xmlns:xlink="http://www.w3.org/1999/xlink">
    <!-- Generator: Sketch 60.1 (88133) - https://sketch.com -->
    <title>编组 142</title>
    <desc>Created with Sketch.</desc>
    <defs>
        <path d="M129,67.5209947 C90.8708267,84.5209947 15.7028579,110.711171 1.6677017,194.248818 C-12.3674546,277.786464 71.3164063,304.50537 76.4177017,373.809715 C81.5189971,443.114061 179,488.27923 213.632545,495.57534 C248.265091,502.871451 628.370848,590.127906 734,399.497935 C839.629152,208.867965 678.220743,254.10052 637.651576,192.193404 C597.082409,130.286288 598.050377,45.1259793 550.523023,17.8749986 C502.995668,-9.37598208 408,-2.02026663 359,28.250364 C310,58.5209947 167.129173,50.5209947 129,67.5209947 Z" id="path-1"></path>
        <path d="M-2.27373675e-13,20.3754883 L89.1835938,20.3754883 C86.7840789,6.79182943 72.8677939,-1.15463195e-13 47.4347388,-1.15463195e-13 C22.0016838,-1.15463195e-13 6.19010417,6.79182943 -2.27373675e-13,20.3754883 Z" id="path-3"></path>
        <path d="M3.45549657,97.8559664 C-3.94499968,147.050815 6.8831912,173.590622 35.9400692,177.47539 C79.5253862,183.302541 127.832851,191.308008 182.371015,180.24952 C236.909179,169.191032 249.810044,153.778026 253.853977,130.9934 C257.897911,108.208773 265.469213,68.5650124 267.612646,50.2562957 C269.75608,31.9475791 277.433023,18.4541632 267.612646,13.4700262 C257.79227,8.48588913 175.948049,-9.77730735 112.189548,9.99444099 C48.4310477,29.7661893 22.2257693,43.9072784 14.7928765,53.4741171 C9.83761467,59.8520096 6.05848802,74.6459594 3.45549657,97.8559664 Z" id="path-5"></path>
        <path d="M0,1.13686838e-13 L99.9620449,1.13686838e-13 L95.9057034,55.9910085 C91.4429509,61.618657 83.018872,68.5372323 70.6334668,76.7467346 C58.2480615,84.9562368 45.6562646,91.967757 32.8580761,97.7812951 L8.88286662,97.7812951 L0,1.13686838e-13 Z" id="path-7"></path>
        <path d="M64.3604004,1.0658141e-13 C76.3053368,18.5539438 80.9388389,41.336878 78.2609067,68.3488028 C74.2440084,108.86669 51.3633833,129.130631 26.2506908,124.563809 C1.1379982,119.996987 -4.37105568,85.464366 3.05511049,68.3488028 C10.4812767,51.2332396 23.3160181,48.8719418 39.498267,33.8427044 C50.2864329,23.8232129 58.5738107,12.5423114 64.3604004,1.0658141e-13 Z" id="path-9"></path>
        <path d="M49.5397161,5.00932629e-13 C28.0493672,8.51809716 13.7835136,16.2496146 6.74215512,23.1945522 C-0.299203321,30.1394899 -1.82518191,38.4192773 2.16421936,48.0339145 C8.04388202,57.4138487 16.2391558,60.4621671 26.7500408,57.1788697 C42.5163683,52.2539236 43.5174704,34.7582118 44.7863569,21.9892397 C45.6322813,13.4765917 47.2167344,6.14684509 49.5397161,5.00932629e-13 Z" id="path-11"></path>
        <path d="M-1.42108547e-14,5.68434189e-14 C16.6455403,0.0329737077 30.1637053,4.39841925 40.5544951,13.0963366 C56.1406797,26.1432127 62.2842186,49.6088609 53.8704101,63.88877 C45.4566015,78.1686792 28.825788,73.1428732 21.0554705,67.9591167 C13.285153,62.7753603 6.55088394,48.3421561 6.55088394,30.7192464 C6.55088394,18.9706399 4.36725596,8.73089108 -1.42108547e-14,5.68434189e-14 Z" id="path-13"></path>
        <path d="M6.48082245,20.0169163 C8.51272651,27.3161148 9.52892356,31.9678111 9.52941358,33.9720052 C13.7512308,34.4008963 18.771369,33.9628714 24.5898282,32.6579305 C30.4082874,31.3529896 33.4890159,28.5964332 33.8320137,24.3882612 C27.8964868,21.6380359 23.3366738,15.6695128 20.1525746,6.48269196 L10.1834255,10.8169403 L6.48082245,20.0169163 Z" id="path-15"></path>
        <path d="M1.6682626,22.4809785 C-0.686786745,17.6060941 -0.548407858,12.9775329 2.08339926,8.59529478 C6.03110993,2.02193761 12.0027642,3.06410974 14.3038437,3.48021891 C19.2436849,-2.20167643 29.2376971,-0.722161938 39.6482136,6.43041999 C46.3448,3.61333899 51.6416701,3.59209383 55.5388239,6.36668451 C61.3845547,10.5285705 65.3875543,15.2675449 62.2412094,27.3913789 C59.0948645,39.5152128 54.2518336,49.4782408 62.042493,58.2660234 C69.8331525,67.053806 77.4229592,69.7805467 69.8906788,77.1398568 C62.3583983,84.499167 53.2497426,86.5836682 43.172434,81.573735 C33.0951254,76.5638018 30.0905795,65.4880374 31.5928525,60.2950169 C33.0951254,55.1019964 39.2001565,49.2103457 44.5636754,36.5976009 C48.1393546,28.1891044 48.8972015,22.2818508 46.8372162,18.8758404 C45.5138379,27.9145163 42.7106449,34.4883962 38.4276371,38.5974801 C32.867802,44.5654084 26.6803575,44.5723336 25.7174083,43.1767008 C25.0754422,42.2462789 26.1767896,41.0397113 29.0214505,39.5569979 C31.40137,38.9419808 33.4023642,37.940186 35.0244333,36.5516133 C37.7115972,34.0220001 36.7980282,30.4023232 34.4739528,29.5547538 C32.9245691,28.9897075 31.1988794,29.3884225 29.2968836,30.7508989 C27.1038051,28.0428745 25.1905545,25.0863599 23.557132,21.8813551 C22.0922054,19.0069632 21.2011217,15.4203817 20.8838807,11.1216104 L20.8838827,11.1216102 C20.8151838,10.1907061 20.1116814,9.431116 19.1887687,9.29135095 C11.9884013,8.20093393 6.34954596,12.0055992 2.27220283,20.7053468 C2.11567949,21.0524273 2.00489086,21.3511732 1.93983695,21.6015843 C1.87478303,21.8519953 1.78425824,22.1451267 1.6682626,22.4809785 Z" id="path-17"></path>
        <path d="M0.931403901,16.7073693 L10.586543,86.7338184 C12.1192368,95.609641 16.1322575,99.3527016 22.6256053,97.963 C29.0620869,96.5854688 91.9375326,80.7404398 211.251942,50.4279129 L211.251946,50.4279288 C212.857796,50.0199533 213.828864,48.3874258 213.420889,46.7815765 C213.39701,46.6875852 213.368587,46.5948071 213.335722,46.503569 C209.819034,36.7409441 206.355673,29.8248886 202.945639,25.7554024 C197.302046,19.0204173 184.761331,14.7798043 166.614406,15.5712011 C148.467481,16.362598 141.772346,22.8259723 119.12562,18.7031375 C104.027803,15.9545809 88.8119644,10.130974 73.4781046,1.23231685 L0.931403901,16.7073693 Z" id="path-19"></path>
        <path d="M6.05092392,11.8353339 C-1.27891329,16.2605994 -0.499786716,19.0629011 8.38830363,20.2422391 C21.7204392,22.0112461 52.2101347,17.9291035 67.0004919,10.2865695 C76.8607301,5.19154683 77.9224506,2.27519793 70.1856533,1.53752282 C60.0845528,0.82222529 48.2722525,1.61977026 34.7487526,3.93015772 C21.2252526,6.24054518 11.6593098,8.87560391 6.05092392,11.8353339 Z" id="path-21"></path>
        <path d="M0.931403901,16.7073693 L10.586543,86.7338184 C12.1192368,95.609641 16.1322575,99.3527016 22.6256053,97.963 C29.0620869,96.5854688 91.9375326,80.7404398 211.251942,50.4279129 L211.251946,50.4279288 C212.857796,50.0199533 213.828864,48.3874258 213.420889,46.7815765 C213.39701,46.6875852 213.368587,46.5948071 213.335722,46.503569 C209.819034,36.7409441 206.355673,29.8248886 202.945639,25.7554024 C197.302046,19.0204173 184.761331,14.7798043 166.614406,15.5712011 C148.467481,16.362598 141.772346,22.8259723 119.12562,18.7031375 C104.027803,15.9545809 88.8119644,10.130974 73.4781046,1.23231685 L0.931403901,16.7073693 Z" id="path-23"></path>
        <path d="M6.05092392,11.8353339 C-1.27891329,16.2605994 -0.499786716,19.0629011 8.38830363,20.2422391 C21.7204392,22.0112461 52.2101347,17.9291035 67.0004919,10.2865695 C76.8607301,5.19154683 77.9224506,2.27519793 70.1856533,1.53752282 C60.0845528,0.82222529 48.2722525,1.61977026 34.7487526,3.93015772 C21.2252526,6.24054518 11.6593098,8.87560391 6.05092392,11.8353339 Z" id="path-25"></path>
        <path d="M87.5436767,1.46269352 C71.0526261,1.71788717 56.2445179,4.56076464 43.1193521,9.9913259 C29.9941862,15.4218872 16.1588047,21.0162925 1.61320755,26.7745419 L18.2052992,63.0752203 L43.7298976,50.3285741 L44.5784421,113.30001 L145.043743,120.638221 L145.043743,70.6836959 L170.097297,70.6836959 C170.097297,47.0896246 167.319706,30.5531005 161.764525,21.0741234 C153.431752,6.8556577 135.195362,1.46269352 113.909152,1.46269352 C110.875607,5.78395934 106.56952,7.94459225 100.990888,7.94459225 C95.4122574,7.94459225 90.9298534,5.78395934 87.5436767,1.46269352 Z" id="path-27"></path>
        <path d="M138.077723,0.158494519 L136.362223,41.0233966 C136.176907,45.4377865 132.44811,48.866129 128.03372,48.6808139 C127.993405,48.6791215 127.953105,48.6771241 127.912821,48.674822 L13.4274278,42.1321746 L13.4274278,42.1321746 L0,12.52973 L103.856347,15.1105327 L103.856347,0 L138.077723,0.158494519 Z" id="path-29"></path>
        <path d="M93.5040133,48.829012 L76.6245452,46.3298096 L58.3022795,187.159001 C44.7734219,191.484584 29.5841237,193.476736 12.734385,193.135457 C8.74837188,193.054724 4.54603556,192.761485 0.774280287,191.641541 L22.0129227,32.911792 C26.9832602,13.1507785 36.3966984,2.41457518 50.2532374,0.703181955 C64.1097763,-1.00821127 86.5352276,0.404267025 117.529591,4.94061685 L93.5040133,48.829012 Z" id="path-31"></path>
        <path d="M51.4476799,164.73579 L127.650726,58.0915384 C138.21996,43.1384617 147.465015,34.2094516 155.38589,31.3045083 C163.306766,28.399565 160.859901,18.3754596 148.045297,1.2321921 L103.47459,0.113740809 L0.274423927,141.599013 C2.88356149,143.916024 5.12321059,145.687761 6.99337121,146.914224 C12.1073013,150.267973 18.5146748,153.411085 24.5760338,156.177189 C33.9623448,160.460636 42.9195602,163.313503 51.4476799,164.73579 Z" id="path-33"></path>
        <path d="M276.114559,32.9207324 C277.862375,65.1832308 273.526386,88.1668784 263.106593,101.871675 C247.476903,122.42887 227.25959,136.513771 189.632267,127.721369 C164.547386,121.859768 136.65153,114.438793 105.944699,105.458445 C89.5437322,85.2704556 73.5568264,69.8452906 57.9839821,59.1829497 C42.9726405,48.9050558 24.4720625,40.4003002 2.48224818,33.6686828 L2.48225207,33.6686701 C1.42607034,33.3453472 0.831970899,32.2270377 1.15529383,31.170856 C1.20700981,31.0019182 1.28088299,30.8405778 1.37498467,30.6910472 C10.0068936,16.9746667 19.2511983,7.5409042 29.1078988,2.38975969 C39.4899467,-3.03593315 64.4191289,0.777213875 103.895445,13.8292008 L164.045688,32.9207324 L175.820048,25.5876764 L276.114559,32.9207324 Z" id="path-35"></path>
    </defs>
    <g id="页面-1" stroke="none" stroke-width="1" fill="none" fill-rule="evenodd">
        <g id="画板" transform="translate(-475.000000, -2931.000000)">
            <g id="编组-142" transform="translate(475.000000, 2931.000000)">
                <g id="编组-7">
                    <g id="编组-2" transform="translate(0.000000, 18.510597)">
                        <mask id="mask-2" fill="white">
                            <use xlink:href="#path-1"></use>
                        </mask>
                        <use id="路径-418" fill="#F3F7FF" xlink:href="#path-1"></use>
                        <rect id="矩形" fill="#D0DEFE" mask="url(#mask-2)" x="57.6677017" y="393.489403" width="741" height="133"></rect>
                        <rect id="矩形" fill="#C4D6FF" mask="url(#mask-2)" transform="translate(428.167702, 386.989403) scale(1, -1) translate(-428.167702, -386.989403) " x="57.6677017" y="380.489403" width="741" height="13"></rect>
                    </g>
                    <polygon id="路径-425" fill="#D3DFFA" points="129 236.031592 131.814186 412 142 412 146.036612 236"></polygon>
                    <rect id="矩形" fill="#D3DFFA" x="35.6677017" y="223" width="476" height="13" rx="6.5"></rect>
                    <g id="台灯" transform="translate(356.667702, 0.000000)">
                        <path d="M0.959960938,224 L91.1839637,224 C91.1839637,222.4375 91.1839637,221.562663 91.1839637,221.375488 C87.9599609,215.633789 73.3430356,201 49.4347388,201 C25.8759965,201 9.64246522,208.218887 2,221.375488 C1.59464815,222.073307 1.24796846,222.948144 0.959960938,224 Z" id="路径-399" fill="#89ACFD"></path>
                        <g id="编组-136" transform="translate(2.000000, 201.000000)">
                            <mask id="mask-4" fill="white">
                                <use xlink:href="#path-3"></use>
                            </mask>
                            <use id="路径-399" fill="#ADC4F8" xlink:href="#path-3"></use>
                            <ellipse id="椭圆形" fill="#D0DEFE" mask="url(#mask-4)" cx="12.5" cy="8" rx="3.5" ry="3"></ellipse>
                            <path d="M12.5,5 C14.4329966,5 16,6.34314575 16,8 C16,9.65685425 14.4329966,11 12.5,11 C10.5670034,11 9,9.65685425 9,8 C9,6.34314575 10.5670034,5 12.5,5 Z M12.5,6 C11.0880133,6 10,6.93258279 10,8 C10,9.06741721 11.0880133,10 12.5,10 C13.9119867,10 15,9.06741721 15,8 C15,6.93258279 13.9119867,6 12.5,6 Z" id="椭圆形" fill="#FFFFFF" fill-rule="nonzero" mask="url(#mask-4)"></path>
                        </g>
                        <polygon id="路径-400" fill="#89ACFD" points="38.3388672 204.281738 36.1682129 206.005859 58.7590332 206.005859 58.2536621 204.281738"></polygon>
                        <path d="M5,2.87130849 C15.3313029,-0.433051724 25.6792742,-0.885368228 36.0439137,1.51435898 C51.5908729,5.11394979 56.2087441,10.5553855 57.5247805,13.9663217 C58.840817,17.3772579 65.0656619,31.9923088 61.9532395,41.5121695 C58.840817,51.0320303 49.358081,71.7385798 37.4478374,77.8679609 L6.31224822,5.25108427 L5,2.87130849 Z" id="路径-287" fill="#FBC869"></path>
                        <path d="M7.56901619,4.61277654 C17.3973737,1.64229661 27.241588,1.23568322 37.1016592,3.39293638 C51.891766,6.62881611 56.2848313,11.5204365 57.5368009,14.5867237 C58.7887705,17.6530109 64.7105793,30.7913228 61.7496749,39.3492746 C58.7887705,47.9072264 49.7676702,66.5215377 38.4372376,72.0315918 L8.81738192,6.75209421 L7.56901619,4.61277654 Z" id="路径-287" fill="#FFD07A"></path>
                        <path d="M5,2.87130849 C24.4629948,20.538675 35.2789406,45.5375591 37.4478374,77.8679609 C24.8947983,61.5979051 16.5229351,48.6199116 12.3322478,38.9339805 C9.31230453,31.9539889 6.86822195,19.9330982 5,2.87130849 Z" id="路径-288" fill="#FFE4B3"></path>
                        <path d="M6.56901619,8.03159178 C23.3640909,23.1084175 32.6974243,44.4417508 34.5690162,72.0315918 C24.7154538,58.0068525 17.9805514,46.8616344 14.364309,38.5959375 C10.7480666,30.3302407 8.14963567,20.1421254 6.56901619,8.03159178 Z" id="路径-288" fill="#FFF1D7"></path>
                        <path d="M69.1280982,29.0213379 C86.4774888,90.9557365 75.9174018,149.844358 37.4478374,205.687203 L57.7635632,205.563519 C69.1235585,181.354187 76.4023136,161.676878 79.5998287,146.531592 C95.3639381,71.863623 77.8596999,25.2004982 76.4742896,22.3855957 L70.8145477,27.7795091 L69.1280982,29.0213379 Z" id="路径-291" fill="#D0DEFE"></path>
                        <path d="M52.4347388,8.13950193 C61.9340216,2.95834297 68.3654829,1.20227849 71.7291228,2.87130849 C74.5109773,4.25165799 76.7812669,8.4793133 78.5399917,15.5542744 C79.257699,18.4414299 78.3140086,21.4883858 76.0900826,23.4644737 L62.8145088,35.2605957 L62.8145088,35.2605957 L52.4347388,8.13950193 Z" id="路径-290" fill="#FFBB3C"></path>
                        <path d="M54.0055217,9.74861433 C62.4052872,5.35238209 68.0923236,3.86235499 71.0666309,5.27853302 C73.385157,6.38246934 75.3018188,9.63270518 76.8166162,15.0292405 C77.6599499,18.033652 76.6793602,21.2542213 74.3047974,23.2788574 L63.1838603,32.7609611 L63.1838603,32.7609611 L54.0055217,9.74861433 Z" id="路径-290" fill="#FFC251"></path>
                    </g>
                    <g id="椅子" transform="translate(335.667702, 153.000000)">
                        <path d="M123.745622,186.185462 L127.597414,348.764927 C127.69016,352.679641 130.890264,355.804827 134.806076,355.804827 C138.695196,355.804827 141.847951,352.652072 141.847951,348.762952 L141.847951,186.185462 L141.847951,186.185462 L123.745622,186.185462 Z" id="路径-273" fill="#87B0FB"></path>
                        <path d="M165.782243,184.185462 L185.714408,368.016461 C186.083921,371.42442 188.961381,374.006752 192.389314,374.006752 C195.469782,374.006752 197.966995,371.509539 197.966995,368.42907 C197.966995,368.285643 197.961463,368.142269 197.95041,367.999268 L183.472866,180.678429 L183.472866,180.678429 L165.782243,184.185462 Z" id="路径-274" fill="#A4C3FC"></path>
                        <path d="M203.414695,173.934067 L258.419237,358.406857 C259.270033,361.260234 262.272859,362.883647 265.126237,362.032851 C265.159314,362.022988 265.192296,362.012808 265.225178,362.002312 C268.159224,361.065738 269.845304,357.994847 269.060727,355.016554 L220.321463,170 L220.321463,170 L203.414695,173.934067 Z" id="路径-275" fill="#87B0FB"></path>
                        <path d="M54.5677436,178.39786 L1.56064455,350.730965 C0.923986927,352.800823 2.08582564,354.994888 4.15568395,355.631545 C4.52916047,355.746421 4.91771019,355.804827 5.30845455,355.804827 C8.48910087,355.804827 11.3235398,353.797779 12.3798109,350.797645 L71.5703285,182.678429 L71.5703285,182.678429 L54.5677436,178.39786 Z" id="路径-276" fill="#A4C3FC"></path>
                        <g id="编组-72" transform="translate(5.000000, 0.413281)">
                            <mask id="mask-6" fill="white">
                                <use xlink:href="#path-5"></use>
                            </mask>
                            <use id="路径-271" fill="#FFFFFF" xlink:href="#path-5"></use>
                            <path d="M23.4146954,167.640335 C62.34168,153.170722 90.4621227,144.52134 107.776024,141.692188 C125.089924,138.863035 156.331405,139.931899 201.500467,144.898779 L198.719383,180.265148 L71.2935166,199.056716 L18.3248517,180.265148 L23.4146954,167.640335 Z" id="路径-346" fill="#EFF5FF" mask="url(#mask-6)"></path>
                            <path d="M1.20215225,132.599141 C6.77085166,155.686605 20.4404383,169.247373 42.2109123,173.281447 C74.8666231,179.332557 149.518812,182.531363 168.817289,173.281447 C188.115766,164.031531 202.757593,144.375954 207.570592,129.003125 C212.383591,113.630297 246.829847,43.1530025 272.49375,32.5297549 L249.040979,186.632342 L21.4545908,203.864483 L-5,168.673391 L1.20215225,132.599141 Z" id="路径-272" fill="#A4C3FC" mask="url(#mask-6)"></path>
                            <path d="M112.041454,9.51687634 C54.3461071,27.4084181 23.0907106,41.9790608 14.3980408,53.1673521 C9.36706147,59.6427002 5.57169984,74.5002042 2.95861159,97.800241 C-4.47549022,147.216103 6.46845465,174.039623 35.8738111,177.97098 L51.4768909,180.086064 C78.4622506,183.726245 94.3331093,185.382974 112.562263,186.039323 C136.974058,186.918281 159.74085,185.348324 182.470376,180.739548 C231.7887,170.739466 249.341578,157.565449 254.202838,131.863469 L260.21916,98.6453537 L262.056139,88.3677736 C265.075321,71.3008477 267.033745,59.2064725 268.01713,51.0877408 L268.109255,50.3144345 C268.531601,46.7068493 269.153299,43.2566807 270.127961,38.7693815 L271.866397,30.820176 C272.986919,25.5884662 272.95739,25.1484019 272.991798,22.6379739 C273.055644,17.9797363 271.528214,14.8965837 267.838935,13.0241636 C261.157578,9.63317362 235.584258,4.27903194 210.173514,1.95086206 C175.003604,-1.27145689 141.281139,0.654311603 113.059124,9.20493028 L112.041454,9.51687634 Z M210.082274,2.94669106 L211.599974,3.08931749 C236.387538,5.47666397 260.977313,10.6631057 267.386358,13.9158887 C270.613208,15.5536123 271.976579,18.173832 271.99358,22.2787455 L271.975138,23.6851082 C271.934833,25.4131663 271.789117,26.4464199 270.718057,31.4024724 L269.308179,37.8371469 C268.28971,42.4652236 267.633305,45.9931001 267.1851,49.6238503 L266.926228,51.7651311 C265.865689,60.2537802 263.794758,72.8912649 260.625465,90.7073794 L257.818051,106.277323 L253.361671,130.906023 C251.125663,143.504305 246.349167,152.260566 236.743692,159.621901 C225.896318,167.934989 208.632056,174.414497 182.271654,179.759492 C160.116439,184.251817 137.921643,185.846778 114.183117,185.093652 L112.598246,185.039971 C95.0919417,184.409648 79.7564702,182.853682 54.5955175,179.495611 L36.0063273,176.979799 C7.29792776,173.141622 -3.41450913,146.885526 3.94993334,97.9303457 L4.12468534,96.4002274 C6.71306726,74.1412031 10.4166022,59.9217537 15.1877122,53.7808821 C23.7054204,42.8177831 54.8478425,28.2998067 112.337643,10.4720056 C140.62208,1.70089662 174.60834,-0.30348314 210.082274,2.94669106 Z" id="路径-271" fill="#A4C3FC" fill-rule="nonzero"></path>
                        </g>
                    </g>
                    <g id="编组" transform="translate(589.667702, 142.000000)">
                        <g id="编组-3" transform="translate(0.916788, 0.536091)">
                            <g id="编组-92" transform="translate(13.783020, 263.976940)">
                                <mask id="mask-8" fill="white">
                                    <use xlink:href="#path-7"></use>
                                </mask>
                                <use id="路径-277" fill="#E5EDFF" xlink:href="#path-7"></use>
                                <polygon id="路径-277" fill="#FFDC9C" mask="url(#mask-8)" points="4.54747351e-13 4.31685937e-14 104 4.18571428e-14 102.49314 18 1.3675705 18"></polygon>
                                <polygon id="路径-277" fill="#FFE4B3" mask="url(#mask-8)" points="6 2 96 2 94.6959868 16 7.18347447 16"></polygon>
                            </g>
                            <g id="编组-85" transform="translate(0.000000, -0.000000)">
                                <g id="编组-107" transform="translate(72.784203, -0.000000)">
                                    <mask id="mask-10" fill="white">
                                        <use xlink:href="#path-9"></use>
                                    </mask>
                                    <use id="路径-282" fill="#EDFFF5" xlink:href="#path-9"></use>
                                    <path d="M61.3604004,-1 C73.3053368,17.5539438 77.9388389,40.336878 75.2609067,67.3488028 C71.2440084,107.86669 48.3633833,128.130631 23.2506908,123.563809 C-1.8620018,118.996987 -7.37105568,84.464366 0.0551104884,67.3488028 C7.48127666,50.2332396 20.3160181,47.8719418 36.498267,32.8427044 C47.2864329,22.8232129 55.5738107,11.5423114 61.3604004,-1 Z" id="路径-282" fill="#D3F0E0" mask="url(#mask-10)"></path>
                                    <path d="M51.4067169,20.9534087 C40.9652108,33.6200754 30.8588732,44.2867421 21.087704,52.9534087 C6.43095021,65.9534087 -1.751797,82.48563 9.6679535,114.502237 L-12.9005773,106.845987 C-3.87876628,60.5489109 1.69472032,36.2513849 3.81988254,33.9534087 C5.94504476,31.6554326 21.8073229,27.3220993 51.4067169,20.9534087 Z" id="路径-348" fill="#C6E3D3" mask="url(#mask-10)"></path>
                                </g>
                                <g id="编组-109" transform="translate(76.604086, 168.944319)">
                                    <mask id="mask-12" fill="white">
                                        <use xlink:href="#path-11"></use>
                                    </mask>
                                    <use id="路径-283" fill="#EDFFF5" xlink:href="#path-11"></use>
                                    <path d="M47.5868344,0.00908985173 C26.0964855,8.52718701 11.8306319,16.2587044 4.78927345,23.2036421 C-2.25208499,30.1485798 -3.77806358,38.4283672 0.211337688,48.0430044 C6.09100035,57.4229385 14.2862742,60.4712569 24.7971592,57.1879595 C40.5634867,52.2630135 41.5645887,34.7673016 42.8334753,21.9983296 C43.6793996,13.4856815 45.2638527,6.15593494 47.5868344,0.00908985173 Z" id="路径-283" fill="#D3F0E0" mask="url(#mask-12)"></path>
                                    <path d="M32.6783845,7.02680585 C5.44755239,21.2200733 -3.49588545,36.6858477 5.84807096,53.4241289 L-5.88647542,39.2756914 L8.35082927,12.0556811 L33.1789349,3.20928516 L32.6783845,7.02680585 Z" id="路径-338" fill="#C6E3D3" mask="url(#mask-12)"></path>
                                </g>
                                <g id="编组-108" transform="translate(0.000000, 117.671937)">
                                    <mask id="mask-14" fill="white">
                                        <use xlink:href="#path-13"></use>
                                    </mask>
                                    <use id="路径-285" fill="#EDFFF5" xlink:href="#path-13"></use>
                                    <path d="M-2,2 C14.6455403,2.03297371 28.1637053,6.39841925 38.5544951,15.0963366 C54.1406797,28.1432127 60.2842186,51.6088609 51.8704101,65.88877 C43.4566015,80.1686792 26.825788,75.1428732 19.0554705,69.9591167 C11.285153,64.7753603 4.55088394,50.3421561 4.55088394,32.7192464 C4.55088394,20.9706399 2.36725596,10.7308911 -2,2 Z" id="路径-285" fill="#D3F0E0" mask="url(#mask-14)"></path>
                                </g>
                                <path d="M113.385819,184.003502 C113.577885,183.805095 113.894426,183.799956 114.092833,183.992022 C114.291239,184.184089 114.296378,184.50063 114.104312,184.699036 C99.1502815,200.146677 84.0762035,226.637831 68.8997506,264.1644 C68.7962194,264.4204 68.504762,264.544 68.2487621,264.440469 C67.9927623,264.336938 67.869162,264.04548 67.9726932,263.789481 L68.8858139,261.54461 C83.7983864,225.094833 98.6261769,199.250338 113.385819,184.003502 Z" id="路径-278" fill="#A9C7B6" fill-rule="nonzero"></path>
                                <path d="M136.684127,23.4585223 C136.791732,23.204208 137.085125,23.0852766 137.339439,23.1928815 C137.593754,23.3004865 137.712685,23.5938801 137.60508,23.8481944 L122.292103,59.971168 C106.080599,98.1341824 92.8047638,129.105648 82.4645201,152.885741 C69.0646782,183.702179 62.0499827,220.734418 61.4251319,263.984163 C61.4211427,264.260277 61.1940746,264.480877 60.9179611,264.476942 C60.6418475,264.472899 60.4212471,264.245831 60.425183,263.969717 C61.0451549,221.061354 67.9404313,184.233367 81.1156138,153.48741 L87.9240044,137.772348 C100.599905,108.431483 116.853314,70.326796 136.684127,23.4585223 Z" id="路径-280" fill="#A9C7B6" fill-rule="nonzero"></path>
                                <path d="M13.4253064,127.354948 C13.6182434,127.157388 13.9348037,127.153641 14.1323637,127.346578 C42.7469161,155.291534 58.5016786,200.833423 61.4246488,263.953811 C61.4374227,264.229658 61.22416,264.463631 60.9483132,264.47695 C60.6724664,264.489179 60.4384932,264.275916 60.4257193,264.00007 C57.513425,201.110224 41.8400784,155.803681 13.4336771,128.062005 C13.2361172,127.869068 13.2323695,127.552508 13.4253064,127.354948 Z" id="路径-281" fill="#A9C7B6" fill-rule="nonzero"></path>
                                <path d="M42.7989266,171.879268 C33.852175,168.353839 26.5701575,163.53975 20.952874,157.437003 C27.1094582,165.960409 34.6727848,171.48375 43.6428538,174.007025 L43.2720897,172.972397 L42.7989266,171.879268 Z" id="路径-286" fill="#A9C7B6"></path>
                                <path d="M40.546568,145.00795 C33.4490946,142.242077 27.6722576,138.465187 23.2160569,133.67728 C28.1000858,140.364313 34.1000858,144.697647 41.2160569,146.67728 L40.9219292,145.865564 L40.546568,145.00795 Z" id="路径-286" fill="#A9C7B6" transform="translate(32.216057, 140.177280) scale(-1, 1) rotate(57.000000) translate(-32.216057, -140.177280) "></path>
                                <path d="M134.312226,112.614748 C120.117279,107.083002 108.563605,99.5292223 99.6512039,89.9534087 C109.419262,103.327475 121.419262,111.994141 135.651204,115.953409 L135.062948,114.329976 L134.312226,112.614748 Z" id="路径-286" fill="#A9C7B6" transform="translate(117.651204, 102.953409) scale(-1, 1) rotate(-6.000000) translate(-117.651204, -102.953409) "></path>
                                <path d="M139.318104,81.9506603 C128.27759,77.6954709 119.291399,71.884871 112.359531,64.5188606 C119.956909,74.8066035 129.290242,81.4732702 140.359531,84.5188606 L139.901999,83.2700662 L139.318104,81.9506603 Z" id="路径-286" fill="#A9C7B6" transform="translate(126.359531, 74.518861) scale(-1, 1) rotate(-6.000000) translate(-126.359531, -74.518861) "></path>
                                <path d="M112.609777,91.3852084 C101.569263,87.130019 92.5830716,81.3194192 85.6512039,73.9534087 C93.2485821,84.2411517 102.581915,90.9078184 113.651204,93.9534087 L113.193672,92.7046143 L112.609777,91.3852084 Z" id="路径-286" fill="#A9C7B6" transform="translate(99.651204, 83.953409) rotate(37.000000) translate(-99.651204, -83.953409) "></path>
                                <path d="M125.018909,57.4124885 C118.315739,54.8593749 112.859838,51.373015 108.651204,46.9534087 C113.263898,53.1260545 118.930564,57.1260545 125.651204,58.9534087 L125.373417,58.2041321 L125.018909,57.4124885 Z" id="路径-286" fill="#A9C7B6" transform="translate(117.151204, 52.953409) rotate(37.000000) translate(-117.151204, -52.953409) "></path>
                                <path d="M146.643256,42.7422628 C139.545782,39.9763898 133.768945,36.1994998 129.312745,31.4115931 C134.196774,38.098626 140.196774,42.4319593 147.312745,44.4115931 L147.018617,43.5998767 L146.643256,42.7422628 Z" id="路径-286" fill="#A9C7B6" transform="translate(138.312745, 37.911593) scale(-1, 1) rotate(-6.000000) translate(-138.312745, -37.911593) "></path>
                                <path d="M107.981715,217.284079 C100.884242,214.518205 95.1074045,210.741316 90.6512039,205.953409 C95.5352327,212.640442 101.535233,216.973775 108.651204,218.953409 L108.357076,218.141692 L107.981715,217.284079 Z" id="路径-286" fill="#A9C7B6" transform="translate(99.651204, 212.453409) scale(-1, 1) rotate(-4.000000) translate(-99.651204, -212.453409) "></path>
                                <path d="M106.981715,199.284079 C99.8842416,196.518205 94.1074045,192.741316 89.6512039,187.953409 C94.5352327,194.640442 100.535233,198.973775 107.651204,200.953409 L107.357076,200.141692 L106.981715,199.284079 Z" id="路径-286" fill="#A9C7B6" transform="translate(98.651204, 194.453409) rotate(63.000000) translate(-98.651204, -194.453409) "></path>
                            </g>
                        </g>
                    </g>
                    <circle id="椭圆形" stroke="#979797" fill="#D8D8D8" cx="184.667702" cy="166" r="10.5"></circle>
                    <rect id="矩形" stroke="#979797" fill="#D8D8D8" x="208.167702" y="159.5" width="58" height="4" rx="2"></rect>
                    <rect id="矩形" stroke="#979797" fill="#D8D8D8" x="208.167702" y="168.5" width="31" height="4" rx="2"></rect>
                    <rect id="矩形" fill="#6EA0FD" x="141.667702" y="77" width="200" height="122" rx="4"></rect>
                    <rect id="矩形" fill="#FFFFFF" x="147.667702" y="82" width="188" height="112" rx="4"></rect>
                    <rect id="矩形" fill="#FFE9BF" x="168.667702" y="97" width="77" height="44"></rect>
                    <rect id="矩形" fill="#DDE9FF" x="165.667702" y="94" width="77" height="44"></rect>
                    <rect id="矩形" fill="#DAE8FF" x="233.667702" y="305" width="32" height="32" rx="4"></rect>
                    <path d="M250,318 C250.666667,308.314571 249.5,299.543412 246.5,291.686523 C242,279.901191 242.667702,269.320313 251.667702,262.294922 C260.667702,255.269531 269.250234,248.568359 257.370827,226.931641 C249.451222,212.507161 246.99428,201.540479 250,194.031592" id="路径-427" stroke="#C8D9FF" stroke-width="4" stroke-linecap="round"></path>
                    <rect id="矩形" fill="#A4C3FC" x="238.667702" y="318" width="22" height="23" rx="4"></rect>
                    <path d="M247.077637,313.029761 L248.077637,313.029761 L248.077637,316.029761 L247.077637,316.029761 L247.077637,315.215576 C246.791153,315.423248 246.473035,315.461024 246.123283,315.328903 C245.598656,315.130722 245.451927,314.645386 245.5,314.261108 C245.548073,313.876831 245.851936,313.603714 245.98394,313.533234 C246.115944,313.462753 246.490726,313.237576 247.077637,313.555176 L247.077637,313.029761 Z" id="路径-426" fill="#A4C3FC"></path>
                    <path d="M253.253919,313.029761 L254.253919,313.029761 L254.253919,316.029761 L253.253919,316.029761 L253.253919,315.215576 C252.967435,315.423248 252.649317,315.461024 252.299565,315.328903 C251.774938,315.130722 251.628209,314.645386 251.676282,314.261108 C251.724355,313.876831 252.028218,313.603714 252.160222,313.533234 C252.292226,313.462753 252.667008,313.237576 253.253919,313.555176 L253.253919,313.029761 Z" id="路径-426" fill="#A4C3FC" transform="translate(252.960810, 314.529761) scale(-1, 1) translate(-252.960810, -314.529761) "></path>
                    <path d="M161.702858,138 C170.731326,124.938574 180.037966,119.178483 189.62278,120.719727 C204,123.031592 211.883522,121 216.025124,115.031592 C220.166725,109.063184 223.973366,99.629248 241.667702,97.8304199" id="路径-428" stroke="#FFD07A"></path>
                    <rect id="矩形" fill="#DDE9FF" x="255.667702" y="101" width="62" height="4" rx="2"></rect>
                    <rect id="矩形" fill="#DDE9FF" x="255.667702" y="111" width="63" height="4" rx="2"></rect>
                    <rect id="矩形" fill="#DDE9FF" x="255.667702" y="123" width="50" height="4" rx="2"></rect>
                    <rect id="矩形" fill="#DDE9FF" x="166.667702" y="152" width="104" height="28"></rect>
                    <circle id="椭圆形" fill="#6EA0FD" cx="184.667702" cy="166" r="11"></circle>
                    <g id="xinfeng" transform="translate(178.667702, 162.000000)" fill="#FFFFFF" fill-rule="nonzero">
                        <path d="M0,1.24892209 C0.000785455974,0.558550411 0.611739294,-0.000599046043 1.36492612,4.81663989e-07 L10.6346157,4.81663989e-07 C11.3879989,4.81663989e-07 12,0.560590445 12,1.24892209 L12,6.75113515 C11.9994109,7.44150682 11.3883916,8.00071628 10.6352702,8.00000048 L1.36558066,8.00000048 C0.612262931,8.00000048 0,7.43946679 0,6.75113515 L0,1.24892209 Z M10.909198,3.13271395 L6.28096415,5.67879701 C6.10809824,5.774079 5.89196722,5.774079 5.71910131,5.67879701 L1.09099835,3.13247394 L1.09099835,6.75083514 C1.09099835,6.88655744 1.21464221,6.99972724 1.36558066,6.99972724 L10.6344193,6.99972724 C10.7067714,7.00024633 10.7763772,6.9743545 10.82787,6.92776 C10.8793628,6.88116549 10.9085078,6.81770014 10.9088707,6.75137515 L10.9088707,3.13217394 L10.909198,3.13271395 Z M10.4718954,2.20695829 C10.6964704,2.0832962 10.909198,1.73949038 10.909198,1.50170636 L10.909198,1.24916209 C10.909198,1.11179885 10.7878675,1.00036863 10.6380193,1.00003788 L1.36204611,1.00003788 C1.21221728,1.00043439 1.09094556,1.11181641 1.09080198,1.24916209 L1.09080198,1.50170636 C1.09080198,1.73805036 1.30490419,2.08425622 1.52797369,2.20671829 L5.99990182,4.6671199 L10.4718954,2.20695829 L10.4718954,2.20695829 Z" id="形状"></path>
                    </g>
                    <rect id="矩形" fill="#6EA0FD" x="201.667702" y="159" width="60" height="5" rx="2.5"></rect>
                    <rect id="矩形" fill="#6EA0FD" x="201.667702" y="168" width="38" height="5" rx="2.5"></rect>
                    <rect id="矩形" fill="#FBC869" x="280.667702" y="152" width="35" height="28"></rect>
                    <circle id="椭圆形" fill="#FFFFFF" cx="298.167702" cy="165.5" r="9.5"></circle>
                    <polyline id="路径-429" stroke="#6EA0FD" points="292.14817 165.5 296.522194 170.531592 303.930556 161.531592"></polyline>
                </g>
                <g id="女2" transform="translate(17.000000, 38.000000)">
                    <g id="编组-40" transform="translate(506.776136, 52.772374) rotate(-17.000000) translate(-506.776136, -52.772374) translate(469.276136, 9.772374)">
                        <g id="编组-44" transform="translate(0.561709, 33.766212)">
                            <mask id="mask-16" fill="white">
                                <use xlink:href="#path-15"></use>
                            </mask>
                            <use id="路径-169" fill="#FEC5B9" transform="translate(20.156418, 20.306918) rotate(40.000000) translate(-20.156418, -20.306918) " xlink:href="#path-15"></use>
                            <path d="M8.6478978,13.6846543 C10.7039336,13.5173581 12.5238218,13.4681742 14.1075624,13.5371027 C15.4300658,13.5946615 22.3905745,12.6690699 23.2191576,12.6865016 C19.4695722,15.3064882 14.3158813,16.3254966 7.75808492,15.7435268 L8.59442251,13.9765186 L8.6478978,13.6846543 Z" id="路径-181" fill="#F88175" mask="url(#mask-16)"></path>
                        </g>
                        <path d="M4.81882194,18.796764 C2.96290557,24.6485265 1.98593319,28.7994383 1.88790479,31.2494995 C1.53471013,40.0770292 4.99197801,45.8549059 10.1412577,47.9237046 C14.0820488,49.5069753 19.1095719,48.6970172 22.8269542,47.0503073 C24.9350887,46.116455 27.6169814,43.8064657 30.872632,40.1203394 C34.9877144,40.0412953 37.6100095,38.8110864 38.7395173,36.4297128 C40.4337792,32.8576523 37.8069336,29.417006 36.4896725,28.8632898 C35.6114984,28.4941456 33.7752246,29.0137548 30.9808511,30.4221174 C36.1829119,18.7941026 34.2146929,11.2310744 25.0761942,7.73303286 C15.9376955,4.23499133 9.18523809,7.9229017 4.81882194,18.796764 Z" id="路径-165" fill="#FEC5B9"></path>
                        <g id="编组-121" transform="translate(1.851182, 0.563342)">
                            <mask id="mask-18" fill="white">
                                <use xlink:href="#path-17"></use>
                            </mask>
                            <use id="路径-166" fill="#1338A7" xlink:href="#path-17"></use>
                            <path d="M41.383218,8.65493664 C47.7640242,7.26256347 52.3844799,7.83601204 55.2445851,10.3752823 C59.5347429,14.1841878 62.4725279,18.5212373 60.1634383,29.6168168 C57.8543487,40.7123963 54.3000681,49.8304335 60.0176011,57.872901 C65.7351341,65.9153685 71.3052621,68.4108471 65.7773524,75.1459947 C60.2494427,81.8811423 53.5646377,83.7888514 46.1689423,79.2038239 C38.7732469,74.6187964 36.568223,64.4823969 37.6707349,59.7298102 C38.7732469,54.9772235 43.2537041,49.5852593 47.1899686,38.0422347 C51.1262331,26.4992102 50.5625,21.5035314 48.7293466,17.649132 C46.8961932,13.7947326 46.6825319,13.645051 41.383218,8.65493664 Z" id="路径-166" fill="#153DB7" mask="url(#mask-18)"></path>
                            <path d="M1.6256777,20.277335 C0.876500082,14.4694782 2.0866616,10.0432262 5.25616225,6.99857885 C8.42566291,3.95393155 11.7502002,3.5077187 15.2297741,5.6599403 C11.3548903,6.08657173 8.42590752,7.35850963 6.44282577,9.475754 C4.45974403,11.5929984 2.85402801,15.1935254 1.6256777,20.277335 Z" id="路径-364" fill="#153DB7" mask="url(#mask-18)"></path>
                            <path d="M38.7951363,5.92648715 C43.4063314,8.97391459 46.0870248,13.2903657 46.8372162,18.8758404 C48.2867015,16.8047327 48.0064971,14.1699569 45.996603,10.971513 C43.9867088,7.77306908 41.5862199,6.0913938 38.7951363,5.92648715 Z" id="路径-407" fill="#FFBB3C" mask="url(#mask-18)"></path>
                        </g>
                    </g>
                    <g id="鞋" transform="translate(242.338183, 452.954528) scale(1, -1) rotate(195.000000) translate(-242.338183, -452.954528) translate(134.338183, 401.954528)">
                        <g id="编组" transform="translate(0.048138, 1.536746)">
                            <mask id="mask-20" fill="white">
                                <use xlink:href="#path-19"></use>
                            </mask>
                            <use id="路径-10" fill="#FFFFFF" xlink:href="#path-19"></use>
                            <path d="M75.2507929,-1.75938042 L55.2353681,10.7536407 L55.5658406,11.4108433 C63.4128227,27.0159465 71.9740263,35.1524769 81.3180938,35.687676 L82.7241457,35.7637633 C95.7773325,36.431435 119.423462,36.6290884 139.691181,35.713299 L141.866964,35.610537 C172.115428,34.1190136 193.406657,30.4024807 201.65616,23.820104 L202.551321,23.0760261 L202.056099,22.4595417 C196.585311,15.6491561 189.39702,11.6913517 180.533375,10.6043657 L170.694773,9.51698495 C163.958555,8.75137098 154.245478,7.62106268 141.556171,6.12613088 L75.2507929,-1.75938042 Z M57.3390602,11.3405046 L75.621235,-0.0897142857 L150.830232,8.84089329 C165.869093,10.6025808 175.459933,11.6967982 179.60431,12.1237208 L180.375409,12.2110679 C188.296773,13.1906336 194.772103,16.5567032 199.836162,22.3243188 L200.281372,22.8417386 L200.048953,23.0149716 C191.648869,29.0880793 170.419233,32.6455546 140.722155,34.0499306 L137.359367,34.1979003 C116.915631,35.0298141 93.6085804,34.7750125 81.410295,34.0763326 L80.9642858,34.0442887 C72.7952085,33.338122 65.0531409,26.1030004 57.7966156,12.2257186 L57.3390602,11.3405046 Z" id="路径-11" fill="#A4C1FF" fill-rule="nonzero" mask="url(#mask-20)"></path>
                            <path d="M0.931403901,43.8248784 C20.2510396,42.127812 37.4293231,51.5137561 52.4662544,71.9827107 L0.613180516,82.948544 L0.931403901,43.8248784 Z" id="路径-15" fill="#FFC659" mask="url(#mask-20)"></path>
                            <path d="M2.96125481,46.7426556 C20.2142892,45.2155202 35.5550297,53.6616289 48.9834762,72.0809819 L2.67707145,81.9487821 L2.96125481,46.7426556 Z" id="路径-15" fill="#FFBB3C" mask="url(#mask-20)"></path>
                            <polygon id="路径-13" fill="#4C76D0" mask="url(#mask-20)" points="6.12065809 80.7702498 214.427578 41.2469799 218.227205 51.7561226 12.0416072 106.035458"></polygon>
                            <path d="M7.07801777,11.9171047 L-6.64116158,11.9171047 L-0.830713387,48.1543083 L5.20994903,45.2413794 C10.872909,41.5138678 15.8096546,33.1447918 20.1916743,20.0758259 L20.4035092,19.4440479 L7.07801777,11.9171047 Z M6.65454155,13.5306778 L18.4485043,20.1931945 L18.3763677,20.4060435 C14.1725223,32.6766547 9.49477035,40.4897928 4.41570849,43.8407212 L0.419598854,45.7602796 L-4.74741834,13.5306778 L6.65454155,13.5306778 Z" id="路径-14" fill="#A4C1FF" fill-rule="nonzero" mask="url(#mask-20)"></path>
                            <polygon id="路径-16" fill="#79A5FF" mask="url(#mask-20)" points="6.86605252 89.7155275 89.2935633 71.8009358 6.86605252 94.0961522"></polygon>
                            <path d="M75.2693655,1.33067975 L73.6139234,0.378216525 L0.0299214651,16.0745374 L9.78751939,86.844096 C11.3641999,95.9773333 15.6238127,100.094975 22.4005701,98.8310309 L22.7943284,98.7521378 C27.749945,97.6915403 65.9588958,88.1063135 137.479217,69.98209 L209.47196,51.7126905 C212.49431,50.944881 214.322284,47.871135 213.554857,44.847286 C213.504005,44.6469192 213.442199,44.4494963 213.369716,44.2559083 C210.071253,35.4462876 206.810494,29.1115674 203.563746,25.2369442 C197.429126,17.9159743 184.15631,13.9984325 166.579281,14.7649758 L165.143899,14.8383496 C160.690796,15.1013719 157.018088,15.6654067 151.383709,16.8048935 L147.70433,17.5573605 C137.324561,19.6492048 130.427606,19.9404216 119.270016,17.9091832 C104.722075,15.2607315 90.0555906,9.73585133 75.2693655,1.33067975 Z M1.83274499,17.3396748 L73.3434241,2.08593313 L73.0734033,1.93037726 C88.4851094,10.8742108 103.788154,16.7311944 118.981225,19.4970918 C129.992982,21.5017815 136.994505,21.2858156 147.010925,19.3399026 L152.560846,18.2149362 C158.212887,17.0919987 161.851782,16.5866588 166.649531,16.3774265 C183.774827,15.6305835 196.574726,19.4085416 202.327533,26.2738606 C205.43406,29.981147 208.61913,36.1688238 211.859051,44.8220877 C211.910824,44.9603646 211.954971,45.1013807 211.991294,45.2444995 C212.539455,47.4043876 211.233762,49.5999164 209.074946,50.1483502 L108.858069,75.5643013 C55.5041086,89.0613602 26.691451,96.2675828 22.4568822,97.1738621 L22.093632,97.2463969 C16.3285406,98.3135259 12.814104,94.893455 11.3813584,86.5964318 L1.83274499,17.3396748 Z" id="路径-10" fill="#4C76D0" fill-rule="nonzero"></path>
                        </g>
                        <mask id="mask-22" fill="white">
                            <use xlink:href="#path-21"></use>
                        </mask>
                        <use id="路径-9" fill="#FFFFFF" xlink:href="#path-21"></use>
                        <path d="M34.6129863,3.13468083 L32.5518194,3.49477153 C20.0341488,5.7314598 11.0838854,8.26690136 5.67461218,11.1215531 L4.96742813,11.5604912 C-2.30858952,16.2099913 -1.03689328,19.8056907 8.28226087,21.0422254 C23.0164386,22.9972657 53.4337863,18.2050773 67.3706204,11.0035793 C72.495614,8.3553716 75.3203144,6.28342416 75.9498423,4.55422786 C76.7611446,2.32573136 74.6112256,1.14883773 70.2621738,0.734171667 C60.0715682,0.0122960891 48.1961268,0.814104235 34.6129863,3.13468083 Z M70.1287064,2.3424999 L70.8955812,2.42579457 C73.6776939,2.76814345 74.6644642,3.36902958 74.4340795,4.00185379 C74.0018869,5.18900638 71.365608,7.12274473 66.6303634,9.56955969 C52.9950906,16.6152337 22.910161,21.3550504 8.4943464,19.4422528 L7.70327942,19.3313923 C0.302745556,18.234951 0.0438940567,16.4045103 6.46765332,12.5262741 C11.9423409,9.63861195 21.4384143,7.02279966 34.8845189,4.7256346 C48.3483783,2.42543628 60.0975373,1.63215449 70.1287064,2.3424999 Z" id="路径-9备份-5" fill="#4C76D0" fill-rule="nonzero"></path>
                        <ellipse id="椭圆形" fill="#4C76D0" cx="98.1461864" cy="23.7192556" rx="3.22636103" ry="3.22796353"></ellipse>
                        <ellipse id="椭圆形" fill="#4C76D0" cx="110.769616" cy="26.403781" rx="3.22636103" ry="3.22796353"></ellipse>
                        <ellipse id="椭圆形" fill="#4C76D0" cx="123.728444" cy="27.509594" rx="3.22636103" ry="3.22796353"></ellipse>
                        <ellipse id="椭圆形" fill="#4C76D0" cx="136.687272" cy="28.615407" rx="3.22636103" ry="3.22796353"></ellipse>
                        <ellipse id="椭圆形" fill="#4C76D0" cx="148.403571" cy="27.806942" rx="3.22636103" ry="3.22796353"></ellipse>
                        <ellipse id="椭圆形" fill="#4C76D0" cx="160.11987" cy="26.998477" rx="3.22636103" ry="3.22796353"></ellipse>
                        <path d="M101.172454,12.4756187 C101.805008,11.8478995 102.826409,11.8520739 103.453817,12.4849424 C104.081224,13.1178109 104.077052,14.1397191 103.444498,14.7674382 C101.851081,16.3486745 100.094746,19.3200966 99.8891723,23.4982861 C99.8453681,24.3885856 99.0884858,25.0747879 98.1986283,25.030962 C97.3087708,24.987136 96.6229091,24.2298777 96.6667133,23.3395782 C96.9082142,18.4311885 98.9111301,14.7196573 101.172454,12.4756187 Z" id="路径-12" fill="#FFCA68" fill-rule="nonzero"></path>
                        <path d="M113.8309,16.0153544 C114.463455,15.3876353 115.484855,15.3918096 116.112263,16.0246781 C116.739671,16.6575466 116.735498,17.6794548 116.102944,18.307174 C114.509528,19.8884102 112.770538,22.1825314 112.564964,26.3607209 C112.52116,27.2510204 111.764278,27.9372228 110.87442,27.8933968 C109.984563,27.8495708 109.298701,27.0923126 109.342505,26.2020131 C109.584006,21.2936234 111.569576,18.259393 113.8309,16.0153544 Z" id="路径-12" fill="#FFCA68" fill-rule="nonzero"></path>
                        <path d="M126.789729,17.1211674 C127.422283,16.4934483 128.443684,16.4976226 129.071091,17.1304911 C129.698499,17.7633596 129.694327,18.7852678 129.061772,19.412987 C127.468356,20.9942233 125.796519,23.3677414 125.590945,27.5459309 C125.547141,28.4362304 124.790259,29.1224328 123.900401,29.0786068 C123.010544,29.0347808 122.324682,28.2775225 122.368486,27.3872231 C122.609987,22.4788334 124.528405,19.3652061 126.789729,17.1211674 Z" id="路径-12" fill="#FFCA68" fill-rule="nonzero"></path>
                        <path d="M138.170628,17.8914148 C138.803182,17.2636956 139.824583,17.26787 140.451991,17.9007385 C141.079398,18.533607 141.075226,19.5555152 140.442672,20.1832343 C138.849256,21.7644706 138.71957,24.4831458 138.513996,28.6613353 C138.470192,29.5516348 137.713309,30.2378371 136.823452,30.1940112 C135.933594,30.1501852 135.247733,29.3929269 135.291537,28.5026274 C135.533038,23.5942377 135.909304,20.1354534 138.170628,17.8914148 Z" id="路径-12" fill="#FFCA68" fill-rule="nonzero"></path>
                        <path d="M151.464856,17.4185154 C152.09741,16.7907963 153.118811,16.7949706 153.746218,17.4278391 C154.373626,18.0607076 154.369454,19.0826158 153.736899,19.710335 C152.143483,21.2915713 150.386573,23.6756389 150.180999,27.8538285 C150.137195,28.7441279 149.380313,29.4303303 148.490455,29.3865043 C147.600598,29.3426784 146.914736,28.5854201 146.95854,27.6951206 C147.200041,22.7867309 149.203532,19.6625541 151.464856,17.4185154 Z" id="路径-12" fill="#FFCA68" fill-rule="nonzero"></path>
                        <path d="M163.181154,16.6100504 C163.813709,15.9823312 164.83511,15.9865056 165.462517,16.6193741 C166.089925,17.2522426 166.085752,18.2741508 165.453198,18.9018699 C163.859782,20.4831062 162.068684,22.8035072 161.86311,26.9816967 C161.819306,27.8719962 161.062424,28.5581986 160.172566,28.5143726 C159.282709,28.4705466 158.596847,27.7132883 158.640651,26.8229889 C158.882152,21.9145992 160.91983,18.854089 163.181154,16.6100504 Z" id="路径-12" fill="#FFCA68" fill-rule="nonzero"></path>
                    </g>
                    <g id="鞋" transform="translate(116.431912, 368.887856) scale(1, -1) rotate(168.000000) translate(-116.431912, -368.887856) translate(8.431912, 317.887856)">
                        <g id="编组" transform="translate(0.048138, 1.536746)">
                            <mask id="mask-24" fill="white">
                                <use xlink:href="#path-23"></use>
                            </mask>
                            <use id="路径-10" fill="#FFFFFF" xlink:href="#path-23"></use>
                            <path d="M75.2507929,-1.75938042 L55.2353681,10.7536407 L55.5658406,11.4108433 C63.4128227,27.0159465 71.9740263,35.1524769 81.3180938,35.687676 L82.7241457,35.7637633 C95.7773325,36.431435 119.423462,36.6290884 139.691181,35.713299 L141.866964,35.610537 C172.115428,34.1190136 193.406657,30.4024807 201.65616,23.820104 L202.551321,23.0760261 L202.056099,22.4595417 C196.585311,15.6491561 189.39702,11.6913517 180.533375,10.6043657 L170.694773,9.51698495 C156.033593,7.85064866 127.270957,4.45674652 84.413359,-0.663991373 L75.2507929,-1.75938042 Z M57.3390602,11.3405046 L75.621235,-0.088100304 L150.830232,8.84089329 C165.869093,10.6025808 175.459933,11.6967982 179.60431,12.1237208 L180.375409,12.2110679 C188.296773,13.1906336 194.772103,16.5567032 199.836162,22.3243188 L200.281372,22.8417386 L200.048953,23.0149716 C191.648869,29.0880793 170.419233,32.6455546 140.722155,34.0499306 L137.359367,34.1979003 C116.915631,35.0298141 93.6085804,34.7750125 81.410295,34.0763326 L80.9642858,34.0442887 C72.7952085,33.338122 65.0531409,26.1030004 57.7966156,12.2257186 L57.3390602,11.3405046 Z" id="路径-11" fill="#A4C1FF" fill-rule="nonzero" mask="url(#mask-24)"></path>
                            <path d="M0.931403901,43.8248784 C20.2510396,42.127812 37.4293231,51.5137561 52.4662544,71.9827107 L0.613180516,82.948544 L0.931403901,43.8248784 Z" id="路径-15" fill="#FFC659" mask="url(#mask-24)"></path>
                            <path d="M2.96125481,46.7426556 C20.2142892,45.2155202 35.5550297,53.6616289 48.9834762,72.0809819 L2.67707145,81.9487821 L2.96125481,46.7426556 Z" id="路径-15" fill="#FFBB3C" mask="url(#mask-24)"></path>
                            <polygon id="路径-13" fill="#4C76D0" mask="url(#mask-24)" points="6.12065809 80.7702498 214.427578 41.2469799 218.227205 51.7561226 12.0416072 106.035458"></polygon>
                            <path d="M7.07801777,11.9171047 L-6.64116158,11.9171047 L-0.830713387,48.1543083 L5.20994903,45.2413794 C10.872909,41.5138678 15.8096546,33.1447918 20.1916743,20.0758259 L20.4035092,19.4440479 L7.07801777,11.9171047 Z M6.65454155,13.5306778 L18.4485043,20.1931945 L18.3763677,20.4060435 C14.1725223,32.6766547 9.49477035,40.4897928 4.41570849,43.8407212 L0.421212034,45.7602796 L-4.74741834,13.5306778 L6.65454155,13.5306778 Z" id="路径-14" fill="#A4C1FF" fill-rule="nonzero" mask="url(#mask-24)"></path>
                            <polygon id="路径-16" fill="#79A5FF" mask="url(#mask-24)" points="6.86605252 89.7155275 89.2935633 71.8009358 6.86605252 94.0961522"></polygon>
                            <path d="M75.2693655,1.33067975 L73.6139234,0.378216525 L0.0299214651,16.0745374 L9.78751939,86.844096 C11.3641999,95.9773333 15.6238127,100.094975 22.4005701,98.8310309 L22.7943284,98.7521378 C27.749945,97.6915403 65.9588958,88.1063135 137.479217,69.98209 L209.47196,51.7126905 C212.49431,50.944881 214.322284,47.871135 213.554857,44.847286 C213.504005,44.6469192 213.442199,44.4494963 213.369716,44.2559083 C210.071253,35.4462876 206.810494,29.1115674 203.563746,25.2369442 C197.429126,17.9159743 184.15631,13.9984325 166.579281,14.7649758 L165.143899,14.8383496 C160.690796,15.1013719 157.018088,15.6654067 151.383709,16.8048935 L147.70433,17.5573605 C137.324561,19.6492048 130.427606,19.9404216 119.270016,17.9091832 C104.722075,15.2607315 90.0555906,9.73585133 75.2693655,1.33067975 Z M1.83274499,17.3396748 L73.3434241,2.08593313 L73.0734033,1.93037726 C88.4851094,10.8742108 103.788154,16.7311944 118.981225,19.4970918 C129.992982,21.5017815 136.994505,21.2858156 147.010925,19.3399026 L152.560846,18.2149362 C158.212887,17.0919987 161.851782,16.5866588 166.649531,16.3774265 C183.774827,15.6305835 196.574726,19.4085416 202.327533,26.2738606 C205.43406,29.981147 208.61913,36.1688238 211.859051,44.8220877 C211.910824,44.9603646 211.954971,45.1013807 211.991294,45.2444995 C212.539455,47.4043876 211.233762,49.5999164 209.074946,50.1483502 L108.858069,75.5643013 C55.5041086,89.0613602 26.691451,96.2675828 22.4568822,97.1738621 L22.093632,97.2463969 C16.3285406,98.3135259 12.814104,94.893455 11.3813584,86.5964318 L1.83274499,17.3396748 Z" id="路径-10" fill="#4C76D0" fill-rule="nonzero"></path>
                        </g>
                        <mask id="mask-26" fill="white">
                            <use xlink:href="#path-25"></use>
                        </mask>
                        <use id="路径-9" fill="#FFFFFF" xlink:href="#path-25"></use>
                        <path d="M34.6129863,3.13468083 L32.5518194,3.49477153 C20.0341488,5.7314598 11.0838854,8.26690136 5.67461218,11.1215531 L4.96742813,11.5604912 C-2.30858952,16.2099913 -1.03689328,19.8056907 8.28226087,21.0422254 C23.0164386,22.9972657 53.4337863,18.2050773 67.3706204,11.0035793 C72.495614,8.3553716 75.3203144,6.28342416 75.9498423,4.55422786 C76.7611446,2.32573136 74.6112256,1.14883773 70.2621738,0.734171667 C60.0715682,0.0122960891 48.1961268,0.814104235 34.6129863,3.13468083 Z M70.1287064,2.3424999 L70.8955812,2.42579457 C73.6776939,2.76814345 74.6644642,3.36902958 74.4340795,4.00185379 C74.0018869,5.18900638 71.365608,7.12274473 66.6303634,9.56955969 C52.9950906,16.6152337 22.910161,21.3550504 8.4943464,19.4422528 L7.70327942,19.3313923 C0.302745556,18.234951 0.0438940567,16.4045103 6.46765332,12.5262741 C11.9423409,9.63861195 21.4384143,7.02279966 34.8845189,4.7256346 C48.3483783,2.42543628 60.0975373,1.63215449 70.1287064,2.3424999 Z" id="路径-9备份-4" fill="#4C76D0" fill-rule="nonzero"></path>
                        <ellipse id="椭圆形" fill="#4C76D0" cx="98.1461864" cy="23.7192556" rx="3.22636103" ry="3.22796353"></ellipse>
                        <ellipse id="椭圆形" fill="#4C76D0" cx="110.769616" cy="26.403781" rx="3.22636103" ry="3.22796353"></ellipse>
                        <ellipse id="椭圆形" fill="#4C76D0" cx="123.728444" cy="27.509594" rx="3.22636103" ry="3.22796353"></ellipse>
                        <ellipse id="椭圆形" fill="#4C76D0" cx="136.687272" cy="28.615407" rx="3.22636103" ry="3.22796353"></ellipse>
                        <ellipse id="椭圆形" fill="#4C76D0" cx="148.403571" cy="27.806942" rx="3.22636103" ry="3.22796353"></ellipse>
                        <ellipse id="椭圆形" fill="#4C76D0" cx="160.11987" cy="26.998477" rx="3.22636103" ry="3.22796353"></ellipse>
                        <path d="M100.401414,13.215929 C101.033969,12.5882099 102.05537,12.5923842 102.682777,13.2252527 C103.310185,13.8581212 103.306012,14.8800294 102.673458,15.5077486 C101.080042,17.0889848 100.127879,19.9468938 99.9223048,24.1250833 C99.8785005,25.0153828 99.1216182,25.7015851 98.2317607,25.6577592 C97.3419032,25.6139332 96.6560415,24.8566749 96.6998457,23.9663754 C96.9413466,19.0579858 98.1400906,15.4599677 100.401414,13.215929 Z" id="路径-12" fill="#FFCA68" fill-rule="nonzero"></path>
                        <path d="M113.024844,15.9004544 C113.657398,15.2727353 114.678799,15.2769096 115.306206,15.9097781 C115.933614,16.5426466 115.929442,17.5645548 115.296887,18.192274 C113.703471,19.7735103 112.751308,22.6314192 112.545734,26.8096087 C112.50193,27.6999082 111.745047,28.3861106 110.85519,28.3422846 C109.965332,28.2984586 109.279471,27.5412003 109.323275,26.6509009 C109.564776,21.7425112 110.76352,18.1444931 113.024844,15.9004544 Z" id="路径-12" fill="#FFCA68" fill-rule="nonzero"></path>
                        <path d="M125.983672,17.0062675 C126.616226,16.3785483 127.637627,16.3827227 128.265035,17.0155912 C128.892442,17.6484597 128.88827,18.6703679 128.255716,19.298087 C126.662299,20.8793233 125.710136,23.7372322 125.504562,27.9154218 C125.460758,28.8057212 124.703876,29.4919236 123.814018,29.4480976 C122.924161,29.4042717 122.238299,28.6470134 122.282103,27.7567139 C122.523604,22.8483242 123.722348,19.2503061 125.983672,17.0062675 Z" id="路径-12" fill="#FFCA68" fill-rule="nonzero"></path>
                        <path d="M138.718041,17.5224476 C139.350596,16.8947285 140.371997,16.8989028 140.999404,17.5317713 C141.626812,18.1646398 141.622639,19.186548 140.990085,19.8142672 C139.396669,21.3955034 138.444506,24.2534124 138.238932,28.4316019 C138.195128,29.3219014 137.438245,30.0081037 136.548388,29.9642778 C135.65853,29.9204518 134.972668,29.1631935 135.016473,28.272894 C135.257974,23.3645044 136.456718,19.7664863 138.718041,17.5224476 Z" id="路径-12" fill="#FFCA68" fill-rule="nonzero"></path>
                        <path d="M150.658799,17.3036155 C151.291353,16.6758963 152.312754,16.6800707 152.940162,17.3129392 C153.567569,17.9458076 153.563397,18.9677158 152.930843,19.595435 C151.337427,21.1766713 150.385263,24.0345802 150.179689,28.2127697 C150.135885,29.1030692 149.379003,29.7892716 148.489145,29.7454456 C147.599288,29.7016196 146.913426,28.9443614 146.95723,28.0540619 C147.198731,23.1456722 148.397475,19.5476541 150.658799,17.3036155 Z" id="路径-12" fill="#FFCA68" fill-rule="nonzero"></path>
                        <path d="M162.375098,16.4951504 C163.007652,15.8674313 164.029053,15.8716056 164.65646,16.5044741 C165.283868,17.1373426 165.279696,18.1592508 164.647141,18.78697 C163.053725,20.3682062 162.101562,23.2261152 161.895988,27.4043047 C161.852184,28.2946042 161.095301,28.9808065 160.205444,28.9369806 C159.315586,28.8931546 158.629725,28.1358963 158.673529,27.2455968 C158.91503,22.3372072 160.113774,18.7391891 162.375098,16.4951504 Z" id="路径-12" fill="#FFCA68" fill-rule="nonzero"></path>
                    </g>
                    <g id="编组-122" transform="translate(390.000000, 72.000000)">
                        <mask id="mask-28" fill="white">
                            <use xlink:href="#path-27"></use>
                        </mask>
                        <use id="路径-182" fill="#FFFFFF" xlink:href="#path-27"></use>
                        <path d="M113.16714,2.56460664 C136.574206,5.01516284 150.793223,10.5118412 155.824191,19.0546418 C160.855159,27.5974424 163.848882,44.8052503 164.805359,70.6780654 L172.832188,70.6780654 L167.921747,3.69623698 L119.055851,-4.85526316 L113.16714,2.56460664 Z" id="路径-365" fill="#C9DCFF" mask="url(#mask-28)"></path>
                        <path d="M89.1568842,3.02294854 C77.9098595,4.39402301 70.6544974,5.32756537 67.3907978,5.82357559 C62.4952486,6.56759094 61.8765132,6.54309335 39.1348555,15.7336387 C23.9737503,21.8606689 12.3975945,26.6089856 4.40638819,29.9785888 L4.40638819,21.0741234 C53.1552443,3.08999139 77.5296724,-5.90207459 77.5296724,-5.90207459 C77.5296724,-5.90207459 81.4054097,-2.92706688 89.1568842,3.02294854 Z" id="路径-366" fill="#C9DCFF" mask="url(#mask-28)"></path>
                        <path d="M113.909152,0.653482753 C113.646761,0.653482753 113.400769,0.781526004 113.249683,0.996746583 C110.369868,5.09902603 106.311461,7.13538172 100.990888,7.13538172 C95.6584083,7.13538172 91.4102325,5.08765271 88.1777928,0.962578362 C88.0221665,0.763975927 87.7830175,0.649683007 87.5312364,0.653482753 C70.9424504,0.91028532 56.0345039,3.77232987 42.8118207,9.24323909 L37.144935,11.5799658 C25.7241873,16.2734907 13.7815832,21.0874437 1.31713814,26.0218154 C0.886816049,26.1921695 0.687187294,26.6899659 0.880012898,27.1118356 L17.4721046,63.412514 L17.54616,63.5419121 C17.7708985,63.8622445 18.2022221,63.9806792 18.5647393,63.7996429 L42.9403585,51.6260132 L43.771912,113.310948 C43.7775699,113.730822 44.1024165,114.076592 44.5198708,114.107084 L144.985171,121.445296 L145.122952,121.443684 C145.528074,121.40421 145.850346,121.061275 145.850346,120.638221 L145.850094,71.4921316 L170.097297,71.4929064 C170.542772,71.4929064 170.903901,71.1306105 170.903901,70.6836959 L170.894252,68.2952006 C170.710914,45.8358922 167.914225,29.9709518 162.459852,20.6639868 C154.518901,7.114098 137.442165,0.653482753 113.909152,0.653482753 Z M114.245342,2.37514677 L114.31834,2.27226316 L113.909152,2.27190404 C136.930235,2.27190404 153.478925,8.53274429 161.069198,21.4842599 L161.344725,21.9644925 C166.444339,31.042868 169.103841,46.5068926 169.281191,68.3220557 L169.288387,69.8737105 L145.043743,69.8744853 L144.898755,69.8875228 C144.522475,69.9560402 144.237139,70.2864384 144.237139,70.6836959 L144.236887,119.768013 L45.3746887,112.545 L44.5364276,50.3176356 L44.5239288,50.1840543 C44.4326489,49.6664436 43.8615084,49.3589271 43.3704575,49.6041514 L18.5906038,61.9774342 L2.70050943,27.2121316 L8.10123079,25.0688394 C20.3981818,20.1720368 32.1733942,15.3955644 43.4268834,10.7394127 L44.615845,10.2564637 C56.9496257,5.33905163 70.7666073,2.68657255 86.0704574,2.3019496 L87.163217,2.27873684 L86.9095605,1.96280867 C90.4494744,6.48026597 95.1661064,8.75380277 100.990888,8.75380277 C106.633022,8.75380277 111.076337,6.6186812 114.245342,2.37514677 Z" id="路径-182" fill="#84AFFF" fill-rule="nonzero"></path>
                    </g>
                    <g id="编组-61" transform="translate(414.000000, 143.000000)">
                        <mask id="mask-30" fill="white">
                            <use xlink:href="#path-29"></use>
                        </mask>
                        <use id="路径-183" fill="#FFD9D1" xlink:href="#path-29"></use>
                        <path d="M141.310281,-4.68021516 L139.548428,44.1990783 C139.389274,48.6144889 135.680857,52.0648671 131.265447,51.9057137 C131.209331,51.903691 131.153238,51.9010776 131.097178,51.8978738 L16.6599859,45.357981 L16.6599859,45.357981 L3.23255814,15.7555365 L107.088905,18.3363392 L107.088905,-4.83870968 L141.310281,-4.68021516 Z" id="路径-183" fill="#FEC5B9" mask="url(#mask-30)"></path>
                        <path d="M138.077723,11.5914461 L135.611829,34.2735218 C135.290927,37.2252808 134.058018,40.0036359 132.084612,42.2220881 L132.033944,42.2790485 C130.136336,44.4122911 127.41738,45.6326866 124.562272,45.6326866 L118.217939,45.6326866 L118.217939,45.6326866 L36.7731957,42.5889178 L134.450284,54.1655947 L144.246669,25 L138.077723,11.5914461 Z" id="路径-242" fill="#F88175" mask="url(#mask-30)"></path>
                    </g>
                    <g id="编组-45" transform="translate(270.000000, 211.000000)">
                        <mask id="mask-32" fill="white">
                            <use xlink:href="#path-31"></use>
                        </mask>
                        <use id="路径-185" fill="#FEC5B9" xlink:href="#path-31"></use>
                        <polygon id="路径-192" fill="#FFD9D1" mask="url(#mask-32)" points="23.0303002 48.2709147 4.95192102 195.616667 -0.875702322 192.074322 18.6007867 45.2278239"></polygon>
                        <path d="M17.5929741,68.5518717 C22.0013467,40.5442762 34.2251356,21.5123942 54.2643408,11.4562256 L46.5824734,7.85218544 L12.7717335,31.7969554 L17.5929741,68.5518717 Z" id="路径-189" fill="#F88175" mask="url(#mask-32)"></path>
                        <polygon id="路径-190" fill="#F88175" mask="url(#mask-32)" points="94.6800353 47.3654866 73.2906411 42.0931641 70.6734 88.2806692"></polygon>
                    </g>
                    <g id="编组-46" transform="translate(162.000000, 193.000000)">
                        <mask id="mask-34" fill="white">
                            <use xlink:href="#path-33"></use>
                        </mask>
                        <use id="路径-186" fill="#FEC5B9" xlink:href="#path-33"></use>
                        <polygon id="路径-191" fill="#FFD9D1" mask="url(#mask-34)" points="107.743845 2.35380285 5.51530934 147.400461 -4.84848485 138.108987 100.645518 -3.23529412"></polygon>
                    </g>
                    <g id="编组-123" transform="translate(259.000000, 159.000000)">
                        <mask id="mask-36" fill="white">
                            <use xlink:href="#path-35"></use>
                        </mask>
                        <use id="路径-184" fill="#84AFFF" xlink:href="#path-35"></use>
                        <path d="M276.491156,51.3277661 C272.772768,84.4877696 261.175555,106.843033 241.699517,118.393557 C212.485459,135.719344 170.216255,121.249864 143.515404,113.469054 C125.714836,108.281848 112.263363,104.654278 103.160985,102.586344 C117.497899,118.571238 125.043809,126.563684 125.798715,126.563684 C126.55362,126.563684 170.112193,130.085962 256.474433,137.130519 C275.487568,102.70585 284.994135,84.6116966 284.994135,82.8480569 C284.994135,81.0844171 282.159809,70.5776536 276.491156,51.3277661 Z" id="路径-367" fill="#6294FD" mask="url(#mask-36)"></path>
                        <path d="M3.9612881,33.6635676 C15.7464642,16.4922092 26.2780516,6.16868684 35.5560501,2.69300043 L29.4043565,-3.39787414 L-2.75619152,24.4148998 L0,37.9617587 L3.9612881,33.6635676 Z" id="路径-368" fill="#C9DCFF" mask="url(#mask-36)"></path>
                        <path d="M233.992403,36.1553003 C258.551904,42.8955628 272.718155,41.8173735 276.491156,32.9207324 C280.264157,24.0240913 278.355685,22.1223875 270.765739,27.2156211 L230.338975,28.2264236 L233.992403,36.1553003 Z" id="路径-369" fill="#74A1FF" mask="url(#mask-36)"></path>
                        <path d="M233.780126,36.9353375 C235.389946,37.3771463 236.955598,37.7855809 238.477105,38.1606379 L238.86102,36.5899802 C237.353327,36.2183284 235.801207,35.8134239 234.20468,35.3752631 L233.780126,36.9353375 Z M243.210471,39.2501229 C244.861078,39.601299 246.452815,39.9078508 247.985737,40.1697608 L248.255854,38.575388 C246.74469,38.3171953 245.174139,38.0147239 243.544253,37.6679563 L243.210471,39.2501229 Z M252.81374,40.8699868 C254.524605,41.0698777 256.148744,41.2035269 257.686319,41.2708266 L257.756445,39.6550767 C256.258802,39.5895248 254.673216,39.4590481 252.999851,39.2635386 L252.81374,40.8699868 Z M262.628556,41.2408523 C264.420164,41.1274592 266.059507,40.8950929 267.546917,40.5427315 L267.177162,38.9686514 C265.781958,39.2991695 264.231879,39.5188833 262.527258,39.6267708 L262.628556,41.2408523 Z M272.285208,38.7314298 C273.879953,37.8130921 275.166167,36.6487232 276.135444,35.241337 L274.810909,34.3213783 C273.981216,35.5260889 272.875079,36.5274388 271.484092,37.328442 L272.285208,38.7314298 Z" id="路径-369" fill="#FFFFFF" fill-rule="nonzero" mask="url(#mask-36)"></path>
                    </g>
                    <path d="M426,184 L507.431049,190.368007 C510.16779,190.582023 512.836021,191.330531 515.284766,192.571176 L521.765464,195.854592 C522.258126,196.104197 522.455162,196.705923 522.205557,197.198585 C522.026464,197.552074 521.655534,197.766464 521.259837,197.745193 L429.084981,192.790352 L429.084981,192.790352 L426,184 Z" id="路径-188" fill="#5E91F1"></path>
                    <polygon id="路径-187" fill="#84AFFF" points="264.732324 61 390.607826 79.2020927 433.001263 192 430.049564 192 294.007844 158.316452 262 63.8194442"></polygon>
                    <polygon id="路径-187" fill="#FFFFFF" points="263 65 388.52286 83.263042 430 194 292.193504 162.642314"></polygon>
                    <path d="M262.924352,64.0086418 C262.340008,63.9242178 261.8652,64.4724936 262.034814,65.0358198 L291.295204,162.216435 C291.378849,162.49424 291.606157,162.70569 291.890127,162.769854 L430.012357,193.979266 C430.639457,194.120963 431.173232,193.511414 430.947079,192.911853 L389.374909,82.6985113 C389.27138,82.4240432 389.026123,82.2274165 388.734803,82.1853275 L262.924352,64.0086418 Z M263.944834,65.7824268 L388.030658,83.7083688 L428.906938,192.079714 L292.706513,161.305399 L263.944834,65.7824268 Z" id="路径-187" fill="#84AFFF" fill-rule="nonzero"></path>
                    <ellipse id="椭圆形" fill="#84AFFF" transform="translate(334.541547, 125.890578) rotate(35.000000) translate(-334.541547, -125.890578) " cx="334.541547" cy="125.890578" rx="12.9075531" ry="9.68230944"></ellipse>
                    <path d="M515.803059,113 C516.197296,113 516.525183,113.285035 516.593179,113.660917 L516.606118,113.805752 L516.605327,141.230913 L543.201688,141.388523 C543.595919,141.390855 543.922125,141.677824 543.987913,142.054101 L544,142.199011 C543.997676,142.594563 543.711667,142.921864 543.336647,142.987872 L543.192222,143 L515.798326,142.838004 C515.405737,142.835682 515.080308,142.550999 515.012837,142.176526 L515,142.032265 L515,113.805752 C515,113.360748 515.359542,113 515.803059,113 Z" id="路径-193" fill="#84AFFF" fill-rule="nonzero"></path>
                    <g id="编组-28" transform="translate(496.180308, 121.870341) rotate(1.000000) translate(-496.180308, -121.870341) translate(486.180308, 111.370341)">
                        <rect id="矩形" fill="#FFCB6A" x="0" y="0" width="19.3581662" height="20.9817629" rx="2"></rect>
                        <path d="M2,0 L17.3581662,0 C18.4627357,1.75920346e-15 19.3581662,0.8954305 19.3581662,2 L19.3581662,3.22796353 C19.3581662,5.01071855 17.9129577,6.45592705 16.1302027,6.45592705 L3.22796353,6.45592705 C1.4452085,6.45592705 2.18324524e-16,5.01071855 0,3.22796353 L0,2 C-1.3527075e-16,0.8954305 0.8954305,2.02906125e-16 2,0 Z" id="矩形" fill="#FFA600"></path>
                        <ellipse id="椭圆形" fill="#FFDB97" cx="9.67908309" cy="3.22796353" rx="1.61318052" ry="1.61398176"></ellipse>
                    </g>
                    <polygon id="路径-412" fill="#84AFFF" fill-rule="nonzero" points="560 125 560 127 515 127 515 125"></polygon>
                    <polygon id="路径-413" fill="#84AFFF" fill-rule="nonzero" points="409.533645 92 424 126.399753 422.466355 127 408 92.6002468"></polygon>
                </g>
            </g>
        </g>
    </g>
</svg>