<?xml version="1.0" encoding="UTF-8"?>
<svg width="600px" height="400px" viewBox="0 0 600 400" version="1.1" xmlns="http://www.w3.org/2000/svg" xmlns:xlink="http://www.w3.org/1999/xlink">
    <title>开发手机应用程序</title>
    <g id="开发手机应用程序" stroke="none" stroke-width="1" fill="none" fill-rule="evenodd">
        <rect fill="" x="0" y="0" width="600" height="400"></rect>
        <g id="bg_2_" transform="translate(35.000000, 33.000000)" fill-rule="nonzero">
            <g id="Group" fill="#F3F9FF">
                <path d="M454.623922,10.3754638 C444.120204,10.3754638 434.689983,16.3775228 429.926282,25.2855764 C428.329983,24.8567936 426.665297,24.6351957 424.964618,24.6351957 C419.562937,24.6351957 414.584177,26.9367507 411.074839,30.6813941 C408.070306,29.107689 404.695942,28.2510241 401.219898,28.2510241 C390.901545,28.2510241 382.271273,35.6340161 380.32674,45.4005362 C372.879745,46.4067346 367.119932,52.8114531 367.119932,60.5385523 C367.119932,68.9610724 373.964941,75.8134906 382.378353,75.8134906 L476.933413,75.8134906 C486.881935,75.8134906 494.975908,67.710756 494.975908,57.7523646 C494.975908,49.7523217 489.753294,42.9503485 482.542054,40.5839357 C482.597844,39.8623914 482.625739,39.1363432 482.625739,38.4066917 C482.625739,22.9506917 470.064109,10.3754638 454.623922,10.3754638 Z" id="Path"></path>
                <path d="M96.5544822,22.2327507 C95.8922071,20.6311206 94.191528,19.7204075 92.4935484,20.0573083 L87.1278608,21.1202574 C85.8626995,21.370681 84.5543463,20.9301877 83.6995076,19.9636247 C82.7942784,18.940311 81.8359593,17.9764504 80.8263497,17.0765469 C79.8644312,16.219882 79.4280136,14.9155174 79.6781664,13.6507882 L80.7381664,8.28830027 C81.0738031,6.58758177 80.1640747,4.88596247 78.5650764,4.22297051 L70.6429711,0.937737265 C69.043073,0.274745308 67.1984211,0.833243968 66.2347029,2.27363003 L63.1968761,6.81548525 C62.481511,7.88564075 61.2487436,8.49998928 59.9655857,8.42522252 C58.6167402,8.34685255 57.2579966,8.34955496 55.8956537,8.43242895 C54.6070968,8.51079893 53.3725297,7.89735121 52.6544652,6.82359249 L49.6112394,2.27453083 C48.6475212,0.834144772 46.8028693,0.274745308 45.2029711,0.93863807 L37.2808659,4.22387131 C35.6809677,4.88686327 34.7712394,6.58848257 35.1077759,8.28920107 L36.1695756,13.6606971 C36.4197284,14.9272279 35.9797114,16.2369973 35.0141935,17.0927614 C33.9919864,17.9989705 33.0291681,18.9583271 32.1311375,19.9690295 C31.2744992,20.9319893 29.9724448,21.3688794 28.7090832,21.1184558 L23.3523939,20.0573083 C21.6535144,19.7213083 19.9537351,20.6320214 19.2914601,22.2327507 L16.0097793,30.1634316 C15.3475042,31.7650617 15.905399,33.6117105 17.3442275,34.5764718 L21.8811715,37.6175871 C22.9492699,38.3337265 23.563854,39.5678284 23.4891681,40.8523753 C23.4108829,42.202681 23.4135823,43.5628954 23.4963667,44.9276139 C23.574652,46.2184665 22.9618676,47.4534692 21.8892699,48.172311 L17.3451273,51.2188311 C15.9062988,52.1835925 15.3475042,54.0302413 16.0106791,55.6318713 L19.2923599,63.5625523 C19.954635,65.1641823 21.6553141,66.0748954 23.3532937,65.7379946 L28.7189813,64.6750456 C29.9841426,64.424622 31.2924958,64.8651153 32.1473345,65.8316783 C33.0525637,66.854992 34.0108829,67.8188525 35.0204924,68.718756 C35.9824109,69.5754209 36.4188285,70.8797855 36.1686757,72.1445147 L35.1086757,77.5061019 C34.7721392,79.2068204 35.6818676,80.9084397 37.2817657,81.5714316 L45.203871,84.8557641 C46.8037691,85.5196568 48.6493209,84.9602574 49.6121392,83.5198713 L52.649966,78.9780161 C53.3653311,77.9087614 54.5980985,77.2935121 55.8812564,77.3682788 C57.2301019,77.4466488 58.5888455,77.4439464 59.9520883,77.3610724 C61.2406452,77.2827024 62.4752122,77.8961501 63.1932767,78.9699088 L66.2365025,83.5198713 C67.2002207,84.9602574 69.0448727,85.5196568 70.6447708,84.8557641 L78.5668761,81.5705308 C80.1667742,80.9075389 81.0765025,79.2050188 80.739966,77.5052011 L79.6781664,72.1337051 C79.4280136,70.8671743 79.8680306,69.5574048 80.8335484,68.7016408 C81.8557555,67.7954316 82.8185739,66.8351743 83.7166044,65.8253727 C84.5732428,64.8624129 85.8752971,64.4255228 87.1386587,64.6759464 L92.495348,65.7370938 C94.1942275,66.0739946 95.8940068,65.1632815 96.5562818,63.5616515 L99.8379626,55.6309705 C100.500238,54.0293405 99.9414431,52.1817909 98.5035144,51.2179303 L93.9665705,48.176815 C92.8975722,47.4597748 92.2838879,46.2265737 92.3585739,44.941126 C92.4368591,43.5908204 92.4341596,42.2306059 92.3513752,40.8667882 C92.27309,39.5768365 92.8858744,38.340933 93.958472,37.6220912 L98.5026146,34.575571 C99.9414431,33.6108097 100.500238,31.7641609 99.8370628,30.1625308 L96.5544822,22.2327507 Z M64.8723599,59.6972011 C55.6041087,63.5400322 44.9798132,59.1341984 41.1402377,49.856815 C37.3006621,40.5794316 41.7026316,29.9427346 50.969983,26.0990027 C60.2373345,22.2552708 70.8625297,26.6620054 74.7021053,35.9393887 C78.5416808,45.2167721 74.1397114,55.85437 64.8723599,59.6972011 Z" id="Shape"></path>
                <path d="M92.8939728,308.187668 C27.03,308.187668 0.150271647,264.661705 0.150271647,216.21645 C0.150271647,167.771196 26.5782852,137.943764 60.6512564,137.943764 C94.7242275,137.943764 85.0447538,166.914531 124.910832,166.914531 C164.77691,166.914531 186.367436,98.4696193 243.457165,98.4696193 C300.546893,98.4696193 271.673141,160.187324 322.18961,160.187324 C372.706078,160.187324 434.156384,116.447871 443.905144,166.300182 C456.614346,231.292311 632.580645,310.282938 440.565874,310.282938 C364.582411,310.282938 92.8939728,308.187668 92.8939728,308.187668 Z" id="Path"></path>
            </g>
            <path d="M191.427182,308.125512 L495.207165,308.125512 C496.881749,308.125512 498.238693,309.483925 498.238693,311.160322 L498.238693,311.480107 C498.238693,313.156504 496.881749,314.514917 495.207165,314.514917 L20.7608829,314.514917 C19.0862988,314.514917 17.7293548,313.156504 17.7293548,311.480107 L17.7293548,311.480107 C17.7293548,309.806413 19.0826995,308.448901 20.7554839,308.445298 L191.427182,308.125512 Z" id="Path" fill="#DAE7FF"></path>
        </g>
        <g id="plant_26_" transform="translate(487.614601, 196.946381)" fill-rule="nonzero">
            <path d="M48.9327674,111.599743 C53.4508149,101.018895 60.1905433,86.0268097 46.4159423,77.1746059 C32.6404414,68.3215013 45.2164686,63.0797212 45.6636842,50.2486649 C46.1108998,37.4176086 32.049253,34.1197641 32.4703735,28.0357319 C32.8905942,21.9516997 33.5888625,11.1933941 32.2913073,6.60289544 C30.1191171,-1.07916354 13.864584,-4.56707775 12.2061969,17.0630349 C11.1641935,30.65437 9.76315789,38.8606971 2.52222411,48.5560536 C-4.71870968,58.2514102 11.2316808,68.5016622 10.9365365,76.3062306 C10.6413922,84.1107989 2.78227504,82.955067 3.6416129,99.4956354 C4.50095076,116.036204 15.3610017,128.544772 25.6874533,127.807013 C32.6998302,127.306166 44.8079457,121.259067 48.9327674,111.599743 Z" id="Path" fill="#9E95E3"></path>
            <path d="M44.5454955,90.9127721 C44.5541935,90.6641501 44.3598302,90.4551635 44.1114771,90.4461555 C43.8730221,90.466874 43.6552632,90.632622 43.6462649,90.8803432 C43.3871138,98.2930617 33.3549066,103.691582 30.1713073,105.221147 C30.5258404,101.417051 30.6545161,97.817437 30.406163,94.7123646 C29.8635654,87.9221019 28.1970798,80.7327828 26.5863837,73.7803753 C24.5383701,64.9425845 22.6028353,56.5542949 23.1544312,49.8910456 C24.7687267,49.4784772 30.9604584,47.5255335 32.9292869,41.4396997 C33.0057725,41.2027882 32.8761969,40.9487614 32.6404414,40.872193 C32.4037861,40.7947239 32.150034,40.9262413 32.0735484,41.1613512 C30.3782683,46.3986273 25.1052632,48.3785952 23.2498132,48.9244826 C23.2957046,48.5560536 23.3433956,48.1894263 23.4063837,47.8327078 C24.851511,39.6245791 23.8895925,29.0950777 23.314601,22.8047614 C23.0491511,19.8969651 22.8394907,17.6026166 22.9933616,16.9945737 C23.0545501,16.7531582 22.9087776,16.5081394 22.6685229,16.4477855 C22.4309677,16.3838284 22.1826146,16.5315603 22.122326,16.7729759 C21.9378608,17.4963217 22.0980306,19.3672922 22.4192699,22.8867346 C22.9897623,29.1329115 23.945382,39.5867453 22.5209508,47.6768686 C22.4282683,48.2029383 22.3598812,48.7452225 22.3031919,49.2947131 C22.2411036,49.3901984 22.2141087,49.5091046 22.2384041,49.6298123 C22.2438031,49.6577373 22.2582003,49.6802574 22.2680985,49.7054799 C21.9954499,52.8402788 22.2564007,56.3245898 22.8277929,60.0494155 C22.8232937,60.0512172 22.8187946,60.0503164 22.8151952,60.052118 C17.9165195,62.0636139 14.9182852,56.2858552 14.7932088,56.0399357 C14.6807301,55.817437 14.4089813,55.7282574 14.1885229,55.8408579 C13.9662649,55.9534584 13.8780815,56.2246005 13.9896604,56.4461984 C14.0193548,56.5038499 16.53618,61.3790027 20.7851783,61.3790027 C21.4690492,61.3790027 22.2006112,61.2447828 22.9717657,60.9511206 C23.6493379,65.0777051 24.6643463,69.4727292 25.7099491,73.9857587 C27.2729542,80.731882 28.8800509,87.6996032 29.4586418,94.2745737 C27.5914941,94.1565684 20.8634635,93.3548525 19.0862988,87.2906381 C19.0170119,87.0528257 18.7668591,86.9159035 18.5275042,86.9852654 C18.2881494,87.0546273 18.152275,87.3050509 18.2224618,87.5437641 C20.2038879,94.3006971 27.6778778,95.0934048 29.5297284,95.1852869 C29.7438879,98.2894584 29.6008149,101.867453 29.2282852,105.654434 C29.2246859,105.656236 29.2129881,105.66074 29.2111885,105.661641 C28.9826316,105.757126 28.8737521,106.020161 28.9691341,106.249866 C29.006927,106.339946 29.0708149,106.408408 29.1473005,106.45615 C28.1997793,115.418252 26.059983,125.391957 24.4690832,132.799271 C23.0437521,139.437298 22.3103905,142.952236 22.5443463,144.067432 C22.5893379,144.280021 22.7756027,144.425051 22.9843633,144.425051 C23.0149576,144.425051 23.0464516,144.422349 23.0779457,144.415142 C23.3208998,144.363796 23.4765705,144.125083 23.4252801,143.881866 C23.219219,142.902692 24.2063328,138.307689 25.3491171,132.98844 C26.9616129,125.483839 29.1356027,115.354295 30.0741256,106.26518 C32.7124278,105.071614 44.2500509,99.368622 44.5454955,90.9127721 Z" id="Path" fill="#7266D5"></path>
        </g>
        <g id="plant_25_" transform="translate(52.096774, 198.747989)" fill-rule="nonzero">
            <g id="Group" transform="translate(0.000000, 38.734584)">
                <path d="M4.54144312,79.9535871 C1.32095076,72.4120536 -3.48234295,61.7267131 6.33570458,55.4174799 C16.1537521,49.1082466 7.19054329,45.3717105 6.8720034,36.2267453 C6.5534635,27.0817802 16.5748727,24.7315818 16.2752292,20.3951099 C15.9755857,16.0586381 15.4779796,8.39099196 16.4030051,5.11927078 C17.9507131,-0.355817694 29.5360272,-2.84203753 30.7184041,12.5743271 C31.4616638,22.2615764 32.4595756,28.1104987 37.6210017,35.0205684 C42.7824278,41.9306381 31.4139728,49.2361609 31.6236333,54.7995282 C31.8332937,60.3628954 37.4356367,59.5386595 36.8228523,71.3274853 C36.2100679,83.116311 28.4697284,92.031571 21.110017,91.5064021 C16.1114601,91.147882 7.48118846,86.8375335 4.54144312,79.9535871 Z" id="Path" fill="#8AE6B9"></path>
                <path d="M29.3632598,40.0956997 C29.1419015,39.9849008 28.8710526,40.0740804 28.7585739,40.2947775 C28.6721902,40.4659303 26.6277759,44.4114531 23.2930051,43.1224021 C23.6880306,40.5100697 23.8661969,38.0634853 23.6772326,35.8556139 C23.6817317,35.8403003 23.6916299,35.827689 23.6943294,35.8114745 C23.7150255,35.7087828 23.6925297,35.6096944 23.648438,35.5232172 C23.6079457,35.1322681 23.558455,34.7467239 23.4927674,34.3710885 C22.4804584,28.6221555 23.1607301,21.1815121 23.5665535,16.7369437 C23.8041087,14.1435282 23.9111885,12.8733941 23.7744143,12.3356139 C23.7132258,12.0932976 23.4639728,11.9464665 23.2282173,12.0104236 C22.9870628,12.0707775 22.8412903,12.3166971 22.9033786,12.5572118 C23.0077589,12.9688794 22.8511885,14.6768043 22.6712224,16.6540697 C22.2608998,21.1445791 21.5743294,28.6599893 22.6073345,34.5278284 C22.6406282,34.7151957 22.6631239,34.9088686 22.689219,35.1007399 C21.2494907,34.6485362 17.818438,33.2297694 16.6801528,29.7103271 C16.6045671,29.4743164 16.3517148,29.3446005 16.1132598,29.4211689 C15.8766044,29.4977373 15.7479287,29.7517641 15.8244143,29.9886756 C17.2128523,34.281008 21.4996435,35.7286005 22.7935993,36.0745094 C23.1598302,40.7884182 21.7902886,46.7220161 20.3424618,52.9717962 C19.1933786,57.9316247 18.0047029,63.0599035 17.6168761,67.908933 C17.4468081,70.0330295 17.5250934,72.5273566 17.7545501,75.1883324 C15.3016129,73.9830563 8.61497453,70.2420161 8.43860781,65.184 C8.43050934,64.9362788 8.21095076,64.7642252 7.97339559,64.7498123 C7.72504244,64.7588204 7.53067912,64.9669062 7.53967742,65.216429 C7.74933786,71.2356032 15.8118166,75.3027346 17.8463328,76.2341662 C18.5104075,82.9190349 20.0635144,90.5101126 21.2125976,96.1302306 C22.0305433,100.126198 22.73691,103.57718 22.5947368,104.252783 C22.5434465,104.496901 22.6991171,104.735614 22.9420713,104.78696 C22.9735654,104.794166 23.0041596,104.796869 23.0356537,104.796869 C23.2435144,104.796869 23.4306791,104.651839 23.4756706,104.439249 C23.648438,103.618617 23.1211375,100.964847 22.0953311,95.9500697 C20.9606452,90.4047185 19.4327334,82.9289437 18.7632598,76.345866 C18.8118506,76.3026273 18.8622411,76.2584879 18.889236,76.19363 C18.9774194,75.9837426 18.8874363,75.7513351 18.6966723,75.6387346 C18.4501188,72.9894692 18.3556367,70.509555 18.4933107,68.3800536 C20.0185229,68.2827668 25.1601528,67.6017587 26.5539898,62.8473137 C26.6241766,62.6086005 26.4874024,62.3581769 26.2489474,62.288815 C26.0104924,62.2203539 25.7612394,62.3554745 25.6901528,62.5941877 C24.469983,66.7577051 20.0509168,67.3909705 18.5643973,67.4810509 C18.9855178,62.8446113 20.1175042,57.9334263 21.2197963,53.1762788 C21.9522581,50.013555 22.6649236,46.9319035 23.1490323,44.0313137 C23.6511375,44.2042681 24.1343463,44.2871421 24.5950594,44.2871421 C27.0470968,44.2871421 28.8566553,42.1053941 29.5630221,40.7037426 C29.6737012,40.4785416 29.584618,40.2073995 29.3632598,40.0956997 Z" id="Path" fill="#44D690"></path>
            </g>
            <g id="Group" transform="translate(42.292020, 0.000000)">
                <path d="M48.9255688,111.096193 C53.4436163,100.515346 60.1833447,85.5232601 46.4087436,76.6710563 C32.6332428,67.8179517 45.2092699,62.5761716 45.6564856,49.7451153 C46.1037012,36.914059 32.0420543,33.6162145 32.4631749,27.5321823 C32.8833956,21.4481501 33.5816638,10.6898445 32.2841087,6.09934584 C30.1119185,-1.58271314 13.8573854,-5.07062735 12.1989983,16.5594853 C11.1569949,30.1508204 9.75595925,38.3571475 2.51502547,48.052504 C-4.72590832,57.7478606 11.2244822,67.9981126 10.9293379,75.802681 C10.6341935,83.6072493 2.7750764,82.4515174 3.63441426,98.9920858 C4.49375212,115.532654 15.3538031,128.041223 25.6802547,127.303464 C32.6926316,126.802617 44.800747,120.755517 48.9255688,111.096193 Z" id="Path" fill="#45D48F"></path>
                <path d="M44.5391967,90.4092225 C44.5478947,90.1606005 44.3535314,89.9516139 44.1051783,89.9426059 C43.8667233,89.9633244 43.6489643,90.1290724 43.639966,90.3767936 C43.3808149,97.7895121 33.3486078,103.188032 30.1650085,104.717598 C30.5195416,100.913501 30.6482173,97.3138874 30.3998642,94.208815 C29.8572666,87.4185523 28.190781,80.2292332 26.5800849,73.2768257 C24.5320713,64.4390349 22.5965365,56.0507453 23.1481324,49.387496 C24.7624278,48.9749276 30.9541596,47.0219839 32.9229881,40.9361501 C32.9994737,40.6992386 32.8698981,40.4452118 32.6341426,40.3686434 C32.3974873,40.2911743 32.1437351,40.4226917 32.0672496,40.6578016 C30.3719694,45.8950777 25.0989643,47.8750456 23.2435144,48.420933 C23.2894058,48.052504 23.3370968,47.6858767 23.4000849,47.3291582 C24.8452122,39.1210295 23.8832937,28.5915282 23.3083022,22.3012118 C23.0428523,19.3934155 22.8331919,17.099067 22.9870628,16.4910241 C23.0482513,16.2496086 22.9024788,16.0045898 22.6622241,15.9442359 C22.4246689,15.8802788 22.1763158,16.0280107 22.1160272,16.2694263 C21.931562,16.9927721 22.0917317,18.8637426 22.4129711,22.383185 C22.9834635,28.6293619 23.9390832,39.0831957 22.514652,47.173319 C22.4219694,47.6993887 22.3535823,48.2416729 22.296893,48.7911635 C22.2348048,48.8866488 22.2078098,49.005555 22.2321053,49.1262627 C22.2375042,49.1541877 22.2519015,49.1767078 22.2617997,49.2019303 C21.9891511,52.3367292 22.2501019,55.8210402 22.8214941,59.545866 C22.8169949,59.5476676 22.8124958,59.5467668 22.8088964,59.5485684 C17.9102207,61.5600643 14.9119864,55.7823056 14.78691,55.5363861 C14.6744312,55.3138874 14.4026825,55.2247078 14.1822241,55.3373083 C13.959966,55.4499088 13.8717827,55.7210509 13.9833616,55.9426488 C14.013056,56.0003003 16.5298812,60.8754531 20.7788795,60.8754531 C21.4627504,60.8754531 22.1943124,60.7412332 22.9654669,60.447571 C23.643039,64.5741555 24.6580475,68.9691796 25.7036503,73.4822091 C27.2666553,80.2283324 28.8737521,87.1960536 29.452343,93.7710241 C27.5851952,93.6530188 20.8571647,92.8513029 19.08,86.7870885 C19.0107131,86.5492761 18.7605603,86.4123539 18.5212054,86.4817158 C18.2818506,86.5510777 18.1459762,86.8015013 18.216163,87.0402145 C20.1975891,93.7971475 27.6715789,94.5898552 29.5234295,94.6817373 C29.7375891,97.7859088 29.5945161,101.363903 29.2219864,105.150885 C29.2183871,105.152686 29.2066893,105.15719 29.2048896,105.158091 C28.9763328,105.253576 28.8674533,105.516611 28.9628353,105.746316 C29.0006282,105.836397 29.0645161,105.904858 29.1410017,105.952601 C28.1934805,114.914702 26.0536842,124.888408 24.4627844,132.295721 C23.0374533,138.933748 22.3040917,142.448686 22.5380475,143.563882 C22.583039,143.776472 22.7693039,143.921501 22.9780645,143.921501 C23.0086587,143.921501 23.0401528,143.918799 23.0716469,143.911592 C23.314601,143.860247 23.4702716,143.621534 23.4189813,143.378316 C23.2129202,142.399142 24.200034,137.804139 25.3428183,132.48489 C26.9553141,124.98029 29.1293039,114.850745 30.0678268,105.76163 C32.7052292,104.568064 44.2437521,98.8650724 44.5391967,90.4092225 Z" id="Path" fill="#1EAF69"></path>
            </g>
        </g>
        <g id="woman_12_" transform="translate(94.388795, 226.672922)" fill-rule="nonzero">
            <path d="M88.5091002,121.393287 C88.2517487,123.093105 87.5795756,133.010059 87.5795756,133.010059 L79.6781664,131.963324 L79.6781664,121.044676 L88.5091002,121.393287 Z" id="Path" fill="#F1B282"></path>
            <path d="M77.2207301,131.490402 C77.2207301,131.490402 74.7524958,138.462627 76.0095586,140.475024 C77.2666214,142.487421 99.9585399,141.038027 101.664618,140.892997 C109.449049,140.231807 111.308998,133.711786 103.145739,134.477469 C94.9833786,135.243153 93.0847368,128.93392 88.4452122,129.177137 C85.5081664,129.956332 82.5333277,132.825394 80.6472835,132.351571 C78.7612394,131.877748 77.2207301,131.490402 77.2207301,131.490402 Z" id="Path" fill="#03193F"></path>
            <polygon id="Path" fill="#F1B282" points="28.7945671 136.848386 19.9726316 135.749405 25.0881664 129.171732 31.2232088 129.171732"></polygon>
            <path d="M48.0716299,87.0618338 C48.0716299,87.0618338 73.8985569,76.6809651 80.374635,79.3842788 C89.766163,83.3045791 90.9872326,122.609373 89.1281834,123.942563 C87.2691341,125.275753 82.4064516,125.322595 79.6772666,123.420997 C76.9480815,121.519399 74.909966,107.646113 74.909966,98.4128686 C69.7998302,102.953823 54.4721222,112.652783 54.4721222,112.652783 C54.4721222,112.652783 38.0790153,101.951228 48.0716299,87.0618338 Z" id="Path" fill="#0B224E"></path>
            <path d="M14.5223599,110.009823 C14.5223599,116.953223 20.4144482,120.26548 24.1118506,122.719271 C27.7093718,125.106402 30.8560781,126.708933 29.5567233,128.162831 C26.92382,131.108461 27.5438031,137.46904 27.5438031,137.46904 C27.5438031,137.46904 61.1623599,142.275732 75.106129,141.191164 C89.0498981,140.104794 87.6551613,128.937523 80.8389474,124.905523 C74.0227334,120.871721 50.3185059,102.570981 50.3185059,102.570981 C39.3171817,99.4686113 14.5223599,95.8149491 14.5223599,110.009823 Z" id="Path" fill="#102B5E"></path>
            <g id="Group" transform="translate(8.998302, 0.000000)">
                <g transform="translate(23.395586, 8.107239)" id="Path">
                    <path d="M7.5063837,0.633265416 C-5.54925297,3.00598391 3.04502547,15.2965576 3.0459253,20.8554209 C3.04682513,26.4142842 0.740560272,35.0151635 0.740560272,35.0151635 L14.1894228,36.0177587 C14.1894228,36.0177587 14.4260781,31.4813083 14.1570289,29.1518284 C13.8879796,26.8223485 15.5265705,25.5756354 18.4132258,25.5170831 C21.2989813,25.4585308 21.0344312,19.8465201 21.3862649,18.7862735 C21.9621562,17.0513244 24.8686078,17.9935657 24.2171307,16.0054906 C23.5665535,14.0174155 21.3340747,13.4517105 20.5602207,8.13065952 C19.7863667,2.80960858 13.7026146,-0.492739946 7.5063837,0.633265416 Z" fill="#F1B282"></path>
                    <path d="M17.675365,25.5612225 C16.3040238,25.6945416 15.280017,26.1521501 14.691528,26.9106273 L13.0304414,24.1739839 C14.6132428,24.9991206 16.8007301,25.5801394 17.675365,25.5612225 Z" fill="#CD916A"></path>
                </g>
                <path d="M25.201545,8.18380697 C25.201545,8.18380697 24.3620034,0.972868633 16.4228014,0.822434316 C5.87409168,0.622455764 6.19533107,15.6784987 6.04685908,23.5190992 C5.76251273,38.5183914 -1.50811545,38.7859303 1.04650255,41.8180375 C2.85606112,43.965555 16.9635993,34.3107346 18.2611545,23.6731367 C19.5587097,13.0346381 18.6858744,8.06039678 24.2054329,10.669126 C26.4190153,11.7149598 25.201545,8.18380697 25.201545,8.18380697 Z" id="Path" fill="#0B224E"></path>
                <path d="M22.5551443,27.4195818 C28.0153141,37.664429 34.4176061,24.1974048 30.0516299,21.8679249 C26.6808659,20.0690188 27.8965365,15.0677534 36.6878778,18.4232493 C39.6645161,19.5591635 46.5059253,17.6899946 46.6480985,10.1736836 C46.7002886,7.39560322 42.203837,5.82009651 33.4934805,5.72821448 C19.2095756,5.57687936 18.2008659,19.2492869 22.5551443,27.4195818 Z" id="Path" fill="#0B224E"></path>
                <path d="M27.5573005,3.90768901 C29.7951783,5.02648794 24.3925976,14.3326971 21.2494907,13.0445469 C18.1054839,11.7563968 24.6391511,2.44838606 27.5573005,3.90768901 Z" id="Path" fill="#1B90FB"></path>
            </g>
            <path d="M48.2839898,79.03837 C48.3739728,78.0564933 50.8341087,77.2214477 52.8533277,75.1018552 C54.5288115,73.3344772 55.8947538,70.6825094 55.3134635,66.2964933 C55.2234805,65.6172869 55.3134635,66.2964933 55.7471817,65.0686971 C55.8695586,64.7164826 55.9919355,64.3489544 56.1152122,63.964311 C58.6491341,56.1813619 61.2082513,41.369437 42.2587267,37.2860912 C32.653039,35.2079357 22.4732598,38.3400322 22.6748217,61.1655121 C23.0428523,102.852032 7.39390492,98.0570509 11.8489643,105.585973 C14.0967402,109.382863 25.2888285,111.724054 31.8197963,108.466745 C38.3435654,105.209437 57.2355008,106.838091 56.6794058,104.047399 C56.1808998,101.551271 47.0413243,94.0556783 48.2839898,79.03837 Z" id="Path" fill="#FFCB01"></path>
            <path d="M145.924567,48.3020268 L63.3417487,54.0833887 C61.3585229,54.2221126 59.6389474,52.7258767 59.5003735,50.740504 L57.7430051,25.5792386 C57.6044312,23.593866 59.0990492,21.872429 61.082275,21.7337051 L143.665093,15.9523432 C145.648319,15.8136193 147.367895,17.3098552 147.506469,19.2952279 L149.263837,44.4564933 C149.402411,46.4409651 147.907793,48.1633029 145.924567,48.3020268 Z" id="Path" fill="#1B90FB"></path>
            <path d="M67.0508489,57.9027989 C67.0508489,57.9027989 71.3862309,60.3538874 77.1586418,63.2166434 C84.3077929,60.7187131 96.9522071,52.0088365 99.1216978,48.4416515 C100.59202,46.0238928 103.407589,42.1261126 104.873413,42.9350349 C106.10438,43.6142413 103.580357,45.9644397 104.005076,47.6678606 C104.383905,49.1902198 114.143463,42.423378 114.143463,47.201244 C114.143463,51.4962788 112.853107,55.0238284 105.879423,55.0238284 C103.751324,55.0238284 101.567436,55.2382198 97.6270798,59.4683968 C95.4431919,61.8131903 85.5549576,74.1542091 73.9354499,73.3786166 C62.3159423,72.6030241 54.4721222,67.2081072 54.4721222,67.2081072 C54.4721222,67.2081072 61.628472,57.7478606 67.0508489,57.9027989 Z" id="Path" fill="#F1B282"></path>
            <path d="M29.5567233,128.163732 C29.5567233,128.163732 50.8791002,128.163732 58.6554329,128.163732 C58.6554329,128.163732 33.8075212,125.907217 24.1118506,122.720172 C27.7093718,125.107303 30.8560781,126.709834 29.5567233,128.163732 Z" id="Path" fill="#0B224E"></path>
            <path d="M28.7054839,127.698016 C28.7054839,127.698016 29.1598981,122.407592 27.2639559,121.150971 C25.3680136,119.894349 6.13864177,130.176129 4.70701188,130.980547 C-1.82485569,134.650424 -0.862037351,141.080365 5.95777589,137.168172 C12.778489,133.255979 16.9357046,138.007721 20.8895586,135.952086 C23.1436333,134.104536 24.6022581,130.418445 26.4370119,130.083346 C28.2717657,129.747346 28.7054839,127.698016 28.7054839,127.698016 Z" id="Path" fill="#03193F"></path>
            <path d="M55.7480815,65.0686971 C55.3143633,66.2964933 55.2252801,65.6172869 55.3143633,66.2964933 C55.8947538,70.6825094 54.5297114,73.3344772 52.8533277,75.1018552 C48.8724788,71.4517962 40.2728014,61.6807721 39.7086078,50.9603003 C39.7086078,50.9603003 53.3608319,57.883882 55.4862309,62.41763 C55.7228862,62.9247828 55.936146,63.4409437 56.1152122,63.964311 C55.9928353,64.3489544 55.8704584,64.7173834 55.7480815,65.0686971 Z" id="Path" fill="#F0B701"></path>
            <path d="M67.6483362,55.5381877 C64.2127844,53.6996461 58.6149406,47.5993995 55.448438,43.9619517 C53.7216638,41.9783807 51.4963837,40.4776408 48.9921562,39.6777265 C30.2189983,33.67837 37.8954499,49.4352386 41.5865535,55.6570938 C45.5224109,62.2906166 56.9547538,74.1497051 58.0651443,69.1475389 C59.1773345,64.1453727 72.6477929,58.2135764 67.6483362,55.5381877 Z" id="Path" fill="#FFCB01"></path>
        </g>
        <g id="coffee" transform="translate(189.770798, 298.737265)" fill-rule="nonzero">
            <path d="M0.387826825,30.0625416 L0.387826825,32.6667668 C0.387826825,36.7555174 3.01533107,38.2004075 5.26490662,38.2004075 C5.60324278,38.2004075 5.92808149,38.1616729 6.24032258,38.1094263 C6.73432937,38.018445 7.18964346,37.8878284 7.54057725,37.7707239 C7.98239389,37.6013727 8.2685399,37.4581448 8.30813243,37.4455335 C8.7895416,37.2113244 8.9713073,36.6249008 8.73735144,36.1438713 C8.51599321,35.7015764 7.99589134,35.4925898 7.54057725,35.661941 C7.51448217,35.6745523 7.47578947,35.6880643 7.43619694,35.7006756 C7.42359932,35.7006756 6.90259762,35.961008 6.23942275,36.117748 C5.92718166,36.196118 5.5888455,36.2483646 5.26400679,36.2483646 C4.1716129,36.2483646 2.33775891,35.7799464 2.33775891,32.6676676 L2.33775891,30.0634424 C2.33775891,26.9520643 4.1716129,26.4827453 5.26400679,26.4827453 C5.5888455,26.4827453 5.92718166,26.534992 6.23942275,26.6133619 C6.90259762,26.7692011 7.42269949,27.0304343 7.43619694,27.0304343 C7.47488964,27.0430456 7.51448217,27.0565576 7.54057725,27.0691689 C7.99589134,27.2385201 8.51599321,27.0304343 8.73735144,26.5872386 C8.9713073,26.1053083 8.7895416,25.5197855 8.30813243,25.2855764 C8.26943973,25.2729651 7.98329372,25.1297373 7.54057725,24.9603861 C7.18964346,24.8432815 6.73432937,24.7126649 6.24032258,24.6216836 C5.92808149,24.569437 5.60324278,24.5307007 5.26490662,24.5307007 C3.01533107,24.5289008 0.387826825,25.9746917 0.387826825,30.0625416 Z" id="Path" fill="#FFCB01"></path>
            <path d="M6.24032258,24.6279893 L6.24032258,26.6196676 C6.90349745,26.7755067 7.42359932,27.0367399 7.43709677,27.0367399 C7.47578947,27.0493512 7.515382,27.0628633 7.54147708,27.0754745 L7.54147708,24.9657909 C7.18964346,24.8495871 6.73432937,24.7189705 6.24032258,24.6279893 Z" id="Path" fill="#F0B701"></path>
            <path d="M6.24032258,36.1249544 L6.24032258,38.1166327 C6.73432937,38.0256515 7.18964346,37.8950349 7.54057725,37.7779303 L7.54057725,35.6682466 C7.51448217,35.6808579 7.47578947,35.69437 7.43619694,35.7069812 C7.42359932,35.707882 6.90349745,35.9682145 6.24032258,36.1249544 Z" id="Path" fill="#F0B701"></path>
            <path d="M7.54147708,21.5994853 L7.54147708,39.1768794 C7.54147708,40.6091582 8.7121562,41.7811046 10.1428862,41.7811046 L23.1490323,41.7811046 C24.5797623,41.7811046 25.7504414,40.6091582 25.7504414,39.1768794 L25.7504414,21.5994853 C25.7504414,21.2346595 25.4642954,20.9482038 25.0998642,20.9482038 L8.19205433,20.9482038 C7.82672326,20.9491046 7.54147708,21.2346595 7.54147708,21.5994853 Z" id="Path" fill="#FFCB01"></path>
            <path d="M15.041562,0.610745308 C15.041562,0.610745308 13.0916299,2.46189812 13.1591171,3.97615013 C13.2266044,5.49040214 15.0748557,6.19753351 15.041562,8.58646649 C15.0082683,10.9753995 12.5544312,10.9420697 12.5544312,12.9607721 C12.5544312,14.9794745 16.7224448,16.3595067 16.7224448,18.1430992 C16.7224448,18.1430992 17.8652292,17.3350777 17.8985229,16.427067 C17.9318166,15.5190563 16.3526146,14.8794853 16.3526146,13.5327828 C16.3526146,12.1869812 21.4960441,11.7825201 21.4960441,8.68735657 C21.4960441,5.59219303 15.142343,4.71571046 15.041562,0.610745308 Z" id="Path" fill="#DAE7FF"></path>
            <path d="M19.3508489,41.7811046 L23.1481324,41.7811046 C24.5788625,41.7811046 25.7495416,40.6091582 25.7495416,39.1768794 L25.7495416,33.213555 C25.7495416,33.213555 25.5281834,39.7236676 19.3508489,41.7811046 Z" id="Path" fill="#F0B701"></path>
        </g>
        <g id="paperplane_3_" transform="translate(115.084890, 59.123324)" fill-rule="nonzero">
            <polygon id="Path" fill="#FFE18D" points="0.664974533 15.9919786 19.6738879 25.5071743 76.7033277 0.133319035"></polygon>
            <polygon id="Path" fill="#FFCB01" points="22.8421902 41.364933 19.6738879 25.5071743 76.7033277 0.133319035"></polygon>
            <polygon id="Path" fill="#F0B701" points="22.8421902 41.364933 29.1787946 28.6789062 45.0203056 25.5071743"></polygon>
            <polygon id="Path" fill="#FFE18D" points="29.1787946 28.6789062 45.0203056 35.02237 76.7033277 0.133319035"></polygon>
        </g>
        <g id="mobile_phone" transform="translate(219.465195, 33.000000)" fill-rule="nonzero">
            <g id="Group">
                <path d="M165.188132,0.660289544 L37.2520713,0.660289544 C23.1211375,0.660289544 11.665399,12.1275282 11.665399,26.2746595 L11.665399,282.421962 C11.665399,296.568193 23.1211375,308.036332 37.2520713,308.036332 L165.187233,308.036332 C179.318166,308.036332 190.773905,296.568193 190.773905,282.421962 L190.773905,26.2755603 C190.773905,12.1275282 179.319066,0.660289544 165.188132,0.660289544 Z" id="Path" fill="#183168"></path>
                <path d="M153.940255,0.660289544 L26.0041935,0.660289544 C11.8732598,0.660289544 0.417521222,12.1275282 0.417521222,26.2746595 L0.417521222,282.421962 C0.417521222,296.568193 11.8732598,308.036332 26.0041935,308.036332 L153.939355,308.036332 C168.070289,308.036332 179.526027,296.568193 179.526027,282.421962 L179.526027,26.2755603 C179.526027,12.1275282 168.071188,0.660289544 153.940255,0.660289544 Z" id="Path" fill="#224380"></path>
                <path d="M166.733141,32.6784772 L166.733141,276.019046 C166.733141,286.649437 158.161358,295.230499 147.542462,295.230499 L33.4250934,295.230499 C22.8061969,295.230499 14.2344143,286.649437 14.2344143,276.019046 L14.2344143,32.6784772 C14.2344143,22.0480858 22.8061969,13.4670241 33.4250934,13.4670241 L41.9968761,13.4670241 C47.2419864,13.4670241 51.5917657,17.8215121 51.5917657,23.0723003 C51.5917657,28.3230885 55.941545,32.6775764 61.1866553,32.6775764 L118.757793,32.6775764 C124.002903,32.6775764 128.352683,28.3230885 128.352683,23.0723003 C128.352683,17.8215121 132.702462,13.4670241 137.947572,13.4670241 L147.542462,13.4670241 C158.162258,13.4670241 166.733141,22.0480858 166.733141,32.6784772 Z" id="Path" fill="#F3F9FF"></path>
            </g>
            <g id="Group" transform="translate(124.176570, 61.254692)">
                <ellipse id="Oval" fill="#2CCD7F" cx="15.9359932" cy="16.0334155" rx="15.2971138" ry="15.3136729"></ellipse>
                <path d="M14.3423939,22.1588847 C14.3216978,22.1588847 14.299202,22.1588847 14.2785059,22.1588847 C13.8546859,22.1408686 13.456961,21.9462949 13.1816129,21.623807 L8.59247878,16.2640214 C8.04088285,15.6235496 8.11556876,14.655185 8.75804754,14.1047936 C9.40232598,13.5607078 10.3651443,13.6318713 10.9140407,14.2723432 L14.4368761,18.3845147 L22.5758404,10.3475389 C23.1751273,9.75571046 24.146944,9.7647185 24.7390323,10.3628525 C25.3320204,10.9672922 25.3257216,11.9356568 24.7237351,12.5310885 L15.4167912,21.7192922 C15.1297453,22.0003432 14.744618,22.1588847 14.3423939,22.1588847 Z" id="Path" fill="#FFFFFF"></path>
            </g>
            <path d="M113.078964,92.6270027 L30.294584,92.6270027 C28.3068591,92.6270027 26.6952632,91.0136622 26.6952632,89.0237855 L26.6952632,63.8012654 C26.6952632,61.8113887 28.3068591,60.1980483 30.294584,60.1980483 L113.078964,60.1980483 C115.066689,60.1980483 116.678285,61.8113887 116.678285,63.8012654 L116.678285,89.0237855 C116.678285,91.014563 115.066689,92.6270027 113.078964,92.6270027 Z" id="Path" fill="#1B90FB"></path>
            <g id="Group" transform="translate(124.176570, 117.104558)">
                <ellipse id="Oval" fill="#AEC1E8" cx="15.9359932" cy="16.1631314" rx="15.2971138" ry="15.3136729"></ellipse>
                <path d="M14.3423939,22.2886005 C14.3216978,22.2886005 14.299202,22.2886005 14.2785059,22.2886005 C13.8546859,22.2705845 13.456961,22.0760107 13.1816129,21.7535228 L8.59247878,16.3937373 C8.04088285,15.7532654 8.11556876,14.7849008 8.75804754,14.2345094 C9.40232598,13.6904236 10.3651443,13.7615871 10.9140407,14.402059 L14.4368761,18.5142306 L22.5758404,10.4772547 C23.1751273,9.88542627 24.146944,9.89443432 24.7390323,10.4925684 C25.3320204,11.097008 25.3257216,12.0653727 24.7237351,12.6608043 L15.4167912,21.849008 C15.1297453,22.130059 14.744618,22.2886005 14.3423939,22.2886005 Z" id="Path" fill="#FFFFFF"></path>
            </g>
            <path d="M113.078964,148.606584 L30.294584,148.606584 C28.3068591,148.606584 26.6952632,146.993244 26.6952632,145.003367 L26.6952632,119.780847 C26.6952632,117.790971 28.3068591,116.17763 30.294584,116.17763 L113.078964,116.17763 C115.066689,116.17763 116.678285,117.790971 116.678285,119.780847 L116.678285,145.003367 C116.678285,146.993244 115.066689,148.606584 113.078964,148.606584 Z" id="Path" fill="#DAE7FF"></path>
            <path d="M107.230068,72.4525898 L36.1434805,72.4525898 C35.2229542,72.4525898 34.4751952,71.7049223 34.4751952,70.7824987 C34.4751952,69.8600751 35.2220543,69.1124075 36.1434805,69.1124075 L107.230068,69.1124075 C108.150594,69.1124075 108.898353,69.8600751 108.898353,70.7824987 C108.898353,71.7049223 108.150594,72.4525898 107.230068,72.4525898 Z" id="Path" fill="#BADDFE"></path>
            <path d="M107.230068,83.7126434 L36.1434805,83.7126434 C35.2229542,83.7126434 34.4751952,82.9649759 34.4751952,82.0425523 C34.4751952,81.1201287 35.2220543,80.3724611 36.1434805,80.3724611 L107.230068,80.3724611 C108.150594,80.3724611 108.898353,81.1201287 108.898353,82.0425523 C108.898353,82.9649759 108.150594,83.7126434 107.230068,83.7126434 Z" id="Path" fill="#BADDFE"></path>
        </g>
        <g id="man_8_" transform="translate(381.434635, 132.989276)" fill-rule="nonzero">
            <path d="M61.7706452,13.030134 C60.9293039,16.4297694 62.4464177,17.6800858 62.4266214,19.0105737 C62.4068251,20.3419625 61.5231919,23.2848901 61.877725,24.445126 C62.2322581,25.6053619 64.0490153,25.2270241 64.9911375,26.5980483 C65.9332598,27.9699732 65.6705093,30.2093727 67.5781494,31.3669062 C69.4857895,32.5244397 74.4663497,30.608429 74.7344992,32.2037534 C75.0026486,33.7990777 73.9759423,44.9933727 73.9759423,44.9933727 L90.8117657,40.2524397 C90.8117657,40.2524397 84.4877589,28.3384021 84.2870968,24.6550134 C84.0864346,20.9716247 81.7900679,7.91446649 76.8562988,7.74691689 C71.9216299,7.57846649 62.6641766,9.42061126 61.7706452,13.030134 Z" id="Path" fill="#F1B282"></path>
            <path d="M72.7404754,1.2178874 C65.6498132,2.88257373 62.1773684,3.0879571 61.5816808,0.543184987 C59.3438031,1.0710563 56.2879796,5.73181769 57.3623769,10.3151099 C59.736129,20.4437534 72.1456876,12.9571689 73.463039,18.5799893 C73.473837,18.5962038 73.9066553,26.0458552 72.3994397,27.4952493 C70.8922241,28.9446434 66.5541426,26.1971903 65.0478268,26.4827453 C63.827657,26.7133512 61.53309,39.4894584 70.4603056,37.3923861 C79.3884211,35.2962145 73.8436672,18.2529973 79.3056367,16.970252 C82.0807131,16.3189705 82.012326,28.3843432 85.8249066,27.4889437 C89.326146,26.6665094 92.2262988,21.0689115 90.0766044,11.893319 C87.7352462,1.90610188 79.0302886,-0.259431635 72.7404754,1.2178874 Z" id="Path" fill="#0B224E"></path>
            <ellipse id="Oval" fill="#2CCD7F" cx="18.9999151" cy="64.4264236" rx="18.7560611" ry="18.7763646"></ellipse>
            <path d="M17.0454839,71.936429 C17.0193888,71.936429 16.9923939,71.936429 16.9662988,71.936429 C16.4461969,71.9148097 15.958489,71.6760965 15.6219525,71.2797426 L9.99531409,64.7083753 C9.3195416,63.9237748 9.41132428,62.7356139 10.1986757,62.0609115 C10.9878268,61.3934155 12.1693039,61.4816944 12.8414771,62.2662949 L17.1606621,67.3089973 L27.1397793,57.4550992 C27.8740407,56.7290509 29.0663158,56.7398606 29.7915789,57.4731153 C30.5186418,58.2135764 30.5114431,59.4017373 29.7735823,60.1322895 L18.3628353,71.397748 C18.0101019,71.742756 17.537691,71.936429 17.0454839,71.936429 Z" id="Path" fill="#FFFFFF"></path>
            <path d="M28.4976231,81.6813298 C28.4976231,81.6813298 25.524584,81.1300375 24.093854,80.9093405 C22.6631239,80.6886434 15.5058744,80.0643861 10.1104924,79.622992 C4.71511036,79.1824987 1.81585739,81.2759678 6.22052632,82.7091475 C10.6242954,84.1423271 13.8546859,88.1464021 20.680798,88.5139303 C24.6526486,88.7274209 34.1134635,88.5139303 34.1134635,88.5139303 L28.4976231,81.6813298 Z" id="Path" fill="#F1B282"></path>
            <path d="M94.8996944,152.925941 C93.5310526,143.322466 88.5747878,111.755582 81.3518506,102.103464 L60.9302037,117.86934 C60.9302037,117.86934 75.4678608,159.102756 80.4862139,164.820161 C84.365382,169.239507 105.287334,198.145416 105.287334,198.145416 L115.476112,191.964997 C115.477012,191.964097 103.130441,165.32371 94.8996944,152.925941 Z" id="Path" fill="#0B224E"></path>
            <polygon id="Path" fill="#F1B282" points="63.9131409 206.299496 62.4014261 216.923582 53.5228014 216.067818 53.5228014 206.299496"></polygon>
            <path d="M89.336944,96.4175871 C89.3171477,95.9446649 89.2829542,95.4447185 89.0148048,95.0546702 C88.6386757,94.5087828 87.9224109,94.3385308 87.2718336,94.2097158 C82.8257725,93.32963 78.2132428,92.4513458 73.8058744,93.5052869 C70.8634295,94.208815 67.8858913,95.764504 64.9740407,94.9456729 C63.8366553,94.6258874 62.550798,93.9728043 61.5762818,94.6412011 C61.5267912,94.6745308 61.4808998,94.7114638 61.4359083,94.7492976 C60.9742954,95.1492547 60.7682343,95.7897265 60.5972666,96.3887614 C56.3725637,111.195282 54.5405093,133.237962 53.8116469,153.210595 C52.8929202,178.362853 53.0089983,204.741105 53.0089983,204.741105 L64.5466214,204.809566 C64.5466214,204.809566 71.3124448,172.947217 71.8586418,155.609437 C75.5749406,145.748332 83.246893,125.371239 86.7211375,116.006477 C89.0220034,109.799936 89.6113922,103.033995 89.336944,96.4175871 Z" id="Path" fill="#102B5E"></path>
            <polygon id="Path" fill="#F1B282" points="114.983905 193.544107 119.895178 200.394724 112.947589 207.584043 107.545908 199.118284"></polygon>
            <path d="M118.145008,194.820547 C118.373565,197.371625 115.473413,198.189555 113.885212,199.294842 C112.297012,200.400129 106.579491,203.829491 105.656265,202.262091 C104.733039,200.694692 105.074075,199.118284 104.421698,197.895893 C103.769321,196.673501 101.689813,195.649287 102.695823,194.0963 C103.701834,192.543314 106.42562,192.43792 108.149694,191.760515 C109.410357,191.265072 113.177046,187.351078 114.069677,187.901469 C114.962309,188.451861 114.839932,190.285898 115.447317,191.181298 C116.350747,192.509083 117.968642,192.839678 118.145008,194.820547 Z" id="Path" fill="#355AA2"></path>
            <path d="M65.3906621,208.623571 C64.3072666,210.944043 61.3891171,210.191871 59.4616808,210.348611 C57.5342445,210.505351 50.869202,210.592729 50.8574104,208.773105 C50.8458065,206.95348 51.9319015,205.762617 51.982292,204.37808 C52.0326825,202.993544 50.7486248,201.061319 52.3980136,200.224472 C54.0474024,199.387625 56.4544482,200.667668 58.2856027,200.949619 C59.6245501,201.155903 64.845365,199.666874 65.3411715,200.592 C65.8369779,201.517126 64.8093718,203.040386 64.8858574,204.12045 C64.999236,205.722981 66.2311036,206.822863 65.3906621,208.623571 Z" id="Path" fill="#355AA2"></path>
            <path d="M118.587725,198.843539 C119.350781,198.133705 121.198132,198.58771 123.530492,201.380204 C125.862852,204.172697 128.2609,206.074295 125.914143,208.28667 C124.440221,209.676611 115.108981,214.231078 109.187199,218.739603 C107.048302,220.368257 103.700934,220.918649 100.990645,220.410595 C100.43725,220.307003 99.9873345,219.901641 99.8460611,219.380075 C99.7056876,218.858509 99.9009508,218.319828 100.342767,218.009952 C105.270238,214.561673 105.685959,214.886863 107.634992,209.712643 C108.342258,207.834466 108.86146,206.183292 109.574126,205.588761 C110.960764,204.433029 112.683039,205.173491 114.878625,203.215142 C117.074211,201.256794 117.268574,200.072236 118.587725,198.843539 Z" id="Path" fill="#0B224E"></path>
            <path d="M63.6170968,212.861855 C64.6258065,212.779882 65.6471138,214.340976 65.4851443,218.107239 C65.3231749,221.873501 65.9782513,223.893105 62.8558404,224.166949 C60.170747,224.40296 42.3991002,223.930038 37.4752292,223.793115 C37.0964007,223.782306 36.7418676,223.590434 36.5034126,223.267046 C36.2649576,222.943657 36.1650764,222.519378 36.2316638,222.105008 C36.5250085,220.274574 37.8720543,217.510906 43.2467402,216.986638 C47.1924958,216.286713 51.0293718,212.537566 52.7750424,212.49793 C54.5207131,212.458295 55.2648727,214.169823 58.1119355,214.003174 C60.9589983,213.836525 61.8732258,213.003282 63.6170968,212.861855 Z" id="Path" fill="#0B224E"></path>
            <path d="M96.762343,62.6122038 C94.1195416,87.9635389 88.8348387,99.4262735 92.7985908,108.905437 C96.762343,118.384601 83.5501358,111.770895 76.0626486,112.21229 C68.5760611,112.652783 58.8866893,120.369072 52.7210526,115.519142 C49.640034,113.096879 50.7432258,107.098424 52.8488285,100.244204 C54.9607301,93.3773727 58.0786418,85.6529759 59.0081664,79.806756 C59.2439219,78.3231314 59.4265874,76.5593566 59.6074533,74.6064129 C60.8429202,61.1727185 62.0117997,38.773319 80.4673175,37.0401716 C85.075348,36.6086863 99.4042445,37.2608686 96.762343,62.6122038 Z" id="Path" fill="#1B90FB"></path>
            <path d="M87.3573175,48.982134 C87.3573175,48.982134 86.0093718,80.1373512 80.9451273,89.8372118 C76.1472326,99.0272172 61.9740068,99.6424665 52.8488285,100.244204 C54.9607301,93.3773727 58.0786418,85.6529759 59.0081664,79.806756 C59.2439219,78.3231314 59.4265874,76.5593566 59.6074533,74.6064129 C60.5981664,73.8236139 61.421511,72.9336193 62.0073005,71.908504 C64.2091851,68.0503592 68.6336503,54.7400751 73.9489474,49.7162895 C79.2642445,44.692504 85.6170458,48.982134 87.3573175,48.982134 Z" id="Path" fill="#1277D7"></path>
            <path d="M88.361528,55.6688043 C88.361528,55.6688043 83.490747,87.5689866 69.8187267,92.2630777 C56.1458065,96.9571689 31.0621392,90.2795067 28.4202377,90.0588097 C25.7774363,89.8381126 25.3374194,79.6977587 28.4202377,80.1391528 C31.503056,80.5796461 49.5599491,82.3218016 58.1479287,79.0257587 C66.7359083,75.7297158 70.6780645,53.5519142 72.461528,50.5990777 C75.5218506,45.5275496 88.361528,34.064815 88.361528,55.6688043 Z" id="Path" fill="#1B90FB"></path>
        </g>
    </g>
</svg>