<?xml version="1.0" encoding="UTF-8"?>
<svg width="600px" height="400px" viewBox="0 0 600 400" version="1.1" xmlns="http://www.w3.org/2000/svg" xmlns:xlink="http://www.w3.org/1999/xlink">
    <title>女孩团队合作难题</title>
    <g id="女孩团队合作难题" stroke="none" stroke-width="1" fill="none" fill-rule="evenodd">
        <rect fill="" x="0" y="0" width="600" height="400"></rect>
        <g id="cloud_1_" transform="translate(56.000000, 38.000000)" fill="#F3F9FF" fill-rule="nonzero">
            <path d="M163.787983,128.925 C171.308497,128.925 177.40884,122.8329 177.40884,115.317 C177.40884,115.3152 177.40884,115.3134 177.40884,115.3125 C177.40884,100.2762 165.211757,88.0875 150.167127,88.0875 C149.934785,88.0875 149.718652,88.1496 149.48811,88.1559 C146.358691,72.5904 132.612657,60.8625 116.115436,60.8625 C109.691796,60.8625 103.750851,62.7453 98.6240055,65.835 C92.9775414,54.846 81.6539945,47.25 68.4428895,47.25 C51.9456685,47.25 38.1987348,58.977 35.0702155,74.5434 C34.8378729,74.538 34.6235414,74.475 34.3911989,74.475 C15.5840608,74.475 0.338607735,89.7111 0.338607735,108.5067 C0.338607735,108.5085 0.338607735,108.5112 0.338607735,108.513 C0.34040884,119.7891 9.48641989,128.9259 20.7703425,128.9259 L163.787983,128.9259 L163.787983,128.925 Z" id="Path"></path>
            <path d="M419.488155,19.575 C418.914503,19.575 418.374171,19.6929 417.813127,19.7433 C413.975873,8.7363 403.611414,0.7875 391.289155,0.7875 C378.966895,0.7875 368.602436,8.7363 364.765182,19.7433 C364.205039,19.6929 363.663807,19.575 363.090155,19.575 C352.707685,19.575 344.291122,27.9864 344.291122,38.3625 C344.291122,48.7386 352.707685,57.15 363.090155,57.15 C367.886497,57.15 414.690912,57.15 419.487254,57.15 C429.869724,57.15 438.286288,48.7386 438.286288,38.3625 C438.288088,27.9864 429.870624,19.575 419.488155,19.575 Z" id="Path"></path>
        </g>
        <g id="plant_10_" transform="translate(470.254144, 167.600000)" fill-rule="nonzero">
            <path d="M40.4411105,143.5428 C63.3538674,142.5276 72.8591989,130.7493 74.1767072,104.5881 C75.4942155,78.4269 61.9688177,66.6387 60.2613702,46.6551 C58.5539227,26.6715 53.8035083,1.3401 48.8954972,0.225 C43.9874862,-0.8901 41.4218122,11.9052 35.6312597,19.7919 C26.9787514,31.5756 14.2899669,25.7886 18.6117182,57.2805 C22.3183923,84.2922 3.59590608,81.5607 0.709635359,108.5652 C-2.10098895,134.8632 16.9682099,144.5832 40.4411105,143.5428 Z" id="Path" fill="#F3F9FF"></path>
            <path d="M24.5634696,209.1294 C24.4734144,195.7221 25.1110055,182.4579 26.4393204,169.1946 C27.7397182,155.9475 29.8046851,142.7526 33.0475746,129.8205 C33.6329337,127.6938 34.238105,125.5923 34.8387735,123.4854 C29.2058177,110.8188 27.0354862,96.8346 28.3070663,83.2734 C27.8423812,95.9436 30.5242265,108.6273 35.8410884,119.9376 C38.5427459,110.4705 41.1579503,101.0916 42.6735801,91.3347 C44.9051492,78.318 46.1623204,65.0736 45.7318564,51.8301 C46.5540608,65.0601 45.6895304,78.3747 43.8352928,91.5174 C43.5741326,93.6162 43.1841934,95.7006 42.826674,97.7886 C46.1299006,95.6457 49.1017238,92.6181 51.5143039,89.3277 C54.2735967,85.4199 56.4178122,81.036 57.907326,76.4163 C56.7951436,81.1395 55.0039448,85.734 52.4968066,89.9748 C49.8770994,94.1562 46.7476796,98.0271 42.3286685,100.8828 C40.4312044,110.8377 37.6971271,120.6738 35.3349779,130.3668 C29.7911768,156.1131 28.4925801,182.7558 29.2643536,208.9629 L24.5634696,209.1294 Z" id="Path" fill="#D0E7FE"></path>
        </g>
        <g id="plant_9_" transform="translate(129.845304, 263.000000)" fill-rule="nonzero">
            <path d="M85.2201823,110.8818 C84.5636796,111.5748 82.023221,105.4656 74.8557238,105.9498 C67.6882265,106.434 59.6679061,104.2218 57.1679724,101.9466 C54.6680387,99.6714 47.3420442,100.7496 40.8643702,95.2812 C34.3866961,89.8137 35.9320442,86.409 33.4438177,83.3886 C31.766989,81.3528 27.4758564,79.9281 21.8870276,71.5419 C12.8517845,57.9843 14.7492486,46.6317 10.955221,43.0857 C6.25073481,38.6892 0.565546961,39.7926 0.565546961,39.7926 C0.565546961,39.7926 -1.0329337,37.0845 11.0344696,38.0187 C23.1018729,38.9529 24.0483536,35.6877 27.6226464,36.0423 C31.1969392,36.396 30.8088011,41.31 40.9679337,40.7232 C51.1261657,40.1364 45.3734365,45.5625 58.4728729,47.2581 C71.5723094,48.9537 80.461663,68.9742 82.0403315,75.8007 C85.4660331,90.612 80.582337,93.4956 83.3884586,103.9959 C84.802326,109.2825 86.8889061,109.1187 85.2201823,110.8818 Z" id="Path" fill="#F3F9FF"></path>
            <path d="M95.8349945,108.2898 C90.6532155,100.5552 85.4273094,93.627 80.2671436,87.4215 C79.5286906,80.4033 78.7479116,68.697 73.4634696,60.5439 C76.7802044,67.0806 77.5438729,76.3173 77.4655249,84.1167 C72.7025028,78.6015 68.0142265,73.701 63.4871492,69.3567 C63.1404365,62.5239 60.9457901,52.704 56.5862155,47.1681 C59.6453923,52.2486 60.8098066,60.381 60.7107459,66.7413 C36.8370994,44.6823 18.1299227,38.2149 18.1299227,38.2149 C30.6421989,44.7372 42.5673149,54.0756 53.085768,63.8802 C47.4393039,64.0422 40.7400939,63.9153 35.1089392,63.3024 C41.6568564,64.9638 50.1076409,66.1905 56.0846077,66.7233 C60.8800497,71.3475 65.3494917,76.0221 69.4082818,80.5104 C66.4067403,81.3663 62.0363591,82.2267 58.0658232,82.4967 C58.2783536,82.4886 56.8698895,82.6785 51.8484088,82.3995 C52.125779,82.431 62.2407845,84.5748 71.5353867,82.8882 C84.9220994,98.0019 93.3170497,110.4039 93.3170497,110.4039 L95.8349945,108.2898 Z" id="Path" fill="#C4E2FE"></path>
            <path d="M72.4134254,71.253 C71.7866409,71.6616 70.9680387,66.5433 65.4197348,65.6046 C59.8714309,64.6659 54.1664309,61.5168 52.6769171,59.3271 C51.1874033,57.1374 45.4103591,56.6226 41.4749448,51.2748 C37.5395304,45.9279 39.3379337,43.6158 37.9943094,40.8609 C37.0883536,39.0042 34.0805083,37.1358 31.3545359,29.7279 C26.9481326,17.7516 30.4674917,9.4491 28.225116,6.0561 C25.4451105,1.8486 20.9117293,1.6515 20.9117293,1.6515 C20.9117293,1.6515 20.1885856,-0.7029 29.211221,2.2104 C38.2329558,5.1237 39.5504641,2.8098 42.208895,3.7314 C44.867326,4.653 43.6740939,8.325 51.5197072,9.7326 C59.3653204,11.1393 53.9917238,14.2227 63.6609558,17.9046 C73.3301878,21.5865 76.4442983,38.4597 76.4006325,43.9488 C76.3038122,55.8567 72.0568066,57.1626 72.2765414,65.673 C72.3864088,69.9588 74.0065028,70.2144 72.4134254,71.253 Z" id="Path" fill="#DCEEFD"></path>
            <path d="M66.3986354,31.8717 C67.731453,37.4589 66.624674,44.6373 65.1387624,50.5656 C62.5172541,45.4941 59.8426133,40.9086 57.186884,36.7722 C58.1720884,31.5036 58.2954641,23.6169 55.985547,18.6021 C57.3886077,23.031 56.7888398,29.4408 55.5505801,34.2684 C41.3947956,13.1103 28.3259779,4.7646 28.3259779,4.7646 C36.6659945,12.0159 44.044221,21.3057 50.2652376,30.6945 C45.9344807,29.7873 40.8544641,28.4688 36.6759006,26.9739 C41.3614751,29.4345 47.5734862,31.9095 52.0294199,33.4071 C54.836442,37.8027 57.3868066,42.1785 59.658,46.3374 C57.2139006,46.4436 53.737768,46.3059 50.6578785,45.7857 C50.8208785,45.819 49.7131989,45.7056 45.9389834,44.577 C46.1443094,44.6517 53.4567956,48.1239 60.8440276,48.5361 C68.2825912,62.4942 72.4125249,73.4769 72.4125249,73.4769 L74.7179392,72.3258 C72.1837845,65.4885 69.4659171,59.2749 66.6688011,53.6067 C67.387442,48.1257 68.9381934,39.0546 66.3986354,31.8717 Z" id="Path" fill="#B8DDFE"></path>
        </g>
        <g id="plant_8_" transform="translate(325.265193, 230.600000)" fill-rule="nonzero">
            <path d="M0.670911602,132.7311 C0.670911602,132.7311 65.4260387,1.8891 156.457486,64.827 C165.279298,74.9952 138.230304,78.426 126.265564,75.7746 C110.785066,72.3447 111.645094,91.6974 94.0185801,89.5905 C72.3963149,87.0057 71.351674,99.4104 60.3190055,114.4458 C52.3806354,125.262 18.4739337,116.3619 0.670911602,132.7311 Z" id="Path" fill="#60DFA0"></path>
            <path d="M34.4893591,103.2282 C34.4893591,103.2282 67.2550608,-35.0982 151.173945,9.4248 C158.310823,13.8933 143.071674,23.9022 130.321652,23.0481 C117.57163,22.194 118.971088,42.2199 108.28063,51.7518 C96.4140497,62.3322 77.5627845,58.014 71.6317459,75.6918 C67.3649282,88.4097 46.463105,82.2204 34.4893591,103.2282 Z" id="Path" fill="#7BE6B1"></path>
        </g>
        <g id="woman_5_" transform="translate(278.436464, 20.000000)" fill-rule="nonzero">
            <path d="M23.5071215,0.45 C19.8049503,0.45 13.581232,2.7153 13.1462652,12.8295 C13.2246133,21.3156 20.0796188,22.5612 19.5347845,33.228 C19.1205304,41.328 10.3599558,52.2603 8.2391547,60.0885 C4.18846961,75.0366 35.3421823,78.7653 35.8167735,65.2266 C36.1283646,56.3508 32.7575967,53.6688 32.9971436,45.6066 C33.2366906,37.5444 40.3348453,29.4165 40.3348453,16.488 C40.3339448,3.1167 30.7412597,0.45 23.5071215,0.45 Z" id="Path" fill="#0B224E"></path>
            <g id="Group" transform="translate(14.408840, 3.600000)">
                <path d="M7.98069613,1.6245 C19.2547127,-2.6676 18.3406519,10.9197 20.950453,15.2388 C23.5602541,19.5579 29.3958343,25.1559 29.3958343,25.1559 L19.4006022,32.2551 C19.4006022,32.2551 17.0852818,28.8414 16.2009392,26.9055 C15.3165967,24.9696 13.4551547,24.7707 11.1812597,26.0811 C8.90736464,27.3924 6.47767403,22.9077 5.70590055,22.2498 C4.44332597,21.1725 2.62330939,23.2704 2.19644751,21.42 C1.76958564,19.5696 3.2410884,18.081 1.34362431,13.5837 C-0.553839779,9.0864 2.62961326,3.6612 7.98069613,1.6245 Z" id="Path" fill="#F1B282"></path>
                <path d="M11.7756243,25.7697 C12.9049171,25.2288 13.9171381,25.1028 14.7312376,25.4151 L14.738442,22.5081 C13.8955249,23.8941 12.4654475,25.3737 11.7756243,25.7697 Z" id="Path" fill="#CD916A"></path>
            </g>
            <path d="M21.7528453,1.1934 C33.0241602,-0.5634 37.9780994,11.304 37.1522928,19.1196 C35.9905801,20.7171 30.625989,18.8613 29.863221,16.7166 C29.1013536,14.5719 32.591895,11.0142 28.6249613,12.4218 C26.577105,13.149 27.0093702,14.4981 24.9191878,15.6474 C22.8299061,16.7967 16.2162486,16.4349 14.7033204,11.7738 C13.1903923,7.1127 17.2915083,1.8891 21.7528453,1.1934 Z" id="Path" fill="#0B224E"></path>
            <path d="M42.7870497,51.498 C42.7870497,51.498 37.9627901,57.456 33.0376685,63.8262 C27.1399503,71.4546 21.6582873,76.0608 18.9530276,81.1629 C18.3145359,82.3671 20.9963812,86.6331 19.620337,88.6554 C18.2433923,90.6777 11.538779,93.4947 10.2699006,89.2557 C9.4008674,86.3523 7.90685083,82.9053 10.929105,79.9794 C12.0430884,78.9003 17.6238122,70.7688 20.6793867,66.6846 C23.7349613,62.6004 31.3167127,48.8916 31.3167127,48.8916 C31.3167127,48.8916 39.0560608,46.4517 42.7870497,51.498 Z" id="Path" fill="#CD916A"></path>
            <path d="M71.0905138,121.6953 C71.3462707,119.1024 71.0103646,118.1808 70.6222265,117.8649 L70.4619282,117.7533 L70.4619282,117.7533 L70.4619282,117.7533 L66.8588177,115.2378 L71.4147127,109.5147 L75.5239337,112.7817 C75.6833315,112.9086 79.3062541,113.4963 78.5011602,115.3224 C77.6969669,117.1494 70.5042541,127.6533 71.0905138,121.6953 Z" id="Path" fill="#F1B282"></path>
            <path d="M61.7058564,61.3413 C61.7058564,61.3413 35.6879945,72.441 35.2818453,83.6136 C34.8756961,94.7862 68.4266796,116.109 68.4266796,116.109 L73.4013315,110.718 C73.4013315,110.718 62.6010055,92.9772 50.1841878,87.4512 C55.7234862,82.9143 72.1765801,81.5904 72.1765801,67.1589 C72.1756796,59.814 61.7058564,61.3413 61.7058564,61.3413 Z" id="Path" fill="#0B224E"></path>
            <path d="M52.1023646,145.9989 C54.2916077,144.585 54.8049227,143.748 54.810326,143.2485 L54.7977182,143.0532 L54.7977182,143.0532 L54.7977182,143.0532 L54.5239503,138.6693 L61.8418398,138.6693 L61.8418398,143.9172 C61.8418398,144.1206 63.6375414,147.3201 61.7058564,147.8277 C59.7750718,148.3353 47.0709779,149.2497 52.1023646,145.9989 Z" id="Path" fill="#F1B282"></path>
            <path d="M80.0834309,55.6686 C80.0834309,55.6686 87.8443923,55.9053 87.8443923,65.8314 C87.8443923,75.1608 74.7161381,87.093 64.2949448,102.3372 C66.8209945,116.5095 61.9967348,138.6513 61.9967348,138.6513 L54.2627901,138.6513 C54.2627901,138.6513 49.6150387,111.4407 50.2418232,100.1844 C50.9316464,87.8022 58.4674696,74.2878 62.6010055,64.6281 C65.097337,58.7943 74.7161381,55.3959 80.0834309,55.6686 Z" id="Path" fill="#102B5E"></path>
            <path d="M65.568326,41.5008 C57.0310884,26.5563 42.9248343,20.0619 35.2818453,25.1559 C26.8220552,30.7953 27.436232,41.7222 30.7412597,48.0618 C31.895768,50.2776 33.3798785,51.9318 34.9207238,52.6059 C37.5305249,53.7453 40.6995691,53.5221 43.8866243,54.0864 C47.5131492,54.7245 51.1657901,56.3814 54.0493591,62.2197 C60.4315746,75.1356 66.3815249,72.2421 68.2780884,67.3668 C71.3030442,59.5926 88.8764254,61.6788 88.8764254,56.2608 C88.8764254,50.8428 72.9321436,54.3942 65.568326,41.5008 Z" id="Path" fill="#1B90FB"></path>
            <path d="M30.7412597,48.0618 C31.895768,50.2776 33.3798785,51.9318 34.9207238,52.6059 C37.5305249,53.7453 40.6995691,53.5221 43.8866243,54.0864 C46.8017127,49.3695 43.2382265,38.8935 43.2382265,38.8935 C37.4692873,37.7829 33.3186409,43.0587 30.7412597,48.0618 Z" id="Path" fill="#1277D7"></path>
            <path d="M37.8223039,51.8949 C37.8223039,51.8949 32.2694972,57.1815 26.5644972,62.8641 C19.7320055,69.669 13.7019061,73.5309 10.3617569,78.2415 C9.57287293,79.353 11.6828674,83.9295 10.0564696,85.7574 C8.43007182,87.5853 1.41746961,89.5158 0.706033149,85.1481 C0.218834254,82.1574 -0.81860221,78.5457 2.55666851,76.0338 C3.80123204,75.1077 10.3833702,67.7619 13.9405525,64.1052 C17.4977348,60.4485 26.7833315,47.8314 26.7833315,47.8314 C26.7833315,47.8314 34.7739337,46.4103 37.8223039,51.8949 Z" id="Path" fill="#F1B282"></path>
            <path d="M33.3168398,30.5406 C28.1674807,32.0994 28.1089448,44.3457 26.1736575,46.9188 C24.2383702,49.4919 35.749232,54.9387 36.8407017,53.9613 C39.3973702,51.6699 43.9145414,44.4816 43.8876455,39.4704 C43.8605083,34.4592 37.061337,29.4075 33.3168398,30.5406 Z" id="Path" fill="#1B90FB"></path>
            <path d="M69.9513149,118.1826 C69.5478674,118.7136 70.5681934,121.0806 69.8630608,124.6689 C69.2912099,127.5804 64.4345304,128.0511 65.4197348,130.3119 C66.3391989,132.4224 73.486884,131.544 76.0984862,128.403 C76.2849006,128.178 79.7628343,121.2849 81.3180884,118.1934 C81.7512541,117.333 81.5306188,116.2854 80.7849613,115.6743 L77.1584365,112.7034 C76.9846298,112.5612 76.7486851,112.5225 76.5379558,112.6008 C76.3281271,112.68 76.1750331,112.8645 76.139011,113.0859 C75.9715083,114.0993 75.6103867,115.5951 74.8584254,116.6283 C73.6201657,118.3302 70.3547624,117.6516 69.9513149,118.1826 Z" id="Path" fill="#0B224E"></path>
            <path d="M54.9012818,142.9263 C54.4951326,142.5276 53.8647459,142.479 53.4009613,142.8084 C51.9213536,143.8596 48.9918564,145.9395 48.9540331,145.9557 C47.0952928,146.763 42.0909227,148.14 42.1935856,150.0444 C42.3250663,152.4879 56.0656961,151.6644 61.4212818,151.1172 C62.5073481,151.0065 63.3691768,149.4711 63.3250497,148.3803 L63.149442,143.9622 C63.1404365,143.7372 63.012558,143.5338 62.8126354,143.4294 C62.6127127,143.325 62.3731657,143.334 62.1822486,143.4537 C61.3105138,144.0036 59.9479779,144.729 58.6709945,144.8541 C57.2607293,144.9936 55.7450994,143.7552 54.9012818,142.9263 Z" id="Path" fill="#0B224E"></path>
        </g>
        <g id="woman_4_" transform="translate(62.303867, 101.900000)" fill-rule="nonzero">
            <path d="M98.3682486,85.6125 C98.3682486,85.6125 100.761017,79.8588 101.376994,78.732 C101.992972,77.6052 99.3813702,68.6556 100.65295,68.472 C101.92453,68.2884 103.011497,73.9458 103.011497,73.9458 C103.011497,73.9458 106.001331,64.6128 107.225182,64.2204 C108.448133,63.8289 112.149403,70.2171 111.677514,73.3896 C111.205624,76.5621 107.386381,81.7578 106.19495,83.2365 C105.003519,84.7152 103.028608,90.135 103.028608,90.135 L98.3682486,85.6125 Z" id="Path" fill="#F1B282"></path>
            <path d="M100.036072,80.8425 C100.036072,80.8425 84.8113315,115.6212 73.0861381,125.8227 L87.5373039,128.3814 C87.5373039,128.3814 100.759215,103.6431 106.306619,84.0267 L100.036072,80.8425 Z" id="Path" fill="#F0B701"></path>
            <path d="M188.603608,6.7428 C186.09737,9.2475 184.563729,15.345 183.656873,20.8359 C183.338978,22.7628 181.968337,24.3495 180.107796,24.9462 C178.247254,25.5429 176.212906,25.047 174.831459,23.6655 L151.757503,0.6057 L90.3470276,61.9785 C83.5640663,68.7573 83.5640663,79.749 90.3470276,86.5278 L151.757503,147.9006 L174.831459,124.8408 C176.212906,123.4602 176.710011,121.4262 176.112945,119.5677 C175.515878,117.7083 173.928204,116.3394 172.000122,116.0208 C166.506751,115.1136 160.405508,113.5818 157.89837,111.0771 C151.114508,104.2974 152.489652,91.9332 160.969254,83.4597 C169.448856,74.9862 181.820646,73.6119 188.603608,80.3907 C191.109845,82.8954 192.643486,88.9929 193.550343,94.4838 C193.869138,96.4089 195.24068,97.9929 197.09942,98.5896 C198.959061,99.1854 200.99521,98.6931 202.375757,97.3134 L225.449713,74.2536 L202.375757,51.1938 C200.99521,49.8141 200.502608,47.7792 201.098773,45.9207 C201.694939,44.0622 203.280812,42.6915 205.207094,42.3738 C210.700464,41.4666 216.801707,39.9348 219.308845,37.4301 C226.092707,30.6504 224.717564,18.2862 216.237961,9.8127 C207.758359,1.3392 195.38747,-0.0369 188.603608,6.7428 Z" id="Path" fill="#224380"></path>
            <path d="M78.6884751,101.5191 C78.6884751,99.8442 74.6026685,95.5062 73.0861381,95.5989 L73.0861381,95.5989 L73.0861381,95.5989 C70.1197182,95.1786 64.6668729,95.9616 62.6145138,100.8315 C60.2973923,106.3323 63.2908287,121.3857 64.1598619,122.544 C65.028895,123.7023 75.8436298,121.9653 75.5824696,121.3857 C75.3213094,120.807 72.9465525,114.2451 72.7538343,113.1831 C72.561116,112.1211 78.5470884,110.9637 78.4138066,106.8138 C78.3750829,105.615 78.1400387,105.3477 77.9392155,104.1489 C77.7122762,102.8025 78.6884751,102.3453 78.6884751,101.5191 Z" id="Path" fill="#F1B282"></path>
            <path d="M116.502674,99.9153 C116.502674,99.9153 119.916669,94.7979 120.769492,93.8385 C121.622315,92.8791 122.156343,83.817 123.436028,83.9241 C124.715713,84.0303 124.503182,89.7876 124.503182,89.7876 C124.503182,89.7876 129.516558,81.3654 130.797144,81.2583 C132.076829,81.1521 134.85053,89.4672 133.67711,92.4525 C132.503691,95.4378 127.159812,98.3061 125.666696,99.4788 C124.17358,100.6515 120.43989,105.129 120.43989,105.129 L116.502674,99.9153 Z" id="Path" fill="#F1B282"></path>
            <polygon id="Path" fill="#F1B282" points="10.1258122 239.9895 5.22950829 244.6812 9.71966298 250.461 15.7074365 245.115"></polygon>
            <path d="M59.0041989,169.3188 C59.0041989,169.3188 47.0187459,197.0838 41.4065028,211.4361 C30.3675304,219.6792 12.8022541,236.898 9.44589503,240.2136 C9.1261989,240.5295 9.09828177,241.0371 9.38285635,241.3854 L13.5794309,246.5199 C13.8513978,246.852 14.3223867,246.9375 14.6934144,246.7215 C19.4483315,243.9603 49.0269779,226.7172 52.9092597,222.8373 C55.2245801,220.5234 74.5792541,190.6407 75.6455083,187.443 C76.7117624,184.2453 83.3263204,160.1505 59.0041989,169.3188 Z" id="Path" fill="#0B224E"></path>
            <rect id="Rectangle" fill="#F1B282" x="65.8492983" y="257.1129" width="7.85912155" height="8.6355"></rect>
            <path d="M78.6326409,173.0601 C75.8589392,166.5468 63.0584862,160.5771 55.1642431,167.1867 C55.1642431,167.1867 51.9132486,178.9137 53.2190497,188.9352 C54.1385138,195.9903 60.2361547,210.438 63.767221,218.3787 C62.8378508,234.5472 64.9208287,256.6899 65.3639006,261.1107 C65.4089282,261.5562 65.783558,261.8964 66.2320331,261.8964 L73.3454972,261.8964 C73.7858674,261.8964 74.1550939,261.5706 74.2109282,261.1341 C74.9511823,255.3426 79.6439613,218.3913 79.4467403,214.3881 C79.2333094,210.0447 81.4063425,179.5734 78.6326409,173.0601 Z" id="Path" fill="#102B5E"></path>
            <path d="M123.463945,102.5721 L117.695906,97.2504 C117.695906,97.2504 94.4211271,118.9989 87.3806077,120.7044 C80.3400884,122.4099 67.9655967,116.0136 63.9122099,119.6379 C58.9447624,124.0794 59.6453923,144.5661 59.6453923,149.4891 C59.6453923,160.3467 45.8084033,174.3102 50.5020829,178.1487 C55.1957624,181.9863 78.1904696,181.0107 82.0475359,177.471 C85.9046022,173.9313 81.8395083,160.3089 81.9926022,154.6407 C82.1456961,148.9716 89.3510166,146.8269 89.6644088,142.6905 C89.8328122,140.4675 87.7381271,137.3661 85.7632155,134.9658 C95.3423923,128.9997 112.381746,117.1827 123.463945,102.5721 Z" id="Path" fill="#FFCB01"></path>
            <path d="M63.0251657,158.7348 C61.056558,164.691 54.7373812,169.3152 50.6263591,171.7974 C53.2388619,165.7026 59.639989,156.8781 59.639989,149.4873 C59.639989,147.9429 59.5751492,144.8631 59.6309834,141.2325 C61.1763315,143.613 65.499884,151.2153 63.0251657,158.7348 Z" id="Path" fill="#F0B701"></path>
            <path d="M76.9945359,95.499 C79.6394586,91.6281 83.258779,79.1397 74.5612431,81.7677 C63.8059448,85.0185 54.0439558,81.7245 52.0537348,93.4785 C49.8626906,106.4169 47.8670663,115.1568 37.6133757,126.621 C22.1770055,143.8794 63.3070387,149.8113 67.7890884,142.0479 C72.2702376,134.2845 66.4445635,126.567 65.8474972,116.5635 C65.499884,110.7477 70.0836961,110.2014 70.0836961,103.0383 C70.0836961,97.2504 73.110453,101.1852 76.9945359,95.499 Z" id="Path" fill="#0B224E"></path>
            <path d="M65.6592818,264.7971 C64.8712983,264.7269 64.0779116,266.0031 64.2147956,269.0901 C64.3516796,272.1771 63.8464696,273.8295 66.2851657,274.0635 C67.7413591,274.203 81.6080663,273.9438 86.1081271,273.8277 C86.4044088,273.8205 86.6799779,273.6639 86.8654917,273.3993 C87.0510055,273.1347 87.1275525,272.7873 87.0744199,272.448 C86.8402762,270.9468 85.780326,268.6788 81.5810497,268.2342 C78.4966575,267.6492 75.4897127,264.5667 74.1262762,264.5298 C72.7628398,264.492 72.1864862,265.8933 69.9621215,265.7484 C67.7386575,265.6044 67.0227182,264.9177 65.6592818,264.7971 Z" id="Path" fill="#0B224E"></path>
            <path d="M7.45207182,242.9037 C6.98738674,242.2638 5.50327624,242.5023 3.26270166,244.6308 C1.02122652,246.7593 -0.558342541,247.4622 0.865430939,249.4548 C1.71555249,250.6446 11.0092541,260.9334 14.0477182,264.2517 C14.2476409,264.4704 14.5466243,264.5757 14.8681215,264.5424 C15.1896188,264.5082 15.5021105,264.339 15.7236464,264.0753 C16.7034475,262.9143 17.7210718,260.6265 15.3012873,257.1678 C13.7199171,254.4579 14.0747348,250.1676 13.2084033,249.1146 C12.3420718,248.0616 10.9056906,248.5458 9.55576243,246.7737 C8.20673481,245.0016 8.25536464,244.0107 7.45207182,242.9037 Z" id="Path" fill="#0B224E"></path>
        </g>
        <g id="puzzle_3_" transform="translate(195.585635, 171.200000)" fill-rule="nonzero">
            <path d="M104.896354,104.1975 L72.2639337,104.1975 C70.3115359,104.1975 68.5230387,103.1067 67.6296906,101.3715 C66.7363425,99.6363 66.8885359,97.5465 68.0250331,95.9598 C71.2679227,91.4364 74.4982044,86.0409 74.4982044,82.4985 C74.4982044,72.9108 64.7776409,65.1393 52.7867845,65.1393 C40.7950276,65.1393 31.0753646,72.9108 31.0753646,82.4985 C31.0753646,86.0409 34.3056464,91.4355 37.5485359,95.9598 C38.6868343,97.5465 38.8408287,99.6372 37.9474807,101.3742 C37.0541326,103.1112 35.2638343,104.1975 33.3105359,104.1975 L0.679016575,104.1975 L0.679016575,190.9917 C0.679016575,200.5785 8.45528729,208.3509 18.0488729,208.3509 L104.896354,208.3509 L104.896354,104.1975 L104.896354,104.1975 Z" id="Path" fill="#44D690"></path>
            <path d="M104.895453,104.1966 L104.895453,136.809 C104.895453,138.7602 103.803983,140.5476 102.067718,141.4404 C100.331453,142.3332 98.2403702,142.1811 96.6526961,141.0453 C92.1265193,137.8044 86.7277072,134.5761 83.1831326,134.5761 C73.589547,134.5761 65.8132762,144.2907 65.8132762,156.2742 C65.8132762,168.2577 73.589547,177.9723 83.1831326,177.9723 C86.7277072,177.9723 92.1256188,174.744 96.6526961,171.5031 C98.2403702,170.3655 100.332354,170.2116 102.07042,171.1044 C103.808486,171.9972 104.895453,173.7864 104.895453,175.7385 L104.895453,208.35 L191.742934,208.35 C201.335619,208.35 209.11279,200.5785 209.11279,190.9908 L209.11279,104.1966 L104.895453,104.1966 L104.895453,104.1966 Z" id="Path" fill="#355AA2"></path>
            <path d="M107.721387,37.2897 C109.458552,38.1825 111.550536,38.0286 113.13911,36.891 C117.665287,33.6501 123.064099,30.4218 126.608674,30.4218 C136.20226,30.4218 143.97853,40.1364 143.97853,52.1199 C143.97853,64.1034 136.20226,73.818 126.608674,73.818 C123.064099,73.818 117.666188,70.5906 113.13911,67.3488 C111.551436,66.2121 109.461254,66.0618 107.724088,66.9537 C105.987823,67.8465 104.895453,69.6339 104.895453,71.5851 L104.895453,104.1966 L137.527873,104.1966 C139.480271,104.1966 141.268768,105.2874 142.162116,107.0226 C143.055464,108.7578 142.903271,110.8476 141.766773,112.4343 C138.523884,116.9577 135.293602,122.3532 135.293602,125.8956 C135.293602,135.4833 145.014166,143.2548 157.005022,143.2548 C168.995878,143.2548 178.716442,135.4833 178.716442,125.8956 C178.716442,122.3532 175.48616,116.9586 172.243271,112.4343 C171.104972,110.8476 170.950978,108.7569 171.844326,107.0199 C172.737674,105.2838 174.527972,104.1966 176.481271,104.1966 L209.11279,104.1966 L209.11279,17.4024 C209.11279,7.8156 201.336519,0.0432 191.742934,0.0432 L104.895453,0.0432 L104.895453,32.6547 C104.895453,34.6086 105.98332,36.3969 107.721387,37.2897 Z" id="Path" fill="#1B90FB"></path>
        </g>
        <g id="bulb_1_" transform="translate(373.895028, 99.200000)" fill-rule="nonzero">
            <path d="M52.4634862,26.1828 C52.4634862,10.0872 37.8574254,-2.5992 21.1683867,0.6408 C10.9182983,2.6307 2.6989558,10.9404 0.79338674,21.2004 C-0.525922652,28.3095 1.0500442,35.0181 4.54058564,40.3677 C9.16762431,47.4579 11.5009558,55.7946 11.5009558,64.2591 L11.5009558,65.259 L41.291232,65.259 L41.291232,65.3454 C41.291232,56.6109 43.305768,47.8179 48.1381326,40.5396 C50.8713094,36.4248 52.4634862,31.4919 52.4634862,26.1828 Z" id="Path" fill="#FFCB01"></path>
            <path d="M21.1692873,0.6408 C20.9675635,0.6795 20.7811492,0.7587 20.5821271,0.8028 C32.3901713,3.2859 41.2930331,13.644 41.2930331,26.1828 C41.2930331,31.4919 39.6999558,36.4248 36.9685801,40.5387 C32.1524254,47.7927 30.1405912,56.5515 30.1261823,65.2581 L41.2921326,65.2581 L41.2921326,65.3445 C41.2921326,56.61 43.3075691,47.817 48.1390331,40.5387 C50.8704088,36.4239 52.4634862,31.491 52.4634862,26.1828 C52.4634862,10.0872 37.8574254,-2.5983 21.1692873,0.6408 Z" id="Path" fill="#F0B701"></path>
            <polygon id="Path" fill="#0B224E" points="33.8445635 89.2233 18.950326 89.2233 15.2265414 81.7803 37.5683481 81.7803"></polygon>
            <path d="M37.8114972,82.0053 L14.9824917,82.0053 C11.0038508,82.0053 7.77807182,78.7815 7.77807182,74.8053 L7.77807182,63.3978 L45.0159171,63.3978 L45.0159171,74.8053 C45.0159171,78.7815 41.7910387,82.0053 37.8114972,82.0053 Z" id="Path" fill="#102B5E"></path>
            <polygon id="Path" fill="#03193F" points="37.5692486 81.783 17.5499669 86.436 15.2265414 81.783"></polygon>
        </g>
    </g>
</svg>