<?xml version="1.0" encoding="utf-8"?>
<!-- Generator: Adobe Illustrator 23.0.3, SVG Export Plug-In . SVG Version: 6.00 Build 0)  -->
<svg version="1.1" id="图层_1" xmlns="http://www.w3.org/2000/svg" xmlns:xlink="http://www.w3.org/1999/xlink" x="0px" y="0px"
	 viewBox="0 0 600 600" enable-background="new 0 0 600 600" xml:space="preserve">
<g>
	<path fill-rule="evenodd" clip-rule="evenodd" fill="#B1B2FF" d="M221.6,440.3c0,0-17.7-22.7-46.2-19.1c0,0-14.6,6.1-6.7,18.7
		c0,0,4.8,7.2,15.2,2.7C184,442.6,211.3,430.4,221.6,440.3L221.6,440.3z"/>
	<path fill-rule="evenodd" clip-rule="evenodd" fill="#B1B2FF" d="M152.9,392.5c0,0-25.4-13.5-50,1.5c0,0-10.9,11.5,1.6,19.7
		c0,0,7.3,4.6,15-3.8C119.5,409.9,139.4,387.7,152.9,392.5L152.9,392.5z"/>
	<path fill-rule="evenodd" clip-rule="evenodd" fill="#B1B2FF" d="M113.7,376.4c0,0-25.9-12.5-49.9,3.4c0,0-10.4,11.9,2.3,19.7
		c0,0,7.5,4.3,14.8-4.3C80.9,395.1,100,372.1,113.7,376.4L113.7,376.4z"/>
	<path fill-rule="evenodd" clip-rule="evenodd" fill="#B1B2FF" d="M100.5,371.3c0,0-21-0.1-31.6-18.3c0,0-3-11.2,7.9-12.2
		c0,0,6.3-0.4,8.3,7.6C85,348.4,90.1,369.7,100.5,371.3L100.5,371.3z"/>
	<path fill-rule="evenodd" clip-rule="evenodd" fill="#B1B2FF" d="M197.1,420.7c0,0-17.1-8.7-18.3-27.8c0,0,2.1-10.3,11.4-6.7
		c0,0,5.3,2.2,3.7,9.6C193.8,395.8,189.3,415.2,197.1,420.7L197.1,420.7z"/>
	<path fill-rule="evenodd" clip-rule="evenodd" fill="#B1B2FF" d="M182.1,411.3c0,0-18.7-12-38.5-2.1c0,0-9.1,8.2-0.1,15.3
		c0,0,5.3,4,11.8-1.9C155.3,422.5,172,406.7,182.1,411.3L182.1,411.3z"/>
	<path fill-rule="evenodd" clip-rule="evenodd" fill="#B1B2FF" d="M205.7,425.8c0,0-11.4-24.8-1.8-33.8c0,0,8.7-6.1,14.3,0.4
		c0,0,4.9,6,2.8,14.9c0,0-10.9,5.7-4.4,29.2C216.7,436.6,210.3,433.1,205.7,425.8L205.7,425.8z"/>
	<path fill-rule="evenodd" clip-rule="evenodd" fill="#B1B2FF" d="M134.1,381c0,0-19.1-25-10.5-37.6c0,0,8.3-9.1,16.3-3.1
		c0,0,7,5.6,6.9,16.1c0,0-10.8,9.1,2.4,34C149.3,390.5,141.1,388.1,134.1,381L134.1,381z"/>
	<path fill-rule="evenodd" clip-rule="evenodd" fill="#B1B2FF" d="M109.4,372.1c0,0-22.4-22.1-15.6-35.8c0,0,7-10.1,15.7-5.3
		c0,0,7.7,4.5,9.1,15c0,0-9.4,10.5,7.1,33.4C125.7,379.4,117.3,378.2,109.4,372.1L109.4,372.1z"/>
	<path fill-rule="evenodd" clip-rule="evenodd" fill="#B1B2FF" d="M166.9,400.3c0,0-15.1-19-8.7-28.9c0,0,6.3-7.1,12.5-2.7
		c0,0,5.5,4.2,5.6,12.3c0,0-8.2,7.2,2.4,26.2C178.8,407.3,172.4,405.6,166.9,400.3L166.9,400.3z"/>
	<path fill-rule="evenodd" clip-rule="evenodd" fill="#B1B2FF" d="M82.5,367.9c-6-0.4,70,1.3,155.1,88.3
		C230.2,455.4,180.3,390.6,82.5,367.9L82.5,367.9z"/>
	<path fill-rule="evenodd" clip-rule="evenodd" fill="#B1B2FF" d="M87.6,369.3c0,0-23.7-10.2-33.9-10.5c-5.2-0.2-9.5,3.9-9.7,9.1
		c-0.2,5.2,3.9,9.5,9.1,9.7C63.3,378,87.6,369.3,87.6,369.3L87.6,369.3z"/>
	<path fill-rule="evenodd" clip-rule="evenodd" fill="#E2E3FE" d="M167.9,177.9c0,0-2.9,24.6-69.5,21.2c0,0-61.1,3.1-19.2,77.7
		c0,0,62.8,91.9,135.3,85.3c0,0-107.5,73.7-89.1,121.8c0,0,19.5,44.2,130.1-2.2c0,0,160.2-28,155.3-51.4c0,0,81.7-10.1,19.3-38.5
		c0,0-6.7-12.7,20.1-12.5c0,0,94.9,4.2,18.1-113.7c0,0-14.2-46.9,7-67.2c0,0,47.9-97.5-125.6-82c0,0-49.2,28.5-71.7-28.2
		C277.9,88.2,225,57.2,167.9,177.9L167.9,177.9z"/>
	<path fill-rule="evenodd" clip-rule="evenodd" fill="#B1B2FF" d="M574.4,166.3l-50.9-3.1c0,0-4.4-1.3-5.6,2.2l-32.8,70.1
		c0,0-2.5,4,1.7,5.1l50.7,19.8c0,0,4.3,2.1,7.2-1l31.7-86.9C576.3,172.4,578.8,167.5,574.4,166.3L574.4,166.3z"/>
	<path fill-rule="evenodd" clip-rule="evenodd" fill="#8682F8" d="M567,173.5l-42.8-2.7c0,0-3.6-1.1-4.6,1.8l-26.9,59.6
		c0,0-2,3.4,1.4,4.3l42.4,14.3c0,0,3.6,1.8,5.9-0.9l26.2-71.3C568.5,178.6,570.6,174.5,567,173.5L567,173.5z"/>
	<path fill-rule="evenodd" clip-rule="evenodd" fill="#FCFFFE" d="M566.2,172l-42.8-2.7c0,0-3.6-1.1-4.6,1.8l-26.9,59.6
		c0,0-2,3.4,1.4,4.3l42.4,14.3c0,0,3.6,1.8,5.9-0.9l26.2-71.3C567.8,177.1,569.9,172.9,566.2,172L566.2,172z"/>
	<polygon fill-rule="evenodd" clip-rule="evenodd" fill="#EDECFF" points="558.3,181.7 520.4,177.8 520.1,178.6 558.1,182.5 
		558.3,181.7 	"/>
	<polygon fill-rule="evenodd" clip-rule="evenodd" fill="#EDECFF" points="544.5,204.4 512.7,198.3 512.3,199 544.2,205.1 
		544.5,204.4 	"/>
	<polygon fill-rule="evenodd" clip-rule="evenodd" fill="#EDECFF" points="531.9,222.1 505.7,216 505.4,216.7 531.7,222.8 
		531.9,222.1 	"/>
	<polygon fill-rule="evenodd" clip-rule="evenodd" fill="#EDECFF" points="556.8,187.5 518.9,182.7 518.6,183.5 556.5,188.3 
		556.8,187.5 	"/>
	<polygon fill-rule="evenodd" clip-rule="evenodd" fill="#EDECFF" points="542.7,209.5 511,202.6 510.7,203.3 542.5,210.2 
		542.7,209.5 	"/>
	<polygon fill-rule="evenodd" clip-rule="evenodd" fill="#EDECFF" points="530.5,227.1 504.3,220.3 504.1,220.9 530.2,227.8 
		530.5,227.1 	"/>
	<polygon fill-rule="evenodd" clip-rule="evenodd" fill="#EDECFF" points="551.5,195.5 517,190.3 516.7,190.9 551.2,196.1 
		551.5,195.5 	"/>
	<polygon fill-rule="evenodd" clip-rule="evenodd" fill="#EDECFF" points="537.7,216.2 508.9,209.2 508.6,209.7 537.4,216.7 
		537.7,216.2 	"/>
	<polygon fill-rule="evenodd" clip-rule="evenodd" fill="#EDECFF" points="526.3,233.8 502.6,226.8 502.3,227.3 526.1,234.3 
		526.3,233.8 	"/>
	<path fill-rule="evenodd" clip-rule="evenodd" fill="#8682F8" d="M528.3,171.7l29.6,2.1c0,0,1.9-3.8-3.5-5.3c0,0-5.1-0.2-2.9-5.9
		c0,0,0.2-5.8-7.1-3.8c0,0-3,1.1-3.9,5.2c0,0-0.7,2.7-5.8,3.2C534.8,167.3,530.1,166.8,528.3,171.7L528.3,171.7z"/>
	<path fill-rule="evenodd" clip-rule="evenodd" fill="#FFFFFF" d="M546.7,161.4c1.2,0.5,1.7,2,1.1,3.4c-0.6,1.4-2,2.1-3.2,1.6
		c-1.2-0.5-1.7-2-1.1-3.4C544.1,161.7,545.5,161,546.7,161.4L546.7,161.4z"/>
	<path fill-rule="evenodd" clip-rule="evenodd" fill="#8682F8" d="M29.5,93.6l-0.9,0.9c0,0,11.4,116,57.1,69.6l6.1-24.5l-37.5-21.3
		L29.5,93.6L29.5,93.6z"/>
	<path fill-rule="evenodd" clip-rule="evenodd" fill="#E2E3FE" d="M75.3,46L28.6,94.2c0,0,17.1,96.9,33.3,66.9
		c0,0,10.2,17.8,24.8,1.1c0,0,11-13.3,17.9-22.9C104.7,139.3,82,120.7,75.3,46L75.3,46z"/>
	<path fill-rule="evenodd" clip-rule="evenodd" fill="#B1B2FF" d="M35.9,107.2c0,0,12.7-0.2,20.8-14.2c0,0,7.4-12.6,16.1-10.7
		c0,0-8.6-1-18,14.8C54.7,97.2,47.3,107.5,35.9,107.2L35.9,107.2z"/>
	<path fill-rule="evenodd" clip-rule="evenodd" fill="#B1B2FF" d="M39,113.9c0,0,12.7-0.2,20.8-14.2c0,0,7.4-12.6,16.1-10.7
		c0,0-8.6-1-18,14.8C57.9,103.9,50.5,114.2,39,113.9L39,113.9z"/>
	<path fill-rule="evenodd" clip-rule="evenodd" fill="#B1B2FF" d="M51.3,138.6c0,0,12.7-0.2,20.8-14.2c0,0,7.4-12.6,16.1-10.7
		c0,0-8.6-1-18,14.8C70.2,128.6,62.8,138.9,51.3,138.6L51.3,138.6z"/>
	<path fill-rule="evenodd" clip-rule="evenodd" fill="#B1B2FF" d="M42.5,121.9c0,0,10.1-0.6,16.1-10.2c0,0,5.5-8.6,12.5-7.7
		c0,0-6.9-0.3-13.8,10.4C57.2,114.5,51.7,121.6,42.5,121.9L42.5,121.9z"/>
	<path fill-rule="evenodd" clip-rule="evenodd" fill="#B1B2FF" d="M54.8,146.6c0,0,10.1-0.6,16.1-10.2c0,0,5.5-8.6,12.4-7.7
		c0,0-6.9-0.3-13.8,10.4C69.6,139.2,64,146.3,54.8,146.6L54.8,146.6z"/>
	<path fill-rule="evenodd" clip-rule="evenodd" fill="#B1B2FF" d="M46.6,129.6c0,0,7.9-0.5,12.5-7.6c0,0,4.3-6.3,9.7-5.7
		c0,0-5.4-0.2-10.8,7.8C58,124.1,53.7,129.4,46.6,129.6L46.6,129.6z"/>
	<path fill-rule="evenodd" clip-rule="evenodd" fill="#B1B2FF" d="M58.9,154.3c0,0,7.9-0.5,12.5-7.6c0,0,4.3-6.3,9.7-5.7
		c0,0-5.4-0.2-10.8,7.8C70.4,148.8,66,154.1,58.9,154.3L58.9,154.3z"/>
	<path fill-rule="evenodd" clip-rule="evenodd" fill="#FFFFFF" d="M437.3,161.5c0-6-4.9-11-11-11H198.6c-6,0-11,4.9-11,11v332
		c0,6,4.9,11,11,11h227.8c6,0,11-4.9,11-11V161.5L437.3,161.5z"/>
	<g>
		<defs>
			<path id="SVGID_1_" d="M437.3,161.5c0-6-4.9-11-11-11H198.6c-6,0-11,4.9-11,11v332c0,6,4.9,11,11,11h227.8c6,0,11-4.9,11-11
				V161.5L437.3,161.5z"/>
		</defs>
		<clipPath id="SVGID_2_">
			<use xlink:href="#SVGID_1_"  overflow="visible"/>
		</clipPath>
		<path clip-path="url(#SVGID_2_)" fill-rule="evenodd" clip-rule="evenodd" fill="#B1B2FF" d="M448.4,135c0-0.4-0.3-0.8-0.8-0.8
			H175.2c-0.4,0-0.8,0.3-0.8,0.8v36c0,0.4,0.3,0.8,0.8,0.8h272.4c0.4,0,0.8-0.3,0.8-0.8V135L448.4,135z"/>
		<path clip-path="url(#SVGID_2_)" fill-rule="evenodd" clip-rule="evenodd" fill="#B1B2FF" d="M383.4,187.2c0-1.2-1-2.2-2.2-2.2
			H243.7c-1.2,0-2.2,1-2.2,2.2s1,2.2,2.2,2.2h137.4C382.4,189.4,383.4,188.4,383.4,187.2L383.4,187.2z"/>
		<polygon clip-path="url(#SVGID_2_)" fill-rule="evenodd" clip-rule="evenodd" fill="#8682F8" points="413,217.5 211.9,217.5 
			211.9,286.7 413,286.7 413,217.5 		"/>
		<path clip-path="url(#SVGID_2_)" fill-rule="evenodd" clip-rule="evenodd" fill="#FFFFFF" d="M242.6,236.1
			c7.9,0,14.2,6.4,14.2,14.2c0,7.8-6.4,14.2-14.2,14.2c-7.9,0-14.2-6.4-14.2-14.2C228.4,242.5,234.7,236.1,242.6,236.1L242.6,236.1z
			"/>
		<polygon clip-path="url(#SVGID_2_)" fill-rule="evenodd" clip-rule="evenodd" fill="#FFFFFF" points="394.9,236.1 267.9,236.1 
			267.9,242.7 394.9,242.7 394.9,236.1 		"/>
		<polygon clip-path="url(#SVGID_2_)" fill-rule="evenodd" clip-rule="evenodd" fill="#FFFFFF" points="337.7,252.1 267.9,252.1 
			267.9,264.6 337.7,264.6 337.7,252.1 		"/>
		<polygon clip-path="url(#SVGID_2_)" fill-rule="evenodd" clip-rule="evenodd" fill="#FED64E" points="394.9,264.6 358.5,264.6 
			358.5,273.6 394.9,273.6 394.9,264.6 		"/>
		<polygon clip-path="url(#SVGID_2_)" fill-rule="evenodd" clip-rule="evenodd" fill="#B1B2FF" points="413,315.3 211.9,315.3 
			211.9,384.5 413,384.5 413,315.3 		"/>
		<path clip-path="url(#SVGID_2_)" fill-rule="evenodd" clip-rule="evenodd" fill="#FFFFFF" d="M242.6,333.8
			c7.9,0,14.2,6.4,14.2,14.2c0,7.9-6.4,14.2-14.2,14.2c-7.9,0-14.2-6.4-14.2-14.2C228.4,340.2,234.7,333.8,242.6,333.8L242.6,333.8z
			"/>
		<polygon clip-path="url(#SVGID_2_)" fill-rule="evenodd" clip-rule="evenodd" fill="#FFFFFF" points="394.9,333.8 267.9,333.8 
			267.9,340.5 394.9,340.5 394.9,333.8 		"/>
		<polygon clip-path="url(#SVGID_2_)" fill-rule="evenodd" clip-rule="evenodd" fill="#FFFFFF" points="337.7,349.9 267.9,349.9 
			267.9,362.3 337.7,362.3 337.7,349.9 		"/>
		<polygon clip-path="url(#SVGID_2_)" fill-rule="evenodd" clip-rule="evenodd" fill="#FED64E" points="394.9,362.3 358.5,362.3 
			358.5,371.4 394.9,371.4 394.9,362.3 		"/>
		<polygon clip-path="url(#SVGID_2_)" fill-rule="evenodd" clip-rule="evenodd" fill="#E2E3FE" points="413,409.5 211.9,409.5 
			211.9,478.6 413,478.6 413,409.5 		"/>
		<path clip-path="url(#SVGID_2_)" fill-rule="evenodd" clip-rule="evenodd" fill="#FFFFFF" d="M242.6,428c7.9,0,14.2,6.4,14.2,14.2
			c0,7.9-6.4,14.2-14.2,14.2c-7.9,0-14.2-6.4-14.2-14.2C228.4,434.4,234.7,428,242.6,428L242.6,428z"/>
		<polygon clip-path="url(#SVGID_2_)" fill-rule="evenodd" clip-rule="evenodd" fill="#FFFFFF" points="394.9,428 267.9,428 
			267.9,434.7 394.9,434.7 394.9,428 		"/>
		<polygon clip-path="url(#SVGID_2_)" fill-rule="evenodd" clip-rule="evenodd" fill="#FFFFFF" points="337.7,444 267.9,444 
			267.9,456.5 337.7,456.5 337.7,444 		"/>
		<polygon clip-path="url(#SVGID_2_)" fill-rule="evenodd" clip-rule="evenodd" fill="#FED64E" points="394.9,456.5 358.5,456.5 
			358.5,465.5 394.9,465.5 394.9,456.5 		"/>
	</g>
	<path fill-rule="evenodd" clip-rule="evenodd" fill="#CED0FE" d="M498.1,451.7c0,0,5.5-8.9,15-4.5c0,0,6.9,4.1,0.7,14.7
		c0,0-9,12-19.3,11.5l-4.6,6.3l2.5,1.2c0,0,13.3-3.1,19.3-8c0,0,14.8-11.9,8.5-27c0,0-5.9-10.5-21.6-4.1l-1.1,5.3L498.1,451.7
		L498.1,451.7z"/>
	<g>
		<defs>
			<path id="SVGID_3_" d="M498.1,451.7c0,0,5.5-8.9,15-4.5c0,0,6.9,4.1,0.7,14.7c0,0-9,12-19.3,11.5l-4.6,6.3l2.5,1.2
				c0,0,13.3-3.1,19.3-8c0,0,14.8-11.9,8.5-27c0,0-5.9-10.5-21.6-4.1l-1.1,5.3L498.1,451.7L498.1,451.7z"/>
		</defs>
		<clipPath id="SVGID_4_">
			<use xlink:href="#SVGID_3_"  overflow="visible"/>
		</clipPath>
		<path clip-path="url(#SVGID_4_)" fill-rule="evenodd" clip-rule="evenodd" fill="#B1B2FF" d="M492.5,478.2c0,0,22.4-4.7,25.4-20.3
			c0,0,1.3-13-10.2-11.7l-0.9,18.2l-8.1,5.5l-4.9,1.3L492.5,478.2L492.5,478.2z"/>
	</g>
	<path fill-rule="evenodd" clip-rule="evenodd" fill="#CED0FE" d="M421.1,434.8c0,0-3.6,48,22.7,66.9c0,0,18.6,6.8,34.8-1.3
		c0,0,21.6-12,21-65.6l-16.1,0.3L421.1,434.8L421.1,434.8z"/>
	<g>
		<defs>
			<path id="SVGID_5_" d="M421.1,434.8c0,0-3.6,48,22.7,66.9c0,0,18.6,6.8,34.8-1.3c0,0,21.6-12,21-65.6l-16.1,0.3L421.1,434.8
				L421.1,434.8z"/>
		</defs>
		<clipPath id="SVGID_6_">
			<use xlink:href="#SVGID_5_"  overflow="visible"/>
		</clipPath>
		<path clip-path="url(#SVGID_6_)" fill-rule="evenodd" clip-rule="evenodd" fill="#B1B2FF" d="M497.3,435.8c0,0-9.8,67.8-57.2,66.2
			l5.8,5.5l23.5,1l30.5-12.3l8.1-40.5l-1.7-18.7l-4.4-5.3l-3.1,1.8L497.3,435.8L497.3,435.8z"/>
	</g>
	<path fill-rule="evenodd" clip-rule="evenodd" fill="#E2E3FE" d="M460.4,429.5c21.7,0,39.3,2.4,39.3,5.4s-17.6,5.4-39.3,5.4
		c-21.7,0-39.4-2.4-39.4-5.4S438.6,429.5,460.4,429.5L460.4,429.5z"/>
	<path fill-rule="evenodd" clip-rule="evenodd" fill="#B1B2FF" d="M460,430.5c19.9,0,36,1.8,36,4c0,2.2-16.1,4-36,4
		c-19.9,0-36-1.8-36-4C424,432.3,440.2,430.5,460,430.5L460,430.5z"/>
	<path fill-rule="evenodd" clip-rule="evenodd" fill="#E2E3FE" d="M463.8,451.6c0-2.7,0.2-4.9,0.5-4.9c0.3,0,0.5,2.2,0.5,4.9
		c1.3-2.4,2.5-4.2,2.7-4c0.2,0.1-0.6,2.2-1.9,4.5c2.2-1.4,4.1-2.3,4.2-2c0.1,0.2-1.5,1.5-3.7,2.9c2.5,0,4.6,0.2,4.6,0.5
		c0,0.3-2,0.5-4.6,0.5c2.2,1.4,3.9,2.7,3.7,2.9c-0.1,0.2-2-0.7-4.2-2c1.3,2.4,2.1,4.4,1.9,4.5c-0.2,0.1-1.4-1.7-2.7-4
		c0,2.7-0.2,4.9-0.5,4.9c-0.3,0-0.5-2.2-0.5-4.9c-1.3,2.4-2.5,4.2-2.7,4c-0.2-0.1,0.6-2.2,1.9-4.5c-2.2,1.4-4.1,2.3-4.2,2
		c-0.1-0.2,1.5-1.5,3.7-2.9c-2.5,0-4.6-0.2-4.6-0.5c0-0.3,2-0.5,4.6-0.5c-2.2-1.4-3.9-2.7-3.7-2.9c0.1-0.2,2,0.7,4.2,2
		c-1.3-2.4-2.1-4.4-1.9-4.5C461.3,447.4,462.5,449.2,463.8,451.6L463.8,451.6z"/>
	<path fill-rule="evenodd" clip-rule="evenodd" fill="#E2E3FE" d="M477.5,464c0-2.4,0.2-4.4,0.4-4.4c0.2,0,0.4,2,0.4,4.4
		c1.1-2.1,2.1-3.7,2.3-3.6c0.2,0.1-0.6,1.9-1.7,4c1.9-1.2,3.5-2,3.6-1.8c0.1,0.2-1.4,1.3-3.3,2.6c2.2,0,4,0.2,4,0.4
		c0,0.2-1.8,0.4-4,0.4c1.9,1.2,3.4,2.4,3.3,2.6c-0.1,0.2-1.7-0.6-3.6-1.8c1.1,2.1,1.8,3.9,1.7,4c-0.2,0.1-1.2-1.5-2.3-3.6
		c0,2.4-0.2,4.4-0.4,4.4c-0.2,0-0.4-2-0.4-4.4c-1.1,2.1-2.1,3.7-2.3,3.6c-0.2-0.1,0.6-1.9,1.7-4c-1.9,1.2-3.5,2-3.6,1.8
		c-0.1-0.2,1.4-1.3,3.3-2.6c-2.2,0-4-0.2-4-0.4c0-0.2,1.8-0.4,4-0.4c-1.9-1.2-3.4-2.4-3.3-2.6c0.1-0.2,1.7,0.6,3.6,1.8
		c-1.1-2.1-1.8-3.9-1.7-4C475.3,460.3,476.4,461.9,477.5,464L477.5,464z"/>
	<path fill-rule="evenodd" clip-rule="evenodd" fill="#E2E3FE" d="M473.5,479.2c0-1.9,0.1-3.5,0.3-3.5c0.2,0,0.3,1.6,0.3,3.5
		c0.9-1.7,1.8-2.9,2-2.8c0.1,0.1-0.5,1.5-1.4,3.2c1.6-1,3-1.6,3.1-1.5c0.1,0.2-1.1,1.1-2.8,2c1.9,0,3.4,0.1,3.4,0.3
		s-1.5,0.3-3.4,0.3c1.6,1,2.8,1.9,2.8,2c-0.1,0.2-1.5-0.5-3.1-1.5c0.9,1.7,1.6,3.1,1.4,3.2c-0.1,0.1-1-1.2-2-2.8
		c0,1.9-0.1,3.5-0.3,3.5c-0.2,0-0.3-1.6-0.3-3.5c-0.9,1.7-1.8,2.9-2,2.8c-0.1-0.1,0.5-1.5,1.4-3.2c-1.6,1-3,1.6-3.1,1.5
		c-0.1-0.2,1.2-1.1,2.8-2c-1.9,0-3.4-0.1-3.4-0.3s1.5-0.3,3.4-0.3c-1.6-1-2.8-1.9-2.8-2c0.1-0.2,1.5,0.5,3.1,1.5
		c-0.9-1.7-1.6-3.1-1.4-3.2C471.7,476.2,472.6,477.5,473.5,479.2L473.5,479.2z"/>
	<path fill-rule="evenodd" clip-rule="evenodd" fill="#E2E3FE" d="M454.9,479.7c0-1.8,0.2-3.3,0.4-3.3c0.2,0,0.4,1.5,0.4,3.3
		c0.9-1.6,1.7-2.7,1.9-2.6c0.2,0.1-0.4,1.5-1.3,3c1.5-0.9,2.8-1.5,2.9-1.3c0.1,0.2-1,1.1-2.5,2c1.7,0,3.2,0.2,3.2,0.4
		c0,0.2-1.4,0.4-3.2,0.4c1.5,0.9,2.7,1.8,2.5,2c-0.1,0.2-1.4-0.4-2.9-1.3c0.9,1.6,1.4,2.9,1.3,3c-0.2,0.1-1-1.1-1.9-2.6
		c0,1.8-0.2,3.3-0.4,3.3c-0.2,0-0.4-1.5-0.4-3.3c-0.9,1.6-1.7,2.7-1.9,2.6c-0.2-0.1,0.4-1.5,1.3-3c-1.5,0.9-2.8,1.5-2.9,1.3
		c-0.1-0.2,1-1.1,2.6-2c-1.7,0-3.2-0.2-3.2-0.4c0-0.2,1.4-0.4,3.2-0.4c-1.5-0.9-2.7-1.8-2.6-2c0.1-0.2,1.4,0.4,2.9,1.3
		c-0.9-1.6-1.4-2.9-1.3-3C453.1,476.9,454,478.1,454.9,479.7L454.9,479.7z"/>
	<path fill-rule="evenodd" clip-rule="evenodd" fill="#E2E3FE" d="M462.8,469.6c0-1.9,0.1-3.4,0.3-3.4c0.2,0,0.3,1.5,0.3,3.4
		c0.9-1.6,1.8-2.9,1.9-2.8c0.2,0.1-0.5,1.5-1.4,3.1c1.6-0.9,2.9-1.6,3-1.4c0.1,0.2-1.1,1.1-2.7,2c1.8,0,3.3,0.1,3.3,0.3
		c0,0.2-1.5,0.3-3.3,0.3c1.6,0.9,2.8,1.8,2.7,2c-0.1,0.2-1.4-0.5-3-1.4c0.9,1.6,1.5,3,1.4,3.1c-0.2,0.1-1-1.2-1.9-2.8
		c0,1.9-0.1,3.4-0.3,3.4c-0.2,0-0.3-1.5-0.3-3.4c-0.9,1.6-1.8,2.9-1.9,2.8c-0.2-0.1,0.5-1.5,1.4-3.1c-1.6,0.9-2.9,1.6-3,1.4
		c-0.1-0.2,1.1-1.1,2.7-2c-1.8,0-3.3-0.1-3.3-0.3c0-0.2,1.5-0.3,3.3-0.3c-1.6-0.9-2.8-1.8-2.7-2c0.1-0.2,1.4,0.5,3,1.4
		c-0.9-1.6-1.5-3-1.4-3.1C461,466.7,461.9,468,462.8,469.6L462.8,469.6z"/>
	<path fill-rule="evenodd" clip-rule="evenodd" fill="#E2E3FE" d="M449.1,463.1c0-2.1,0.2-3.8,0.5-3.8c0.3,0,0.5,1.7,0.5,3.8
		c1.2-1.8,2.4-3.2,2.7-3c0.3,0.1-0.5,1.7-1.7,3.5c2.1-1,3.9-1.7,4.1-1.5c0.1,0.2-1.4,1.2-3.5,2.3c2.4,0,4.4,0.2,4.4,0.5
		c0,0.2-2,0.5-4.4,0.5c2.1,1,3.7,2.1,3.5,2.3c-0.1,0.2-2-0.5-4.1-1.5c1.2,1.8,2,3.4,1.7,3.5c-0.3,0.1-1.4-1.2-2.7-3
		c0,2.1-0.2,3.8-0.5,3.8c-0.3,0-0.5-1.7-0.5-3.8c-1.2,1.8-2.4,3.2-2.7,3c-0.3-0.1,0.5-1.7,1.7-3.5c-2.1,1-3.9,1.7-4.1,1.5
		c-0.1-0.2,1.4-1.2,3.5-2.3c-2.4,0-4.4-0.2-4.4-0.5c0-0.3,2-0.5,4.4-0.5c-2.1-1-3.7-2.1-3.5-2.3c0.1-0.2,2,0.4,4.1,1.5
		c-1.2-1.8-2-3.4-1.7-3.5C446.7,460,447.9,461.3,449.1,463.1L449.1,463.1z"/>
	<path fill-rule="evenodd" clip-rule="evenodd" fill="#FF8670" d="M95.1,494.7l67.8-7.3l35.4,19.9c0,0,4.8,8.6-2.5,12.4l-64.7,10.7
		l-35.6-23.9L95.1,494.7L95.1,494.7z"/>
	<g>
		<defs>
			<path id="SVGID_7_" d="M95.1,494.7l67.8-7.3l35.4,19.9c0,0,4.8,8.6-2.5,12.4l-64.7,10.7l-35.6-23.9L95.1,494.7L95.1,494.7z"/>
		</defs>
		<clipPath id="SVGID_8_">
			<use xlink:href="#SVGID_7_"  overflow="visible"/>
		</clipPath>
		<path clip-path="url(#SVGID_8_)" fill-rule="evenodd" clip-rule="evenodd" fill="#FB6D50" d="M93.7,494c0,0,31,20.3,36.2,22.1
			c0,0,66.1-10.6,68.1-10.5c0,0,8.8,8.2-1.1,15.6l-68.9,12l-40.3-16l-0.9-13.9L93.7,494L93.7,494z"/>
		<path clip-path="url(#SVGID_8_)" fill-rule="evenodd" clip-rule="evenodd" fill="#FFF0F7" d="M94.5,496.5l35.2,21.8l63.5-9.6
			c0,0,5.4,1.7,2.1,7.6l-63.5,10.2l-36.8-24L94.5,496.5L94.5,496.5z"/>
	</g>
	<path fill-rule="evenodd" clip-rule="evenodd" fill="#FFEC23" d="M199.8,475.4l-67.8-7.3l-35.4,19.9c0,0-4.8,8.6,2.5,12.4
		l64.7,10.7l35.6-23.9L199.8,475.4L199.8,475.4z"/>
	<g>
		<defs>
			<path id="SVGID_9_" d="M199.8,475.4l-67.8-7.3l-35.4,19.9c0,0-4.8,8.6,2.5,12.4l64.7,10.7l35.6-23.9L199.8,475.4L199.8,475.4z"/>
		</defs>
		<clipPath id="SVGID_10_">
			<use xlink:href="#SVGID_9_"  overflow="visible"/>
		</clipPath>
		<path clip-path="url(#SVGID_10_)" fill-rule="evenodd" clip-rule="evenodd" fill="#FFDF37" d="M201.1,474.7c0,0-31,20.3-36.2,22.1
			c0,0-66.1-10.6-68.1-10.5c0,0-8.8,8.2,1.1,15.6l68.9,12l40.3-16l0.9-13.9L201.1,474.7L201.1,474.7z"/>
		<path clip-path="url(#SVGID_10_)" fill-rule="evenodd" clip-rule="evenodd" fill="#FFF0F7" d="M200.4,477.3l-35.2,21.8l-63.5-9.6
			c0,0-5.4,1.7-2.1,7.6l63.5,10.2l36.8-24L200.4,477.3L200.4,477.3z"/>
	</g>
	<path fill-rule="evenodd" clip-rule="evenodd" fill="#FAA5B4" d="M105.7,464.8l55.6-6l29.1,16.3c0,0,3.9,7-2.1,10.1l-53.1,8.8
		l-29.2-19.6L105.7,464.8L105.7,464.8z"/>
	<g>
		<defs>
			<path id="SVGID_11_" d="M105.7,464.8l55.6-6l29.1,16.3c0,0,3.9,7-2.1,10.1l-53.1,8.8l-29.2-19.6L105.7,464.8L105.7,464.8z"/>
		</defs>
		<clipPath id="SVGID_12_">
			<use xlink:href="#SVGID_11_"  overflow="visible"/>
		</clipPath>
		<path clip-path="url(#SVGID_12_)" fill-rule="evenodd" clip-rule="evenodd" fill="#FF8EA2" d="M104.6,464.2
			c0,0,25.4,16.6,29.7,18.1c0,0,54.3-8.7,55.9-8.7c0,0,7.2,6.7-0.9,12.8l-56.6,9.9l-33-13.1L99,471.8L104.6,464.2L104.6,464.2z"/>
		<path clip-path="url(#SVGID_12_)" fill-rule="evenodd" clip-rule="evenodd" fill="#FFF0F7" d="M105.2,466.3l28.9,17.9l52.1-7.9
			c0,0,4.4,1.4,1.7,6.2l-52.1,8.4l-30.2-19.7L105.2,466.3L105.2,466.3z"/>
	</g>
	<path fill-rule="evenodd" clip-rule="evenodd" fill="#FFE89A" d="M535.9,304.2c0-3.5-2.8-6.3-6.3-6.3h-70.2c-3.5,0-6.3,2.8-6.3,6.3
		v12.6c0,3.5,2.8,6.3,6.3,6.3H480l-10.4,10.8l22.8-10.8h37.2c3.5,0,6.3-2.8,6.3-6.3V304.2L535.9,304.2z"/>
	<path fill-rule="evenodd" clip-rule="evenodd" fill="#FCFCEA" d="M468.7,306.4c1.6,0,3,1.3,3,3c0,1.6-1.3,3-3,3c-1.6,0-3-1.3-3-3
		C465.8,307.7,467.1,306.4,468.7,306.4L468.7,306.4z"/>
	<path fill-rule="evenodd" clip-rule="evenodd" fill="#FCFCEA" d="M479,306.4c1.6,0,3,1.3,3,3c0,1.6-1.3,3-3,3c-1.6,0-3-1.3-3-3
		C476.1,307.7,477.4,306.4,479,306.4L479,306.4z"/>
	<path fill-rule="evenodd" clip-rule="evenodd" fill="#FCFCEA" d="M490,306.4c1.6,0,3,1.3,3,3c0,1.6-1.3,3-3,3c-1.6,0-3-1.3-3-3
		C487,307.7,488.4,306.4,490,306.4L490,306.4z"/>
	<path fill-rule="evenodd" clip-rule="evenodd" fill="#FCFCEA" d="M500.6,306.4c1.6,0,3,1.3,3,3c0,1.6-1.3,3-3,3c-1.6,0-3-1.3-3-3
		C497.6,307.7,499,306.4,500.6,306.4L500.6,306.4z"/>
	<path fill-rule="evenodd" clip-rule="evenodd" fill="#FCFCEA" d="M510.4,306.4c1.6,0,3,1.3,3,3c0,1.6-1.3,3-3,3c-1.6,0-3-1.3-3-3
		C507.5,307.7,508.8,306.4,510.4,306.4L510.4,306.4z"/>
	<path fill-rule="evenodd" clip-rule="evenodd" fill="#FCFCEA" d="M520.3,306.4c1.6,0,3,1.3,3,3c0,1.6-1.3,3-3,3s-3-1.3-3-3
		C517.3,307.7,518.7,306.4,520.3,306.4L520.3,306.4z"/>
	<path fill-rule="evenodd" clip-rule="evenodd" fill="#CED0FE" d="M535.9,304.2c0-3.5-2.8-6.3-6.3-6.3h-70.2c-3.5,0-6.3,2.8-6.3,6.3
		v12.6c0,3.5,2.8,6.3,6.3,6.3H480l-10.4,10.8l22.8-10.8h37.2c3.5,0,6.3-2.8,6.3-6.3V304.2L535.9,304.2z"/>
	<path fill-rule="evenodd" clip-rule="evenodd" fill="#FFFFFF" d="M468.7,306.4c1.6,0,3,1.3,3,3c0,1.6-1.3,3-3,3c-1.6,0-3-1.3-3-3
		C465.8,307.7,467.1,306.4,468.7,306.4L468.7,306.4z"/>
	<path fill-rule="evenodd" clip-rule="evenodd" fill="#FFFFFF" d="M479,306.4c1.6,0,3,1.3,3,3c0,1.6-1.3,3-3,3c-1.6,0-3-1.3-3-3
		C476.1,307.7,477.4,306.4,479,306.4L479,306.4z"/>
	<path fill-rule="evenodd" clip-rule="evenodd" fill="#FFFFFF" d="M490,306.4c1.6,0,3,1.3,3,3c0,1.6-1.3,3-3,3c-1.6,0-3-1.3-3-3
		C487,307.7,488.4,306.4,490,306.4L490,306.4z"/>
	<path fill-rule="evenodd" clip-rule="evenodd" fill="#FFFFFF" d="M500.6,306.4c1.6,0,3,1.3,3,3c0,1.6-1.3,3-3,3c-1.6,0-3-1.3-3-3
		C497.6,307.7,499,306.4,500.6,306.4L500.6,306.4z"/>
	<path fill-rule="evenodd" clip-rule="evenodd" fill="#FFFFFF" d="M510.4,306.4c1.6,0,3,1.3,3,3c0,1.6-1.3,3-3,3c-1.6,0-3-1.3-3-3
		C507.5,307.7,508.8,306.4,510.4,306.4L510.4,306.4z"/>
	<path fill-rule="evenodd" clip-rule="evenodd" fill="#FFFFFF" d="M520.3,306.4c1.6,0,3,1.3,3,3c0,1.6-1.3,3-3,3s-3-1.3-3-3
		C517.3,307.7,518.7,306.4,520.3,306.4L520.3,306.4z"/>
	<path fill-rule="evenodd" clip-rule="evenodd" fill="#CED0FE" d="M131.6,231.1c-1.3-0.1-2.5-0.1-3.8,0l-0.6,3
		c-1.2,0.2-2.4,0.5-3.5,0.9l-2-2.3c-1.1,0.5-2.2,1.1-3.3,1.9l1,2.9c-0.9,0.8-1.8,1.6-2.6,2.6l-2.9-1c-0.7,1-1.4,2.1-1.9,3.3l2.3,2
		c-0.4,1.1-0.8,2.3-0.9,3.5l-3,0.6c-0.1,1.3-0.1,2.5,0,3.8l3,0.6c0.2,1.2,0.5,2.4,0.9,3.5l-2.3,2c0.5,1.1,1.1,2.2,1.9,3.3l2.9-1
		c0.8,0.9,1.6,1.8,2.6,2.6l-1,2.9c1,0.7,2.1,1.4,3.3,1.9l2-2.3c1.1,0.4,2.3,0.8,3.5,0.9l0.6,3c1.3,0.1,2.5,0.1,3.8,0l0.6-3
		c1.2-0.2,2.4-0.5,3.5-0.9l2,2.3c1.1-0.5,2.2-1.2,3.3-1.9l-1-2.9c0.9-0.8,1.8-1.6,2.6-2.6l2.9,1c0.7-1,1.4-2.1,1.9-3.3l-2.3-2
		c0.4-1.1,0.8-2.3,0.9-3.5l3-0.6c0.1-1.3,0.1-2.5,0-3.8l-3-0.6c-0.2-1.2-0.5-2.4-0.9-3.5l2.3-2c-0.5-1.1-1.1-2.2-1.9-3.3l-2.9,1
		c-0.8-0.9-1.6-1.8-2.6-2.6l1-2.9c-1-0.7-2.1-1.4-3.3-1.9l-2,2.3c-1.1-0.4-2.3-0.8-3.5-0.9L131.6,231.1L131.6,231.1z M129.7,246.3
		c2.1,0,3.8,1.7,3.8,3.8c0,2.1-1.7,3.8-3.8,3.8c-2.1,0-3.8-1.7-3.8-3.8C125.9,248,127.6,246.3,129.7,246.3L129.7,246.3z"/>
	<path fill-rule="evenodd" clip-rule="evenodd" fill="#EDECFF" d="M129.7,238.5c6.4,0,11.6,5.2,11.6,11.6c0,6.4-5.2,11.6-11.6,11.6
		c-6.4,0-11.6-5.2-11.6-11.6C118.1,243.7,123.3,238.5,129.7,238.5L129.7,238.5z M129.7,242.9c4,0,7.2,3.2,7.2,7.2
		c0,4-3.2,7.2-7.2,7.2c-4,0-7.2-3.2-7.2-7.2C122.5,246.2,125.7,242.9,129.7,242.9L129.7,242.9z"/>
	<path fill-rule="evenodd" clip-rule="evenodd" fill="#FF5E00" d="M189.5,532.3c0,0-0.6,6.3,2.5,8.7c0,0,9.1,4.5,8-9.9L189.5,532.3
		L189.5,532.3z"/>
	<path fill-rule="evenodd" clip-rule="evenodd" fill="#FF5E00" d="M222.4,534.1c0,0-0.6,6.3,2.5,8.7c0,0,9.1,4.5,8-9.9L222.4,534.1
		L222.4,534.1z"/>
	<path fill-rule="evenodd" clip-rule="evenodd" fill="#4561FF" d="M188.3,423.6c0,0-1.4,17.7,0.6,53l-2.2,55.1c0,0,9.3,6.8,15-2
		c0,0,0-47.9,3.2-53c0,0,4.3-45.7,6.8-49.9c0,0,1.3,18,5.9,53.3c0,0,1,48.6,2,50.9c0,0,1.2,7.2,14.3,4.3c0,0,2.6-110-3-128.3
		l-17.8,3.4L188.3,423.6L188.3,423.6z"/>
	<g>
		<defs>
			<path id="SVGID_13_" d="M188.3,423.6c0,0-1.4,17.7,0.6,53l-2.2,55.1c0,0,9.3,6.8,15-2c0,0,0-47.9,3.2-53c0,0,4.3-45.7,6.8-49.9
				c0,0,1.3,18,5.9,53.3c0,0,1,48.6,2,50.9c0,0,1.2,7.2,14.3,4.3c0,0,2.6-110-3-128.3l-17.8,3.4L188.3,423.6L188.3,423.6z"/>
		</defs>
		<clipPath id="SVGID_14_">
			<use xlink:href="#SVGID_13_"  overflow="visible"/>
		</clipPath>
		<path clip-path="url(#SVGID_14_)" fill-rule="evenodd" clip-rule="evenodd" fill="#4759DD" d="M238.7,410c0,0-14.7,25.3-56.5,27.4
			l-6.7-20.5l8.3-5.4L238.7,410L238.7,410z"/>
		<path clip-path="url(#SVGID_14_)" fill-rule="evenodd" clip-rule="evenodd" fill="#4759DD" d="M203.7,424c0,0-17.6-13.8-12.6,55.9
			c0,0-1.8,43.8-2.8,53l-13.7-1.5L163.3,407L203.7,424L203.7,424z"/>
	</g>
	<path fill-rule="evenodd" clip-rule="evenodd" fill="#FECDC0" d="M265.9,255.5c0,0-0.1-2-1.5-0.5l-2.4,7.3c0,0-2.5,5.3-3.5,8.5
		c0,0-1.4,5.5-0.9,8.1c0,0-2.2,14-4.5,23.1l1.3,2.2l6.2,2.7c0,0,2.6-17.5,2.6-26c0,0,0.6-4.3,1.8-4.9c0,0,3.4-4.4,3-5.7
		c0,0-1.1-2.9-1.7-3.5c0,0,1.1-1.9,1.1-2.9c0,0-0.8-1.9-2-0.3c0,0-2.4,2.6-1.9-0.4C263.6,263.3,265.1,256.9,265.9,255.5L265.9,255.5
		z"/>
	<g>
		<defs>
			<path id="SVGID_15_" d="M265.9,255.5c0,0-0.1-2-1.5-0.5l-2.4,7.3c0,0-2.5,5.3-3.5,8.5c0,0-1.4,5.5-0.9,8.1c0,0-2.2,14-4.5,23.1
				l1.3,2.2l6.2,2.7c0,0,2.6-17.5,2.6-26c0,0,0.6-4.3,1.8-4.9c0,0,3.4-4.4,3-5.7c0,0-1.1-2.9-1.7-3.5c0,0,1.1-1.9,1.1-2.9
				c0,0-0.8-1.9-2-0.3c0,0-2.4,2.6-1.9-0.4C263.6,263.3,265.1,256.9,265.9,255.5L265.9,255.5z"/>
		</defs>
		<clipPath id="SVGID_16_">
			<use xlink:href="#SVGID_15_"  overflow="visible"/>
		</clipPath>
		<path clip-path="url(#SVGID_16_)" fill-rule="evenodd" clip-rule="evenodd" fill="#FDBEAC" d="M267.7,265.7l-2.3,1.5
			c0,0,1.8,1,2,3.4c0,0-2.5,4.1-4.3,6.8c0,0-2.7,27.7-3.7,30.8l7.3,0.5l10.3-44.1L267.7,265.7L267.7,265.7z"/>
	</g>
	<path fill-rule="evenodd" clip-rule="evenodd" fill="#FECDC0" d="M183.6,399.8c0,0-0.7,4.5,0.3,6.1c0,0,0.7,3.3-0.3,7.4
		c0,0-0.7,2.6,0.1,3.8c0,0,0.2,5.3,1.2,5.9c0,0,1.3,0.8,2.4,0.6l0.8-0.9l0-23.3L183.6,399.8L183.6,399.8z"/>
	<path fill-rule="evenodd" clip-rule="evenodd" fill="#FF7700" d="M210.6,310.2c0,0-5.7,0.3-6.6,3.4l-0.3,2.5
		c0,0-15.4-0.6-23.7,13.5c0,0-4.6,35-3.7,68.6c0,0,1.7,2.8,11.4,2.4c0,0-1.9,1.7,0.1,24.8c0,0,35.3,9.3,45.5-12.4l0.5-14.6l2.4,6.6
		c0,0,6.8-4.7,8.4-3.1c0,0,3.3-0.7,3.5-1.7c0,0-11-51.9-10.1-57.1c0,0,0.7-2.3,1.9-2.8c0,0,3-3.9,6.3-10.5c0,0,14.6-10.4,15-21.4
		c0,0-2.8-11.6-7.6-7c0,0-1.8,1.6-2.7,4.3c-0.2-0.5-5.9,2.5-7.8,5.7c-1.8,3.2-3.4,2-3.4,2s-2.9-4.5-9.1-2.1c0,0-7.4,4.1-10.3,3.8
		C220.1,315.2,211.3,314.9,210.6,310.2L210.6,310.2z"/>
	<g>
		<defs>
			<path id="SVGID_17_" d="M210.6,310.2c0,0-5.7,0.3-6.6,3.4l-0.3,2.5c0,0-15.4-0.6-23.7,13.5c0,0-4.6,35-3.7,68.6
				c0,0,1.7,2.8,11.4,2.4c0,0-1.9,1.7,0.1,24.8c0,0,35.3,9.3,45.5-12.4l0.5-14.6l2.4,6.6c0,0,6.8-4.7,8.4-3.1c0,0,3.3-0.7,3.5-1.7
				c0,0-11-51.9-10.1-57.1c0,0,0.7-2.3,1.9-2.8c0,0,3-3.9,6.3-10.5c0,0,14.6-10.4,15-21.4c0,0-2.8-11.6-7.6-7c0,0-1.8,1.6-2.7,4.3
				c-0.2-0.5-5.9,2.5-7.8,5.7c-1.8,3.2-3.4,2-3.4,2s-2.9-4.5-9.1-2.1c0,0-7.4,4.1-10.3,3.8C220.1,315.2,211.3,314.9,210.6,310.2
				L210.6,310.2z"/>
		</defs>
		<clipPath id="SVGID_18_">
			<use xlink:href="#SVGID_17_"  overflow="visible"/>
		</clipPath>
		<path clip-path="url(#SVGID_18_)" fill-rule="evenodd" clip-rule="evenodd" fill="#FF5E00" d="M181.3,331.1c0,0,10,20.2,9.6,43.8
			c0,0-0.8,23.3-3.5,25.9C187.4,400.9,193.5,357.4,181.3,331.1L181.3,331.1z"/>
		<path clip-path="url(#SVGID_18_)" fill-rule="evenodd" clip-rule="evenodd" fill="#FF5E00" d="M240.9,313.2
			c0,0,3.4,55.2-41.5,85.7C199.4,398.9,237.7,376.4,240.9,313.2L240.9,313.2z"/>
		<path clip-path="url(#SVGID_18_)" fill-rule="evenodd" clip-rule="evenodd" fill="#FF5E00" d="M218.7,396.9
			c0,0-6.5,26.9-26.8,32.1C191.8,429,206.5,425.8,218.7,396.9L218.7,396.9z"/>
		<path clip-path="url(#SVGID_18_)" fill-rule="evenodd" clip-rule="evenodd" fill="#FF5E00" d="M243.1,311.6c0,0,4.5-3.1,3.5,2
			c0,0-0.2,10.1-3.9,24c0,0,6.4-18.2,4.1-29.2C246.8,308.4,244.2,306.9,243.1,311.6L243.1,311.6z"/>
		<path clip-path="url(#SVGID_18_)" fill-rule="evenodd" clip-rule="evenodd" fill="#FF5E00" d="M204,315.6c0,0,2.8-2.9,12.3-1.8
			C216.4,313.8,209.1,313.5,204,315.6L204,315.6z"/>
		<path clip-path="url(#SVGID_18_)" fill-rule="evenodd" clip-rule="evenodd" fill="#FF5E00" d="M201.1,323.1
			c0,0,11.2,10.6,33.7-3.7C234.8,319.4,215.3,330.2,201.1,323.1L201.1,323.1z"/>
		<path clip-path="url(#SVGID_18_)" fill-rule="evenodd" clip-rule="evenodd" fill="#FF5E00" d="M242.1,314.7c0,0,4.1,9-2.5,16.2
			C239.6,330.9,244,325.7,242.1,314.7L242.1,314.7z"/>
		<path clip-path="url(#SVGID_18_)" fill-rule="evenodd" clip-rule="evenodd" fill="#FF5E00" d="M199.8,327.3c0,0,17.7,17,22.5,17.1
			c0,0,8.1,2.7,12.9-14.3C235.2,330.1,232.2,367.8,199.8,327.3L199.8,327.3z"/>
		<path clip-path="url(#SVGID_18_)" fill-rule="evenodd" clip-rule="evenodd" fill="#FF5E00" d="M203.4,314.9c0,0-19.5,6.5-23,17
			c0,0-5,54.8-2.4,66.3c0,0,5.4,2.9,9.6,2c0,0-1,21.2,3,24.1c0,0,29.3,8.4,44-11.7l4.7,9.1l-21.2,11.1l-42.1-4.4
			c0,0-22.7-52.7-22.9-55.5c-0.1-2.8,13.3-53,19.2-55.7c5.8-2.7,31.1-11,31.1-11L203.4,314.9L203.4,314.9z"/>
		<path clip-path="url(#SVGID_18_)" fill-rule="evenodd" clip-rule="evenodd" fill="#FF5E00" d="M235.9,362.2c0,0-0.2,32.1,2.3,33.7
			c0,0,5,5.1,9.5,3.9c0,0-3.4,3.5-8-2c0,0-3.6-1.7-5.6,0.1C234.2,397.8,237.7,399.4,235.9,362.2L235.9,362.2z"/>
		<path clip-path="url(#SVGID_18_)" fill-rule="evenodd" clip-rule="evenodd" fill="#FF5E00" d="M229.2,371.1c0,0-22.1,33-25.7,39.2
			c-1.5-1-2-2.5-0.8-5.1C202.7,405.3,210.6,397.7,229.2,371.1L229.2,371.1z"/>
	</g>
	<path fill-rule="evenodd" clip-rule="evenodd" fill="#6D3405" d="M209.5,269.6c0,0-9.6-2-12.3,16.1c0,0-1.1,28.9-3.5,32.3
		c0,0,14-0.8,11.1-5.5l5.7-2c0,0,2.5,5.6,7.8,5.9l7.6-2.8c0,0-4-21.3-2.9-28.8C223,284.7,221.2,267.4,209.5,269.6L209.5,269.6z"/>
</g>
</svg>
