<?xml version="1.0" encoding="utf-8"?>
<!-- Generator: Adobe Illustrator 23.0.3, SVG Export Plug-In . SVG Version: 6.00 Build 0)  -->
<svg version="1.1" id="图层_1" xmlns="http://www.w3.org/2000/svg" xmlns:xlink="http://www.w3.org/1999/xlink" x="0px" y="0px"
	 viewBox="0 0 600 600" enable-background="new 0 0 600 600" xml:space="preserve">
<g>
	<path fill-rule="evenodd" clip-rule="evenodd" fill="#B1B2FF" d="M193.7,428.1c0,0-23.3-13.4-46.6-0.2c0,0-10.5,10.4,0.8,18.5
		c0,0,6.7,4.5,14.1-3C162,443.3,181.2,423.2,193.7,428.1L193.7,428.1z"/>
	<path fill-rule="evenodd" clip-rule="evenodd" fill="#B1B2FF" d="M117.5,411c0,0-26.7-2.7-42.6,18.8c0,0-5.4,13.8,8.3,16.5
		c0,0,7.9,1.4,11.6-8.5C94.8,437.8,104.1,411.6,117.5,411L117.5,411z"/>
	<path fill-rule="evenodd" clip-rule="evenodd" fill="#B1B2FF" d="M77.9,410.8c0,0-26.8-1.7-41.9,20.4c0,0-4.8,14,8.9,16.2
		c0,0,8,1.1,11.3-9C56.2,438.5,64.6,411.9,77.9,410.8L77.9,410.8z"/>
	<path fill-rule="evenodd" clip-rule="evenodd" fill="#B1B2FF" d="M64.7,411.1c0,0-18.2,7.3-33.8-4.7c0,0-6.5-8.6,2.5-13.3
		c0,0,5.3-2.6,9.9,3.7C43.3,396.8,55.2,413.3,64.7,411.1L64.7,411.1z"/>
	<path fill-rule="evenodd" clip-rule="evenodd" fill="#B1B2FF" d="M165.6,419.8c0,0-17.8-1.5-25.6-17.6c0,0-1.8-9.7,7.4-9.8
		c0,0,5.4,0.1,6.6,7C154,399.5,156.9,417.8,165.6,419.8L165.6,419.8z"/>
	<path fill-rule="evenodd" clip-rule="evenodd" fill="#B1B2FF" d="M149.3,416.9c0,0-20.4-3.8-34,11.7c0,0-5,10.3,5.3,13.2
		c0,0,6,1.6,9.5-5.8C130.1,436.1,139,416.5,149.3,416.9L149.3,416.9z"/>
	<path fill-rule="evenodd" clip-rule="evenodd" fill="#B1B2FF" d="M174.8,421.2c0,0-18.6-17.4-13.4-28.6c0,0,5.4-8.3,12.6-4.7
		c0,0,6.4,3.5,7.7,11.9c0,0-7.4,8.7,6.5,26.8C188.1,426.7,181.3,425.8,174.8,421.2L174.8,421.2z"/>
	<path fill-rule="evenodd" clip-rule="evenodd" fill="#B1B2FF" d="M97.2,407.7c0,0-25.3-14.9-22.3-28.8c0,0,4-10.8,13-8.4
		c0,0,8,2.3,11.6,11.5c0,0-6.1,11.7,14.1,28.6C113.6,410.5,105.7,411.3,97.2,407.7L97.2,407.7z"/>
	<path fill-rule="evenodd" clip-rule="evenodd" fill="#B1B2FF" d="M72.7,408.7c0,0-27.1-11.3-26.1-25.4c0,0,2.4-11.2,11.7-10.1
		c0,0,8.3,1.2,13.1,9.8c0,0-4.5,12.4,17.9,26.3C89.3,409.2,81.6,411.1,72.7,408.7L72.7,408.7z"/>
	<path fill-rule="evenodd" clip-rule="evenodd" fill="#B1B2FF" d="M132.3,412.8c0,0-19.8-11.1-17.7-21.9c0,0,2.9-8.4,9.9-6.7
		c0,0,6.2,1.7,9.2,8.7c0,0-4.6,9.1,11.3,21.8C145,414.7,139,415.4,132.3,412.8L132.3,412.8z"/>
	<path fill-rule="evenodd" clip-rule="evenodd" fill="#B1B2FF" d="M48,414.5c-5.3,1.8,60.9-23.5,165.1,21.7
		C206.3,438.1,140.5,399.7,48,414.5L48,414.5z"/>
	<path fill-rule="evenodd" clip-rule="evenodd" fill="#B1B2FF" d="M52.9,413.9c0,0-24-0.5-33,2.9c-4.5,1.7-6.9,6.7-5.2,11.3
		c1.7,4.5,6.7,6.9,11.3,5.2C35,429.9,52.9,413.9,52.9,413.9L52.9,413.9z"/>
	<path fill-rule="evenodd" clip-rule="evenodd" fill="#CED0FE" d="M103,121.1c0-4.4,3.6-8,8-8h89.5c4.4,0,8,3.6,8,8v16
		c0,4.4-3.6,8-8,8h-26.3l13.2,13.7l-29-13.7H111c-4.4,0-8-3.6-8-8V121.1L103,121.1z"/>
	<path fill-rule="evenodd" clip-rule="evenodd" fill="#FFFFFF" d="M188.5,124c-2.1,0-3.8,1.7-3.8,3.8s1.7,3.8,3.8,3.8
		c2.1,0,3.8-1.7,3.8-3.8S190.6,124,188.5,124L188.5,124z"/>
	<path fill-rule="evenodd" clip-rule="evenodd" fill="#FFFFFF" d="M175.4,124c-2.1,0-3.8,1.7-3.8,3.8s1.7,3.8,3.8,3.8
		c2.1,0,3.8-1.7,3.8-3.8S177.5,124,175.4,124L175.4,124z"/>
	<path fill-rule="evenodd" clip-rule="evenodd" fill="#FFFFFF" d="M161.4,124c-2.1,0-3.8,1.7-3.8,3.8s1.7,3.8,3.8,3.8
		c2.1,0,3.8-1.7,3.8-3.8S163.5,124,161.4,124L161.4,124z"/>
	<path fill-rule="evenodd" clip-rule="evenodd" fill="#FFFFFF" d="M147.9,124c-2.1,0-3.8,1.7-3.8,3.8s1.7,3.8,3.8,3.8
		c2.1,0,3.8-1.7,3.8-3.8S150,124,147.9,124L147.9,124z"/>
	<path fill-rule="evenodd" clip-rule="evenodd" fill="#FFFFFF" d="M135.4,124c-2.1,0-3.8,1.7-3.8,3.8s1.7,3.8,3.8,3.8
		c2.1,0,3.8-1.7,3.8-3.8S137.5,124,135.4,124L135.4,124z"/>
	<path fill-rule="evenodd" clip-rule="evenodd" fill="#FFFFFF" d="M122.8,124c-2.1,0-3.8,1.7-3.8,3.8s1.7,3.8,3.8,3.8
		c2.1,0,3.8-1.7,3.8-3.8S124.9,124,122.8,124L122.8,124z"/>
	<path fill-rule="evenodd" clip-rule="evenodd" fill="#FAA5B4" d="M48.4,202.5c0,0-14.8,45.8,36.8,131.5l29.1,21.7
		C114.3,355.8,119.4,259.9,48.4,202.5L48.4,202.5z"/>
	<g>
		<defs>
			<path id="SVGID_1_" d="M48.4,202.5c0,0-14.8,45.8,36.8,131.5l29.1,21.7C114.3,355.8,119.4,259.9,48.4,202.5L48.4,202.5z"/>
		</defs>
		<clipPath id="SVGID_2_">
			<use xlink:href="#SVGID_1_"  overflow="visible"/>
		</clipPath>
		<path clip-path="url(#SVGID_2_)" fill-rule="evenodd" clip-rule="evenodd" fill="#FFFFFF" d="M119.3,375.7
			c0,0-52.1-112.9-64.4-157.2C54.8,218.5,105,342.4,119.3,375.7L119.3,375.7z"/>
	</g>
	<path fill-rule="evenodd" clip-rule="evenodd" fill="#FF8EA2" d="M120.4,254.2c0,0-46.1,33-8.1,102.5
		C112.3,356.6,156.3,342.4,120.4,254.2L120.4,254.2z"/>
	<g>
		<defs>
			<path id="SVGID_3_" d="M120.4,254.2c0,0-46.1,33-8.1,102.5C112.3,356.6,156.3,342.4,120.4,254.2L120.4,254.2z"/>
		</defs>
		<clipPath id="SVGID_4_">
			<use xlink:href="#SVGID_3_"  overflow="visible"/>
		</clipPath>
		<path clip-path="url(#SVGID_4_)" fill-rule="evenodd" clip-rule="evenodd" fill="#FFFFFF" d="M120.9,255.2
			c0,0-10.5,65.4-4.3,105.9C116.5,361.1,112.8,318.2,120.9,255.2L120.9,255.2z"/>
	</g>
	<path fill-rule="evenodd" clip-rule="evenodd" fill="#FF3F67" d="M36.1,285.5c0,0,2.4,49.1,53.5,80.5l27.9,7.3
		C117.5,373.3,104.1,304.5,36.1,285.5L36.1,285.5z"/>
	<g>
		<defs>
			<path id="SVGID_5_" d="M36.1,285.5c0,0,2.4,49.1,53.5,80.5l27.9,7.3C117.5,373.3,104.1,304.5,36.1,285.5L36.1,285.5z"/>
		</defs>
		<clipPath id="SVGID_6_">
			<use xlink:href="#SVGID_5_"  overflow="visible"/>
		</clipPath>
		<path clip-path="url(#SVGID_6_)" fill-rule="evenodd" clip-rule="evenodd" fill="#FFFFFF" d="M40.1,287.5
			c0,0,39.7,79.7,107.8,93.6C147.8,381.1,91.4,372.9,40.1,287.5L40.1,287.5z"/>
	</g>
	<path fill-rule="evenodd" clip-rule="evenodd" fill="#FAA5B4" d="M49.1,350.5c0,0,20.1,63.6,79.8,45.4c0,0,35.6-36.6,14.6-86
		c0.3-0.4-38.2,21.8-32.2,56.1C111.4,366,95.5,347.3,49.1,350.5L49.1,350.5z"/>
	<g>
		<defs>
			<path id="SVGID_7_" d="M49.1,350.5c0,0,20.1,63.6,79.8,45.4c0,0,35.6-36.6,14.6-86c0.3-0.4-38.2,21.8-32.2,56.1
				C111.4,366,95.5,347.3,49.1,350.5L49.1,350.5z"/>
		</defs>
		<clipPath id="SVGID_8_">
			<use xlink:href="#SVGID_7_"  overflow="visible"/>
		</clipPath>
		<path clip-path="url(#SVGID_8_)" fill-rule="evenodd" clip-rule="evenodd" fill="#FFFFFF" d="M141.3,320.1
			c0,0-18.7,41.4-18.5,65.9C122.8,386,122.3,370.6,141.3,320.1L141.3,320.1z"/>
		<path clip-path="url(#SVGID_8_)" fill-rule="evenodd" clip-rule="evenodd" fill="#FFFFFF" d="M48.4,349.3c0,0,45.4,45.2,74.4,36.8
			C122.8,386,104,396.7,48.4,349.3L48.4,349.3z"/>
	</g>
	<path fill-rule="evenodd" clip-rule="evenodd" fill="#FF8EA2" d="M61.4,374.5c0,0,21.5,45.6,74.3,41
		C135.7,415.6,136.6,362.4,61.4,374.5L61.4,374.5z"/>
	<g>
		<defs>
			<path id="SVGID_9_" d="M61.4,374.5c0,0,21.5,45.6,74.3,41C135.7,415.6,136.6,362.4,61.4,374.5L61.4,374.5z"/>
		</defs>
		<clipPath id="SVGID_10_">
			<use xlink:href="#SVGID_9_"  overflow="visible"/>
		</clipPath>
		<path clip-path="url(#SVGID_10_)" fill-rule="evenodd" clip-rule="evenodd" fill="#FFFFFF" d="M70.1,378c0,0,46,31.6,72.4,22.5
			C142.4,400.5,122.1,409,70.1,378L70.1,378z"/>
	</g>
	<path fill-rule="evenodd" clip-rule="evenodd" fill="#FF3F67" d="M145.9,345.6c0,0-43.8,38.7-11.7,66.2
		C134.1,411.8,170.7,400,145.9,345.6L145.9,345.6z"/>
	<g>
		<defs>
			<path id="SVGID_11_" d="M145.9,345.6c0,0-43.8,38.7-11.7,66.2C134.1,411.8,170.7,400,145.9,345.6L145.9,345.6z"/>
		</defs>
		<clipPath id="SVGID_12_">
			<use xlink:href="#SVGID_11_"  overflow="visible"/>
		</clipPath>
		<path clip-path="url(#SVGID_12_)" fill-rule="evenodd" clip-rule="evenodd" fill="#FFFFFF" d="M145.8,346.6
			c0,0-0.8,44.7-17.1,70.9C128.7,417.5,142,394.4,145.8,346.6L145.8,346.6z"/>
	</g>
	<path fill-rule="evenodd" clip-rule="evenodd" fill="#FF3F67" d="M106.3,405.3c0,0,5.1,23.1,27.4,16.4
		C133.7,421.7,144.3,396.3,106.3,405.3L106.3,405.3z"/>
	<g>
		<defs>
			<path id="SVGID_13_" d="M106.3,405.3c0,0,5.1,23.1,27.4,16.4C133.7,421.7,144.3,396.3,106.3,405.3L106.3,405.3z"/>
		</defs>
		<clipPath id="SVGID_14_">
			<use xlink:href="#SVGID_13_"  overflow="visible"/>
		</clipPath>
		<path clip-path="url(#SVGID_14_)" fill-rule="evenodd" clip-rule="evenodd" fill="#FFFFFF" d="M140.3,419.4c0,0-24.6,3.2-38.4-20
			C101.9,399.4,110.6,417.3,140.3,419.4L140.3,419.4z"/>
	</g>
	<path fill-rule="evenodd" clip-rule="evenodd" fill="#FF8EA2" d="M148.4,387.2c0,0-20.7,6.5-15.6,34.2
		C132.8,421.4,159.2,420,148.4,387.2L148.4,387.2z"/>
	<g>
		<defs>
			<path id="SVGID_15_" d="M148.4,387.2c0,0-20.7,6.5-15.6,34.2C132.8,421.4,159.2,420,148.4,387.2L148.4,387.2z"/>
		</defs>
		<clipPath id="SVGID_16_">
			<use xlink:href="#SVGID_15_"  overflow="visible"/>
		</clipPath>
		<path clip-path="url(#SVGID_16_)" fill-rule="evenodd" clip-rule="evenodd" fill="#FFFFFF" d="M129.4,423.9
			c0,0,19.2-8.1,17.5-35.5C146.9,388.4,147.6,411.6,129.4,423.9L129.4,423.9z"/>
	</g>
	<path fill-rule="evenodd" clip-rule="evenodd" fill="#E2E3FE" d="M116.8,411.5c0,0,13.4,44.5,374.7,11.4c0,0,85.9-12.1,46.4-98.8
		c0,0-94.8-14.1-47.8-44.3c0,0,171.6-137.8-82.4-105.2c0,0-125.2-138.2-174.4-29.3c0,0-27.1,72-90.2,20.5c0,0-65-49.7-34,72.8
		l17.7,128.9L116.8,411.5L116.8,411.5z"/>
	<path fill-rule="evenodd" clip-rule="evenodd" fill="#EAEBFF" d="M123.7,405.8c0,0-96.9-181.6,61.4-190.6c0,0,91.9,19.8,155.5-73.8
		c0,0,94-148.3,208.4,48.8c0,0,50.2,134-79.3,235.4c0,0-119.7,33.1-198.1,10.2C271.6,435.7,183,459.3,123.7,405.8L123.7,405.8z"/>
	<path fill-rule="evenodd" clip-rule="evenodd" fill="#F8F8FF" d="M502.7,188.1c0-2.3-1.9-4.1-4.1-4.1H149.9c-2.3,0-4.1,1.9-4.1,4.1
		v235.9c0,2.3,1.9,4.1,4.1,4.1h348.6c2.3,0,4.1-1.9,4.1-4.1V188.1L502.7,188.1z"/>
	<g>
		<defs>
			<path id="SVGID_17_" d="M502.7,188.1c0-2.3-1.9-4.1-4.1-4.1H149.9c-2.3,0-4.1,1.9-4.1,4.1v235.9c0,2.3,1.9,4.1,4.1,4.1h348.6
				c2.3,0,4.1-1.9,4.1-4.1V188.1L502.7,188.1z"/>
		</defs>
		<clipPath id="SVGID_18_">
			<use xlink:href="#SVGID_17_"  overflow="visible"/>
		</clipPath>
		<polygon clip-path="url(#SVGID_18_)" fill-rule="evenodd" clip-rule="evenodd" fill="#B1B2FF" points="527,153.2 96.6,153.2 
			96.6,206.8 527,206.8 527,153.2 		"/>
		<path clip-path="url(#SVGID_18_)" fill-rule="evenodd" clip-rule="evenodd" fill="#FFFFFF" d="M488.2,230.2c0-0.8-0.7-1.5-1.5-1.5
			H326.6c-0.8,0-1.5,0.7-1.5,1.5v71.6c0,0.8,0.7,1.5,1.5,1.5h160.1c0.8,0,1.5-0.7,1.5-1.5V230.2L488.2,230.2z"/>
		<polygon clip-path="url(#SVGID_18_)" fill-rule="evenodd" clip-rule="evenodd" fill="#E2E3FE" points="482.3,249.4 400.7,249.4 
			400.7,251.4 482.3,251.4 482.3,249.4 		"/>
		<polygon clip-path="url(#SVGID_18_)" fill-rule="evenodd" clip-rule="evenodd" fill="#E2E3FE" points="482.3,257 400.7,257 
			400.7,259 482.3,259 482.3,257 		"/>
		<polygon clip-path="url(#SVGID_18_)" fill-rule="evenodd" clip-rule="evenodd" fill="#E2E3FE" points="482.3,264.6 400.7,264.6 
			400.7,266.6 482.3,266.6 482.3,264.6 		"/>
		<polygon clip-path="url(#SVGID_18_)" fill-rule="evenodd" clip-rule="evenodd" fill="#E2E3FE" points="482.3,272.5 400.7,272.5 
			400.7,274.5 482.3,274.5 482.3,272.5 		"/>
		<polygon clip-path="url(#SVGID_18_)" fill-rule="evenodd" clip-rule="evenodd" fill="#E2E3FE" points="482.3,280.5 400.7,280.5 
			400.7,282.5 482.3,282.5 482.3,280.5 		"/>
		<path clip-path="url(#SVGID_18_)" fill-rule="evenodd" clip-rule="evenodd" fill="#8682F8" d="M363.9,236.4
			c16.1,0,29.2,13.1,29.2,29.2c0,16.1-13.1,29.2-29.2,29.2c-16.1,0-29.2-13.1-29.2-29.2C334.7,249.5,347.8,236.4,363.9,236.4
			L363.9,236.4z"/>
	</g>
	<g>
		<defs>
			<path id="SVGID_19_" d="M363.9,236.4c16.1,0,29.2,13.1,29.2,29.2c0,16.1-13.1,29.2-29.2,29.2c-16.1,0-29.2-13.1-29.2-29.2
				C334.7,249.5,347.8,236.4,363.9,236.4L363.9,236.4z"/>
		</defs>
		<defs>
			<path id="SVGID_20_" d="M502.7,188.1c0-2.3-1.9-4.1-4.1-4.1H149.9c-2.3,0-4.1,1.9-4.1,4.1v235.9c0,2.3,1.9,4.1,4.1,4.1h348.6
				c2.3,0,4.1-1.9,4.1-4.1V188.1L502.7,188.1z"/>
		</defs>
		<clipPath id="SVGID_21_">
			<use xlink:href="#SVGID_19_"  overflow="visible"/>
		</clipPath>
		<clipPath id="SVGID_22_" clip-path="url(#SVGID_21_)">
			<use xlink:href="#SVGID_20_"  overflow="visible"/>
		</clipPath>
		<polygon clip-path="url(#SVGID_22_)" fill-rule="evenodd" clip-rule="evenodd" fill="#B1B2FF" points="363.9,266 325.1,266 
			334.7,228.7 363.9,228.7 363.9,266 		"/>
	</g>
	<g>
		<defs>
			<path id="SVGID_23_" d="M502.7,188.1c0-2.3-1.9-4.1-4.1-4.1H149.9c-2.3,0-4.1,1.9-4.1,4.1v235.9c0,2.3,1.9,4.1,4.1,4.1h348.6
				c2.3,0,4.1-1.9,4.1-4.1V188.1L502.7,188.1z"/>
		</defs>
		<clipPath id="SVGID_24_">
			<use xlink:href="#SVGID_23_"  overflow="visible"/>
		</clipPath>
		<path clip-path="url(#SVGID_24_)" fill-rule="evenodd" clip-rule="evenodd" fill="#FFFFFF" d="M488.2,331.4c0-0.8-0.7-1.5-1.5-1.5
			H326.6c-0.8,0-1.5,0.7-1.5,1.5V403c0,0.8,0.7,1.5,1.5,1.5h160.1c0.8,0,1.5-0.7,1.5-1.5V331.4L488.2,331.4z"/>
		<path clip-path="url(#SVGID_24_)" fill-rule="evenodd" clip-rule="evenodd" fill="#B1B2FF" d="M348.2,377.2
			c0,0,20.1-31.1,42.2-10.7c0,0,28.4,33.8,60.8,0c0,0,14.9-9.3,20.7,33.3l-125.7,0.6L348.2,377.2L348.2,377.2z"/>
		<path clip-path="url(#SVGID_24_)" fill-rule="evenodd" clip-rule="evenodd" fill="#E2E3FE" d="M340.8,399.1
			c0,0,7.2-61.3,37.1-19.1c0,0,14.8,17.9,18.1,0c0,0,22.8-53.7,59.7,0c0,0,8.6,12.1,8.7,20.4L340.8,399.1L340.8,399.1z"/>
		<path clip-path="url(#SVGID_24_)" fill-rule="evenodd" clip-rule="evenodd" fill="#E2E3FE" d="M340.8,399.1
			c0,0,7.2-61.3,37.1-19.1c0,0,14.8,17.9,18.1,0c0,0,22.8-53.7,59.7,0c0,0,8.6,12.1,8.7,20.4L340.8,399.1L340.8,399.1z"/>
		<polygon clip-path="url(#SVGID_24_)" fill-rule="evenodd" clip-rule="evenodd" fill="#B1B2FF" points="475.8,399.1 339.8,399.1 
			339.8,401.1 475.8,401.1 475.8,399.1 		"/>
		<polygon clip-path="url(#SVGID_24_)" fill-rule="evenodd" clip-rule="evenodd" fill="#B1B2FF" points="341.8,332 339.8,332 
			339.8,400.5 341.8,400.5 341.8,332 		"/>
		<path clip-path="url(#SVGID_24_)" fill-rule="evenodd" clip-rule="evenodd" fill="#FDFBF6" d="M446.2,190.7c2.8,0,5.2,2.3,5.2,5.2
			c0,2.8-2.3,5.2-5.2,5.2c-2.8,0-5.2-2.3-5.2-5.2C441,193,443.4,190.7,446.2,190.7L446.2,190.7z"/>
		<path clip-path="url(#SVGID_24_)" fill-rule="evenodd" clip-rule="evenodd" fill="#FDFBF6" d="M463.9,190.7c2.8,0,5.2,2.3,5.2,5.2
			c0,2.8-2.3,5.2-5.2,5.2c-2.8,0-5.2-2.3-5.2-5.2C458.7,193,461,190.7,463.9,190.7L463.9,190.7z"/>
		<path clip-path="url(#SVGID_24_)" fill-rule="evenodd" clip-rule="evenodd" fill="#FDFBF6" d="M481.8,190.7c2.8,0,5.2,2.3,5.2,5.2
			c0,2.8-2.3,5.2-5.2,5.2c-2.8,0-5.2-2.3-5.2-5.2C476.6,193,478.9,190.7,481.8,190.7L481.8,190.7z"/>
		<polygon clip-path="url(#SVGID_24_)" fill-rule="evenodd" clip-rule="evenodd" fill="#FFFFFF" points="294.6,228.7 163.2,228.7 
			163.2,404.5 294.6,404.5 294.6,228.7 		"/>
		<path clip-path="url(#SVGID_24_)" fill-rule="evenodd" clip-rule="evenodd" fill="#B1B2FF" d="M288.1,240.6c0-1.9-1.5-3.4-3.4-3.4
			H173.5c-1.9,0-3.4,1.5-3.4,3.4c0,1.9,1.5,3.4,3.4,3.4h111.1C286.5,244,288.1,242.5,288.1,240.6L288.1,240.6z"/>
		<path clip-path="url(#SVGID_24_)" fill-rule="evenodd" clip-rule="evenodd" fill="#B1B2FF" d="M288.1,295.8c0-1.9-1.5-3.4-3.4-3.4
			H173.5c-1.9,0-3.4,1.5-3.4,3.4c0,1.9,1.5,3.4,3.4,3.4h111.1C286.5,299.2,288.1,297.7,288.1,295.8L288.1,295.8z"/>
		<path clip-path="url(#SVGID_24_)" fill-rule="evenodd" clip-rule="evenodd" fill="#B1B2FF" d="M288.1,365.3c0-1.9-1.5-3.4-3.4-3.4
			H173.5c-1.9,0-3.4,1.5-3.4,3.4c0,1.9,1.5,3.4,3.4,3.4h111.1C286.5,368.7,288.1,367.1,288.1,365.3L288.1,365.3z"/>
		<path clip-path="url(#SVGID_24_)" fill-rule="evenodd" clip-rule="evenodd" fill="#B1B2FF" d="M288.1,254.2c0-1.9-1.5-3.4-3.4-3.4
			H173.5c-1.9,0-3.4,1.5-3.4,3.4c0,1.9,1.5,3.4,3.4,3.4h111.1C286.5,257.6,288.1,256.1,288.1,254.2L288.1,254.2z"/>
		<path clip-path="url(#SVGID_24_)" fill-rule="evenodd" clip-rule="evenodd" fill="#B1B2FF" d="M288.1,309.3c0-1.9-1.5-3.4-3.4-3.4
			H173.5c-1.9,0-3.4,1.5-3.4,3.4c0,1.9,1.5,3.4,3.4,3.4h111.1C286.5,312.7,288.1,311.2,288.1,309.3L288.1,309.3z"/>
		<path clip-path="url(#SVGID_24_)" fill-rule="evenodd" clip-rule="evenodd" fill="#B1B2FF" d="M288.1,378.8c0-1.9-1.5-3.4-3.4-3.4
			H173.5c-1.9,0-3.4,1.5-3.4,3.4c0,1.9,1.5,3.4,3.4,3.4h111.1C286.5,382.2,288.1,380.7,288.1,378.8L288.1,378.8z"/>
		<path clip-path="url(#SVGID_24_)" fill-rule="evenodd" clip-rule="evenodd" fill="#B1B2FF" d="M238.1,268.2c0-1.9-1.5-3.4-3.4-3.4
			h-61.2c-1.9,0-3.4,1.5-3.4,3.4c0,1.9,1.5,3.4,3.4,3.4h61.2C236.6,271.6,238.1,270,238.1,268.2L238.1,268.2z"/>
		<path clip-path="url(#SVGID_24_)" fill-rule="evenodd" clip-rule="evenodd" fill="#B1B2FF" d="M238.1,323.3c0-1.9-1.5-3.4-3.4-3.4
			h-61.2c-1.9,0-3.4,1.5-3.4,3.4c0,1.9,1.5,3.4,3.4,3.4h61.2C236.6,326.7,238.1,325.2,238.1,323.3L238.1,323.3z"/>
		<path clip-path="url(#SVGID_24_)" fill-rule="evenodd" clip-rule="evenodd" fill="#B1B2FF" d="M238.1,392.8c0-1.9-1.5-3.4-3.4-3.4
			h-61.2c-1.9,0-3.4,1.5-3.4,3.4c0,1.9,1.5,3.4,3.4,3.4h61.2C236.6,396.2,238.1,394.7,238.1,392.8L238.1,392.8z"/>
	</g>
	<polygon fill-rule="evenodd" clip-rule="evenodd" fill="#E2E3FE" points="559.9,83.6 416.6,83.6 416.6,139.4 559.9,139.4 
		559.9,83.6 	"/>
	<polygon fill-rule="evenodd" clip-rule="evenodd" fill="#E2E3FE" points="478.4,136.2 466.4,147.2 462.3,137 478.4,136.2 	"/>
	<polygon fill-rule="evenodd" clip-rule="evenodd" fill="#B1B2FF" points="555.5,88.4 423.6,88.4 423.6,133.7 555.5,133.7 
		555.5,88.4 	"/>
	<path fill-rule="evenodd" clip-rule="evenodd" fill="#FFFFFF" d="M443.8,100.5c5.1,0,9.3,4.2,9.3,9.3c0,5.1-4.2,9.3-9.3,9.3
		c-5.1,0-9.3-4.2-9.3-9.3C434.5,104.7,438.6,100.5,443.8,100.5L443.8,100.5z"/>
	<polygon fill-rule="evenodd" clip-rule="evenodd" fill="#FFFFFF" points="543.6,100.5 460.4,100.5 460.4,104.9 543.6,104.9 
		543.6,100.5 	"/>
	<polygon fill-rule="evenodd" clip-rule="evenodd" fill="#FFFFFF" points="506.1,111 460.4,111 460.4,119.2 506.1,119.2 506.1,111 	
		"/>
	<polygon fill-rule="evenodd" clip-rule="evenodd" fill="#FED64E" points="543.6,119.2 519.7,119.2 519.7,125.1 543.6,125.1 
		543.6,119.2 	"/>
	<path fill-rule="evenodd" clip-rule="evenodd" fill="#E2E3FE" d="M193.5,164.1c0,0-9,5.8-9,8.3c0,4.6,4,8.3,9,8.3c5,0,9-3.7,9-8.3
		C202.5,169.9,193.5,164.1,193.5,164.1L193.5,164.1z"/>
	<path fill-rule="evenodd" clip-rule="evenodd" fill="#E2E3FE" d="M567.5,326.6c0,0-8.5,21-8.5,30c0,4.7,3.8,8.5,8.5,8.5
		c4.7,0,8.5-3.8,8.5-8.5C576,347.6,567.5,326.6,567.5,326.6L567.5,326.6z"/>
	<path fill-rule="evenodd" clip-rule="evenodd" fill="#E2E3FE" d="M289.1,455.4c0,0-28.1,3.7-28.1,5.3c0,2.9,12.6,5.3,28.1,5.3
		c15.5,0,28.1-2.4,28.1-5.3C317.2,459.1,289.1,455.4,289.1,455.4L289.1,455.4z"/>
	<polygon fill-rule="evenodd" clip-rule="evenodd" fill="#FCA68E" points="446.9,505.5 446.4,508.8 458.5,508.7 457.6,503.5 
		446.9,505.5 	"/>
	<polygon fill-rule="evenodd" clip-rule="evenodd" fill="#FCA68E" points="470.8,512.1 471.2,516.3 475.3,517.6 483.3,516.8 
		483.6,512.9 470.8,512.1 	"/>
	<path fill-rule="evenodd" clip-rule="evenodd" fill="#FF7700" d="M446.8,508.5c0,0-7.4,3.4-14.1,17.8c0,0-1,14.7,14.6,2.5
		c0.5-1.8,18.2-14.2,11.5-20.4C458.7,508.4,452.3,507.9,446.8,508.5L446.8,508.5z"/>
	<path fill-rule="evenodd" clip-rule="evenodd" fill="#FF7700" d="M471.4,515.4c0,0-7.4,4.4,2,14.6c0,0,9.4,13.6,17,14.3
		c0,0,19.8,3.2,6-15.4c0,0-7.4-9.3-12.7-13C483.6,515.9,473.4,515.2,471.4,515.4L471.4,515.4z"/>
	<path fill-rule="evenodd" clip-rule="evenodd" fill="#4561FF" d="M431.3,356.3c0,0-5.4,22.5-0.5,67.2c0,0,4.7,47.2,12.5,83
		c0,0,8.4,2.4,15.4-2.3c0,0-3.8-53-4.3-59.7c0,0,0.2-36.3-0.3-44.4l9.2,45.1c0,0,1.1,64.1,1.8,66.2c0,0,10.4,5.3,19.6,3
		c0,0,0.2-55.7-2.6-73.5c0,0,1.9-53.2,2.5-58.5c0,0-3.7-8.2-6.2-9.8l-5-16.3l-22.6-9.8L431.3,356.3L431.3,356.3z"/>
	<g>
		<defs>
			<path id="SVGID_25_" d="M431.3,356.3c0,0-5.4,22.5-0.5,67.2c0,0,4.7,47.2,12.5,83c0,0,8.4,2.4,15.4-2.3c0,0-3.8-53-4.3-59.7
				c0,0,0.2-36.3-0.3-44.4l9.2,45.1c0,0,1.1,64.1,1.8,66.2c0,0,10.4,5.3,19.6,3c0,0,0.2-55.7-2.6-73.5c0,0,1.9-53.2,2.5-58.5
				c0,0-3.7-8.2-6.2-9.8l-5-16.3l-22.6-9.8L431.3,356.3L431.3,356.3z"/>
		</defs>
		<clipPath id="SVGID_26_">
			<use xlink:href="#SVGID_25_"  overflow="visible"/>
		</clipPath>
		<path clip-path="url(#SVGID_26_)" fill-rule="evenodd" clip-rule="evenodd" fill="#4759DD" d="M453.2,373.8
			c0,0,10.3,63.3,13.5,72.6c0,0,1.4,63-0.4,67l-3.9-1.1l-2.1-49.4l-4.1-51.8C456.2,411.1,452.7,393.7,453.2,373.8L453.2,373.8z"/>
		<path clip-path="url(#SVGID_26_)" fill-rule="evenodd" clip-rule="evenodd" fill="#4759DD" d="M427.2,356.2c0,0,9.9,5.9,46.1,6.8
			l4,9.5c0,0,8.1,12.9,8.2,18.9l15.7-19.5l-16.7-32.7l-43.1-11.5l-13.6,26"/>
		<path clip-path="url(#SVGID_26_)" fill-rule="evenodd" clip-rule="evenodd" fill="#4759DD" d="M455.6,394.4l-2.4,7.7l-0.3,43.7
			l4.5,57.3c0,0-5.3,4.3-15.6,2.3l-3.5,3.5l9.9,2.8l10.1,0.6l4-7.2l-2.1-59L455.6,394.4L455.6,394.4z"/>
	</g>
	<path fill-rule="evenodd" clip-rule="evenodd" fill="#FECDC0" d="M444.6,263c0,0-0.2,1.8-0.6,2.1c0,0-1.4-0.2-0.3,2.9
		c0,0,0.1,4.1,0.3,6c0.1,0.5,0.3,1.7,1,1.7c1.2,0,2.1,2.9,3.4,5c0,0,0.1,6-0.3,8.5l4.8,3.4l8,0.3l4.4-2.5c0,0-3.2-6.1,1.1-14
		c0,0,0.6-1,1-1.6c0,0,2.1-0.1,2.2-2.2c0,0,1.3-4.2,1.5-6.3c0,0,0.1-3.8-3.3,0.1l-0.3-5l-2-5.9L462,251l-6.9-1.1l-8.6,2.4L444.6,263
		L444.6,263z"/>
	<g>
		<defs>
			<path id="SVGID_27_" d="M444.6,263c0,0-0.2,1.8-0.6,2.1c0,0-1.4-0.2-0.3,2.9c0,0,0.1,4.1,0.3,6c0.1,0.5,0.3,1.7,1,1.7
				c1.2,0,2.1,2.9,3.4,5c0,0,0.1,6-0.3,8.5l4.8,3.4l8,0.3l4.4-2.5c0,0-3.2-6.1,1.1-14c0,0,0.6-1,1-1.6c0,0,2.1-0.1,2.2-2.2
				c0,0,1.3-4.2,1.5-6.3c0,0,0.1-3.8-3.3,0.1l-0.3-5l-2-5.9L462,251l-6.9-1.1l-8.6,2.4L444.6,263L444.6,263z"/>
		</defs>
		<clipPath id="SVGID_28_">
			<use xlink:href="#SVGID_27_"  overflow="visible"/>
		</clipPath>
		<path clip-path="url(#SVGID_28_)" fill-rule="evenodd" clip-rule="evenodd" fill="#FDBEAC" d="M440.8,272.6
			c4.8,0.9,10.7,23.4,26.9,2c20-21.7,3.6,4.5,3.6,4.5l-3.1,4.6l-20.5,5.9l-10.6-2.3L440.8,272.6L440.8,272.6z"/>
	</g>
	<path fill-rule="evenodd" clip-rule="evenodd" fill="#6D3405" d="M459.7,244.7c0,0-6-5.2-13.6,1.1c0,0-7.7,8.1-2.8,16.2
		c0,0,1.4,2.4,1.2,4c0,0,0.6-10.5,6.3-12.4c-0.4,0,4-1.7,9.4-0.1c0,0,4.3,1.9,4.4,9c0,0,2.1-0.8,2.2,1.2c0.1,2,0.5,5.1,0.4,6.5
		c0,0,0.7-5.2,3.7-4.5c0,0,4.5-7-2.6-17.4c0,0-2.8-4.4-5.6-1.7C462.7,246.7,460.6,246.2,459.7,244.7L459.7,244.7z"/>
	<path fill-rule="evenodd" clip-rule="evenodd" fill="#FECDC0" d="M479.4,356.3c0,0,0.2,8.8-0.6,17c0,0,3,2,5.3,8.8
		c0,0,0.2-1.6,0.9-2.7c0,0,0.7-1.4,0.8-3.6c0,0,2.3-14.6,5.9-19.2l-4.2-1.8l-7.8,1.1"/>
	<g>
		<defs>
			<path id="SVGID_29_" d="M479.4,356.3c0,0,0.2,8.8-0.6,17c0,0,3,2,5.3,8.8c0,0,0.2-1.6,0.9-2.7c0,0,0.7-1.4,0.8-3.6
				c0,0,2.3-14.6,5.9-19.2l-4.2-1.8l-7.8,1.1"/>
		</defs>
		<clipPath id="SVGID_30_">
			<use xlink:href="#SVGID_29_"  overflow="visible"/>
		</clipPath>
		<path clip-path="url(#SVGID_30_)" fill-rule="evenodd" clip-rule="evenodd" fill="#FDBEAC" d="M477.9,355.8l0.5,1.1
			c0,0,1.8-0.5,10.5,0.8c0,0-3.7,17.2-4.6,20.4c0,0-0.5,2.9-0.8,3.5c-0.3,0.6,0.5,1.2,0.5,1.2l2.4,0.1l7.1-22.1l0.3-8l-12.1-0.9
			L477.9,355.8L477.9,355.8z"/>
	</g>
	<path fill-rule="evenodd" clip-rule="evenodd" fill="#FECDC0" d="M413.9,323.9c0,0-7.8-9.2-11.8-25.4c0,0-0.7-0.5-1.1-4.3
		c0,0-0.7-4.3-3.8-5.5c0,0-3.6-2.9-4-4.2c0,0-2.7-1-1,3l0.4,0.8c0,0-2.5-0.6-3.2-1.5l-2.1-1.4c0,0,1.3-0.8,0.6-2.3
		c0,0-2.8-0.6-3.6,0.3c0,0-2.8-1.6-3-0.4c0,0-0.3,0.8,2.3,2.1c0,0-1,1.4,0.8,2.4c0,0-0.9,0.8,0.1,1.6c0,0,0.8,1.4,0.9,1.9
		c0,0,0.6,4.3,2.1,5.7c0,0,1.5,1.3,5.5,3.1c0,0,1.6,1,2.5,3.6c0,0,3.2,6.4,5.1,16.1c0,0,2,8.3,8.5,18.1c0,0,2.2,4.1,5.8,0.7l1.1-3.4
		L413.9,323.9L413.9,323.9z"/>
	<g>
		<defs>
			<path id="SVGID_31_" d="M413.9,323.9c0,0-7.8-9.2-11.8-25.4c0,0-0.7-0.5-1.1-4.3c0,0-0.7-4.3-3.8-5.5c0,0-3.6-2.9-4-4.2
				c0,0-2.7-1-1,3l0.4,0.8c0,0-2.5-0.6-3.2-1.5l-2.1-1.4c0,0,1.3-0.8,0.6-2.3c0,0-2.8-0.6-3.6,0.3c0,0-2.8-1.6-3-0.4
				c0,0-0.3,0.8,2.3,2.1c0,0-1,1.4,0.8,2.4c0,0-0.9,0.8,0.1,1.6c0,0,0.8,1.4,0.9,1.9c0,0,0.6,4.3,2.1,5.7c0,0,1.5,1.3,5.5,3.1
				c0,0,1.6,1,2.5,3.6c0,0,3.2,6.4,5.1,16.1c0,0,2,8.3,8.5,18.1c0,0,2.2,4.1,5.8,0.7l1.1-3.4L413.9,323.9L413.9,323.9z"/>
		</defs>
		<clipPath id="SVGID_32_">
			<use xlink:href="#SVGID_31_"  overflow="visible"/>
		</clipPath>
		<path clip-path="url(#SVGID_32_)" fill-rule="evenodd" clip-rule="evenodd" fill="#FDBEAC" d="M391.1,289c0,0-0.5,1.1-3.3-0.2
			c0,0-0.5,1.1,0.3,1.3c0,0-2.9-0.4-2.7,1.2l-2.3-1.5c0,0,3.3-1.2,4.7-1.5C387.7,288.4,389,289.3,391.1,289L391.1,289z"/>
		<path clip-path="url(#SVGID_32_)" fill-rule="evenodd" clip-rule="evenodd" fill="#FDBEAC" d="M388.4,284.2c0,0-0.9,1.7-2.5,1.6
			c0,0-1.1,2.2-2.7,2c0,0,2-0.7,2.4-2.5C385.7,285.2,386.9,285.8,388.4,284.2L388.4,284.2z"/>
		<path clip-path="url(#SVGID_32_)" fill-rule="evenodd" clip-rule="evenodd" fill="#FDBEAC" d="M391.3,293.1c0,0-1.2,0-2.2-1
			c0,0-1.8,0.4-2.3,0.2c0,0,0.8,0.2,2.2,0.3C388.9,292.6,389.8,293.4,391.3,293.1L391.3,293.1z"/>
		<path clip-path="url(#SVGID_32_)" fill-rule="evenodd" clip-rule="evenodd" fill="#FDBEAC" d="M391.2,285.2c0,0,1.6,3.6,4.1,3.9
			l0,1c0,0-1.1-1.2-3.5-2.4L391.2,285.2L391.2,285.2z"/>
		<path clip-path="url(#SVGID_32_)" fill-rule="evenodd" clip-rule="evenodd" fill="#FDBEAC" d="M390.9,286.3c0,0,2.7,9.4,5,7.5
			C395.9,293.8,394.3,295.6,390.9,286.3L390.9,286.3z"/>
		<path clip-path="url(#SVGID_32_)" fill-rule="evenodd" clip-rule="evenodd" fill="#FDBEAC" d="M385.6,295c0,0,5.7,4.6,8.5,4.8
			c0,0,5.6,9.2,7,20.7c0,0,8.1,23.5,14.1,17.1l0.3,3.7l-10.1,2.2l-16-14.3l-8.9-28.7L385.6,295L385.6,295z"/>
	</g>
	<path fill-rule="evenodd" clip-rule="evenodd" fill="#FF7700" d="M448.2,288.1l-1.4,2.3c0,0-13.7,1.7-19.1,4.5
		c0,0-9.4,11.8-14.2,27.8c0,0,1.2,13.1,0.8,16.6c0,0,7-2.9,10.3-8.8c0,0,4.7-5.6,5.7-10.9c0,0,0.3,27.2,0.3,37.3
		c0,0,23,3.7,44.2,2.8c0,0,0.2-12.5,0-16.3l2-13.9L478,357c0,0,11.4-0.6,15.2-0.3c0,0-1.3-48.9-7.3-58.5c0,0-4.4-5-18.9-7.4
		l-1.5-2.7l-1.2-1.3c0,0,1.6,2.9-1.2,3.3c0,0-6.2,1.8-7.1,2C456.1,292.1,449.2,290.6,448.2,288.1L448.2,288.1z"/>
	<g>
		<defs>
			<path id="SVGID_33_" d="M448.2,288.1l-1.4,2.3c0,0-13.7,1.7-19.1,4.5c0,0-9.4,11.8-14.2,27.8c0,0,1.2,13.1,0.8,16.6
				c0,0,7-2.9,10.3-8.8c0,0,4.7-5.6,5.7-10.9c0,0,0.3,27.2,0.3,37.3c0,0,23,3.7,44.2,2.8c0,0,0.2-12.5,0-16.3l2-13.9L478,357
				c0,0,11.4-0.6,15.2-0.3c0,0-1.3-48.9-7.3-58.5c0,0-4.4-5-18.9-7.4l-1.5-2.7l-1.2-1.3c0,0,1.6,2.9-1.2,3.3c0,0-6.2,1.8-7.1,2
				C456.1,292.1,449.2,290.6,448.2,288.1L448.2,288.1z"/>
		</defs>
		<clipPath id="SVGID_34_">
			<use xlink:href="#SVGID_33_"  overflow="visible"/>
		</clipPath>
		<path clip-path="url(#SVGID_34_)" fill-rule="evenodd" clip-rule="evenodd" fill="#FF5E00" d="M484.8,300.9c0,0-9.2,17.2-8,32.4
			L476,332C476,332,474.6,318.6,484.8,300.9L484.8,300.9z"/>
		<path clip-path="url(#SVGID_34_)" fill-rule="evenodd" clip-rule="evenodd" fill="#FF5E00" d="M487.1,300c0,0,6.2,41.4,3.9,54.9
			c0,0-9.3,1.8-13.3,1.6l0.1,1.8l6.8,1.5l15.9-3.2l-3.4-47.9L487.1,300L487.1,300z"/>
		<path clip-path="url(#SVGID_34_)" fill-rule="evenodd" clip-rule="evenodd" fill="#FF5E00" d="M465.1,324.5c0,0,9.6,8.2,11.3,13.5
			C476.4,338,472.3,331.3,465.1,324.5L465.1,324.5z"/>
		<path clip-path="url(#SVGID_34_)" fill-rule="evenodd" clip-rule="evenodd" fill="#FF5E00" d="M431.9,303.7c0,0-3,6.6,3.4,7.7
			c0,0,0.4,5.1-5.8,12.4c0,0,5.8-9.5,4.7-11.9C434.3,311.9,428.2,310.8,431.9,303.7L431.9,303.7z"/>
		<path clip-path="url(#SVGID_34_)" fill-rule="evenodd" clip-rule="evenodd" fill="#FF5E00" d="M429.8,328.5c0,0,7.4,20,19,20.8
			C448.8,349.2,438.3,351.7,429.8,328.5L429.8,328.5z"/>
		<path clip-path="url(#SVGID_34_)" fill-rule="evenodd" clip-rule="evenodd" fill="#FF5E00" d="M455.2,296.9c0,0,0.7,55.4,0.3,63.2
			l0.6,0.2C456.1,360.3,457.1,302.1,455.2,296.9L455.2,296.9L455.2,296.9z"/>
		<path clip-path="url(#SVGID_34_)" fill-rule="evenodd" clip-rule="evenodd" fill="#FF5E00" d="M467.2,290.8c0,0-7.9,4.7-11.7,5.7
			C455.5,296.5,457.9,295.6,467.2,290.8L467.2,290.8z"/>
		<path clip-path="url(#SVGID_34_)" fill-rule="evenodd" clip-rule="evenodd" fill="#FF5E00" d="M447.1,290.7c0,0,6.1,5.3,8.3,6.5
			C455.4,297.2,451.3,293.9,447.1,290.7L447.1,290.7z"/>
		<path clip-path="url(#SVGID_34_)" fill-rule="evenodd" clip-rule="evenodd" fill="#FF5E00" d="M475.5,354.4c0,0-5.9,7.6-46.8,2
			l3.6,4.9l7.4,1l37.1-1.2L475.5,354.4L475.5,354.4z"/>
	</g>
	<path fill-rule="evenodd" clip-rule="evenodd" fill="#FF5E00" d="M194.7,525.6c0,0,4.2,11.6,8.9,16.3c0,0,27.1,24.1,15.1-6.2
		c0,0-7.8-12.5-15.7-17.6L194.7,525.6L194.7,525.6z"/>
	<path fill-rule="evenodd" clip-rule="evenodd" fill="#FF5E00" d="M164.6,516.6c0,0,0.4,12.5-0.3,16.5c0,0-8,25.3-14.7-2.1
		c0,0,0.4-13.6,3-19.5L164.6,516.6L164.6,516.6z"/>
	<path fill-rule="evenodd" clip-rule="evenodd" fill="#4561FF" d="M203.2,398.1c0,0,6.3,92.5,9.1,125.4c0,0-5.6,13.5-20.7,4.4
		c0,0-5.7-82.7-9.4-96.9c0,0-5.2-18.2-6.8-19.4c0,0-8.7,52.8-8.9,71.6c0,0,0.7,28.1,0.9,34c0,0-13.4,7.6-18.4-3c0,0,1-45.1,0.5-54.3
		c0,0-3.4-38-4.4-44.9l12.2-20.4l19.3-3.7l15.7,2L203.2,398.1L203.2,398.1z"/>
	<g>
		<defs>
			<path id="SVGID_35_" d="M203.2,398.1c0,0,6.3,92.5,9.1,125.4c0,0-5.6,13.5-20.7,4.4c0,0-5.7-82.7-9.4-96.9c0,0-5.2-18.2-6.8-19.4
				c0,0-8.7,52.8-8.9,71.6c0,0,0.7,28.1,0.9,34c0,0-13.4,7.6-18.4-3c0,0,1-45.1,0.5-54.3c0,0-3.4-38-4.4-44.9l12.2-20.4l19.3-3.7
				l15.7,2L203.2,398.1L203.2,398.1z"/>
		</defs>
		<clipPath id="SVGID_36_">
			<use xlink:href="#SVGID_35_"  overflow="visible"/>
		</clipPath>
		<path clip-path="url(#SVGID_36_)" fill-rule="evenodd" clip-rule="evenodd" fill="#4759DD" d="M205.5,390.1
			c0,0-30.9,12.7-28.6,30.4l-7.2,53.8l2.9,43.1l-7.4,1.9c0,0-3.3-36.9,1.2-51.2l0.2-50.3l-0.3-26l24-3.1l17.8,0.8"/>
		<path clip-path="url(#SVGID_36_)" fill-rule="evenodd" clip-rule="evenodd" fill="#4759DD" d="M176.4,407.9
			c0,0,10.7,20.8,10.5,54.4c0,0,7.3,53.2,3.7,66.4l-8-12.9l-6.9-69.8L176.4,407.9L176.4,407.9z"/>
	</g>
	<path fill-rule="evenodd" clip-rule="evenodd" fill="#FECDC0" d="M175.7,266.5c-0.3-0.6,2.8-3.2,5.3,9.8c0.1,0.7,0.7,2.7,0.7,3.5
		c0,0,1.8,3.2-3.6,20.7l-0.7,12.7l0.7,7.5l-2.3,7.9l-1.2,7.8l-7.3-0.4l-6.6-16l-4-22.3l4.6-30.1l7-5.8L175.7,266.5L175.7,266.5z"/>
	<g>
		<defs>
			<path id="SVGID_37_" d="M175.7,266.5c-0.3-0.6,2.8-3.2,5.3,9.8c0.1,0.7,0.7,2.7,0.7,3.5c0,0,1.8,3.2-3.6,20.7l-0.7,12.7l0.7,7.5
				l-2.3,7.9l-1.2,7.8l-7.3-0.4l-6.6-16l-4-22.3l4.6-30.1l7-5.8L175.7,266.5L175.7,266.5z"/>
		</defs>
		<clipPath id="SVGID_38_">
			<use xlink:href="#SVGID_37_"  overflow="visible"/>
		</clipPath>
		<path clip-path="url(#SVGID_38_)" fill-rule="evenodd" clip-rule="evenodd" fill="#FDBEAC" d="M161.9,286.2c0,0,0.4,9.8,14.2,13
			c0,0-11.3,10.2-14.2,13.5l-4.3-8.8L161.9,286.2L161.9,286.2z"/>
		<path clip-path="url(#SVGID_38_)" fill-rule="evenodd" clip-rule="evenodd" fill="#FDBEAC" d="M181.3,275.5c0,0-2.4-9.1-11-9.3
			c0,0-5.6,3.7-6.6,28l-2.9-1.1l-2.1-23.4l10.4-6.5l7.1,1l5.8,6.4L181.3,275.5L181.3,275.5z"/>
	</g>
	<path fill-rule="evenodd" clip-rule="evenodd" fill="#FFFEFF" d="M181.5,318.6c0,0-5.4,8.8-19.6,2.4l-1.7,80.6c0,0,26.7,3,24.9-5.5
		l4.5-53.6l-2.4-18.3L181.5,318.6L181.5,318.6z"/>
	<g>
		<defs>
			<path id="SVGID_39_" d="M181.5,318.6c0,0-5.4,8.8-19.6,2.4l-1.7,80.6c0,0,26.7,3,24.9-5.5l4.5-53.6l-2.4-18.3L181.5,318.6
				L181.5,318.6z"/>
		</defs>
		<clipPath id="SVGID_40_">
			<use xlink:href="#SVGID_39_"  overflow="visible"/>
		</clipPath>
		<path clip-path="url(#SVGID_40_)" fill-rule="evenodd" clip-rule="evenodd" fill="#E3DEDE" d="M173.7,321.6c0,0,6,3.4,3.7,8.2
			l-2.6,16.1l0.3,16c0,0,7.4,36.2,6.7,39.2l-1.1,5.3l18-1.8c0,0,7.5-11.9,7.7-15.2c0.2-3.3-8.6-70.8-8.6-70.8l-4.7-8.8l-21.1,11.1
			L173.7,321.6L173.7,321.6z"/>
	</g>
	<path fill-rule="evenodd" clip-rule="evenodd" fill="#FF7700" d="M176.5,298.3c0,0,20.4,5.2,21.5,9.2c0,0,9.7,30.3,11.8,39.9
		c0,0-1.4,13.7-5.1,14.4l-6.1,2.3c0,0,11.5,34.6,11.9,37.9c0,0-13.2,11.4-26,14.2c0,0-4-42.7-7.3-46.2l-0.5-7.3l-7.2-0.4
		c0,0,1.1,60.5-2,65.4c0,0-9.8,2.7-14.4-1.2c0,0-12.5-6.1-12.2-10.2c0,0,6.9-42.9,4.1-54.5c0,0-8.4-11.1-9.8-13.5
		c0,0-0.3-30.8,0-34.2c0,0,5.5-4.7,13.2-10.4c0,0,13.4,10.8,18.4,12.2c0,0,1.2,29.5,2.6,30.7l6.8-1.1c0,0,3.8-16.9,3.1-19.9
		c0,0-7.1-7.4-7.5-10.1C172,315.4,175.7,303.8,176.5,298.3L176.5,298.3z"/>
	<g>
		<defs>
			<path id="SVGID_41_" d="M176.5,298.3c0,0,20.4,5.2,21.5,9.2c0,0,9.7,30.3,11.8,39.9c0,0-1.4,13.7-5.1,14.4l-6.1,2.3
				c0,0,11.5,34.6,11.9,37.9c0,0-13.2,11.4-26,14.2c0,0-4-42.7-7.3-46.2l-0.5-7.3l-7.2-0.4c0,0,1.1,60.5-2,65.4
				c0,0-9.8,2.7-14.4-1.2c0,0-12.5-6.1-12.2-10.2c0,0,6.9-42.9,4.1-54.5c0,0-8.4-11.1-9.8-13.5c0,0-0.3-30.8,0-34.2
				c0,0,5.5-4.7,13.2-10.4c0,0,13.4,10.8,18.4,12.2c0,0,1.2,29.5,2.6,30.7l6.8-1.1c0,0,3.8-16.9,3.1-19.9c0,0-7.1-7.4-7.5-10.1
				C172,315.4,175.7,303.8,176.5,298.3L176.5,298.3z"/>
		</defs>
		<clipPath id="SVGID_42_">
			<use xlink:href="#SVGID_41_"  overflow="visible"/>
		</clipPath>
		<path clip-path="url(#SVGID_42_)" fill-rule="evenodd" clip-rule="evenodd" fill="#FF5E00" d="M203.7,334.9c0,0-8.1,0.9-10.2,8.8
			c0,0,3.3-7,10.6-8C204.1,335.7,204.5,335.3,203.7,334.9L203.7,334.9z"/>
		<path clip-path="url(#SVGID_42_)" fill-rule="evenodd" clip-rule="evenodd" fill="#FF5E00" d="M194,308.2c0,0-2.9,29-2,35.6
			c0,0-18.4,2.1-17.8,1.3l13.8,1.2l5.2-0.9C193.3,345.3,191.9,333.4,194,308.2L194,308.2z"/>
		<path clip-path="url(#SVGID_42_)" fill-rule="evenodd" clip-rule="evenodd" fill="#FF5E00" d="M197,327.2c0,0-5.3,5.3-4.8,9.6
			C192.2,336.9,191,336.6,197,327.2L197,327.2z"/>
		<path clip-path="url(#SVGID_42_)" fill-rule="evenodd" clip-rule="evenodd" fill="#FF5E00" d="M194.7,360.9c0,0-0.8,0.4-3.8,0.8
			c0,0,3.1,5.8,5.2,0.9c0,0-4.7-12.4-8-12.7l-0.2,1.7l2.9,5.6L194.7,360.9L194.7,360.9z"/>
		<path clip-path="url(#SVGID_42_)" fill-rule="evenodd" clip-rule="evenodd" fill="#FF5E00" d="M185,301.5c0,0,11.9,4.3,12.2,7.1
			c0,0,12.3,36.2,11.5,39.2c0.2,3.6,0.3,12.8-9.3,16.9l6.5,8.2l3.7-3.8c0,0,10.9-9.7,11.2-12.6c0.3-2.9-3.5-43.8-3.5-43.8
			l-17.3-10.3L185,301.5L185,301.5z"/>
		<path clip-path="url(#SVGID_42_)" fill-rule="evenodd" clip-rule="evenodd" fill="#FF5E00" d="M196.8,306.5c0,0-5.4,0.8-10.7-2.6
			c0,0,1.8,32.7-11.6,13.7l-1.3,1.8l-3-5.4l1.2-9.6l2.5-2.4l5.8-4.7l9.9,1.7l6.4,2.2l2,2.9L196.8,306.5L196.8,306.5z"/>
		<path clip-path="url(#SVGID_42_)" fill-rule="evenodd" clip-rule="evenodd" fill="#FF5E00" d="M193.9,364.8l5-1l22.1,19.7
			l-8.5,20.9l-2.5-1.3C209.9,403.1,200.6,363.5,193.9,364.8L193.9,364.8z"/>
		<path clip-path="url(#SVGID_42_)" fill-rule="evenodd" clip-rule="evenodd" fill="#FF5E00" d="M191.1,361.8c0,0,2.7,1.1-15.6,1.2
			l0.7-1.9l6.4-0.8L191.1,361.8L191.1,361.8z"/>
		<path clip-path="url(#SVGID_42_)" fill-rule="evenodd" clip-rule="evenodd" fill="#FF5E00" d="M140,316c0,0,9.3,15.1,7.2,20.2
			l1.3,0.5C148.6,336.8,149.7,329.2,140,316L140,316z"/>
		<path clip-path="url(#SVGID_42_)" fill-rule="evenodd" clip-rule="evenodd" fill="#FF5E00" d="M149.4,346.7c0,0-1.5-6.2-14,1.3
			C135.4,348,145.9,342,149.4,346.7L149.4,346.7z"/>
		<path clip-path="url(#SVGID_42_)" fill-rule="evenodd" clip-rule="evenodd" fill="#FF5E00" d="M138.4,325.7c0,0,6.3,12,8,12.8
			C146.4,338.5,146.3,342,138.4,325.7L138.4,325.7z"/>
		<path clip-path="url(#SVGID_42_)" fill-rule="evenodd" clip-rule="evenodd" fill="#FF5E00" d="M158.5,324.5c0,0,5.8,0.8,5.7,23.7
			c0,0,1.8-11.2-4.2-24.9L158.5,324.5L158.5,324.5z"/>
		<path clip-path="url(#SVGID_42_)" fill-rule="evenodd" clip-rule="evenodd" fill="#FF5E00" d="M166.2,361.8c0,0-7.4,8.7-16.6,3.2
			C149.6,365,158.2,372.3,166.2,361.8L166.2,361.8z"/>
		<path clip-path="url(#SVGID_42_)" fill-rule="evenodd" clip-rule="evenodd" fill="#FF5E00" d="M167.5,356.9c0,0,1,4.4-1.5,4.8
			c0,0-4.9,0.4-5.6-0.3l0.6-2.1L167.5,356.9L167.5,356.9z"/>
		<path clip-path="url(#SVGID_42_)" fill-rule="evenodd" clip-rule="evenodd" fill="#FF5E00" d="M169.9,346.5c0,0-6.2,1.6-13.7,0.2
			c0,0-3.5-5.4-4.8-7.7C151.4,339,156.1,348.5,169.9,346.5L169.9,346.5z"/>
		<path clip-path="url(#SVGID_42_)" fill-rule="evenodd" clip-rule="evenodd" fill="#FF5E00" d="M145.4,306.4c0,0-7.4,5.7-9.1,9.9
			c0,0-1.4,29.1,0.6,32.7c0,0,6.1,10,9.2,14.1c0,0,0.1,32.2-3.9,48.9c0,0-6.3,12.8,26,15.3l1.2,2.1l-15.4,0.7l-12.7-1.7l-5-17.9
			l-7-50l-13.6-27.2L126,303l17.1,0.1L145.4,306.4L145.4,306.4z"/>
		<path clip-path="url(#SVGID_42_)" fill-rule="evenodd" clip-rule="evenodd" fill="#FF5E00" d="M154.5,347.1c0,0-6.6,2.8-5.3,9.9
			c0,0-1.1-4.8-0.5-7.9C148.7,349.1,149.7,347.9,154.5,347.1L154.5,347.1z"/>
		<path clip-path="url(#SVGID_42_)" fill-rule="evenodd" clip-rule="evenodd" fill="#FF5E00" d="M155.9,370.6c0,0-4.6,52.2,0.3,55.6
			l-3.4-1.1C152.8,425.1,153.4,385.8,155.9,370.6L155.9,370.6z"/>
		<path clip-path="url(#SVGID_42_)" fill-rule="evenodd" clip-rule="evenodd" fill="#FF5E00" d="M185,368.4c0,0,19.1,35.3,19.6,39.4
			l-1.5,0.9C203.1,408.7,198,392.1,185,368.4L185,368.4z"/>
	</g>
	<path fill-rule="evenodd" clip-rule="evenodd" fill="#FECDC0" d="M194.9,361.1c0,0-11.2,2.7-28.7,0.9c0,0,1.4,0.1,1.4-3.6
		c0,0,16.7-7.4,20.6-8.2C188.2,350.1,190.3,350.3,194.9,361.1L194.9,361.1z"/>
	<g>
		<defs>
			<path id="SVGID_43_" d="M194.9,361.1c0,0-11.2,2.7-28.7,0.9c0,0,1.4,0.1,1.4-3.6c0,0,16.7-7.4,20.6-8.2
				C188.2,350.1,190.3,350.3,194.9,361.1L194.9,361.1z"/>
		</defs>
		<clipPath id="SVGID_44_">
			<use xlink:href="#SVGID_43_"  overflow="visible"/>
		</clipPath>
		<path clip-path="url(#SVGID_44_)" fill-rule="evenodd" clip-rule="evenodd" fill="#FDBEAC" d="M192.4,349.5l-0.1,2
			c0,0-16.1,5.8-27.9,7.6l4.6-4.2l14.5-5L192.4,349.5L192.4,349.5z"/>
	</g>
	<path fill-rule="evenodd" clip-rule="evenodd" fill="#FECDC0" d="M147.5,338.4c0,0-1.3-0.9-1.1-2c-0.1,0,1-1,5.3,2.7
		c0,0,3.6,6.4,4.9,7.8c0,0-1.8,0.1-2.6,0c0,0,0.5-0.8-4.3-0.1c0,0-0.3-1.7-2.6-1.7c0,0-2.3-0.6-2.8-2.3l0.2-0.5c0,0-3-0.7-1.9-3.1
		C142.3,339.3,141.4,337.3,147.5,338.4L147.5,338.4z"/>
	<g>
		<defs>
			<path id="SVGID_45_" d="M147.5,338.4c0,0-1.3-0.9-1.1-2c-0.1,0,1-1,5.3,2.7c0,0,3.6,6.4,4.9,7.8c0,0-1.8,0.1-2.6,0
				c0,0,0.5-0.8-4.3-0.1c0,0-0.3-1.7-2.6-1.7c0,0-2.3-0.6-2.8-2.3l0.2-0.5c0,0-3-0.7-1.9-3.1C142.3,339.3,141.4,337.3,147.5,338.4
				L147.5,338.4z"/>
		</defs>
		<clipPath id="SVGID_46_">
			<use xlink:href="#SVGID_45_"  overflow="visible"/>
		</clipPath>
		<path clip-path="url(#SVGID_46_)" fill-rule="evenodd" clip-rule="evenodd" fill="#FDBEAC" d="M141.2,338.8c0,0,2.8,1.5,4.4,1.5
			c0,0,4,2.1,5.4,1.9c0,0-4.4-1.5-5.1-2.4C145.8,339.8,145.7,340.5,141.2,338.8L141.2,338.8z"/>
		<path clip-path="url(#SVGID_46_)" fill-rule="evenodd" clip-rule="evenodd" fill="#FDBEAC" d="M144.8,341.7c0,0,5.5,3.2,7.4,4.7
			C152.2,346.4,153.5,347.6,144.8,341.7L144.8,341.7z"/>
		<path clip-path="url(#SVGID_46_)" fill-rule="evenodd" clip-rule="evenodd" fill="#FDBEAC" d="M146,336.3c0,0,1.9,2.7,5,3.4
			C151,339.7,146.8,339.1,146,336.3L146,336.3z"/>
	</g>
	<path fill-rule="evenodd" clip-rule="evenodd" fill="#FECDC0" d="M193.3,345.1c0,0-3.5,1.3-9.1-0.5c0,0-4.1-0.6-7.8,0.7
		c0,0-7.8,2-14.2,1.9c0,0-3,7.4-3.5,9c0,0,1.6,5.3,2.1,5.6c0,0,17.4-8.8,27.6-11.7c0,0,4.4-2.6,5.8-2.5
		C194.2,347.6,193.3,346.4,193.3,345.1L193.3,345.1z"/>
	<g>
		<defs>
			<path id="SVGID_47_" d="M193.3,345.1c0,0-3.5,1.3-9.1-0.5c0,0-4.1-0.6-7.8,0.7c0,0-7.8,2-14.2,1.9c0,0-3,7.4-3.5,9
				c0,0,1.6,5.3,2.1,5.6c0,0,17.4-8.8,27.6-11.7c0,0,4.4-2.6,5.8-2.5C194.2,347.6,193.3,346.4,193.3,345.1L193.3,345.1z"/>
		</defs>
		<clipPath id="SVGID_48_">
			<use xlink:href="#SVGID_47_"  overflow="visible"/>
		</clipPath>
		<path clip-path="url(#SVGID_48_)" fill-rule="evenodd" clip-rule="evenodd" fill="#FDBEAC" d="M188.3,344.7c0,0,6.8,1,3.3,4.4
			l5.6-0.7l-1.8-6.1l-7.3,2.1"/>
	</g>
	<path fill-rule="evenodd" clip-rule="evenodd" fill="#6D3405" d="M180.6,291.8c0,0,4.7,12.5,17.5,13.9c0,0-6.5,1.5-12.8-3.5
		c0,0,2.5,33.7-10.3,15.2c0,0,1.4-15.5,0.2-18.6C175.2,298.9,179.4,298.7,180.6,291.8L180.6,291.8z"/>
	<path fill-rule="evenodd" clip-rule="evenodd" fill="#6D3405" d="M165.6,258.8c0,0,11.4-2.5,14.9,15.4c0,0-0.8-8.1-10.1-8.5
		c0,0-7.9,2.8-7.6,42.6c0.3,39.8-22.8,16.6-18.8-0.5c0,0,5.1-17.4,5.1-33C149.2,274.8,152.5,257.3,165.6,258.8L165.6,258.8z"/>
</g>
</svg>
