<?xml version="1.0" encoding="utf-8"?>
<!-- Generator: Adobe Illustrator 23.0.3, SVG Export Plug-In . SVG Version: 6.00 Build 0)  -->
<svg version="1.1" id="图层_1" xmlns="http://www.w3.org/2000/svg" xmlns:xlink="http://www.w3.org/1999/xlink" x="0px" y="0px"
	 viewBox="0 0 600 600" enable-background="new 0 0 600 600" xml:space="preserve">
<g>
	<path fill-rule="evenodd" clip-rule="evenodd" fill="#E2E3FE" d="M294.9,104.8c0,0-140.6-19.3-186.9,60.2c0,0-77,92.8-3.4,225.1
		c0,0,42.7,84.6,144.5,81.2c0,0,97.1,134.7,252.4-137.9c0,0,48.3-139.4-81.3-165.5C420.2,168,414.1,80.5,294.9,104.8L294.9,104.8z"
		/>
	<path fill-rule="evenodd" clip-rule="evenodd" fill="#EAEBFF" d="M359.1,72.1c0,0-134.7-38.4-239.5,79.2c0,0-83.4,25.7-80,172.7
		c0,0,4.8,82.1,165.2,62.9c0,0,53.5-7.6,57,106.7c0,0,1.2,121,271.8-105.2c0,0,108.1-111.5-58.4-226.7c0,0-78-9.5-64.8-63.2
		C410.3,98.6,386.5,80.6,359.1,72.1L359.1,72.1z"/>
	<g>
		<defs>
			<path id="SVGID_1_" d="M359.1,72.1c0,0-134.7-38.4-239.5,79.2c0,0-83.4,25.7-80,172.7c0,0,4.8,82.1,165.2,62.9
				c0,0,53.5-7.6,57,106.7c0,0,1.2,121,271.8-105.2c0,0,108.1-111.5-58.4-226.7c0,0-78-9.5-64.8-63.2
				C410.3,98.6,386.5,80.6,359.1,72.1L359.1,72.1z"/>
		</defs>
		<clipPath id="SVGID_2_">
			<use xlink:href="#SVGID_1_"  overflow="visible"/>
		</clipPath>
		<polygon clip-path="url(#SVGID_2_)" fill-rule="evenodd" clip-rule="evenodd" fill="#B1B2FF" points="519.5,425.8 187.9,425.8 
			187.9,567.8 519.5,567.8 519.5,425.8 		"/>
	</g>
	<path fill-rule="evenodd" clip-rule="evenodd" fill="#EAEBFF" d="M78.8,53.2c0,0,26.3,17.7,21.5,50.7c0,0-14.3,54.8-57.2,6.9
		c0,0-20.8-27.8,0.4-33.1c0,0,20.3,1.8,21.7-13C65.3,64.8,56.5,49.6,78.8,53.2L78.8,53.2z"/>
	<path fill-rule="evenodd" clip-rule="evenodd" fill="#EAEBFF" d="M436,29.2c0,0,3.1,19.1,25.7,2c0,0,26.2,32-28.8,38.6
		c0,0-25-2.5-15.1-28.8C417.9,40.9,420.7,17.5,436,29.2L436,29.2z"/>
	<path fill-rule="evenodd" clip-rule="evenodd" fill="#F8F8FF" d="M554.6,251.8c0-4.2-3.4-7.7-7.7-7.7H422.6c-4.2,0-7.7,3.4-7.7,7.7
		v72.6c0,4.2,3.4,7.7,7.7,7.7h124.3c4.2,0,7.7-3.4,7.7-7.7V251.8L554.6,251.8z"/>
	<polygon fill-rule="evenodd" clip-rule="evenodd" fill="#F0F1F7" points="502.5,457.8 479.4,471 492.3,493.5 515.3,480.3 
		502.5,457.8 	"/>
	<polygon fill-rule="evenodd" clip-rule="evenodd" fill="#C8C9D2" points="495.5,467.1 484.7,473.3 486.3,476.1 497.1,469.9 
		495.5,467.1 	"/>
	<polygon fill-rule="evenodd" clip-rule="evenodd" fill="#C8C9D2" points="497.7,470.9 486.9,477.1 488.5,479.9 499.3,473.7 
		497.7,470.9 	"/>
	<polygon fill-rule="evenodd" clip-rule="evenodd" fill="#C8C9D2" points="503.9,476.4 490.8,484 491.6,485.3 504.7,477.8 
		503.9,476.4 	"/>
	<polygon fill-rule="evenodd" clip-rule="evenodd" fill="#C8C9D2" points="505.3,478.9 492.2,486.4 493,487.8 506.1,480.3 
		505.3,478.9 	"/>
	<polygon fill-rule="evenodd" clip-rule="evenodd" fill="#F0F1F7" points="529.1,466.3 511,446.8 492.1,464.4 510.2,483.9 
		529.1,466.3 	"/>
	<polygon fill-rule="evenodd" clip-rule="evenodd" fill="#C8C9D2" points="518.5,461.6 510,452.4 507.6,454.7 516.1,463.8 
		518.5,461.6 	"/>
	<polygon fill-rule="evenodd" clip-rule="evenodd" fill="#C8C9D2" points="515.3,464.6 506.8,455.4 504.4,457.6 512.9,466.8 
		515.3,464.6 	"/>
	<polygon fill-rule="evenodd" clip-rule="evenodd" fill="#C8C9D2" points="511.3,471.9 501,460.8 499.8,461.9 510.1,473 
		511.3,471.9 	"/>
	<polygon fill-rule="evenodd" clip-rule="evenodd" fill="#C8C9D2" points="509.2,473.8 498.9,462.7 497.8,463.8 508.1,474.9 
		509.2,473.8 	"/>
	<polygon fill-rule="evenodd" clip-rule="evenodd" fill="#F0F1F7" points="490.1,443.7 516.2,448 520.5,422.5 494.3,418.2 
		490.1,443.7 	"/>
	<polygon fill-rule="evenodd" clip-rule="evenodd" fill="#C8C9D2" points="501.3,440.9 513.6,442.9 514.1,439.7 501.8,437.7 
		501.3,440.9 	"/>
	<polygon fill-rule="evenodd" clip-rule="evenodd" fill="#C8C9D2" points="502,436.6 514.3,438.6 514.9,435.4 502.6,433.4 
		502,436.6 	"/>
	<polygon fill-rule="evenodd" clip-rule="evenodd" fill="#C8C9D2" points="500.7,428.3 515.6,430.8 515.9,429.3 501,426.8 
		500.7,428.3 	"/>
	<polygon fill-rule="evenodd" clip-rule="evenodd" fill="#C8C9D2" points="501.2,425.5 516.1,428 516.4,426.4 501.4,424 
		501.2,425.5 	"/>
	<polygon fill-rule="evenodd" clip-rule="evenodd" fill="#F0F1F7" points="492.5,452.5 500.1,477.9 524.9,470.5 517.3,445.1 
		492.5,452.5 	"/>
	<polygon fill-rule="evenodd" clip-rule="evenodd" fill="#C8C9D2" points="499.9,461.4 503.5,473.3 506.6,472.4 503,460.5 
		499.9,461.4 	"/>
	<polygon fill-rule="evenodd" clip-rule="evenodd" fill="#C8C9D2" points="504.1,460.1 507.7,472.1 510.8,471.1 507.2,459.2 
		504.1,460.1 	"/>
	<polygon fill-rule="evenodd" clip-rule="evenodd" fill="#C8C9D2" points="510.9,455.3 515.3,469.8 516.8,469.3 512.5,454.8 
		510.9,455.3 	"/>
	<polygon fill-rule="evenodd" clip-rule="evenodd" fill="#C8C9D2" points="513.6,454.5 518,469 519.5,468.5 515.2,454 513.6,454.5 	
		"/>
	<polygon fill-rule="evenodd" clip-rule="evenodd" fill="#F0F1F7" points="493.5,475.3 501.1,500.7 525.9,493.3 518.2,467.8 
		493.5,475.3 	"/>
	<polygon fill-rule="evenodd" clip-rule="evenodd" fill="#C8C9D2" points="500.9,484.1 504.5,496.1 507.6,495.2 504,483.2 
		500.9,484.1 	"/>
	<polygon fill-rule="evenodd" clip-rule="evenodd" fill="#C8C9D2" points="505.1,482.9 508.7,494.8 511.8,493.9 508.2,482 
		505.1,482.9 	"/>
	<polygon fill-rule="evenodd" clip-rule="evenodd" fill="#C8C9D2" points="511.9,478.1 516.3,492.6 517.8,492.1 513.5,477.6 
		511.9,478.1 	"/>
	<polygon fill-rule="evenodd" clip-rule="evenodd" fill="#C8C9D2" points="514.6,477.3 519,491.7 520.5,491.3 516.2,476.8 
		514.6,477.3 	"/>
	<polygon fill-rule="evenodd" clip-rule="evenodd" fill="#F0F1F7" points="478.8,461.4 486.4,486.8 511.2,479.4 503.5,453.9 
		478.8,461.4 	"/>
	<polygon fill-rule="evenodd" clip-rule="evenodd" fill="#C8C9D2" points="486.2,470.2 489.8,482.2 492.9,481.2 489.3,469.3 
		486.2,470.2 	"/>
	<polygon fill-rule="evenodd" clip-rule="evenodd" fill="#C8C9D2" points="490.4,469 494,480.9 497.1,480 493.5,468 490.4,469 	"/>
	<polygon fill-rule="evenodd" clip-rule="evenodd" fill="#C8C9D2" points="497.2,464.2 501.6,478.7 503.1,478.2 498.7,463.7 
		497.2,464.2 	"/>
	<polygon fill-rule="evenodd" clip-rule="evenodd" fill="#C8C9D2" points="499.9,463.3 504.3,477.8 505.8,477.4 501.5,462.9 
		499.9,463.3 	"/>
	<polygon fill-rule="evenodd" clip-rule="evenodd" fill="#F0F1F7" points="479.6,476.6 487.2,502 512,494.6 504.4,469.2 
		479.6,476.6 	"/>
	<polygon fill-rule="evenodd" clip-rule="evenodd" fill="#C8C9D2" points="487,485.5 490.6,497.4 493.7,496.5 490.2,484.6 
		487,485.5 	"/>
	<polygon fill-rule="evenodd" clip-rule="evenodd" fill="#C8C9D2" points="491.3,484.2 494.8,496.2 497.9,495.2 494.4,483.3 
		491.3,484.2 	"/>
	<polygon fill-rule="evenodd" clip-rule="evenodd" fill="#C8C9D2" points="498,479.4 502.4,493.9 503.9,493.5 499.6,479 498,479.4 	
		"/>
	<polygon fill-rule="evenodd" clip-rule="evenodd" fill="#C8C9D2" points="500.8,478.6 505.1,493.1 506.6,492.6 502.3,478.1 
		500.8,478.6 	"/>
	<polygon fill-rule="evenodd" clip-rule="evenodd" fill="#F0F1F7" points="501.2,431.6 508.8,457.1 533.6,449.6 526,424.2 
		501.2,431.6 	"/>
	<polygon fill-rule="evenodd" clip-rule="evenodd" fill="#C8C9D2" points="508.7,440.5 512.2,452.5 515.4,451.5 511.8,439.6 
		508.7,440.5 	"/>
	<polygon fill-rule="evenodd" clip-rule="evenodd" fill="#C8C9D2" points="512.9,439.3 516.5,451.2 519.6,450.3 516,438.3 
		512.9,439.3 	"/>
	<polygon fill-rule="evenodd" clip-rule="evenodd" fill="#C8C9D2" points="519.7,434.4 524,448.9 525.5,448.5 521.2,434 
		519.7,434.4 	"/>
	<polygon fill-rule="evenodd" clip-rule="evenodd" fill="#C8C9D2" points="522.4,433.6 526.7,448.1 528.3,447.7 523.9,433.2 
		522.4,433.6 	"/>
	<polygon fill-rule="evenodd" clip-rule="evenodd" fill="#F0F1F7" points="474.8,420.3 476.4,446.8 502.3,445.2 500.6,418.7 
		474.8,420.3 	"/>
	<polygon fill-rule="evenodd" clip-rule="evenodd" fill="#C8C9D2" points="480,430.6 480.8,443.1 484,442.9 483.3,430.4 480,430.6 	
		"/>
	<polygon fill-rule="evenodd" clip-rule="evenodd" fill="#C8C9D2" points="484.4,430.4 485.2,442.8 488.4,442.6 487.6,430.2 
		484.4,430.4 	"/>
	<polygon fill-rule="evenodd" clip-rule="evenodd" fill="#C8C9D2" points="492.1,427.2 493.1,442.3 494.7,442.2 493.7,427.1 
		492.1,427.2 	"/>
	<polygon fill-rule="evenodd" clip-rule="evenodd" fill="#C8C9D2" points="494.9,427 495.9,442.1 497.5,442 496.5,426.9 494.9,427 	
		"/>
	<polygon fill-rule="evenodd" clip-rule="evenodd" fill="#F0F1F7" points="506.7,428.5 483.7,441.7 496.5,464.1 519.6,450.9 
		506.7,428.5 	"/>
	<polygon fill-rule="evenodd" clip-rule="evenodd" fill="#C8C9D2" points="499.8,437.8 488.9,443.9 490.5,446.8 501.4,440.6 
		499.8,437.8 	"/>
	<polygon fill-rule="evenodd" clip-rule="evenodd" fill="#C8C9D2" points="501.9,441.6 491.1,447.8 492.7,450.6 503.5,444.4 
		501.9,441.6 	"/>
	<polygon fill-rule="evenodd" clip-rule="evenodd" fill="#C8C9D2" points="508.2,447.1 495,454.6 495.8,456 509,448.5 508.2,447.1 	
		"/>
	<polygon fill-rule="evenodd" clip-rule="evenodd" fill="#C8C9D2" points="509.6,449.6 496.4,457.1 497.2,458.5 510.4,451 
		509.6,449.6 	"/>
	<polygon fill-rule="evenodd" clip-rule="evenodd" fill="#F0F1F7" points="507.7,451.2 484.7,464.4 497.5,486.9 520.5,473.7 
		507.7,451.2 	"/>
	<polygon fill-rule="evenodd" clip-rule="evenodd" fill="#C8C9D2" points="500.7,460.5 489.9,466.7 491.5,469.5 502.4,463.3 
		500.7,460.5 	"/>
	<polygon fill-rule="evenodd" clip-rule="evenodd" fill="#C8C9D2" points="502.9,464.3 492.1,470.5 493.7,473.3 504.5,467.1 
		502.9,464.3 	"/>
	<polygon fill-rule="evenodd" clip-rule="evenodd" fill="#C8C9D2" points="509.2,469.8 496,477.4 496.8,478.7 510,471.2 
		509.2,469.8 	"/>
	<polygon fill-rule="evenodd" clip-rule="evenodd" fill="#C8C9D2" points="510.6,472.3 497.4,479.8 498.2,481.2 511.4,473.7 
		510.6,472.3 	"/>
	<polygon fill-rule="evenodd" clip-rule="evenodd" fill="#F0F1F7" points="493,437.3 470,450.5 482.8,473 505.8,459.8 493,437.3 	
		"/>
	<polygon fill-rule="evenodd" clip-rule="evenodd" fill="#C8C9D2" points="486,446.6 475.2,452.8 476.8,455.6 487.7,449.4 
		486,446.6 	"/>
	<polygon fill-rule="evenodd" clip-rule="evenodd" fill="#C8C9D2" points="488.2,450.4 477.4,456.6 479,459.4 489.8,453.2 
		488.2,450.4 	"/>
	<polygon fill-rule="evenodd" clip-rule="evenodd" fill="#C8C9D2" points="494.5,455.9 481.3,463.4 482.1,464.8 495.3,457.3 
		494.5,455.9 	"/>
	<polygon fill-rule="evenodd" clip-rule="evenodd" fill="#C8C9D2" points="495.9,458.4 482.7,465.9 483.5,467.3 496.7,459.8 
		495.9,458.4 	"/>
	<polygon fill-rule="evenodd" clip-rule="evenodd" fill="#F0F1F7" points="493.8,452.6 470.8,465.8 483.6,488.2 506.7,475 
		493.8,452.6 	"/>
	<polygon fill-rule="evenodd" clip-rule="evenodd" fill="#C8C9D2" points="486.9,461.9 476.1,468 477.7,470.9 488.5,464.7 
		486.9,461.9 	"/>
	<polygon fill-rule="evenodd" clip-rule="evenodd" fill="#C8C9D2" points="489.1,465.7 478.2,471.9 479.8,474.7 490.7,468.5 
		489.1,465.7 	"/>
	<polygon fill-rule="evenodd" clip-rule="evenodd" fill="#C8C9D2" points="495.3,471.2 482.2,478.7 482.9,480.1 496.1,472.6 
		495.3,471.2 	"/>
	<polygon fill-rule="evenodd" clip-rule="evenodd" fill="#C8C9D2" points="496.7,473.7 483.6,481.2 484.4,482.6 497.5,475.1 
		496.7,473.7 	"/>
	<polygon fill-rule="evenodd" clip-rule="evenodd" fill="#F0F1F7" points="515.5,407.6 492.4,420.8 505.3,443.2 528.3,430.1 
		515.5,407.6 	"/>
	<polygon fill-rule="evenodd" clip-rule="evenodd" fill="#C8C9D2" points="508.5,416.9 497.7,423.1 499.3,425.9 510.1,419.7 
		508.5,416.9 	"/>
	<polygon fill-rule="evenodd" clip-rule="evenodd" fill="#C8C9D2" points="510.7,420.7 499.9,426.9 501.5,429.7 512.3,423.5 
		510.7,420.7 	"/>
	<polygon fill-rule="evenodd" clip-rule="evenodd" fill="#C8C9D2" points="516.9,426.2 503.8,433.7 504.6,435.1 517.7,427.6 
		516.9,426.2 	"/>
	<polygon fill-rule="evenodd" clip-rule="evenodd" fill="#C8C9D2" points="518.3,428.7 505.2,436.2 506,437.6 519.1,430.1 
		518.3,428.7 	"/>
	<polygon fill-rule="evenodd" clip-rule="evenodd" fill="#018CDA" points="470.4,425.7 465.1,426.5 476,504.6 481.4,503.8 
		470.4,425.7 	"/>
	<polygon fill-rule="evenodd" clip-rule="evenodd" fill="#018CDA" points="537.5,429.3 467.1,429.3 467.1,435.3 537.5,435.3 
		537.5,429.3 	"/>
	<polygon fill-rule="evenodd" clip-rule="evenodd" fill="#018CDA" points="530.5,449.5 478.1,502 480.7,504.6 533.1,452.1 
		530.5,449.5 	"/>
	<polygon fill-rule="evenodd" clip-rule="evenodd" fill="#018CDA" points="534,434.1 474.9,493.3 477.5,495.9 536.6,436.8 
		534,434.1 	"/>
	<polygon fill-rule="evenodd" clip-rule="evenodd" fill="#018CDA" points="525.3,429.5 474,480.9 476.6,483.5 527.9,432.1 
		525.3,429.5 	"/>
	<polygon fill-rule="evenodd" clip-rule="evenodd" fill="#018CDA" points="527.8,469.2 493.2,503.9 495.8,506.6 530.5,471.8 
		527.8,469.2 	"/>
	<polygon fill-rule="evenodd" clip-rule="evenodd" fill="#018CDA" points="525.3,486 511.5,499.9 514.1,502.5 527.9,488.6 
		525.3,486 	"/>
	<polygon fill-rule="evenodd" clip-rule="evenodd" fill="#018CDA" points="508.6,431.8 472.6,470.7 475.1,473.3 511.1,434.4 
		508.6,431.8 	"/>
	<polygon fill-rule="evenodd" clip-rule="evenodd" fill="#018CDA" points="496.3,429.1 469.7,458 472.2,460.5 498.8,431.6 
		496.3,429.1 	"/>
	<polygon fill-rule="evenodd" clip-rule="evenodd" fill="#018CDA" points="480.3,432.3 469.7,443.8 472.2,446.3 482.9,434.7 
		480.3,432.3 	"/>
	<polygon fill-rule="evenodd" clip-rule="evenodd" fill="#018CDA" points="533.2,426.1 538.6,426.8 527.7,505 522.3,504.2 
		533.2,426.1 	"/>
	<polygon fill-rule="evenodd" clip-rule="evenodd" fill="#007AC5" points="527.8,498.7 476.1,498.7 476.1,507.3 527.8,507.3 
		527.8,498.7 	"/>
	<polygon fill-rule="evenodd" clip-rule="evenodd" fill="#007AC5" points="542.2,429.4 461.8,429.4 463.1,425.5 540.9,425.5 
		542.2,429.4 	"/>
	<path fill-rule="evenodd" clip-rule="evenodd" fill="#FF3F67" d="M454,367c0,0-5.5-3-3.2-8c0,0,3.3-8.7-5.4-6.7c0,0-3.1,1.4-6,8.1
		c0,0-1.2,3.3-7.8,2.2c0,0-4.9,0.5-4.2,8.4c0,0,2.5,4.6-4.1,3.6c0,0-7.3-0.3-4.7,9.5c0,0,3.8,8.6,10.7,11.5l13.3,0.2
		c0,0,7.1-1.2,9.8-5.2c0,0,1.6-4.3-1.8-7c0,0-4.5-4.5,0.7-7.6c0,0,5.5-0.3,3.7-7.4L454,367L454,367z"/>
	<g>
		<defs>
			<path id="SVGID_3_" d="M454,367c0,0-5.5-3-3.2-8c0,0,3.3-8.7-5.4-6.7c0,0-3.1,1.4-6,8.1c0,0-1.2,3.3-7.8,2.2c0,0-4.9,0.5-4.2,8.4
				c0,0,2.5,4.6-4.1,3.6c0,0-7.3-0.3-4.7,9.5c0,0,3.8,8.6,10.7,11.5l13.3,0.2c0,0,7.1-1.2,9.8-5.2c0,0,1.6-4.3-1.8-7
				c0,0-4.5-4.5,0.7-7.6c0,0,5.5-0.3,3.7-7.4L454,367L454,367z"/>
		</defs>
		<clipPath id="SVGID_4_">
			<use xlink:href="#SVGID_3_"  overflow="visible"/>
		</clipPath>
		<path clip-path="url(#SVGID_4_)" fill-rule="evenodd" clip-rule="evenodd" fill="#FFFFFF" d="M448.9,352c0,0-16.7,34.4-15.7,46.5
			C433.2,398.5,440.2,370.8,448.9,352L448.9,352z"/>
		<path clip-path="url(#SVGID_4_)" fill-rule="evenodd" clip-rule="evenodd" fill="#FFFFFF" d="M436.8,386.6c0,0,5.1,3.8,12.1-3.6
			C448.9,383.1,441.6,389.2,436.8,386.6L436.8,386.6z"/>
		<path clip-path="url(#SVGID_4_)" fill-rule="evenodd" clip-rule="evenodd" fill="#FFFFFF" d="M441,372.9c0,0,3.8,2.4,10.8-3
			C451.8,369.9,445.5,374.2,441,372.9L441,372.9z"/>
		<path clip-path="url(#SVGID_4_)" fill-rule="evenodd" clip-rule="evenodd" fill="#FFFFFF" d="M444.8,361.8c0,0,4.3-1.1,5.5-3.8
			C450.4,357.9,449.3,361.4,444.8,361.8L444.8,361.8z"/>
		<path clip-path="url(#SVGID_4_)" fill-rule="evenodd" clip-rule="evenodd" fill="#FFFFFF" d="M442.8,367c0,0-3-0.8-3.6-5.3
			C439.3,361.8,439.2,366.5,442.8,367L442.8,367z"/>
	</g>
	<path fill-rule="evenodd" clip-rule="evenodd" fill="#FF8EA2" d="M403.9,360.9c0,0,6.8-3.4,4.2-9.5c0,0-3.6-10.7,6.9-7.8
		c0,0,3.7,1.8,6.8,10c0,0,1.3,4.1,9.3,3c0,0,5.9,0.8,4.6,10.3c0,0-3.3,5.4,4.7,4.6c0,0,8.8,0,5.2,11.7c0,0-5.1,10.2-13.4,13.3
		l-16-0.4c0,0-9.7-2.9-11.4-6.6c-0.3,0-2.3-5.3,2.4-8.5c0,0,5.6-5.1-0.5-9.1c-0.1-0.3-7.3-3.1-4.1-9.2
		C403.1,361.7,403.2,361.7,403.9,360.9L403.9,360.9z"/>
	<g>
		<defs>
			<path id="SVGID_5_" d="M403.9,360.9c0,0,6.8-3.4,4.2-9.5c0,0-3.6-10.7,6.9-7.8c0,0,3.7,1.8,6.8,10c0,0,1.3,4.1,9.3,3
				c0,0,5.9,0.8,4.6,10.3c0,0-3.3,5.4,4.7,4.6c0,0,8.8,0,5.2,11.7c0,0-5.1,10.2-13.4,13.3l-16-0.4c0,0-9.7-2.9-11.4-6.6
				c-0.3,0-2.3-5.3,2.4-8.5c0,0,5.6-5.1-0.5-9.1c-0.1-0.3-7.3-3.1-4.1-9.2C403.1,361.7,403.2,361.7,403.9,360.9L403.9,360.9z"/>
		</defs>
		<clipPath id="SVGID_6_">
			<use xlink:href="#SVGID_5_"  overflow="visible"/>
		</clipPath>
		<path clip-path="url(#SVGID_6_)" fill-rule="evenodd" clip-rule="evenodd" fill="#FFFFFF" d="M409.3,343.2
			c0,0,18.4,32.4,20.7,58.5C429.9,401.6,425.7,376,409.3,343.2L409.3,343.2z"/>
		<path clip-path="url(#SVGID_6_)" fill-rule="evenodd" clip-rule="evenodd" fill="#FFFFFF" d="M428.2,391c0,0,9.5-3.9,8.4-17
			C436.6,374,437.8,384.5,428.2,391L428.2,391z"/>
		<path clip-path="url(#SVGID_6_)" fill-rule="evenodd" clip-rule="evenodd" fill="#FFFFFF" d="M425.6,382.5c0,0-5.1,7.2-16.3-1.5
			C409.3,380.9,418.5,388.5,425.6,382.5L425.6,382.5z"/>
		<path clip-path="url(#SVGID_6_)" fill-rule="evenodd" clip-rule="evenodd" fill="#FFFFFF" d="M421.2,369.4c0,0-5.6,6.8-15.7-3.8
			C405.5,365.6,414.2,374.9,421.2,369.4L421.2,369.4z"/>
		<path clip-path="url(#SVGID_6_)" fill-rule="evenodd" clip-rule="evenodd" fill="#FFFFFF" d="M415.6,357.5c0,0-3.5,2-6.4-2.1
			C409.3,355.4,411.8,358.5,415.6,357.5L415.6,357.5z"/>
		<path clip-path="url(#SVGID_6_)" fill-rule="evenodd" clip-rule="evenodd" fill="#FFFFFF" d="M424.2,377.3c0,0,5.9-2.7,5.1-15.7
			C429.2,361.6,429.7,371.5,424.2,377.3L424.2,377.3z"/>
		<path clip-path="url(#SVGID_6_)" fill-rule="evenodd" clip-rule="evenodd" fill="#FFFFFF" d="M418,361.6c0,0,2.7-4.4,0-12.3
			C418,349.3,420,355.2,418,361.6L418,361.6z"/>
		<path clip-path="url(#SVGID_6_)" fill-rule="evenodd" clip-rule="evenodd" fill="#FF8096" d="M412.3,341.2
			c-0.9,0.9-3.1,2.5-3.6,3.9c-1,3.3,0.5,6.5,1.5,9.2c0.4,1.2-1.4,3.8-1.9,4.8c-1.3,2.9-5,3.8-4.4,7.5c0.1,0.7,0.9,1.4,1.3,1.9
			c0.6,0.7,1,1.7,1.7,2.2c1.6,1.1,3.1,1.5,3.5,3.6c0.9,4.7-4.7,7.8-4.1,12.3c1,7,14.5,7.6,10.5,15.7c-0.4,0.8-1,1.6-1.6,2.2
			c-6.3,5.6-16,2.4-22.3-1c-3.8-2.1-6.8-3.8-9.1-7.7c-3.4-5.8-2.9-14.2-1.9-20.6c2-12.3,7.3-25.1,18-32.4c2.4-1.7,4.9-2.5,7.8-3.1
			c0.9-0.2,2.2-0.7,3.1-0.4c0.8,0.3,1.5,2.3,1.6,3.1c0.1,0.4-0.4,1.7-0.1,1.4"/>
	</g>
	<path fill-rule="evenodd" clip-rule="evenodd" fill="#018CDA" d="M446.4,395.7l-34.2,0l2.7,23.7c0,0,0.3,5.8,4.4,6.3l20.3,0.1
		c0,0,3.9,0.4,4.3-7.1L446.4,395.7L446.4,395.7z"/>
	<g>
		<defs>
			<path id="SVGID_7_" d="M446.4,395.7l-34.2,0l2.7,23.7c0,0,0.3,5.8,4.4,6.3l20.3,0.1c0,0,3.9,0.4,4.3-7.1L446.4,395.7L446.4,395.7
				z"/>
		</defs>
		<clipPath id="SVGID_8_">
			<use xlink:href="#SVGID_7_"  overflow="visible"/>
		</clipPath>
		<path clip-path="url(#SVGID_8_)" fill-rule="evenodd" clip-rule="evenodd" fill="#007AC5" d="M443.6,383.7
			c-1.1,13-1.3,25.7-4.4,38.4c-1.2,5.2-4.3,6.7-8.3,9.4c-0.3,0.2-1.2,0.8-0.9,1.3c1.3,2.1,11.4,0.9,13.2,0.9
			c16.8,0,23.2-7.7,22.1-26.4c-0.3-5-2.3-15.4-7.8-17.6c-0.2-0.1-0.4-0.1-0.6-0.2c-0.6-0.2-0.5-0.1-1.1-0.2c-4.8-0.2-9.3-2.3-14-2.5
			c-0.3,0-2.8,0-2.8-0.2"/>
	</g>
	<path fill-rule="evenodd" clip-rule="evenodd" fill="#F8F8FF" d="M230.4,197c0-0.7-0.6-1.3-1.3-1.3H92c-0.7,0-1.3,0.6-1.3,1.3v61.3
		c0,0.7,0.6,1.3,1.3,1.3h137.1c0.7,0,1.3-0.6,1.3-1.3V197L230.4,197z"/>
	<polygon fill-rule="evenodd" clip-rule="evenodd" fill="#EAEBFF" points="225.3,213.4 155.5,213.4 155.5,215.1 225.3,215.1 
		225.3,213.4 	"/>
	<polygon fill-rule="evenodd" clip-rule="evenodd" fill="#EAEBFF" points="225.3,219.9 155.5,219.9 155.5,221.7 225.3,221.7 
		225.3,219.9 	"/>
	<polygon fill-rule="evenodd" clip-rule="evenodd" fill="#EAEBFF" points="225.3,226.4 155.5,226.4 155.5,228.1 225.3,228.1 
		225.3,226.4 	"/>
	<polygon fill-rule="evenodd" clip-rule="evenodd" fill="#EAEBFF" points="225.3,233.2 155.5,233.2 155.5,234.9 225.3,234.9 
		225.3,233.2 	"/>
	<polygon fill-rule="evenodd" clip-rule="evenodd" fill="#EAEBFF" points="225.3,240 155.5,240 155.5,241.8 225.3,241.8 225.3,240 	
		"/>
	<path fill-rule="evenodd" clip-rule="evenodd" fill="#8682F8" d="M124,202.2c13.8,0,25,11.2,25,25c0,13.8-11.2,25-25,25
		c-13.8,0-25-11.2-25-25C98.9,213.4,110.1,202.2,124,202.2L124,202.2z"/>
	<g>
		<defs>
			<path id="SVGID_9_" d="M124,202.2c13.8,0,25,11.2,25,25c0,13.8-11.2,25-25,25c-13.8,0-25-11.2-25-25
				C98.9,213.4,110.1,202.2,124,202.2L124,202.2z"/>
		</defs>
		<clipPath id="SVGID_10_">
			<use xlink:href="#SVGID_9_"  overflow="visible"/>
		</clipPath>
		<polygon clip-path="url(#SVGID_10_)" fill-rule="evenodd" clip-rule="evenodd" fill="#B1B2FF" points="124,227.6 90.8,227.6 
			98.9,195.7 124,195.7 124,227.6 		"/>
	</g>
	<path fill-rule="evenodd" clip-rule="evenodd" fill="#B1B2FF" d="M434.8,295.2c0,0,17.2-26.7,36.1-9.2c0,0,24.3,29,52.1,0
		c0,0,12.7-8,17.7,28.5l-107.6,0.6L434.8,295.2L434.8,295.2z"/>
	<path fill-rule="evenodd" clip-rule="evenodd" fill="#E2E3FE" d="M428.5,313.9c0,0,6.1-52.5,31.8-16.3c0,0,12.7,15.4,15.5,0
		c0,0,19.5-46,51.1,0c0,0,7.4,10.4,7.5,17.5L428.5,313.9L428.5,313.9z"/>
	<path fill-rule="evenodd" clip-rule="evenodd" fill="#E2E3FE" d="M428.5,313.9c0,0,6.1-52.5,31.8-16.3c0,0,12.7,15.4,15.5,0
		c0,0,19.5-46,51.1,0c0,0,7.4,10.4,7.5,17.5L428.5,313.9L428.5,313.9z"/>
	<polygon fill-rule="evenodd" clip-rule="evenodd" fill="#B1B2FF" points="544.1,313.9 427.6,313.9 427.6,315.6 544.1,315.6 
		544.1,313.9 	"/>
	<polygon fill-rule="evenodd" clip-rule="evenodd" fill="#B1B2FF" points="429.4,256.4 427.6,256.4 427.6,315.1 429.4,315.1 
		429.4,256.4 	"/>
	<path fill-rule="evenodd" clip-rule="evenodd" fill="#8682F8" d="M387.8,56.8c0-8.5-6.9-15.4-15.4-15.4H218
		c-8.5,0-15.4,6.9-15.4,15.4v314.6c0,8.5,6.9,15.4,15.4,15.4h154.4c8.5,0,15.4-6.9,15.4-15.4V56.8L387.8,56.8z"/>
	<path fill-rule="evenodd" clip-rule="evenodd" fill="#EAEBFF" d="M381.6,66.4c0-1.9-1.5-3.4-3.4-3.4H213c-1.9,0-3.4,1.5-3.4,3.4
		v266.5c0,1.9,1.5,3.4,3.4,3.4h165.2c1.9,0,3.4-1.5,3.4-3.4V66.4L381.6,66.4z"/>
	<path fill-rule="evenodd" clip-rule="evenodd" fill="#F8F8FF" d="M334.1,52.9c0-0.6-0.5-1.1-1.1-1.1h-81.6c-0.6,0-1.1,0.5-1.1,1.1
		V55c0,0.6,0.5,1.1,1.1,1.1H333c0.6,0,1.1-0.5,1.1-1.1V52.9L334.1,52.9z"/>
	<path fill-rule="evenodd" clip-rule="evenodd" fill="#F8F8FF" d="M295.8,342.9c10.6,0,19.2,8.6,19.2,19.2
		c0,10.6-8.6,19.2-19.2,19.2s-19.2-8.6-19.2-19.2C276.6,351.6,285.2,342.9,295.8,342.9L295.8,342.9z"/>
	<path fill-rule="evenodd" clip-rule="evenodd" fill="#E2E3FE" d="M369.9,287c0-2-1.6-3.7-3.7-3.7H227.2c-2,0-3.7,1.6-3.7,3.7v33.5
		c0,2,1.6,3.6,3.7,3.6h139.1c2,0,3.7-1.6,3.7-3.6V287L369.9,287z"/>
	<path fill-rule="evenodd" clip-rule="evenodd" fill="#E2E3FE" d="M369.9,208.1c0-3.2-2.6-5.7-5.7-5.7H229.3c-3.2,0-5.7,2.6-5.7,5.7
		v52.5c0,3.2,2.6,5.7,5.7,5.7h134.9c3.2,0,5.7-2.6,5.7-5.7V208.1L369.9,208.1z"/>
	<path fill-rule="evenodd" clip-rule="evenodd" fill="#CED0FE" d="M368.5,152.5c0-1.9-1.6-3.5-3.5-3.5H225.7c-1.9,0-3.5,1.6-3.5,3.5
		v32.2c0,1.9,1.6,3.5,3.5,3.5H365c1.9,0,3.5-1.6,3.5-3.5V152.5L368.5,152.5z"/>
	<path fill-rule="evenodd" clip-rule="evenodd" fill="#F8F8FF" d="M368.3,81.6c0-3.1-2.5-5.7-5.7-5.7h-135c-3.1,0-5.7,2.5-5.7,5.7
		v52.1c0,3.1,2.5,5.7,5.7,5.7h135c3.1,0,5.7-2.5,5.7-5.7V81.6L368.3,81.6z"/>
	<path fill-rule="evenodd" clip-rule="evenodd" fill="#B1B2FF" d="M540.9,92.6c0-1.4-1.2-2.6-2.6-2.6H331.8c-1.4,0-2.6,1.2-2.6,2.6
		v126c0,1.4,1.2,2.6,2.6,2.6h206.5c1.4,0,2.6-1.2,2.6-2.6V92.6L540.9,92.6z"/>
	<g>
		<defs>
			<path id="SVGID_11_" d="M540.9,92.6c0-1.4-1.2-2.6-2.6-2.6H331.8c-1.4,0-2.6,1.2-2.6,2.6v126c0,1.4,1.2,2.6,2.6,2.6h206.5
				c1.4,0,2.6-1.2,2.6-2.6V92.6L540.9,92.6z"/>
		</defs>
		<clipPath id="SVGID_12_">
			<use xlink:href="#SVGID_11_"  overflow="visible"/>
		</clipPath>
		<polygon clip-path="url(#SVGID_12_)" fill-rule="evenodd" clip-rule="evenodd" fill="#8682F8" points="566.2,56.7 418.7,258.4 
			552.3,253.6 608.3,209.5 566.2,56.7 		"/>
	</g>
	<path fill-rule="evenodd" clip-rule="evenodd" fill="#B1B2FF" d="M365.9,120.9c0-1-0.8-1.7-1.7-1.7c-1,0-1.7,0.8-1.7,1.7v85.6
		c0,1,0.8,1.7,1.7,1.7c1,0,1.7-0.8,1.7-1.7V120.9L365.9,120.9z"/>
	<path fill-rule="evenodd" clip-rule="evenodd" fill="#DDDEFD" d="M375.8,175.9c0-1-0.8-1.7-1.7-1.7c-1,0-1.7,0.8-1.7,1.7v30.5
		c0,1,0.8,1.7,1.7,1.7c1,0,1.7-0.8,1.7-1.7V175.9L375.8,175.9z"/>
	<path fill-rule="evenodd" clip-rule="evenodd" fill="#B1B2FF" d="M385.3,166.2c0-1-0.8-1.7-1.7-1.7c-1,0-1.7,0.8-1.7,1.7v40.3
		c0,1,0.8,1.7,1.7,1.7c1,0,1.7-0.8,1.7-1.7V166.2L385.3,166.2z"/>
	<path fill-rule="evenodd" clip-rule="evenodd" fill="#B1B2FF" d="M396.5,151.6c0-1-0.8-1.7-1.7-1.7c-1,0-1.7,0.8-1.7,1.7v54.8
		c0,1,0.8,1.7,1.7,1.7c1,0,1.7-0.8,1.7-1.7V151.6L396.5,151.6z"/>
	<path fill-rule="evenodd" clip-rule="evenodd" fill="#DDDEFD" d="M406.4,156.5c0-1-0.8-1.7-1.7-1.7c-1,0-1.7,0.8-1.7,1.7v50
		c0,1,0.8,1.7,1.7,1.7c1,0,1.7-0.8,1.7-1.7V156.5L406.4,156.5z"/>
	<path fill-rule="evenodd" clip-rule="evenodd" fill="#EAEBFB" d="M417.1,146.8c0-1-0.8-1.7-1.7-1.7c-1,0-1.7,0.8-1.7,1.7v59.7
		c0,1,0.8,1.7,1.7,1.7c1,0,1.7-0.8,1.7-1.7V146.8L417.1,146.8z"/>
	<path fill-rule="evenodd" clip-rule="evenodd" fill="#B1B2FF" d="M426.4,190.5c0-1-0.8-1.7-1.7-1.7c-1,0-1.7,0.8-1.7,1.7v16
		c0,1,0.8,1.7,1.7,1.7c1,0,1.7-0.8,1.7-1.7V190.5L426.4,190.5z"/>
	<path fill-rule="evenodd" clip-rule="evenodd" fill="#B1B2FF" d="M472.5,190.5c0-1-0.8-1.7-1.7-1.7s-1.7,0.8-1.7,1.7v16
		c0,1,0.8,1.7,1.7,1.7s1.7-0.8,1.7-1.7V190.5L472.5,190.5z"/>
	<path fill-rule="evenodd" clip-rule="evenodd" fill="#EAEBFB" d="M436.5,180.8c0-1-0.8-1.7-1.7-1.7c-1,0-1.7,0.8-1.7,1.7v25.7
		c0,1,0.8,1.7,1.7,1.7c1,0,1.7-0.8,1.7-1.7V180.8L436.5,180.8z"/>
	<path fill-rule="evenodd" clip-rule="evenodd" fill="#DDDEFD" d="M482.6,180.8c0-1-0.8-1.7-1.7-1.7c-1,0-1.7,0.8-1.7,1.7v25.7
		c0,1,0.8,1.7,1.7,1.7c1,0,1.7-0.8,1.7-1.7V180.8L482.6,180.8z"/>
	<path fill-rule="evenodd" clip-rule="evenodd" fill="#B1B2FF" d="M444.5,175.9c0-1-0.8-1.7-1.7-1.7c-1,0-1.7,0.8-1.7,1.7v30.5
		c0,1,0.8,1.7,1.7,1.7c1,0,1.7-0.8,1.7-1.7V175.9L444.5,175.9z"/>
	<path fill-rule="evenodd" clip-rule="evenodd" fill="#B1B2FF" d="M490.7,175.9c0-1-0.8-1.7-1.7-1.7c-1,0-1.7,0.8-1.7,1.7v30.5
		c0,1,0.8,1.7,1.7,1.7c1,0,1.7-0.8,1.7-1.7V175.9L490.7,175.9z"/>
	<path fill-rule="evenodd" clip-rule="evenodd" fill="#EAEBFB" d="M454.6,200.2c0-1-0.8-1.7-1.7-1.7c-1,0-1.7,0.8-1.7,1.7v6.3
		c0,1,0.8,1.7,1.7,1.7c1,0,1.7-0.8,1.7-1.7V200.2L454.6,200.2z"/>
	<path fill-rule="evenodd" clip-rule="evenodd" fill="#B1B2FF" d="M500.7,200.2c0-1-0.8-1.7-1.7-1.7c-1,0-1.7,0.8-1.7,1.7v6.3
		c0,1,0.8,1.7,1.7,1.7c1,0,1.7-0.8,1.7-1.7V200.2L500.7,200.2z"/>
	<path fill-rule="evenodd" clip-rule="evenodd" fill="#DDDEFD" d="M463,146.8c0-1-0.8-1.7-1.7-1.7c-1,0-1.7,0.8-1.7,1.7v59.7
		c0,1,0.8,1.7,1.7,1.7c1,0,1.7-0.8,1.7-1.7V146.8L463,146.8z"/>
	<path fill-rule="evenodd" clip-rule="evenodd" fill="#DDDEFD" d="M509.1,146.8c0-1-0.8-1.7-1.7-1.7c-1,0-1.7,0.8-1.7,1.7v59.7
		c0,1,0.8,1.7,1.7,1.7c1,0,1.7-0.8,1.7-1.7V146.8L509.1,146.8z"/>
	<polygon fill-rule="evenodd" clip-rule="evenodd" fill="#8682F8" points="417.3,137.5 366.7,109.8 366.2,110.6 416.9,138.3 
		417.3,137.5 	"/>
	<polygon fill-rule="evenodd" clip-rule="evenodd" fill="#8682F8" points="457.3,111.8 417.3,137.5 417.8,138.3 457.8,112.6 
		457.3,111.8 	"/>
	<polygon fill-rule="evenodd" clip-rule="evenodd" fill="#8682F8" points="502.8,126.4 457.5,112.2 457.2,113.1 502.6,127.3 
		502.8,126.4 	"/>
	<path fill-rule="evenodd" clip-rule="evenodd" fill="#8682F8" d="M417.3,135.4c1,0,1.8,0.8,1.8,1.8c0,1-0.8,1.8-1.8,1.8
		c-1,0-1.8-0.8-1.8-1.8C415.5,136.2,416.3,135.4,417.3,135.4L417.3,135.4z"/>
	<path fill-rule="evenodd" clip-rule="evenodd" fill="#8682F8" d="M456.9,110.8c1,0,1.8,0.8,1.8,1.8c0,1-0.8,1.8-1.8,1.8
		c-1,0-1.8-0.8-1.8-1.8C455.2,111.6,456,110.8,456.9,110.8L456.9,110.8z"/>
	<path fill-rule="evenodd" clip-rule="evenodd" fill="#8682F8" d="M503.1,125c1,0,1.8,0.8,1.8,1.8c0,1-0.8,1.8-1.8,1.8
		c-1,0-1.8-0.8-1.8-1.8C501.4,125.8,502.2,125,503.1,125L503.1,125z"/>
	<path fill-rule="evenodd" clip-rule="evenodd" fill="#8682F8" d="M366.6,108c1,0,1.8,0.8,1.8,1.8c0,1-0.8,1.8-1.8,1.8
		c-1,0-1.8-0.8-1.8-1.8C364.8,108.8,365.6,108,366.6,108L366.6,108z"/>
	<path fill-rule="evenodd" clip-rule="evenodd" fill="#FCA68E" d="M163.4,523.1l-0.1,10.1c0,0,5.6,7.4,14.2,1.5l1.1-10.2l-9-5.5
		L163.4,523.1L163.4,523.1z"/>
	<path fill-rule="evenodd" clip-rule="evenodd" fill="#FCA68E" d="M130.7,539.1l-0.2,6c0,0,10.1,2.6,13.1-3.1l0.3-9.2l-6.6-4.3
		l-5.4,9.1"/>
	<path fill-rule="evenodd" clip-rule="evenodd" fill="#FF7700" d="M163.9,531.1c0,0-10.8,7.1-1.6,17.6c0,0,38.4,8.3,39.1,0.3
		c0,0,7.7-6.1-23.8-14.4C177.6,534.6,164.8,533.4,163.9,531.1L163.9,531.1z"/>
	<path fill-rule="evenodd" clip-rule="evenodd" fill="#FF7700" d="M145.3,537.3c0,0,4.4,8.2,2.5,14.2c0,0-22.2,29.8-33.7,18.5
		c0,0-7.2-4.8,14.4-27.9C132.8,542.9,143.7,542.2,145.3,537.3L145.3,537.3z"/>
	<path fill-rule="evenodd" clip-rule="evenodd" fill="#4561FF" d="M117,344.6c0,0-5.2,65.9,5,107.8l5.4,85.6c0,0,10.4,2.4,17-5
		l2.5-78.7l4.3-41.4l7.4,45.3l1.4,65.9c0,0,13.4,8.7,20.4,0.2c0,0,5.5-69.5,4.4-80.9l-1.3-74.3c0,0-3.6-5.4-6.9-6.5
		c0,0-1.8-1.1-6.5-18.5l-27.5-4.1l-28,2.5L117,344.6L117,344.6z"/>
	<g>
		<defs>
			<path id="SVGID_13_" d="M117,344.6c0,0-5.2,65.9,5,107.8l5.4,85.6c0,0,10.4,2.4,17-5l2.5-78.7l4.3-41.4l7.4,45.3l1.4,65.9
				c0,0,13.4,8.7,20.4,0.2c0,0,5.5-69.5,4.4-80.9l-1.3-74.3c0,0-3.6-5.4-6.9-6.5c0,0-1.8-1.1-6.5-18.5l-27.5-4.1l-28,2.5L117,344.6
				L117,344.6z"/>
		</defs>
		<clipPath id="SVGID_14_">
			<use xlink:href="#SVGID_13_"  overflow="visible"/>
		</clipPath>
		<path clip-path="url(#SVGID_14_)" fill-rule="evenodd" clip-rule="evenodd" fill="#4759DD" d="M164.5,528.1l-2.7-73.5
			c0,0-12.3-66.4-10.8-83.3c0,0-1.6,27.6,0.6,53.3l2.2,44.3l-0.4,50.3L164.5,528.1L164.5,528.1z"/>
		<path clip-path="url(#SVGID_14_)" fill-rule="evenodd" clip-rule="evenodd" fill="#4759DD" d="M116.9,348.4c0,0-11.9,3.5,52.8,6.9
			c0,0,8.8,21,21.9,19.3l-4.1-22.7l-29.5-14.1L116.9,348.4L116.9,348.4z"/>
		<path clip-path="url(#SVGID_14_)" fill-rule="evenodd" clip-rule="evenodd" fill="#4759DD" d="M152.2,407c0,0-6.8,33.7-8,46.5
			l-1,81.7l5.1,0.5l6.7-80.6L152.2,407L152.2,407z"/>
	</g>
	<path fill-rule="evenodd" clip-rule="evenodd" fill="#FECDC0" d="M132.2,228c0,0-1.3,5.4,0.5,7.2c0,0,0.8,3,2.1,3.9
		c0,0,2.8,11.7-0.5,19l0.3,2.7l8,5.1l5.4,2.6l7.2-0.6l-1.1-2.7c0,0,0.4-9,3.7-11c0,0,7.1-5.3,7.4-15.4c0,0,0.6-6.5,1.5-8.2l1.7-10.7
		l-9.7-9.6l-12.9,2L132.2,228L132.2,228z"/>
	<g>
		<defs>
			<path id="SVGID_15_" d="M132.2,228c0,0-1.3,5.4,0.5,7.2c0,0,0.8,3,2.1,3.9c0,0,2.8,11.7-0.5,19l0.3,2.7l8,5.1l5.4,2.6l7.2-0.6
				l-1.1-2.7c0,0,0.4-9,3.7-11c0,0,7.1-5.3,7.4-15.4c0,0,0.6-6.5,1.5-8.2l1.7-10.7l-9.7-9.6l-12.9,2L132.2,228L132.2,228z"/>
		</defs>
		<clipPath id="SVGID_16_">
			<use xlink:href="#SVGID_15_"  overflow="visible"/>
		</clipPath>
		<path clip-path="url(#SVGID_16_)" fill-rule="evenodd" clip-rule="evenodd" fill="#FDBEAC" d="M134.8,238.9c0,0,4.1,5.7,14.5,11.5
			c0,0,5.6,5.1,11.5,1.7l-2,3.2l-17.8,3.6l-5.5,3.1l-7.9-1.9l0.5-7.7L134.8,238.9L134.8,238.9z"/>
	</g>
	<path fill-rule="evenodd" clip-rule="evenodd" fill="#6D3405" d="M165.2,208.5c0,0-8-11.3-16.7-4.1c0,0-1,2.2-5.8,0.9
		c0,0-18.4,1.5-10.9,24.7c0,0,1.7-5.1,4.5-2.3c0,0,3.4,2.7,3.4,6.4c0,0,5.2-21.1,15.5-19.5c0,0,8.4,0.2,10.8,7.2c0,0,0.4,5.3,0,12.1
		c0.1-0.2,3.4-1.9,6.1-8.9c0,0,1.8-11.3-5.3-12.6L165.2,208.5L165.2,208.5z"/>
	<path fill-rule="evenodd" clip-rule="evenodd" fill="#FECDC0" d="M173.5,343.3c0,0,1.2,10.4,1.6,15.2c0.4,4.7,0,2.9,0.7,3.6
		c0,0,4.9,3.7,7.6,8.2c0,0-0.7-18.6,1.1-29.4l-9.2,0.2L173.5,343.3L173.5,343.3z"/>
	<path fill-rule="evenodd" clip-rule="evenodd" fill="#4759DD" d="M107,347.4c0,0,5.6,31.3,6.9,33c0,0,0.1,4-1.2,10.6
		c0,0-0.1,5.1,1.1,8.8c0,0,0.8,0.9,1.8,1.4c0,0,0,2.6,2.8,3.5c0,0,1.5,2.6,4.5,2.7c0,0,1.4,0.1,3.7,0.8c0,0,1,0-0.3-3.3l-0.6-2.1
		c0,0,1.2,1.2,1.9-1.6c0,0,1.1-2.7,1.3-4.4c0,0-0.2-3.9,0.2-5.3c0,0-2.1-5.2-3.2-7.8c0,0-1.7-2.1-2.1-5.3c0,0-5.6-15.9-2.5-30.5
		l-5.5-1.6l-3.6-0.5L107,347.4L107,347.4z"/>
	<path fill-rule="evenodd" clip-rule="evenodd" fill="#FECDC0" d="M105.7,345.2c0,0,5.6,31.3,6.9,33c0,0,0.1,4-1.2,10.6
		c0,0-0.1,5.1,1.1,8.8c0,0,0.8,0.9,1.8,1.4c0,0,0,2.6,2.8,3.5c0,0,1.5,2.6,4.5,2.7c0,0,1.4,0.1,3.7,0.8c0,0,1,0-0.3-3.3l-0.6-2.1
		c0,0,1.2,1.2,1.9-1.6c0,0,1.1-2.7,1.3-4.4c0,0-0.2-3.9,0.2-5.3c0,0-2.1-5.2-3.2-7.8c0,0-1.7-2.1-2.1-5.3c0,0-5.6-15.9-2.5-30.5
		l-5.5-1.6l-3.6-0.5L105.7,345.2L105.7,345.2z"/>
	<g>
		<defs>
			<path id="SVGID_17_" d="M105.7,345.2c0,0,5.6,31.3,6.9,33c0,0,0.1,4-1.2,10.6c0,0-0.1,5.1,1.1,8.8c0,0,0.8,0.9,1.8,1.4
				c0,0,0,2.6,2.8,3.5c0,0,1.5,2.6,4.5,2.7c0,0,1.4,0.1,3.7,0.8c0,0,1,0-0.3-3.3l-0.6-2.1c0,0,1.2,1.2,1.9-1.6c0,0,1.1-2.7,1.3-4.4
				c0,0-0.2-3.9,0.2-5.3c0,0-2.1-5.2-3.2-7.8c0,0-1.7-2.1-2.1-5.3c0,0-5.6-15.9-2.5-30.5l-5.5-1.6l-3.6-0.5L105.7,345.2L105.7,345.2
				z"/>
		</defs>
		<clipPath id="SVGID_18_">
			<use xlink:href="#SVGID_17_"  overflow="visible"/>
		</clipPath>
		<path clip-path="url(#SVGID_18_)" fill-rule="evenodd" clip-rule="evenodd" fill="#FDBEAC" d="M121,346.2c0,0-13.3-0.4-13.7,0.8
			c0,0,3.9,28.8,6.6,30.5c0,0-3.6,16.2-0.1,19.5c0,0,2.7,7.4,12.4,8.6l0.4,1.4c0,0-15.6,1.1-16.9,0c-1.3-1.1-7.6-24.6-7.6-29.8
			c0-5.1-6.7-32.8-5.3-33.7c1.3-0.9,14.9-4.6,14.9-4.6L121,346.2L121,346.2z"/>
		<path clip-path="url(#SVGID_18_)" fill-rule="evenodd" clip-rule="evenodd" fill="#FDBEAC" d="M125.1,388.7c0,0-1.7,9.4-0.5,11.2
			C124.6,400,122.3,398.2,125.1,388.7L125.1,388.7z"/>
		<path clip-path="url(#SVGID_18_)" fill-rule="evenodd" clip-rule="evenodd" fill="#FDBEAC" d="M120.2,396.3c0,0-0.6,8.2,4.2,9.4
			c0,0-3.4,0.2-4.7-5.2l-0.4-4.7L120.2,396.3L120.2,396.3z"/>
		<path clip-path="url(#SVGID_18_)" fill-rule="evenodd" clip-rule="evenodd" fill="#FDBEAC" d="M117,392c0,0-0.6,9.3,0.7,12.1
			C117.7,404.1,115.8,400.2,117,392L117,392z"/>
		<path clip-path="url(#SVGID_18_)" fill-rule="evenodd" clip-rule="evenodd" fill="#FDBEAC" d="M114.1,390.8c0,0-0.3,7.1,0.5,9.5
			C114.6,400.3,113.2,400.1,114.1,390.8L114.1,390.8z"/>
	</g>
	<path fill-rule="evenodd" clip-rule="evenodd" fill="#FF7700" d="M134.5,257c0,0-1.5,0.8-2.8,4.8c0,0-17,5.8-21.2,8.3
		c-4.2,2.5-10.3,22.3-9,58.3L104,346c0,0,15-2.1,15.7,1.2l-0.3,2.6c0,0,3.9,1.6,13.5-1.2c0,0,33.6,3.6,39.5,1.5c0,0-0.6-4.1,0.7-6
		c0,0,11.8-0.6,13-1.5c0,0-2.6-40.7-5.8-57.7c0,0-1.1-10.4-5.2-11.7c0,0-7.2-4.1-19-8.3c0.7-0.1-1.1-0.2-2-2.9c0,0,1.7,2.8-0.5,3.1
		l-4,1.5C149.6,266.7,131.4,260,134.5,257L134.5,257z"/>
	<g>
		<defs>
			<path id="SVGID_19_" d="M134.5,257c0,0-1.5,0.8-2.8,4.8c0,0-17,5.8-21.2,8.3c-4.2,2.5-10.3,22.3-9,58.3L104,346
				c0,0,15-2.1,15.7,1.2l-0.3,2.6c0,0,3.9,1.6,13.5-1.2c0,0,33.6,3.6,39.5,1.5c0,0-0.6-4.1,0.7-6c0,0,11.8-0.6,13-1.5
				c0,0-2.6-40.7-5.8-57.7c0,0-1.1-10.4-5.2-11.7c0,0-7.2-4.1-19-8.3c0.7-0.1-1.1-0.2-2-2.9c0,0,1.7,2.8-0.5,3.1l-4,1.5
				C149.6,266.7,131.4,260,134.5,257L134.5,257z"/>
		</defs>
		<clipPath id="SVGID_20_">
			<use xlink:href="#SVGID_19_"  overflow="visible"/>
		</clipPath>
		<path clip-path="url(#SVGID_20_)" fill-rule="evenodd" clip-rule="evenodd" fill="#FF5E00" d="M133.1,262.5c0,0,6.3,6,15.2,7.3
			C148.3,269.8,140.9,270.2,133.1,262.5L133.1,262.5z"/>
		<path clip-path="url(#SVGID_20_)" fill-rule="evenodd" clip-rule="evenodd" fill="#FF5E00" d="M156,266.1c0,0-1.1,3.2-7.2,3.4
			C148.8,269.5,155.1,270,156,266.1L156,266.1z"/>
		<path clip-path="url(#SVGID_20_)" fill-rule="evenodd" clip-rule="evenodd" fill="#FF5E00" d="M148.1,270.4
			c0,0,12.7,55.1,6.9,79.8l1.6,0c0,0,4-30.4-7.7-80.7"/>
		<path clip-path="url(#SVGID_20_)" fill-rule="evenodd" clip-rule="evenodd" fill="#FF5E00" d="M108.3,271.6c0,0,12.6-8.2,15,29.3
			C123.3,300.9,122.6,263.6,108.3,271.6L108.3,271.6z"/>
		<path clip-path="url(#SVGID_20_)" fill-rule="evenodd" clip-rule="evenodd" fill="#FF5E00" d="M123.6,302.4c0,0,1.9,23.9-4.9,32
			c0,0,2.4,8.4,1.7,12.9c0,0-1-10-2.7-14.6C117.7,332.7,123.9,333,123.6,302.4L123.6,302.4z"/>
		<path clip-path="url(#SVGID_20_)" fill-rule="evenodd" clip-rule="evenodd" fill="#FF5E00" d="M109.7,270c0,0-10.8,35.1-4.9,77.3
			l-6.4-0.6c0,0-5.9-60.7-3.3-63.4c2.6-2.7,14.4-14.4,14.4-14.4L109.7,270L109.7,270z"/>
		<path clip-path="url(#SVGID_20_)" fill-rule="evenodd" clip-rule="evenodd" fill="#FF5E00" d="M137,300.7c0,0-17.5,41.2-16.3,45
			c0,0,9.5-26.9,16.3-46C143.7,280.4,137,300.7,137,300.7L137,300.7z"/>
		<path clip-path="url(#SVGID_20_)" fill-rule="evenodd" clip-rule="evenodd" fill="#FF5E00" d="M176.8,287.9c0,0-3.8,25-3.8,32.8
			c0,0-1.4,19.5,0.2,23.5c0,0-4.8-7.6,3.5-57.3"/>
		<path clip-path="url(#SVGID_20_)" fill-rule="evenodd" clip-rule="evenodd" fill="#FF5E00" d="M119.8,347c0,0,0,4.3,13.1,0.5
			l40.4,2.5l0.1,2l-15.8,3.8l-38-4l-2.6-2.8L119.8,347L119.8,347z"/>
		<path clip-path="url(#SVGID_20_)" fill-rule="evenodd" clip-rule="evenodd" fill="#FF5E00" d="M159.3,265.9c0,0,15.2,7,17.4,9.8
			c0,0,7.3,11.3,7.6,65.5c0,0-5.3,1.7-11.1,2.6l0.3,2.4l15,0.7l13.4-40.6l-23.3-37.1L159.3,265.9L159.3,265.9z"/>
	</g>
</g>
</svg>
